<svg width="24" height="26" viewBox="0 0 24 26" fill="none" xmlns="http://www.w3.org/2000/svg">
<path fill-rule="evenodd" clip-rule="evenodd" d="M16.8576 0C20.9632 0 23.7212 2.81155 23.7212 6.99558V19.0044C23.7212 23.225 21.0481 25.97 16.9111 25.9961L6.86499 26C2.75932 26 0 23.1884 0 19.0044V6.99558C0 2.77368 2.67313 0.0300352 6.81015 0.00522351L16.8563 0H16.8576ZM16.8576 1.95881L6.81668 1.96404C3.77659 1.98232 1.95881 3.86278 1.95881 6.99558V19.0044C1.95881 22.1581 3.79357 24.0412 6.86369 24.0412L16.9046 24.0373C19.9447 24.019 21.7624 22.1359 21.7624 19.0044V6.99558C21.7624 3.84189 19.929 1.95881 16.8576 1.95881ZM16.6057 17.595C17.1463 17.595 17.5851 18.0338 17.5851 18.5744C17.5851 19.115 17.1463 19.5538 16.6057 19.5538H7.17723C6.6366 19.5538 6.19782 19.115 6.19782 18.5744C6.19782 18.0338 6.6366 17.595 7.17723 17.595H16.6057ZM16.6057 12.1279C17.1463 12.1279 17.5851 12.5667 17.5851 13.1073C17.5851 13.648 17.1463 14.0868 16.6057 14.0868H7.17723C6.6366 14.0868 6.19782 13.648 6.19782 13.1073C6.19782 12.5667 6.6366 12.1279 7.17723 12.1279H16.6057ZM10.7745 6.67355C11.3152 6.67355 11.7539 7.11233 11.7539 7.65296C11.7539 8.19359 11.3152 8.63237 10.7745 8.63237H7.17684C6.6362 8.63237 6.19743 8.19359 6.19743 7.65296C6.19743 7.11233 6.6362 6.67355 7.17684 6.67355H10.7745Z" fill="#57B894"/>
</svg>
