<svg width="25" height="26" viewBox="0 0 25 26" fill="none" xmlns="http://www.w3.org/2000/svg">
<path fill-rule="evenodd" clip-rule="evenodd" d="M17.6071 0C18.1356 0 18.5645 0.406324 18.5645 0.906973L18.5651 1.93223C20.4289 2.05328 21.9768 2.65809 23.0724 3.69815C24.2684 4.8361 24.8977 6.47228 24.8914 8.43497V19.4674C24.8914 23.4968 22.1903 26 17.8439 26H7.04745C2.70103 26 0 23.4617 0 19.3755V8.43255C0 4.63196 2.40879 2.19238 6.33732 1.93264L6.33811 0.906973C6.33811 0.406324 6.767 0 7.29547 0C7.82393 0 8.25283 0.406324 8.25283 0.906973L8.25244 1.90948H16.6491L16.6498 0.906973C16.6498 0.406324 17.0787 0 17.6071 0ZM22.9766 10.7676H1.91472V19.3755C1.91472 22.4785 3.73753 24.1861 7.04745 24.1861H17.8439C21.1538 24.1861 22.9767 22.51 22.9767 19.4674L22.9766 10.7676ZM18.1275 18.3768C18.656 18.3768 19.0849 18.7832 19.0849 19.2838C19.0849 19.7845 18.656 20.1908 18.1275 20.1908C17.5991 20.1908 17.1651 19.7845 17.1651 19.2838C17.1651 18.7832 17.5876 18.3768 18.1161 18.3768H18.1275ZM12.4632 18.3768C12.9916 18.3768 13.4205 18.7832 13.4205 19.2838C13.4205 19.7845 12.9916 20.1908 12.4632 20.1908C11.9347 20.1908 11.5007 19.7845 11.5007 19.2838C11.5007 18.7832 11.9232 18.3768 12.4517 18.3768H12.4632ZM6.78692 18.3768C7.31538 18.3768 7.74428 18.7832 7.74428 19.2838C7.74428 19.7845 7.31538 20.1908 6.78692 20.1908C6.25845 20.1908 5.82317 19.7845 5.82317 19.2838C5.82317 18.7832 6.24696 18.3768 6.77543 18.3768H6.78692ZM18.1275 13.6767C18.656 13.6767 19.0849 14.083 19.0849 14.5836C19.0849 15.0843 18.656 15.4906 18.1275 15.4906C17.5991 15.4906 17.1651 15.0843 17.1651 14.5836C17.1651 14.083 17.5876 13.6767 18.1161 13.6767H18.1275ZM12.4632 13.6767C12.9916 13.6767 13.4205 14.083 13.4205 14.5836C13.4205 15.0843 12.9916 15.4906 12.4632 15.4906C11.9347 15.4906 11.5007 15.0843 11.5007 14.5836C11.5007 14.083 11.9232 13.6767 12.4517 13.6767H12.4632ZM6.78692 13.6767C7.31538 13.6767 7.74428 14.083 7.74428 14.5836C7.74428 15.0843 7.31538 15.4906 6.78692 15.4906C6.25845 15.4906 5.82317 15.0843 5.82317 14.5836C5.82317 14.083 6.24696 13.6767 6.77543 13.6767H6.78692ZM16.6491 3.72342H8.25244L8.25283 4.88677C8.25283 5.38742 7.82393 5.79374 7.29547 5.79374C6.767 5.79374 6.33811 5.38742 6.33811 4.88677L6.33743 3.75088C3.47782 3.97846 1.91472 5.62064 1.91472 8.43255V8.95363H22.9766L22.9767 8.43255C22.9817 6.93907 22.558 5.77814 21.7168 4.98C20.9783 4.27838 19.8989 3.85935 18.5656 3.75146L18.5645 4.88677C18.5645 5.38742 18.1356 5.79374 17.6071 5.79374C17.0787 5.79374 16.6498 5.38742 16.6498 4.88677L16.6491 3.72342Z" fill="#57B894"/>
</svg>
