<svg width="27" height="26" viewBox="0 0 27 26" fill="none" xmlns="http://www.w3.org/2000/svg">
<path d="M7.58431 0H4.33389C3.18447 0 2.08213 0.456605 1.26937 1.26937C0.456605 2.08213 0 3.18447 0 4.33389L0 7.58431C0 8.73373 0.456605 9.83608 1.26937 10.6488C2.08213 11.4616 3.18447 11.9182 4.33389 11.9182H7.58431C8.73373 11.9182 9.83608 11.4616 10.6488 10.6488C11.4616 9.83608 11.9182 8.73373 11.9182 7.58431V4.33389C11.9182 3.18447 11.4616 2.08213 10.6488 1.26937C9.83608 0.456605 8.73373 0 7.58431 0V0ZM9.75126 7.58431C9.75126 8.15902 9.52296 8.71019 9.11658 9.11658C8.71019 9.52296 8.15902 9.75126 7.58431 9.75126H4.33389C3.75918 9.75126 3.20801 9.52296 2.80163 9.11658C2.39525 8.71019 2.16695 8.15902 2.16695 7.58431V4.33389C2.16695 3.75918 2.39525 3.20801 2.80163 2.80163C3.20801 2.39525 3.75918 2.16695 4.33389 2.16695H7.58431C8.15902 2.16695 8.71019 2.39525 9.11658 2.80163C9.52296 3.20801 9.75126 3.75918 9.75126 4.33389V7.58431Z" fill="#57B894"/>
<path d="M21.6698 0H18.4193C17.2699 0 16.1676 0.456606 15.3548 1.26937C14.5421 2.08213 14.0854 3.18448 14.0854 4.3339V7.58432C14.0854 8.73374 14.5421 9.83608 15.3548 10.6488C16.1676 11.4616 17.2699 11.9182 18.4193 11.9182H21.6698C22.8192 11.9182 23.9215 11.4616 24.7343 10.6488C25.5471 9.83608 26.0037 8.73374 26.0037 7.58432V4.3339C26.0037 3.18448 25.5471 2.08213 24.7343 1.26937C23.9215 0.456606 22.8192 0 21.6698 0V0ZM23.8367 7.58432C23.8367 8.15903 23.6084 8.7102 23.202 9.11658C22.7957 9.52296 22.2445 9.75127 21.6698 9.75127H18.4193C17.8446 9.75127 17.2935 9.52296 16.8871 9.11658C16.4807 8.7102 16.2524 8.15903 16.2524 7.58432V4.3339C16.2524 3.75919 16.4807 3.20801 16.8871 2.80163C17.2935 2.39525 17.8446 2.16695 18.4193 2.16695H21.6698C22.2445 2.16695 22.7957 2.39525 23.202 2.80163C23.6084 3.20801 23.8367 3.75919 23.8367 4.3339V7.58432Z" fill="#57B894"/>
<path d="M7.58432 14.082H4.3339C3.18448 14.082 2.08213 14.5386 1.26937 15.3514C0.456606 16.1642 0 17.2665 0 18.4159L0 21.6664C0 22.8158 0.456606 23.9181 1.26937 24.7309C2.08213 25.5436 3.18448 26.0003 4.3339 26.0003H7.58432C8.73374 26.0003 9.83608 25.5436 10.6488 24.7309C11.4616 23.9181 11.9182 22.8158 11.9182 21.6664V18.4159C11.9182 17.2665 11.4616 16.1642 10.6488 15.3514C9.83608 14.5386 8.73374 14.082 7.58432 14.082V14.082ZM9.75127 21.6664C9.75127 22.2411 9.52296 22.7922 9.11658 23.1986C8.7102 23.605 8.15903 23.8333 7.58432 23.8333H4.3339C3.75919 23.8333 3.20801 23.605 2.80163 23.1986C2.39525 22.7922 2.16695 22.2411 2.16695 21.6664V18.4159C2.16695 17.8412 2.39525 17.29 2.80163 16.8837C3.20801 16.4773 3.75919 16.249 4.3339 16.249H7.58432C8.15903 16.249 8.7102 16.4773 9.11658 16.8837C9.52296 17.29 9.75127 17.8412 9.75127 18.4159V21.6664Z" fill="#57B894"/>
<path d="M21.6698 14.082H18.4193C17.2699 14.082 16.1676 14.5386 15.3548 15.3514C14.5421 16.1642 14.0854 17.2665 14.0854 18.4159V21.6664C14.0854 22.8158 14.5421 23.9181 15.3548 24.7309C16.1676 25.5436 17.2699 26.0003 18.4193 26.0003H21.6698C22.8192 26.0003 23.9215 25.5436 24.7343 24.7309C25.5471 23.9181 26.0037 22.8158 26.0037 21.6664V18.4159C26.0037 17.2665 25.5471 16.1642 24.7343 15.3514C23.9215 14.5386 22.8192 14.082 21.6698 14.082V14.082ZM23.8367 21.6664C23.8367 22.2411 23.6084 22.7922 23.202 23.1986C22.7957 23.605 22.2445 23.8333 21.6698 23.8333H18.4193C17.8446 23.8333 17.2935 23.605 16.8871 23.1986C16.4807 22.7922 16.2524 22.2411 16.2524 21.6664V18.4159C16.2524 17.8412 16.4807 17.29 16.8871 16.8837C17.2935 16.4773 17.8446 16.249 18.4193 16.249H21.6698C22.2445 16.249 22.7957 16.4773 23.202 16.8837C23.6084 17.29 23.8367 17.8412 23.8367 18.4159V21.6664Z" fill="#57B894"/>
</svg>
