<svg width="26" height="26" viewBox="0 0 26 26" fill="none" xmlns="http://www.w3.org/2000/svg">
<path fill-rule="evenodd" clip-rule="evenodd" d="M18.6342 0C23.0399 0 26 3.0914 26 7.6908V18.3092C26 22.9086 23.0399 26 18.6329 26H7.3645C2.9588 26 0 22.9086 0 18.3092V7.6908C0 3.0914 2.9588 0 7.3645 0H18.6342ZM18.6342 1.95H7.3645C4.0755 1.95 1.95 4.2029 1.95 7.6908V18.3092C1.95 21.7971 4.0755 24.05 7.3645 24.05H18.6329C21.9232 24.05 24.05 21.7971 24.05 18.3092V7.6908C24.05 4.2029 21.9245 1.95 18.6342 1.95ZM12.9988 6.34868C13.537 6.34868 13.9738 6.78548 13.9738 7.32368V12.4405L17.9076 14.7844C18.3691 15.0613 18.5212 15.6593 18.2456 16.1221C18.0623 16.4276 17.7386 16.5979 17.4071 16.5979C17.2368 16.5979 17.0652 16.5537 16.9079 16.4614L12.4996 13.8315C12.2058 13.6547 12.0238 13.3362 12.0238 12.9943V7.32368C12.0238 6.78548 12.4606 6.34868 12.9988 6.34868Z" fill="#57B894"/>
</svg>
