<svg width="25" height="26" viewBox="0 0 25 26" fill="none" xmlns="http://www.w3.org/2000/svg">
<path fill-rule="evenodd" clip-rule="evenodd" d="M12.8831 0C13.7815 0 14.6548 0.368901 15.2809 1.01009C15.9058 1.65504 16.2509 2.53965 16.2245 3.4368C16.227 3.63882 16.2935 3.87221 16.414 4.07673C16.6135 4.41552 16.9284 4.65393 17.3024 4.7518C17.6763 4.84465 18.0678 4.79446 18.4003 4.59746C20.0064 3.68023 22.0504 4.22981 22.9676 5.82337L23.7494 7.17726C23.7694 7.21365 23.787 7.24878 23.8021 7.28517C24.6327 8.85488 24.0781 10.8311 22.5347 11.7333C22.3101 11.8626 22.1282 12.0432 22.0027 12.2616C21.8082 12.5991 21.7543 13.0006 21.8521 13.3695C21.9525 13.746 22.1922 14.0584 22.5297 14.2516C23.2914 14.6895 23.8598 15.4273 24.0869 16.2793C24.314 17.1301 24.1898 18.0536 23.7468 18.8152L22.9137 20.203C21.9964 21.779 19.9524 22.3248 18.3626 21.4063C18.1506 21.2846 17.9059 21.2181 17.6625 21.2118H17.655C17.2923 21.2118 16.9197 21.3661 16.6486 21.6359C16.3738 21.9107 16.2233 22.2771 16.2258 22.6661C16.217 24.5093 14.7175 26 12.8831 26H11.3109C9.46761 26 7.96816 24.5018 7.96816 22.6586C7.96565 22.4314 7.90041 22.1956 7.77869 21.991C7.5817 21.6472 7.26299 21.4013 6.89534 21.3034C6.5302 21.2055 6.12993 21.2595 5.80118 21.4502C5.01319 21.8894 4.08592 21.996 3.2377 21.7576C2.39073 21.518 1.6592 20.9358 1.23007 20.1641L0.445843 18.8127C-0.471391 17.2217 0.0744324 15.1827 1.66297 14.2642C2.11343 14.0044 2.39324 13.5201 2.39324 13.0006C2.39324 12.4812 2.11343 11.9956 1.66297 11.7358C0.0731777 10.8123 -0.471391 8.7683 0.444588 7.17726L1.29532 5.78071C2.20001 4.20723 4.24527 3.65262 5.84008 4.5686C6.05716 4.69784 6.29305 4.76309 6.53271 4.7656C7.31443 4.7656 7.96816 4.12065 7.98071 3.32764C7.97569 2.45307 8.32075 1.61363 8.94939 0.979972C9.58054 0.34757 10.4187 0 11.3109 0H12.8831ZM12.8831 1.88215H11.3109C10.9219 1.88215 10.558 2.03398 10.2832 2.30751C10.0097 2.58231 9.86035 2.94744 9.86286 3.33642C9.83651 5.17089 8.33706 6.64775 6.52142 6.64775C5.93921 6.64147 5.37833 6.48463 4.89148 6.19352C4.20763 5.80455 3.31424 6.04421 2.91397 6.7406L2.06449 8.13715C1.67551 8.81222 1.91392 9.70436 2.60655 10.1071C3.6342 10.7019 4.27539 11.8111 4.27539 13.0006C4.27539 14.1901 3.6342 15.2981 2.60404 15.8941C1.91517 16.2931 1.67677 17.1803 2.07578 17.8704L2.86754 19.2356C3.06328 19.5881 3.38325 19.8429 3.75341 19.947C4.12231 20.0499 4.52885 20.006 4.86764 19.8178C5.36578 19.5254 5.94548 19.3736 6.52769 19.3736C6.81503 19.3736 7.10238 19.41 7.38344 19.4853C8.23166 19.7136 8.96821 20.2808 9.40487 21.0424C9.68845 21.5205 9.84529 22.0789 9.85031 22.6485C9.85031 23.4641 10.5053 24.1179 11.3109 24.1179H12.8831C13.6849 24.1179 14.3399 23.4679 14.3436 22.6661C14.3386 21.7802 14.6849 20.9383 15.3186 20.3046C15.9435 19.6797 16.8168 19.3046 17.6901 19.3297C18.2623 19.3435 18.8131 19.4978 19.2987 19.7739C19.9976 20.1741 20.8897 19.9357 21.2938 19.2456L22.1269 17.8566C22.3126 17.5366 22.3666 17.1351 22.2675 16.7649C22.1696 16.3948 21.9237 16.0735 21.5924 15.8841C20.817 15.4374 20.2636 14.7171 20.034 13.8539C19.8069 13.0069 19.9311 12.0821 20.374 11.3205C20.6626 10.8186 21.0855 10.3957 21.5924 10.1046C22.2725 9.70687 22.5109 8.81724 22.1156 8.12461C22.0993 8.097 22.0843 8.06814 22.0717 8.03803L21.3364 6.76319C20.9362 6.06679 20.0453 5.82713 19.3464 6.22489C18.591 6.67159 17.6926 6.79957 16.8293 6.57246C15.9673 6.34911 15.2446 5.80329 14.7941 5.03286C14.5055 4.55103 14.3486 3.99015 14.3436 3.41924C14.3549 2.99011 14.2043 2.60489 13.9308 2.32257C13.6585 2.0415 13.2758 1.88215 12.8831 1.88215ZM12.1025 8.75086C14.4451 8.75086 16.3511 10.6581 16.3511 13.0008C16.3511 15.3434 14.4451 17.2481 12.1025 17.2481C9.75984 17.2481 7.85385 15.3434 7.85385 13.0008C7.85385 10.6581 9.75984 8.75086 12.1025 8.75086ZM12.1025 10.633C10.7975 10.633 9.736 11.6958 9.736 13.0008C9.736 14.3057 10.7975 15.366 12.1025 15.366C13.4074 15.366 14.469 14.3057 14.469 13.0008C14.469 11.6958 13.4074 10.633 12.1025 10.633Z" fill="#57B894"/>
</svg>
