<svg width="42" height="42" viewBox="0 0 42 42" fill="none" xmlns="http://www.w3.org/2000/svg">
<path d="M21 41.9995C32.598 41.9995 42 32.5975 42 20.9995C42 9.40153 32.598 -0.000488281 21 -0.000488281C9.40202 -0.000488281 0 9.40153 0 20.9995C0 32.5975 9.40202 41.9995 21 41.9995Z" fill="#57B993"/>
<path fill-rule="evenodd" clip-rule="evenodd" d="M32.8652 30.7523H9.89017C9.24888 30.7523 8.63385 30.4975 8.18038 30.0441C7.72692 29.5906 7.47217 28.9756 7.47217 28.3343V15.0343C7.47191 14.7166 7.53426 14.4019 7.65565 14.1083C7.77705 13.8147 7.95512 13.548 8.17968 13.3232C8.40424 13.0985 8.67088 12.9202 8.96438 12.7985C9.25787 12.6769 9.57246 12.6143 9.89017 12.6143H10.4902C10.4903 12.4551 10.5218 12.2976 10.5829 12.1506C10.6441 12.0037 10.7336 11.8702 10.8463 11.7579C10.9591 11.6456 11.0929 11.5567 11.2401 11.4961C11.3873 11.4356 11.545 11.4048 11.7042 11.4053H12.9132C13.2339 11.4053 13.5415 11.5326 13.7684 11.7593C13.9953 11.986 14.1229 12.2936 14.1232 12.6143H15.3322C15.7874 12.5436 16.2096 12.334 16.5412 12.0143L17.7502 10.7963C17.8993 10.6182 18.0837 10.4729 18.2918 10.3696C18.4999 10.2664 18.7271 10.2073 18.9592 10.1963H23.7962C24.03 10.198 24.2604 10.2529 24.4699 10.3569C24.6793 10.4608 24.8624 10.6111 25.0052 10.7963L26.2142 12.0053C26.5457 12.325 26.968 12.5346 27.4232 12.6053H32.8642C33.5055 12.6053 34.1205 12.86 34.574 13.3135C35.0274 13.767 35.2822 14.382 35.2822 15.0233V28.3233C35.2836 28.6417 35.2222 28.9572 35.1014 29.2518C34.9806 29.5463 34.8028 29.8141 34.5782 30.0398C34.3536 30.2655 34.0867 30.4446 33.7927 30.5669C33.4988 30.6892 33.1835 30.7522 32.8652 30.7523ZM34.0722 15.0333C34.0719 14.7127 33.9444 14.4054 33.7178 14.1787C33.4911 13.952 33.1837 13.8246 32.8632 13.8243L27.2882 13.8163C26.5589 13.7166 25.8816 13.3829 25.3582 12.8653L24.0722 11.5773L24.0092 11.4863C23.9485 11.4376 23.8739 11.4096 23.7962 11.4063H18.9592C18.8617 11.4261 18.7725 11.4749 18.7032 11.5463L18.6582 11.6043L17.3962 12.8643C16.8727 13.3819 16.1955 13.7156 15.4662 13.8153H12.9562C12.9412 13.8153 12.9282 13.8153 12.9142 13.8153H11.7042H11.6802H9.89017C9.5696 13.8156 9.26224 13.943 9.03557 14.1697C8.80889 14.3964 8.68143 14.7037 8.68117 15.0243V28.3243C8.68143 28.6449 8.80889 28.9522 9.03557 29.1789C9.26224 29.4056 9.5696 29.533 9.89017 29.5333H32.8652C33.1837 29.5325 33.489 29.4062 33.715 29.1817C33.9409 28.9573 34.0693 28.6528 34.0722 28.3343V15.0333ZM21.3722 28.3333C20.0567 28.3333 18.7708 27.9432 17.6771 27.2124C16.5833 26.4816 15.7308 25.4428 15.2274 24.2275C14.724 23.0122 14.5923 21.6749 14.849 20.3847C15.1056 19.0946 15.739 17.9095 16.6692 16.9793C17.5994 16.0492 18.7845 15.4157 20.0746 15.1591C21.3648 14.9025 22.7021 15.0342 23.9174 15.5376C25.1327 16.041 26.1715 16.8934 26.9023 17.9872C27.6331 19.0809 28.0232 20.3668 28.0232 21.6823C28.0234 23.4454 27.3236 25.1364 26.0776 26.3838C24.8316 27.6311 23.1413 28.3327 21.3782 28.3343L21.3722 28.3333ZM21.3722 16.2413C20.296 16.2413 19.2441 16.5604 18.3493 17.1583C17.4545 17.7561 16.7572 18.6059 16.3453 19.6001C15.9335 20.5943 15.8258 21.6883 16.0357 22.7438C16.2457 23.7992 16.7639 24.7687 17.5248 25.5297C18.2857 26.2906 19.2552 26.8088 20.3107 27.0187C21.3661 27.2287 22.4601 27.1209 23.4543 26.7091C24.4486 26.2973 25.2983 25.5999 25.8962 24.7051C26.4941 23.8104 26.8132 22.7584 26.8132 21.6823C26.8129 20.2405 26.2404 18.8577 25.2213 17.8377C24.2022 16.8177 22.82 16.2439 21.3782 16.2423L21.3722 16.2413ZM21.3722 24.7053C20.7743 24.7053 20.1898 24.528 19.6927 24.1958C19.1956 23.8637 18.8081 23.3915 18.5793 22.8391C18.3505 22.2868 18.2906 21.6789 18.4073 21.0925C18.5239 20.5061 18.8118 19.9675 19.2346 19.5447C19.6574 19.1219 20.196 18.834 20.7824 18.7174C21.3688 18.6007 21.9766 18.6606 22.529 18.8894C23.0814 19.1182 23.5535 19.5057 23.8857 20.0028C24.2179 20.4999 24.3952 21.0844 24.3952 21.6823C24.3954 22.4832 24.0779 23.2514 23.5122 23.8184C22.9466 24.3854 22.1791 24.7047 21.3782 24.7063L21.3722 24.7053ZM21.3722 19.8683C21.0134 19.8683 20.6627 19.9747 20.3644 20.174C20.0661 20.3733 19.8335 20.6566 19.6963 20.9881C19.559 21.3196 19.523 21.6843 19.593 22.0362C19.663 22.3881 19.8358 22.7113 20.0895 22.965C20.3432 23.2187 20.6664 23.3914 21.0183 23.4614C21.3702 23.5314 21.7349 23.4955 22.0664 23.3582C22.3978 23.2209 22.6811 22.9884 22.8805 22.6901C23.0798 22.3918 23.1862 22.0411 23.1862 21.6823C23.1856 21.2026 22.9951 20.7426 22.6563 20.403C22.3174 20.0634 21.8579 19.8719 21.3782 19.8703L21.3722 19.8683ZM12.9132 17.4513H10.4952C10.336 17.4513 10.1834 17.3881 10.0709 17.2756C9.95838 17.163 9.89517 17.0104 9.89517 16.8513V15.6373C9.89517 15.4782 9.95838 15.3255 10.0709 15.213C10.1834 15.1005 10.336 15.0373 10.4952 15.0373H12.9132C13.0723 15.0373 13.2249 15.1005 13.3374 15.213C13.45 15.3255 13.5132 15.4782 13.5132 15.6373V16.8463C13.5138 16.9255 13.4988 17.0041 13.4689 17.0774C13.4391 17.1508 13.395 17.2175 13.3392 17.2738C13.2834 17.33 13.2171 17.3747 13.1439 17.4051C13.0708 17.4356 12.9924 17.4513 12.9132 17.4513Z" fill="white"/>
</svg>
