<?xml version="1.0" standalone="no"?>
<!DOCTYPE svg PUBLIC "-//W3C//DTD SVG 20010904//EN"
 "http://www.w3.org/TR/2001/REC-SVG-20010904/DTD/svg10.dtd">
<svg version="1.0" xmlns="http://www.w3.org/2000/svg"
 width="64.000000pt" height="64.000000pt" viewBox="0 0 64.000000 64.000000"
 preserveAspectRatio="xMidYMid meet">

<g transform="translate(0.000000,64.000000) scale(0.100000,-0.100000)"
fill="#8B8B8B" stroke="none">
<path d="M27 593 c-13 -12 -8 -428 5 -441 7 -7 44 -12 95 -12 62 0 81 -3 78
-13 -3 -7 22 -39 55 -72 l60 -59 60 59 c33 33 58 65 55 72 -3 10 18 13 89 13
67 0 97 4 105 14 8 9 11 65 9 177 l-3 164 -26 3 c-17 2 -29 11 -32 23 -5 18
-15 19 -147 19 l-142 0 -35 30 c-32 29 -38 30 -127 30 -51 0 -96 -3 -99 -7z
m220 -43 l34 -30 139 0 140 0 0 -130 0 -130 -90 0 c-53 0 -90 -4 -90 -10 0 -6
37 -10 90 -10 l90 0 0 -41 0 -40 -100 2 -100 2 0 109 0 108 -40 0 -40 0 0
-109 0 -108 -117 1 -118 1 -3 38 -3 37 110 0 c67 0 111 4 111 10 0 6 -43 10
-110 10 l-110 0 0 160 0 160 86 0 c82 0 88 -2 121 -30z m371 -227 c-3 -133 -5
-158 -18 -158 -13 0 -15 25 -18 158 -2 153 -2 157 18 157 20 0 20 -4 18 -157z
m-278 -88 c0 -69 3 -125 7 -125 3 0 15 8 25 17 14 13 21 14 30 5 10 -10 2 -23
-35 -60 l-47 -47 -47 47 c-37 37 -45 50 -35 60 9 9 16 8 30 -5 10 -9 22 -17
25 -17 4 0 7 56 7 125 0 118 1 125 20 125 19 0 20 -7 20 -125z"/>
<path d="M50 200 c0 -11 5 -20 10 -20 6 0 10 9 10 20 0 11 -4 20 -10 20 -5 0
-10 -9 -10 -20z"/>
<path d="M100 200 c0 -11 5 -20 10 -20 6 0 10 9 10 20 0 11 -4 20 -10 20 -5 0
-10 -9 -10 -20z"/>
<path d="M150 200 c0 -11 5 -20 10 -20 6 0 10 9 10 20 0 11 -4 20 -10 20 -5 0
-10 -9 -10 -20z"/>
<path d="M200 200 c0 -11 5 -20 10 -20 6 0 10 9 10 20 0 11 -4 20 -10 20 -5 0
-10 -9 -10 -20z"/>
<path d="M250 200 c0 -11 5 -20 10 -20 6 0 10 9 10 20 0 11 -4 20 -10 20 -5 0
-10 -9 -10 -20z"/>
<path d="M370 200 c0 -11 5 -20 10 -20 6 0 10 9 10 20 0 11 -4 20 -10 20 -5 0
-10 -9 -10 -20z"/>
<path d="M420 200 c0 -11 5 -20 10 -20 6 0 10 9 10 20 0 11 -4 20 -10 20 -5 0
-10 -9 -10 -20z"/>
<path d="M470 200 c0 -11 5 -20 10 -20 6 0 10 9 10 20 0 11 -4 20 -10 20 -5 0
-10 -9 -10 -20z"/>
<path d="M520 200 c0 -11 5 -20 10 -20 6 0 10 9 10 20 0 11 -4 20 -10 20 -5 0
-10 -9 -10 -20z"/>
</g>
</svg>
