<svg width="28" height="25" viewBox="0 0 28 25" fill="none" xmlns="http://www.w3.org/2000/svg">
<path fill-rule="evenodd" clip-rule="evenodd" d="M27.61 12.5001C27.61 12.5001 22.51 5.43408 14 5.43408C5.49001 5.43408 0.390015 12.5001 0.390015 12.5001C0.390015 12.5001 5.49001 19.5661 14 19.5661C22.51 19.5661 27.61 12.5001 27.61 12.5001ZM2.39001 12.5001C3.23929 13.4692 4.18556 14.3488 5.21401 15.1251C7.71958 17.1117 10.808 18.2208 14.005 18.2821C17.1997 18.2185 20.2856 17.1095 22.79 15.1251C23.8185 14.3488 24.7647 13.4692 25.614 12.5001C24.7647 11.531 23.8185 10.6514 22.79 9.87508C20.2839 7.89022 17.1963 6.78161 14 6.71908C10.8029 6.78117 7.71436 7.89019 5.20801 9.87608C4.17955 10.6524 3.23328 11.532 2.38401 12.5011L2.39001 12.5001Z" fill="white"/>
<path fill-rule="evenodd" clip-rule="evenodd" d="M14 11.5972C13.822 11.5972 13.648 11.65 13.5 11.7489C13.352 11.8478 13.2366 11.9883 13.1685 12.1528C13.1004 12.3172 13.0826 12.4982 13.1173 12.6728C13.152 12.8474 13.2378 13.0077 13.3636 13.1336C13.4895 13.2595 13.6499 13.3452 13.8244 13.3799C13.999 13.4146 14.18 13.3968 14.3444 13.3287C14.5089 13.2606 14.6494 13.1452 14.7483 12.9972C14.8472 12.8492 14.9 12.6752 14.9 12.4972C14.9 12.2585 14.8052 12.0296 14.6364 11.8608C14.4676 11.692 14.2387 11.5972 14 11.5972ZM12.734 12.4972C12.734 12.2468 12.8083 12.002 12.9474 11.7939C13.0865 11.5857 13.2842 11.4234 13.5155 11.3276C13.7469 11.2317 14.0014 11.2067 14.247 11.2555C14.4926 11.3044 14.7182 11.425 14.8952 11.602C15.0723 11.7791 15.1928 12.0046 15.2417 12.2502C15.2905 12.4958 15.2655 12.7503 15.1696 12.9817C15.0738 13.213 14.9116 13.4107 14.7034 13.5498C14.4952 13.689 14.2504 13.7632 14 13.7632C13.6649 13.7632 13.3435 13.6304 13.1062 13.3938C12.8689 13.1573 12.7351 12.8363 12.734 12.5012V12.4972Z" fill="white" stroke="white" stroke-width="5"/>
<path d="M2.33168 22.0447L4.453 24.166L25.6662 2.95281L23.5449 0.831492L2.33168 22.0447Z" fill="white"/>
<path d="M3.03879 22.0448L4.453 23.459L24.9591 2.95289L23.5449 1.53867L3.03879 22.0448Z" stroke="#403A3A"/>
</svg>
