<svg width="77" height="65" viewBox="0 0 77 65" fill="none" xmlns="http://www.w3.org/2000/svg">
<g filter="url(#filter0_d_80_14478)">
<path d="M61 3H16C10.4772 3 6 7.47715 6 13V46C6 51.5228 10.4772 56 16 56H61C66.5228 56 71 51.5228 71 46V13C71 7.47715 66.5228 3 61 3Z" fill="white"/>
<path d="M61 3.5H16C10.7533 3.5 6.5 7.75329 6.5 13V46C6.5 51.2467 10.7533 55.5 16 55.5H61C66.2467 55.5 70.5 51.2467 70.5 46V13C70.5 7.75329 66.2467 3.5 61 3.5Z" stroke="#D9D9D9"/>
</g>
<path d="M59.0525 20.415H37.8525C37.5217 20.415 37.2046 20.2836 36.9707 20.0498C36.7368 19.8159 36.6055 19.4987 36.6055 19.168C36.6055 18.8373 36.7368 18.5201 36.9707 18.2863C37.2046 18.0524 37.5217 17.921 37.8525 17.921H59.0525C59.3832 17.921 59.7004 18.0524 59.9342 18.2863C60.1681 18.5201 60.2995 18.8373 60.2995 19.168C60.2995 19.4987 60.1681 19.8159 59.9342 20.0498C59.7004 20.2836 59.3832 20.415 59.0525 20.415Z" fill="#57B993"/>
<path d="M22.8952 20.415H19.1552C18.8245 20.415 18.5073 20.2836 18.2734 20.0498C18.0396 19.8159 17.9082 19.4987 17.9082 19.168C17.9082 18.8373 18.0396 18.5201 18.2734 18.2863C18.5073 18.0524 18.8245 17.921 19.1552 17.921H22.8952C23.2259 17.921 23.5431 18.0524 23.777 18.2863C24.0108 18.5201 24.1422 18.8373 24.1422 19.168C24.1422 19.4987 24.0108 19.8159 23.777 20.0498C23.5431 20.2836 23.2259 20.415 22.8952 20.415Z" fill="#57B993"/>
<path d="M40.3502 30.389H19.1552C18.8245 30.389 18.5073 30.2576 18.2734 30.0238C18.0396 29.7899 17.9082 29.4727 17.9082 29.142C17.9082 28.8113 18.0396 28.4941 18.2734 28.2603C18.5073 28.0264 18.8245 27.895 19.1552 27.895H40.3552C40.6859 27.895 41.0031 28.0264 41.237 28.2603C41.4708 28.4941 41.6022 28.8113 41.6022 29.142C41.6022 29.4727 41.4708 29.7899 41.237 30.0238C41.0031 30.2576 40.6859 30.389 40.3552 30.389H40.3502Z" fill="#57B993"/>
<path d="M27.8822 40.363H19.1552C18.8245 40.363 18.5073 40.2316 18.2734 39.9978C18.0396 39.7639 17.9082 39.4467 17.9082 39.116C17.9082 38.7853 18.0396 38.4681 18.2734 38.2343C18.5073 38.0004 18.8245 37.869 19.1552 37.869H27.8832C28.2139 37.869 28.5311 38.0004 28.765 38.2343C28.9988 38.4681 29.1302 38.7853 29.1302 39.116C29.1302 39.4467 28.9988 39.7639 28.765 39.9978C28.5311 40.2316 28.2139 40.363 27.8832 40.363H27.8822Z" fill="#57B993"/>
<path d="M25.3884 22.908C24.6487 22.908 23.9256 22.6886 23.3106 22.2777C22.6956 21.8667 22.2162 21.2826 21.9331 20.5992C21.6501 19.9158 21.576 19.1638 21.7203 18.4383C21.8646 17.7129 22.2208 17.0464 22.7439 16.5234C23.2669 16.0004 23.9333 15.6442 24.6588 15.4998C25.3843 15.3555 26.1363 15.4296 26.8197 15.7127C27.5031 15.9957 28.0872 16.4751 28.4981 17.0901C28.9091 17.7052 29.1284 18.4283 29.1284 19.168C29.1284 20.1599 28.7344 21.1112 28.033 21.8126C27.3316 22.5139 26.3803 22.908 25.3884 22.908ZM25.3884 17.921C25.1418 17.921 24.9006 17.9941 24.6955 18.1312C24.4904 18.2683 24.3306 18.4631 24.2363 18.691C24.1419 18.9189 24.1173 19.1697 24.1655 19.4116C24.2137 19.6535 24.3325 19.8757 24.507 20.0501C24.6815 20.2245 24.9038 20.3431 25.1458 20.3911C25.3877 20.4391 25.6385 20.4143 25.8663 20.3198C26.0942 20.2252 26.2889 20.0652 26.4258 19.86C26.5627 19.6548 26.6356 19.4137 26.6354 19.167C26.6352 18.8364 26.5037 18.5195 26.2698 18.2859C26.036 18.0522 25.719 17.921 25.3884 17.921Z" fill="#57B993"/>
<path d="M52.8181 32.882C52.0784 32.882 51.3553 32.6626 50.7403 32.2517C50.1253 31.8407 49.6459 31.2566 49.3628 30.5732C49.0797 29.8898 49.0057 29.1378 49.15 28.4123C49.2943 27.6869 49.6505 27.0204 50.1735 26.4974C50.6966 25.9744 51.363 25.6182 52.0885 25.4738C52.814 25.3295 53.566 25.4036 54.2494 25.6867C54.9328 25.9697 55.5169 26.4491 55.9278 27.0641C56.3388 27.6792 56.5581 28.4023 56.5581 29.142C56.5581 30.1339 56.1641 31.0852 55.4627 31.7866C54.7613 32.4879 53.81 32.882 52.8181 32.882ZM52.8181 27.895C52.5715 27.895 52.3304 27.9681 52.1253 28.1051C51.9203 28.2422 51.7604 28.4369 51.666 28.6648C51.5717 28.8926 51.547 29.1434 51.5951 29.3853C51.6432 29.6272 51.762 29.8493 51.9364 30.0237C52.1108 30.1981 52.333 30.3169 52.5748 30.365C52.8167 30.4131 53.0675 30.3884 53.2953 30.2941C53.5232 30.1997 53.7179 30.0398 53.855 29.8348C53.992 29.6297 54.0651 29.3886 54.0651 29.142C54.0651 28.9782 54.0329 28.8161 53.9702 28.6648C53.9075 28.5135 53.8157 28.376 53.6999 28.2602C53.5841 28.1444 53.4466 28.0526 53.2953 27.9899C53.144 27.9272 52.9819 27.895 52.8181 27.895Z" fill="#57B993"/>
<path d="M33.867 42.857C33.1273 42.857 32.4042 42.6376 31.7891 42.2267C31.1741 41.8157 30.6947 41.2316 30.4116 40.5482C30.1286 39.8648 30.0545 39.1128 30.1988 38.3873C30.3431 37.6618 30.6993 36.9954 31.2224 36.4724C31.7454 35.9493 32.4118 35.5931 33.1373 35.4488C33.8628 35.3045 34.6148 35.3786 35.2982 35.6616C35.9816 35.9447 36.5657 36.4241 36.9767 37.0391C37.3876 37.6542 37.607 38.3773 37.607 39.117C37.607 40.1089 37.2129 41.0601 36.5115 41.7615C35.8101 42.4629 34.8589 42.857 33.867 42.857ZM33.867 37.87C33.6203 37.87 33.3792 37.9431 33.1742 38.0801C32.9691 38.2171 32.8093 38.4119 32.7149 38.6397C32.6205 38.8676 32.5958 39.1183 32.6439 39.3602C32.692 39.6021 32.8108 39.8243 32.9852 39.9987C33.1596 40.1731 33.3818 40.2919 33.6237 40.34C33.8656 40.3881 34.1163 40.3634 34.3442 40.269C34.572 40.1747 34.7668 40.0148 34.9038 39.8098C35.0408 39.6047 35.114 39.3636 35.114 39.117C35.114 38.7862 34.9826 38.4691 34.7487 38.2352C34.5149 38.0013 34.1977 37.87 33.867 37.87Z" fill="#57B993"/>
<path d="M59.0524 30.389H55.3124C54.9817 30.389 54.6645 30.2576 54.4307 30.0238C54.1968 29.7899 54.0654 29.4727 54.0654 29.142C54.0654 28.8113 54.1968 28.4941 54.4307 28.2603C54.6645 28.0264 54.9817 27.895 55.3124 27.895H59.0524C59.3832 27.895 59.7003 28.0264 59.9342 28.2603C60.1681 28.4941 60.2994 28.8113 60.2994 29.142C60.2994 29.4727 60.1681 29.7899 59.9342 30.0238C59.7003 30.2576 59.3832 30.389 59.0524 30.389Z" fill="#57B993"/>
<path d="M59.0527 40.363H42.8447C42.5139 40.363 42.1968 40.2316 41.9629 39.9978C41.729 39.7639 41.5977 39.4467 41.5977 39.116C41.5977 38.7853 41.729 38.4681 41.9629 38.2343C42.1968 38.0004 42.5139 37.869 42.8447 37.869H59.0527C59.3834 37.869 59.7006 38.0004 59.9344 38.2343C60.1683 38.4681 60.2997 38.7853 60.2997 39.116C60.2997 39.4467 60.1683 39.7639 59.9344 39.9978C59.7006 40.2316 59.3834 40.363 59.0527 40.363Z" fill="#57B993"/>
<defs>
<filter id="filter0_d_80_14478" x="0" y="0" width="77" height="65" filterUnits="userSpaceOnUse" color-interpolation-filters="sRGB">
<feFlood flood-opacity="0" result="BackgroundImageFix"/>
<feColorMatrix in="SourceAlpha" type="matrix" values="0 0 0 0 0 0 0 0 0 0 0 0 0 0 0 0 0 0 127 0" result="hardAlpha"/>
<feOffset dy="3"/>
<feGaussianBlur stdDeviation="3"/>
<feColorMatrix type="matrix" values="0 0 0 0 0 0 0 0 0 0 0 0 0 0 0 0 0 0 0.161 0"/>
<feBlend mode="normal" in2="BackgroundImageFix" result="effect1_dropShadow_80_14478"/>
<feBlend mode="normal" in="SourceGraphic" in2="effect1_dropShadow_80_14478" result="shape"/>
</filter>
</defs>
</svg>
