<svg width="19" height="19" viewBox="0 0 19 19" fill="none" xmlns="http://www.w3.org/2000/svg">
<path d="M9.52834 0.397956C11.68 0.397913 13.765 1.14391 15.4282 2.50885C17.0915 3.87378 18.23 5.77319 18.6498 7.88345C19.0696 9.9937 18.7447 12.1842 17.7305 14.0818C16.7162 15.9794 15.0754 17.4666 13.0876 18.29C11.0998 19.1134 8.888 19.2221 6.82903 18.5975C4.77006 17.973 2.99134 16.6539 1.79594 14.8649C0.600547 13.0759 0.0624362 10.9278 0.273299 8.78653C0.484161 6.64529 1.43095 4.64339 2.95234 3.12196C3.81499 2.25712 4.84002 1.57127 5.96854 1.1038C7.09706 0.636327 8.30683 0.396452 9.52834 0.397956ZM12.3623 6.05496C12.4092 6.00814 12.4647 5.971 12.5259 5.94567C12.5871 5.92033 12.6526 5.90729 12.7188 5.90729C12.7851 5.90729 12.8506 5.92033 12.9118 5.94567C12.9729 5.971 13.0285 6.00814 13.0753 6.05496C13.1222 6.10177 13.1593 6.15735 13.1846 6.21852C13.21 6.27969 13.223 6.34525 13.223 6.41146C13.223 6.47766 13.21 6.54322 13.1846 6.60439C13.1593 6.66556 13.1222 6.72114 13.0753 6.76796L10.1453 9.69796L13.0763 12.629C13.1232 12.6758 13.1603 12.7314 13.1856 12.7925C13.211 12.8537 13.224 12.9192 13.224 12.9855C13.224 13.0517 13.211 13.1172 13.1856 13.1784C13.1603 13.2396 13.1232 13.2951 13.0763 13.342C13.0295 13.3888 12.9739 13.4259 12.9128 13.4512C12.8516 13.4766 12.7861 13.4896 12.7198 13.4896C12.6536 13.4896 12.5881 13.4766 12.5269 13.4512C12.4657 13.4259 12.4102 13.3888 12.3633 13.342L9.42834 10.413L6.50034 13.344C6.45353 13.3908 6.39795 13.4279 6.33678 13.4532C6.27561 13.4786 6.21005 13.4916 6.14384 13.4916C6.07764 13.4916 6.01208 13.4786 5.95091 13.4532C5.88974 13.4279 5.83416 13.3908 5.78734 13.344C5.74053 13.2971 5.70339 13.2416 5.67805 13.1804C5.65272 13.1192 5.63968 13.0537 5.63968 12.9875C5.63968 12.9212 5.65272 12.8557 5.67805 12.7945C5.70339 12.7334 5.74053 12.6778 5.78734 12.631L8.71834 9.69796L5.78734 6.76796C5.69279 6.67341 5.63968 6.54517 5.63968 6.41146C5.63968 6.27774 5.69279 6.14951 5.78734 6.05496C5.88189 5.96041 6.01013 5.90729 6.14384 5.90729C6.27756 5.90729 6.40579 5.96041 6.50034 6.05496L9.42834 8.98596L12.3593 6.05496H12.3623ZM15.3913 3.83596C14.0347 2.47948 12.2497 1.63538 10.3405 1.44748C8.43126 1.25958 6.51595 1.73951 4.92092 2.80549C3.32589 3.87147 2.14982 5.45755 1.59313 7.29345C1.03644 9.12935 1.13356 11.1015 1.86794 12.8738C2.60233 14.6461 3.92854 16.109 5.62059 17.0131C7.31264 17.9172 9.26584 18.2066 11.1474 17.832C13.0289 17.4574 14.7223 16.442 15.9391 14.9588C17.1559 13.4756 17.8207 11.6164 17.8203 9.69796C17.8218 8.60893 17.6081 7.53034 17.1914 6.52418C16.7747 5.51801 16.1633 4.6041 15.3923 3.83496L15.3913 3.83596Z" fill="#57B993"/>
</svg>
