<svg width="180" height="180" viewBox="0 0 180 180" fill="none" xmlns="http://www.w3.org/2000/svg">
<path d="M89.588 0.511719C40.315 0.511719 0 40.8267 0 90.0997C0 139.373 40.315 179.688 89.588 179.688C138.861 179.688 179.176 139.373 179.176 90.0997C179.176 40.8267 138.862 0.511719 89.588 0.511719ZM89.588 30.3747C106.012 30.3747 119.451 46.7987 119.451 67.7027C119.451 88.6067 106.013 105.032 89.588 105.032C73.163 105.032 59.725 88.6117 59.725 67.7027C59.725 46.7937 73.164 30.3747 89.588 30.3747ZM138.861 146.093C125.195 158.003 107.715 164.624 89.588 164.757C71.4609 164.624 53.9809 158.003 40.315 146.093C37.329 143.107 36.582 138.627 39.568 135.641C47.78 125.936 58.979 119.217 70.924 115.484C76.7049 118.428 83.1004 119.963 89.588 119.963C96.0756 119.963 102.471 118.428 108.252 115.484C120.483 118.92 131.404 125.94 139.608 135.641C142.594 138.627 142.594 143.106 138.862 146.093H138.861Z" fill="#555555"/>
</svg>
