<?xml version="1.0" encoding="utf-8"?>
<!-- Generator: Adobe Illustrator 25.0.0, SVG Export Plug-In . SVG Version: 6.00 Build 0)  -->
<svg version="1.1" id="Layer_1" xmlns="http://www.w3.org/2000/svg" xmlns:xlink="http://www.w3.org/1999/xlink" x="0px" y="0px"
	 viewBox="0 0 21.7 21.7" style="enable-background:new 0 0 21.7 21.7;" xml:space="preserve">
<style type="text/css">
	.st0{fill-rule:evenodd;clip-rule:evenodd;fill:#55B792;}
	.st1{fill:#FFFFFF;}
</style>
<g>
	<path class="st0" d="M21.7,10.8c0,6-4.9,10.8-10.8,10.8C4.9,21.7,0,16.8,0,10.8S4.9,0,10.8,0C16.8,0,21.7,4.9,21.7,10.8z"/>
	<g>
		<path class="st1" d="M10.8,14.2c1.9,0,3.4-1.5,3.4-3.4c0-1.9-1.5-3.4-3.4-3.4C9,7.4,7.4,9,7.4,10.8C7.4,12.7,9,14.2,10.8,14.2z
			 M10.8,13.5c-0.6,0-1.2-0.2-1.6-0.6c0.3-0.6,1-0.9,1.6-0.9c0.7,0,1.3,0.4,1.6,0.9C12,13.3,11.5,13.5,10.8,13.5z M10.1,10.5
			c0-0.4,0.3-0.8,0.8-0.8c0.4,0,0.8,0.3,0.8,0.8s-0.3,0.8-0.8,0.8C10.4,11.2,10.1,10.9,10.1,10.5z M10.8,8.2c1.5,0,2.6,1.2,2.6,2.6
			c0,0.6-0.2,1.1-0.5,1.5c-0.3-0.4-0.6-0.7-1-0.9c0.2-0.3,0.4-0.6,0.4-1c0-0.8-0.7-1.5-1.5-1.5c-0.8,0-1.5,0.7-1.5,1.5
			c0,0.4,0.1,0.7,0.4,1c-0.4,0.2-0.8,0.5-1,0.9c-0.3-0.4-0.5-1-0.5-1.5C8.2,9.4,9.4,8.2,10.8,8.2z"/>
		<path class="st1" d="M4.7,12l1,0.2c0.1,0.5,0.3,1,0.6,1.4l-0.6,0.8c-0.1,0.2-0.1,0.4,0,0.5l1.1,1.1c0.1,0.1,0.3,0.1,0.5,0l0.8-0.6
			C8.6,15.7,9,15.8,9.5,16l0.2,1c0,0.2,0.2,0.3,0.4,0.3h1.5c0.2,0,0.3-0.1,0.4-0.3l0.2-1c0.5-0.1,1-0.3,1.4-0.6l0.8,0.6
			c0.2,0.1,0.4,0.1,0.5,0l1.1-1.1c0.1-0.1,0.1-0.3,0-0.5l-0.6-0.8c0.3-0.4,0.5-0.9,0.6-1.4l1-0.2c0.2,0,0.3-0.2,0.3-0.4v-1.5
			c0-0.2-0.1-0.3-0.3-0.4l-1-0.2c-0.1-0.5-0.3-1-0.6-1.4L16,7.3c0.1-0.2,0.1-0.4,0-0.5l-1.1-1.1c-0.1-0.1-0.3-0.1-0.5,0l-0.8,0.6
			c-0.4-0.3-0.9-0.5-1.4-0.6l-0.2-1c0-0.2-0.2-0.3-0.4-0.3h-1.5c-0.2,0-0.3,0.1-0.4,0.3l-0.2,1C9,5.8,8.6,6,8.1,6.3L7.3,5.7
			C7.2,5.6,7,5.6,6.8,5.8L5.8,6.8C5.6,7,5.6,7.2,5.7,7.3l0.6,0.8C6,8.6,5.8,9,5.7,9.5l-1,0.2c-0.2,0-0.3,0.2-0.3,0.4v1.5
			C4.4,11.8,4.5,11.9,4.7,12z M5.1,10.4l0.9-0.2c0.2,0,0.3-0.1,0.3-0.3c0.1-0.6,0.3-1.1,0.7-1.6c0.1-0.1,0.1-0.3,0-0.4L6.5,7.1
			l0.6-0.6l0.8,0.5c0.1,0.1,0.3,0.1,0.4,0c0.5-0.3,1-0.6,1.6-0.7c0.2,0,0.3-0.2,0.3-0.3l0.2-0.9h0.9l0.2,0.9c0,0.2,0.1,0.3,0.3,0.3
			c0.6,0.1,1.1,0.3,1.6,0.7c0.1,0.1,0.3,0.1,0.4,0l0.8-0.5l0.6,0.6l-0.5,0.8c-0.1,0.1-0.1,0.3,0,0.4c0.3,0.5,0.6,1,0.7,1.6
			c0,0.2,0.2,0.3,0.3,0.3l0.9,0.2v0.9l-0.9,0.2c-0.2,0-0.3,0.1-0.3,0.3c-0.1,0.6-0.3,1.1-0.7,1.6c-0.1,0.1-0.1,0.3,0,0.4l0.5,0.8
			l-0.6,0.6l-0.8-0.5c-0.1-0.1-0.3-0.1-0.4,0c-0.5,0.3-1,0.6-1.6,0.7c-0.2,0-0.3,0.2-0.3,0.3l-0.2,0.9h-0.9l-0.2-0.9
			c0-0.2-0.1-0.3-0.3-0.3c-0.6-0.1-1.1-0.3-1.6-0.7c-0.1-0.1-0.3-0.1-0.4,0l-0.8,0.5l-0.6-0.6l0.5-0.8c0.1-0.1,0.1-0.3,0-0.4
			c-0.3-0.5-0.6-1-0.7-1.6c0-0.2-0.2-0.3-0.3-0.3l-0.9-0.2V10.4z"/>
	</g>
</g>
</svg>
