<svg width="16" height="16" viewBox="0 0 16 16" fill="none" xmlns="http://www.w3.org/2000/svg">
<path d="M15.9463 13.6846C15.9377 13.9911 15.8676 14.2927 15.7402 14.5716C15.6127 14.8505 15.4305 15.101 15.2044 15.3081C14.9783 15.5152 14.7129 15.6748 14.4239 15.7774C14.135 15.88 13.8283 15.9235 13.5222 15.9053C11.6098 15.9159 9.69644 15.9053 7.78398 15.9053C7.66619 15.9053 7.55322 15.8585 7.46993 15.7752C7.38664 15.6919 7.33984 15.5789 7.33984 15.4611C7.33984 15.3433 7.38664 15.2304 7.46993 15.1471C7.55322 15.0638 7.66619 15.017 7.78398 15.017C9.73819 15.017 11.6924 15.0454 13.6466 15.017C14.6299 15.0028 15.0581 14.2637 15.0581 13.3843V2.31287C15.0648 2.03332 14.986 1.75838 14.8322 1.52486C14.6783 1.29135 14.4568 1.11039 14.1973 1.00622C13.8906 0.922599 13.5715 0.894028 13.2549 0.921833H7.78398C7.66619 0.921833 7.55322 0.87504 7.46993 0.791748C7.38664 0.708456 7.33984 0.595487 7.33984 0.477695C7.33984 0.359902 7.38664 0.246934 7.46993 0.163642C7.55322 0.0803501 7.66619 0.0335571 7.78398 0.0335571C9.76039 0.0335571 11.7501 -0.0419463 13.7248 0.0335571C14.0271 0.0410824 14.3248 0.108682 14.6007 0.232419C14.8767 0.356155 15.1252 0.533555 15.3319 0.754286C15.5385 0.975016 15.6992 1.23466 15.8046 1.51811C15.9099 1.80155 15.9578 2.10312 15.9455 2.40525L15.9463 13.6846Z" fill="white"/>
<path d="M11.3717 8.28521C11.4467 8.21201 11.4905 8.11276 11.4943 8.00806C11.4969 7.99577 11.4987 7.9833 11.4996 7.97076C11.4987 7.95851 11.4969 7.94633 11.4943 7.93434C11.4911 7.82924 11.4472 7.72951 11.3717 7.65631L8.11262 4.39811C8.02885 4.31721 7.91666 4.27244 7.80021 4.27345C7.68376 4.27447 7.57237 4.32118 7.49002 4.40352C7.40767 4.48587 7.36096 4.59726 7.35995 4.71372C7.35894 4.83017 7.40371 4.94236 7.48461 5.02612L9.98599 7.52662H0.444138C0.326345 7.52662 0.213377 7.57341 0.130085 7.6567C0.0467928 7.74 0 7.85296 0 7.97076C0 8.08855 0.0467928 8.20152 0.130085 8.28481C0.213377 8.3681 0.326345 8.41489 0.444138 8.41489H9.98599L7.48461 10.9154C7.40371 10.9992 7.35894 11.1113 7.35995 11.2278C7.36096 11.3442 7.40767 11.4556 7.49002 11.538C7.57237 11.6203 7.68376 11.667 7.80021 11.6681C7.91666 11.6691 8.02885 11.6243 8.11262 11.5434L11.3717 8.28521Z" fill="white"/>
</svg>
