<svg width="63" height="63" viewBox="0 0 63 63" fill="none" xmlns="http://www.w3.org/2000/svg">
<path d="M31.3699 0C14.0731 0 0 14.0731 0 31.3699C0 48.6668 14.0731 62.7399 31.3699 62.7399C48.6668 62.7399 62.7399 48.6668 62.7399 31.3699C62.7399 14.0731 48.6668 0 31.3699 0ZM31.3699 4.82614C46.0557 4.82614 57.9137 16.6841 57.9137 31.3699C57.9137 46.0557 46.0557 57.9137 31.3699 57.9137C16.6841 57.9137 4.82614 46.0557 4.82614 31.3699C4.82614 16.6841 16.6841 4.82614 31.3699 4.82614Z" fill="#57B894"/>
<path d="M20 32.381L27.3333 39.7143L42 24" stroke="#57B894" stroke-width="4.246" stroke-linecap="round" stroke-linejoin="round"/>
</svg>
