<svg width="11" height="15" viewBox="0 0 11 15" fill="none" xmlns="http://www.w3.org/2000/svg">
<path d="M7.46202 0.00113443C7.29941 -0.00502277 7.1345 0.0138172 6.97144 0.0592859C6.53661 0.180536 6.17846 0.476871 5.96105 0.881037L5.50069 1.75673C5.39838 1.94534 5.46227 2.20152 5.64132 2.3093L7.85393 3.65652C7.91788 3.69694 7.98182 3.7102 8.04577 3.7102C8.08414 3.7102 8.10957 3.71025 8.14793 3.69678C8.25025 3.66983 8.32708 3.60242 8.37824 3.50811L8.85133 2.63242C9.06875 2.22826 9.13279 1.75694 9.01769 1.29889C8.90259 0.840831 8.62128 0.463557 8.23761 0.23453C7.99781 0.0913876 7.73304 0.0113965 7.46202 0.00113443ZM5.00162 3.02685C4.87772 3.03685 4.75883 3.10737 4.69488 3.22525L0.832675 10.2847C0.397846 11.0661 0.154954 11.9419 0.103797 12.831L0.00138457 14.569C-0.0114045 14.7172 0.06533 14.8652 0.193221 14.9461C0.257166 14.9865 0.321112 15 0.385057 15C0.461792 15 0.538426 14.9731 0.602372 14.9326L1.98369 13.9762C2.68709 13.4777 3.28818 12.8175 3.71022 12.0361L7.58541 4.97664C7.68773 4.78803 7.62358 4.53211 7.44453 4.42433C7.26549 4.31655 7.02254 4.38386 6.92023 4.57247L3.04529 11.632C2.6744 12.2921 2.16269 12.8714 1.54881 13.3026L0.807197 13.8143L0.858153 12.885C0.896521 12.1171 1.11399 11.3625 1.48487 10.6889L5.36006 3.62942C5.46237 3.44081 5.39848 3.18489 5.21943 3.07711C5.15229 3.03669 5.07595 3.02085 5.00162 3.02685ZM3.58233 14.1917C3.36491 14.1917 3.19866 14.3668 3.19866 14.5958C3.19866 14.8249 3.36491 15 3.58233 15H8.69796C8.91538 15 9.08164 14.8249 9.08164 14.5958C9.08164 14.3668 8.91538 14.1917 8.69796 14.1917H3.58233ZM10.6163 14.1917C10.5146 14.1917 10.417 14.2342 10.345 14.31C10.2731 14.3858 10.2327 14.4886 10.2327 14.5958C10.2327 14.703 10.2731 14.8058 10.345 14.8816C10.417 14.9574 10.5146 15 10.6163 15C10.7181 15 10.8157 14.9574 10.8876 14.8816C10.9596 14.8058 11 14.703 11 14.5958C11 14.4886 10.9596 14.3858 10.8876 14.31C10.8157 14.2342 10.7181 14.1917 10.6163 14.1917V14.1917Z" fill="white"/>
</svg>
