<svg width="24" height="28" viewBox="0 0 24 28" fill="none" xmlns="http://www.w3.org/2000/svg">
<path d="M7.11364 0.814406L7.11609 0.814343C7.34822 0.811452 7.56488 0.917381 7.7085 1.09794L10.4369 3.86779C10.6295 4.05562 10.7068 4.33537 10.6381 4.59566C10.5715 4.85813 10.3695 5.0642 10.1079 5.13248C9.84809 5.20307 9.57006 5.12311 9.38471 4.9275L7.86984 3.39083V7.78823V7.78917H7.68413C7.6863 7.99222 7.58186 8.18204 7.4078 8.28577L7.11364 0.814406ZM7.11364 0.814406C6.88929 0.820168 6.68134 0.925204 6.54285 1.10307L3.81737 3.86776C3.62471 4.05559 3.5474 4.33537 3.61614 4.59566C3.68272 4.85813 3.88471 5.06419 4.1463 5.13248C4.40614 5.20307 4.68418 5.12311 4.86952 4.92749L6.38439 3.39083V7.78823V7.78917H6.5701L7.11364 0.814406ZM17.1406 0.814388L17.1419 0.814361C17.3428 0.811411 17.5373 0.891118 17.6794 1.03521C17.821 1.17887 17.8985 1.37426 17.896 1.57514V5.97225L19.4109 4.43562C19.5962 4.23998 19.8743 4.16 20.1341 4.2306C20.3957 4.29888 20.5976 4.50487 20.6642 4.76727C20.7331 5.02762 20.6557 5.30749 20.463 5.49535L17.743 8.25454L17.7424 8.25531C17.6018 8.43861 17.3845 8.54913 17.1521 8.54653M17.1406 0.814388L17.1533 8.36081M17.1406 0.814388C16.7308 0.823232 16.4056 1.16396 16.4106 1.57504M17.1406 0.814388L16.4106 1.57504M17.1521 8.54653C17.1517 8.54652 17.1513 8.54652 17.1509 8.54651L17.1533 8.36081M17.1521 8.54653C17.1525 8.54653 17.1529 8.54653 17.1533 8.54653V8.36081M17.1521 8.54653C16.9238 8.54616 16.7106 8.44068 16.5696 8.26281M17.1533 8.36081C16.9792 8.36081 16.8161 8.27915 16.7094 8.1401M16.5696 8.26281L16.5771 8.27043L16.7094 8.1401M16.5696 8.26281L13.843 5.49473M16.5696 8.26281C16.5671 8.2596 16.5646 8.25636 16.5621 8.2531L16.7094 8.1401M16.7094 8.1401L13.843 5.49473M13.843 5.49473C13.8433 5.49505 13.8436 5.49537 13.8439 5.4957L13.9744 5.36354L13.8421 5.49387L13.843 5.49473ZM13.843 5.49473C13.6269 5.28068 13.5616 4.95927 13.6734 4.67712L13.6743 4.67498C13.789 4.39574 14.0577 4.2089 14.3617 4.2089C14.5624 4.2089 14.7548 4.28757 14.8955 4.43542M13.843 5.49473L13.8461 4.74555C13.9331 4.53366 14.1354 4.39461 14.3617 4.39461C14.514 4.39461 14.6576 4.45421 14.7621 4.56456M14.8955 4.43542L14.8943 4.43418L14.7621 4.56456M14.8955 4.43542C14.896 4.43591 14.8965 4.43641 14.897 4.43691L14.7621 4.56456M14.8955 4.43542L16.4106 5.97225M14.7621 4.56456L16.4106 6.23678V5.97225M16.4106 5.97225V1.57504M16.4106 5.97225L16.5963 6.16063V1.57391M16.4106 1.57504L17.7103 1.57391C17.7125 1.42162 17.6537 1.27374 17.5471 1.16559C17.4405 1.05744 17.2947 0.997852 17.1446 1.00006C16.8378 1.00668 16.5919 1.26271 16.5963 1.57391M16.4106 1.57504V1.57391H16.5963M16.4106 1.57504C16.4106 1.57553 16.4106 1.57602 16.4106 1.57651L16.5963 1.57391M17.5972 8.13789L17.6016 8.14231L17.6249 8.16526L17.7294 8.26827L17.7394 8.2582M17.5972 8.13789L17.74 8.25753M17.5972 8.13789H17.7829C17.7829 8.14709 17.7822 8.15666 17.7807 8.16648M17.5972 8.13789L17.7807 8.16648M17.7394 8.2582C17.7381 8.25979 17.7369 8.2612 17.7358 8.26244L17.7366 8.26159C17.7376 8.26038 17.7388 8.25903 17.74 8.25753M17.7394 8.2582L17.74 8.25753M17.7394 8.2582C17.7402 8.25719 17.741 8.25612 17.7419 8.25497C17.7459 8.24985 17.7506 8.24336 17.7552 8.23558C17.7626 8.22295 17.7694 8.20805 17.7741 8.19101C17.7788 8.17405 17.7807 8.15758 17.7807 8.14231V8.16648M17.74 8.25753C17.7407 8.25674 17.7413 8.25591 17.742 8.25504C17.7464 8.24953 17.7516 8.24241 17.7567 8.23377C17.7643 8.2208 17.7713 8.20552 17.7761 8.18805C17.7781 8.18077 17.7796 8.17356 17.7807 8.16648M8.97018 23.6883L8.97139 23.689L14.5415 27.0792L14.543 27.08C14.7741 27.2178 15.0588 27.2212 15.2915 27.0884L15.293 27.0875C15.5238 26.9529 15.668 26.7044 15.668 26.4349V19.9648L23.1883 12.3384C23.2747 12.2663 23.3469 12.1753 23.3954 12.0687L23.4291 12.0345V11.9872C23.4681 11.8779 23.4794 11.7619 23.4661 11.6509V10.0493C23.4661 9.638 23.1353 9.29852 22.7234 9.29852H1.55701C1.14516 9.29852 0.814286 9.638 0.814286 10.0493V11.7443C0.814286 11.9429 0.892031 12.1333 1.03093 12.2742L8.61243 19.9648V23.0448C8.61243 23.3076 8.74785 23.5506 8.97018 23.6883ZM2.29974 10.8H21.9807V11.4342L14.6169 18.9039H9.6635L2.29974 11.4342V10.8ZM10.0979 20.4054H14.1825V25.1069L10.0979 22.6204V20.4054Z" fill="#CACACA" stroke="#CACACA" stroke-width="0.371429"/>
</svg>
