<svg width="17" height="13" viewBox="0 0 17 13" fill="none" xmlns="http://www.w3.org/2000/svg">
<path d="M15.8774 0.461339C15.6332 0.46848 15.4014 0.568651 15.2311 0.74063L5.55552 10.2366L2.46006 7.19858C2.37344 7.11004 2.26969 7.03935 2.15489 6.99065C2.04009 6.94195 1.91654 6.91622 1.79148 6.91498C1.66642 6.91373 1.54236 6.93698 1.42657 6.98338C1.31078 7.02977 1.20559 7.09837 1.11715 7.18517C1.02871 7.27196 0.958813 7.3752 0.91154 7.48884C0.864267 7.60248 0.840573 7.72423 0.841846 7.84697C0.843118 7.96971 0.869331 8.09096 0.91895 8.20364C0.968569 8.31631 1.0406 8.41813 1.13081 8.50314L4.8909 12.1934C5.06719 12.3663 5.30625 12.4635 5.55552 12.4635C5.80479 12.4635 6.04385 12.3663 6.22014 12.1934L16.5604 2.04519C16.6962 1.91561 16.789 1.74877 16.8265 1.56655C16.8641 1.38432 16.8447 1.19521 16.7709 1.024C16.697 0.852781 16.5722 0.70745 16.4128 0.607048C16.2534 0.506647 16.0667 0.455858 15.8774 0.461339Z" fill="white"/>
</svg>
