<svg width="11" height="11" viewBox="0 0 11 11" fill="none" xmlns="http://www.w3.org/2000/svg">
<path d="M5.32955 9.59318C7.67455 9.59318 9.59318 7.67455 9.59318 5.32955C9.59318 2.98455 7.67455 1.06591 5.32955 1.06591C2.98455 1.06591 1.06591 2.98455 1.06591 5.32955C1.06591 7.67455 2.98455 9.59318 5.32955 9.59318ZM5.32955 0C8.2608 0 10.6591 2.3983 10.6591 5.32955C10.6591 8.2608 8.2608 10.6591 5.32955 10.6591C2.3983 10.6591 0 8.2608 0 5.32955C0 2.3983 2.3983 0 5.32955 0ZM7.99432 5.06307V5.8625H4.79659V2.66477H5.59602V5.06307H7.99432Z" fill="#696974"/>
</svg>
