<svg xmlns="http://www.w3.org/2000/svg" width="30.677" height="31.177" viewBox="0 0 30.677 31.177">
  <g id="Advance_salary_Loan" data-name="Advance salary/Loan" transform="translate(-4.11)">
    <g id="Group_1700" data-name="Group 1700" transform="translate(4.11 14.374)">
      <g id="Group_1699" data-name="Group 1699">
        <path id="Path_1130" data-name="Path 1130" d="M27.471,247.651l7.316-7.316-.318-.318a3.063,3.063,0,0,0-1.05-.688l.581-.581-.318-.318a3.063,3.063,0,0,0-2.347-.892,3.054,3.054,0,0,0-1.682-.794l.019-.019a2.6,2.6,0,0,0-3.665.185l-1.376,1.376a3.461,3.461,0,0,0,.035-.589l-.011-.438H13.232l-4.518,4.518-.731-.731L4.11,244.919l7.94,7.94,3.873-3.873-.72-.72.615-.615Zm2.718-9.821a3.055,3.055,0,0,0-.849.6l-3.41,3.41H23.964v.9H26.3l3.673-3.673a2.175,2.175,0,0,1,2.72-.285l-.338.338H32.3a3.051,3.051,0,0,0-2.171.9l-3.41,3.41H22.128a3.3,3.3,0,0,1-2.351-.974L18.526,241.2h2.727q.088,0,.174,0h3.334l2.948-2.948A2.175,2.175,0,0,1,30.19,237.831Zm-6.065,1.983.221.03,2.3-2.3a1.948,1.948,0,0,1,1.413-.591,3.053,3.053,0,0,0-.984.66L24.389,240.3h-.822q.068-.062.133-.129a3.5,3.5,0,0,0,.313-.37ZM12.05,251.588l-6.668-6.668,2.6-2.6.095.095,0,0,6.489,6.489,0,0,.084.084Zm2.517-3.958L9.35,242.413l4.255-4.255H23.743A2.518,2.518,0,0,1,21.4,240.3H18.33v0H16.355l2.786,2.786a4.2,4.2,0,0,0,2.987,1.237H27.09l3.673-3.673a2.173,2.173,0,0,1,2.72-.285L27.1,246.752H15.445Z" transform="translate(-4.11 -236.056)" fill="#fafafa"/>
      </g>
    </g>
    <g id="Group_1702" data-name="Group 1702" transform="translate(22.371 20.158)">
      <g id="Group_1701" data-name="Group 1701">
        <rect id="Rectangle_1733" data-name="Rectangle 1733" width="0.81" height="0.899" fill="#fafafa"/>
      </g>
    </g>
    <g id="Group_1704" data-name="Group 1704" transform="translate(6.571 21.979)">
      <g id="Group_1703" data-name="Group 1703">
        <path id="Path_1131" data-name="Path 1131" d="M46.662,361.289a1.245,1.245,0,1,0,0,1.76A1.236,1.236,0,0,0,46.662,361.289Zm-.636,1.124a.345.345,0,1,1,0-.488A.343.343,0,0,1,46.026,362.413Z" transform="translate(-44.537 -360.924)" fill="#fafafa"/>
      </g>
    </g>
    <g id="Group_1706" data-name="Group 1706" transform="translate(17.068 3.969)">
      <g id="Group_1705" data-name="Group 1705">
        <path id="Path_1132" data-name="Path 1132" d="M220.972,65.171a4.066,4.066,0,1,0,4.066,4.066A4.071,4.071,0,0,0,220.972,65.171Zm0,7.233a3.167,3.167,0,1,1,3.167-3.167A3.17,3.17,0,0,1,220.972,72.4Z" transform="translate(-216.906 -65.171)" fill="#fafafa"/>
      </g>
    </g>
    <g id="Group_1708" data-name="Group 1708" transform="translate(19.895 5.466)">
      <g id="Group_1707" data-name="Group 1707">
        <path id="Path_1133" data-name="Path 1133" d="M265.408,92.123a1.961,1.961,0,0,0-.45-.152q-.24-.051-.45-.1a1.292,1.292,0,0,1-.348-.132.276.276,0,0,1-.139-.257.234.234,0,0,1,.139-.237.83.83,0,0,1,.335-.061,1.523,1.523,0,0,1,1.1.419v-.778a1.409,1.409,0,0,0-.791-.264v-.778c0-.014-.009-.02-.027-.02h-.588a.024.024,0,0,0-.027.027v.764a1.855,1.855,0,0,0-.423.228.932.932,0,0,0-.3.33.977.977,0,0,0-.091.446.753.753,0,0,0,.139.457,1.3,1.3,0,0,0,.8.46l.453.1a1.484,1.484,0,0,1,.348.118.228.228,0,0,1,.139.213q0,.253-.322.352a1.51,1.51,0,0,1-.408.041,1.35,1.35,0,0,1-.7-.183,1.2,1.2,0,0,1-.473-.507v.913a3.616,3.616,0,0,0,.866.386l.007.69a.018.018,0,0,0,.02.02h.588a.024.024,0,0,0,.027-.027v-.636a1.743,1.743,0,0,0,.843-.53.883.883,0,0,0,.219-.545A.789.789,0,0,0,265.408,92.123Z" transform="translate(-263.325 -89.762)" fill="#fafafa"/>
      </g>
    </g>
    <g id="Group_1710" data-name="Group 1710" transform="translate(7.499)">
      <g id="Group_1709" data-name="Group 1709">
        <path id="Path_1134" data-name="Path 1134" d="M82.084,2.923v-1.5h-1.79V0H59.767V10.223h1.79v1.421h1.581v1.5H83.666V2.923Zm-20.528,6.4h-.89V.9H79.4v.521H61.557Zm1.581,1.421h-.682V2.32H81.185v.6H63.138Zm19.628,1.5H64.037V3.822H82.767v8.424Z" transform="translate(-59.767)" fill="#fafafa"/>
      </g>
    </g>
    <g id="Group_1712" data-name="Group 1712" transform="translate(9.289 14.501)">
      <g id="Group_1711" data-name="Group 1711">
        <rect id="Rectangle_1734" data-name="Rectangle 1734" width="0.899" height="0.982" fill="#fafafa"/>
      </g>
    </g>
    <g id="Group_1714" data-name="Group 1714" transform="translate(20.685 27.608)">
      <g id="Group_1713" data-name="Group 1713">
        <rect id="Rectangle_1735" data-name="Rectangle 1735" width="0.899" height="0.982" fill="#fafafa"/>
      </g>
    </g>
    <g id="Group_1716" data-name="Group 1716" transform="translate(31.295 24.289)">
      <g id="Group_1715" data-name="Group 1715">
        <rect id="Rectangle_1736" data-name="Rectangle 1736" width="0.899" height="0.982" fill="#fafafa"/>
      </g>
    </g>
    <g id="Group_1718" data-name="Group 1718" transform="translate(29.883 29.081)">
      <g id="Group_1717" data-name="Group 1717">
        <rect id="Rectangle_1737" data-name="Rectangle 1737" width="0.899" height="0.982" fill="#fafafa"/>
      </g>
    </g>
    <g id="Group_1720" data-name="Group 1720" transform="translate(5.301 5.274)">
      <g id="Group_1719" data-name="Group 1719">
        <rect id="Rectangle_1738" data-name="Rectangle 1738" width="0.899" height="0.982" fill="#fafafa"/>
      </g>
    </g>
    <g id="Group_1722" data-name="Group 1722" transform="translate(4.568 12.936)">
      <g id="Group_1721" data-name="Group 1721">
        <rect id="Rectangle_1739" data-name="Rectangle 1739" width="0.899" height="0.982" fill="#fafafa"/>
      </g>
    </g>
  </g>
</svg>
