<svg id="Employee_Details" data-name="Employee Details" xmlns="http://www.w3.org/2000/svg" width="28.911" height="16.679" viewBox="0 0 28.911 16.679">
  <path id="Path_6" data-name="Path 6" d="M27.744,37.6a.563.563,0,0,1-.34-.517.574.574,0,0,1,.178-.421c.035-.033.068-.066.093-.092a3.5,3.5,0,0,0-3.2-5.844,3.419,3.419,0,0,0-2.76,2.681,3.5,3.5,0,0,0,.965,3.248.594.594,0,0,1,.185.421v0a.563.563,0,0,1-.34.522,5.759,5.759,0,0,0-3.1,3.068,7.327,7.327,0,0,0-.611,3.017v.748a1.221,1.221,0,0,0,1.221,1.221h10.19a1.221,1.221,0,0,0,1.221-1.221v-.755a7.31,7.31,0,0,0-.612-3.016A5.758,5.758,0,0,0,27.744,37.6Z" transform="translate(-10.682 -28.98)" fill="#fafafa"/>
  <path id="Path_7" data-name="Path 7" d="M12.3,35.02a5.665,5.665,0,0,0-1.535-.936.563.563,0,0,1-.34-.517.574.574,0,0,1,.178-.421c.035-.033.068-.066.093-.092a3.5,3.5,0,0,0-3.2-5.844,3.419,3.419,0,0,0-2.76,2.681A3.5,3.5,0,0,0,5.7,33.14a.593.593,0,0,1,.185.421v0a.563.563,0,0,1-.34.522,5.759,5.759,0,0,0-3.1,3.068,7.327,7.327,0,0,0-.611,3.017v.748a1.221,1.221,0,0,0,1.221,1.221H8.686v-.282a8.572,8.572,0,0,1,.725-3.55A7.065,7.065,0,0,1,12.3,35.02Z" transform="translate(-1.84 -27.148)" fill="#fafafa"/>
  <path id="Path_8" data-name="Path 8" d="M50.187,37.149a5.757,5.757,0,0,0-3.1-3.064.563.563,0,0,1-.34-.517.574.574,0,0,1,.178-.421c.035-.033.068-.066.093-.092a3.5,3.5,0,0,0-3.2-5.844,3.419,3.419,0,0,0-2.76,2.681,3.5,3.5,0,0,0,.965,3.248.593.593,0,0,1,.185.421v0a.563.563,0,0,1-.34.522,5.67,5.67,0,0,0-1.531.934A7.064,7.064,0,0,1,43.227,38.3a8.551,8.551,0,0,1,.727,3.549v.29h5.624A1.221,1.221,0,0,0,50.8,40.92v-.756a7.309,7.309,0,0,0-.612-3.016Z" transform="translate(-21.888 -27.148)" fill="#fafafa"/>
</svg>
