<svg xmlns="http://www.w3.org/2000/svg" width="25.209" height="18.12" viewBox="0 0 25.209 18.12">
  <g id="Expense_Management" data-name="Expense Management" transform="translate(0)">
    <path id="Path_16" data-name="Path 16" d="M21.542,120.014a.609.609,0,1,1,0,1.217h-.477v1.2h.477a1.819,1.819,0,1,1,0,3.635h-.477v.356a.631.631,0,0,1-1.261,0v-.356h-.477a.609.609,0,1,1,0-1.218H19.8v-1.2h-.477a1.819,1.819,0,1,1,0-3.635H19.8v-.356a.631.631,0,0,1,1.261,0v.356h.477Zm8.315-1.114a.609.609,0,1,1,0-1.218h1.92V115.2H9.091v2.485h1.92a.609.609,0,1,1,0,1.218H9.091v3.531h4.573a6.826,6.826,0,0,1,13.54,0h4.573V118.9Zm0,9.5a.609.609,0,1,1,0-1.218h1.92v-3.531H27.2a6.826,6.826,0,0,1-13.54,0H9.091v3.531h1.92a.609.609,0,1,1,0,1.218H9.091v2.485H31.778V128.4Zm-9.423-10.7a5.35,5.35,0,1,0,5.538,5.346A5.445,5.445,0,0,0,20.435,117.694ZM8.461,113.98H32.409a.62.62,0,0,1,.63.609v16.9a.62.62,0,0,1-.63.609H8.461a.62.62,0,0,1-.631-.609v-16.9A.62.62,0,0,1,8.461,113.98ZM19.8,121.231h-.477a.6.6,0,1,0,0,1.2H19.8Zm1.261,3.618h.477a.6.6,0,1,0,0-1.2h-.477Z" transform="translate(-7.83 -113.98)" fill="#fafafa"/>
  </g>
</svg>
