<svg width="21" height="14" viewBox="0 0 21 14" fill="none" xmlns="http://www.w3.org/2000/svg">
<path d="M6.53085 0.552917C6.66804 0.735248 6.74223 0.957232 6.74223 1.18541C6.74223 1.41359 6.66804 1.63559 6.53085 1.81792L3.24285 5.91792H20.0688C20.2714 5.96321 20.4524 6.07613 20.5822 6.2381C20.7119 6.40006 20.7826 6.60139 20.7826 6.80891C20.7826 7.01644 20.7119 7.21778 20.5822 7.37975C20.4524 7.54171 20.2714 7.65464 20.0688 7.69992H3.25685L6.53085 11.7729C6.66585 11.9547 6.73874 12.175 6.73874 12.4014C6.73874 12.6278 6.66585 12.8482 6.53085 13.0299C6.4736 13.1102 6.39799 13.1757 6.31032 13.2208C6.22265 13.266 6.12546 13.2896 6.02685 13.2896C5.92823 13.2896 5.83104 13.266 5.74337 13.2208C5.65571 13.1757 5.5801 13.1102 5.52285 13.0299L0.976847 7.36192C0.851322 7.19995 0.783203 7.00083 0.783203 6.79591C0.783203 6.59099 0.851322 6.39189 0.976847 6.22992L5.51585 0.552917C5.57304 0.471422 5.64902 0.404889 5.73735 0.358963C5.82569 0.313037 5.92378 0.289062 6.02335 0.289062C6.12291 0.289062 6.221 0.313037 6.30934 0.358963C6.39768 0.404889 6.47366 0.471422 6.53085 0.552917Z" fill="white"/>
</svg>
