<svg xmlns="http://www.w3.org/2000/svg" width="23.169" height="30.611" viewBox="0 0 23.169 30.611">
  <g id="Logout" transform="translate(0)">
    <path id="Path_110" data-name="Path 110" d="M2.545,16.1H12.734a.792.792,0,1,0,0-1.584H2.546l3.327-3.763A.79.79,0,0,0,4.689,9.705L.2,14.783a.788.788,0,0,0,0,1.049l4.488,5.074A.79.79,0,0,0,5.874,19.86L2.545,16.1ZM5.3,24.819a.8.8,0,0,0-1.6,0v3.548a2.225,2.225,0,0,0,.668,1.584,2.282,2.282,0,0,0,1.6.66H20.9a2.283,2.283,0,0,0,1.605-.659,2.223,2.223,0,0,0,.668-1.585V2.244A2.225,2.225,0,0,0,22.5.659,2.281,2.281,0,0,0,20.9,0H5.967A2.281,2.281,0,0,0,4.362.659a2.225,2.225,0,0,0-.668,1.585V5.792a.8.8,0,0,0,1.6,0V2.244a.655.655,0,0,1,.2-.466.671.671,0,0,1,.471-.2H20.9a.67.67,0,0,1,.472.195.653.653,0,0,1,.2.466V28.367a.654.654,0,0,1-.2.465.671.671,0,0,1-.472.2H5.967a.67.67,0,0,1-.471-.2.653.653,0,0,1-.2-.465V24.819Z" transform="translate(0)" fill="#fafafa"/>
  </g>
</svg>
