<svg width="26" height="26" viewBox="0 0 26 26" fill="none" xmlns="http://www.w3.org/2000/svg">
<path fill-rule="evenodd" clip-rule="evenodd" d="M13 0C20.1682 0 26 5.8318 26 13C26 20.1682 20.1682 26 13 26C5.8318 26 0 20.1682 0 13C0 5.8318 5.8318 0 13 0ZM13 1.95C6.9069 1.95 1.95 6.9069 1.95 13C1.95 19.0931 6.9069 24.05 13 24.05C19.0931 24.05 24.05 19.0931 24.05 13C24.05 6.9069 19.0931 1.95 13 1.95ZM12.5596 6.62402C13.0991 6.62402 13.5346 7.06082 13.5346 7.59902V13.3476L17.9611 15.9866C18.4226 16.2635 18.5747 16.8615 18.2991 17.3243C18.1158 17.6298 17.7921 17.8001 17.4606 17.8001C17.2903 17.8001 17.1187 17.7559 16.9614 17.6636L12.0604 14.7399C11.7666 14.5631 11.5846 14.2446 11.5846 13.9014V7.59902C11.5846 7.06082 12.0214 6.62402 12.5596 6.62402Z" fill="white"/>
</svg>
