<svg width="30" height="26" viewBox="0 0 30 26" fill="none" xmlns="http://www.w3.org/2000/svg">
<path fill-rule="evenodd" clip-rule="evenodd" d="M20.6153 0C25.2714 0 29.0588 3.64784 29.0588 8.13373V17.8663C29.0588 22.3508 25.2714 26 20.6153 26H8.44493C3.78881 26 0 22.3508 0 17.8663V8.13373C0 3.64784 3.78881 0 8.44493 0H20.6153ZM20.6153 2.03411H8.44493C4.95319 2.03411 2.11194 4.77067 2.11194 8.13373V17.8663C2.11194 21.2293 4.95319 23.9659 8.44493 23.9659H20.6153C24.107 23.9659 26.9469 21.2293 26.9469 17.8663V17.4866L22.3036 17.4874C19.6327 17.4874 17.4588 15.395 17.4574 12.8238C17.4574 10.25 19.6313 8.15624 22.3036 8.15488L26.9469 8.15407V8.13373C26.9469 4.77067 24.107 2.03411 20.6153 2.03411ZM26.9469 10.1882L22.3036 10.189C20.7957 10.1904 19.5693 11.3715 19.5693 12.8225C19.5693 14.2721 20.7971 15.4533 22.3036 15.4533L26.9469 15.4525V10.1882ZM22.9479 11.7214C23.5308 11.7214 24.0038 12.177 24.0038 12.7384C24.0038 13.2998 23.5308 13.7555 22.9479 13.7555H22.5086C21.9257 13.7555 21.4526 13.2998 21.4526 12.7384C21.4526 12.177 21.9257 11.7214 22.5086 11.7214H22.9479ZM15.044 6.154C15.6269 6.154 16.1 6.60964 16.1 7.17105C16.1 7.73247 15.6269 8.18811 15.044 8.18811H7.44246C6.85957 8.18811 6.38649 7.73247 6.38649 7.17105C6.38649 6.60964 6.85957 6.154 7.44246 6.154H15.044Z" fill="white"/>
</svg>
