<svg width="25" height="26" viewBox="0 0 25 26" fill="none" xmlns="http://www.w3.org/2000/svg">
<path fill-rule="evenodd" clip-rule="evenodd" d="M14.1659 17.2782C15.6216 17.2782 16.8064 18.4546 16.8064 19.9006V23.6195C16.8064 23.9302 17.0555 24.1792 17.3746 24.1865H19.679C21.4949 24.1865 22.9711 22.7284 22.9711 20.9367V10.3893C22.9627 9.77271 22.6689 9.19238 22.1647 8.80671L14.1937 2.44975C13.1238 1.60224 11.627 1.60224 10.5534 2.45217L2.63684 8.80429C2.11334 9.20206 1.81956 9.78238 1.81351 10.4099V20.9367C1.81351 22.7284 3.28971 24.1865 5.10564 24.1865H7.43177C7.75941 24.1865 8.02539 23.9266 8.02539 23.6074C8.02539 23.5373 8.03385 23.4671 8.04836 23.4006V19.9006C8.04836 18.463 9.22593 17.2879 10.6707 17.2782H14.1659ZM19.679 26H17.3529C16.0206 25.9686 14.9929 24.9228 14.9929 23.6195V19.9006C14.9929 19.4544 14.6217 19.0917 14.1659 19.0917H10.6767C10.2306 19.0942 9.86187 19.4581 9.86187 19.9006V23.6074C9.86187 23.698 9.84978 23.7851 9.82439 23.8673C9.69382 25.0642 8.671 26 7.43177 26H5.10564C2.28986 26 0 23.7283 0 20.9367V10.4014C0.0120901 9.19964 0.565815 8.09944 1.52214 7.37525L9.423 1.034C11.1628 -0.344265 13.5868 -0.344265 15.323 1.03159L23.2806 7.37887C24.2152 8.09098 24.7689 9.18876 24.7846 10.376V20.9367C24.7846 23.7283 22.4948 26 19.679 26Z" fill="white"/>
</svg>
