<svg width="28" height="26" viewBox="0 0 28 26" fill="none" xmlns="http://www.w3.org/2000/svg">
<path fill-rule="evenodd" clip-rule="evenodd" d="M10.3996 16.3139C14.8638 16.3139 20.7992 16.8147 20.7992 21.1466C20.7992 25.7098 13.8832 25.9836 10.9166 26L9.8395 26C6.67637 25.9837 0 25.7114 0 21.1739C0 16.6055 6.91603 16.3314 9.88263 16.315L10.2391 16.314C10.2946 16.3139 10.3482 16.3139 10.3996 16.3139ZM10.3996 18.3605C6.5929 18.3605 2.05472 18.8476 2.05472 21.1739C2.05472 23.0185 4.86283 23.9545 10.3996 23.9545C15.9364 23.9545 18.7445 23.009 18.7445 21.1466C18.7445 19.2978 15.9364 18.3605 10.3996 18.3605ZM22.885 15.6766C26.5917 16.2292 27.3684 17.9388 27.3684 19.2745C27.3684 20.2691 26.9369 21.6158 24.8781 22.3921C24.7589 22.4371 24.6356 22.459 24.5137 22.459C24.0987 22.459 23.7083 22.2066 23.5535 21.7986C23.3521 21.2706 23.6192 20.6784 24.1494 20.4792C25.3137 20.0399 25.3137 19.5037 25.3137 19.2745C25.3137 18.5009 24.3946 17.9715 22.5823 17.7027C22.0207 17.6181 21.633 17.0969 21.7166 16.5389C21.8015 15.9795 22.3344 15.6043 22.885 15.6766ZM10.3996 0C14.2775 0 17.4337 3.14354 17.4337 7.00611C17.4418 8.86712 16.7172 10.6244 15.3967 11.9479C14.0789 13.2727 12.3187 14.0054 10.4462 14.0122H10.3996C6.5203 14.0122 3.36426 10.8687 3.36426 7.00611C3.36426 3.14354 6.5203 0 10.3996 0ZM20.1083 1.53329C22.8 1.97262 24.7533 4.26615 24.7533 6.98537C24.7478 9.72095 22.6972 12.0704 19.9823 12.4497C19.9343 12.4565 19.8864 12.4593 19.8384 12.4593C19.3343 12.4593 18.8946 12.0895 18.822 11.5779C18.744 11.0185 19.1343 10.5 19.696 10.4222C21.4055 10.1835 22.6959 8.70585 22.6986 6.984C22.6986 5.27307 21.4685 3.82955 19.7768 3.55394C19.2165 3.46117 18.8371 2.93588 18.9289 2.37785C19.0207 1.81981 19.5508 1.44461 20.1083 1.53329ZM10.3996 2.04657C7.65314 2.04657 5.41897 4.27188 5.41897 7.00611C5.41897 9.74033 7.65314 11.9656 10.3996 11.9656H10.4421C11.7626 11.9602 13.0064 11.4431 13.9392 10.5057C14.8734 9.57114 15.3844 8.32819 15.3789 7.0102C15.3789 4.27188 13.1447 2.04657 10.3996 2.04657Z" fill="white"/>
</svg>
