<svg width="26" height="26" viewBox="0 0 26 26" fill="none" xmlns="http://www.w3.org/2000/svg">
<path fill-rule="evenodd" clip-rule="evenodd" d="M25.067 16.7736C25.6042 16.8144 26.0061 17.2899 25.9658 17.8339L25.7187 21.1385C25.5145 23.865 23.2422 26 20.5434 26H5.45584C2.75699 26 0.484752 23.865 0.28055 21.1385L0.0334267 17.8339C-0.00689344 17.2899 0.396308 16.8144 0.933477 16.7736C1.47325 16.7538 1.93888 17.1398 1.9805 17.685L2.22632 20.9884C2.35379 22.6901 3.7715 24.0243 5.45584 24.0243H20.5434C22.2277 24.0243 23.6467 22.6901 23.7729 20.9884L24.02 17.685C24.0616 17.1398 24.539 16.7525 25.067 16.7736ZM14.6777 0C16.6325 0 18.252 1.48342 18.4959 3.39688L21.0575 3.39803C23.7837 3.39803 26 5.64898 26 8.41756V12.9471C26 13.2988 25.8153 13.6228 25.5175 13.7993C22.3071 15.7032 18.2402 16.8137 13.9749 16.9618L13.9754 19.3308C13.9754 19.8761 13.5383 20.3186 12.9999 20.3186C12.4614 20.3186 12.0244 19.8761 12.0244 19.3308L12.0235 16.9621C7.76252 16.8153 3.69535 15.7046 0.482541 13.7993C0.183392 13.6228 0 13.2988 0 12.9471V8.40438C0 5.64371 2.22281 3.39803 4.95548 3.39803L7.50385 3.39688C7.74777 1.48342 9.36723 0 11.322 0H14.6777ZM21.0575 5.3737H4.95548C3.29845 5.3737 1.95098 6.73296 1.95098 8.40438V12.3715C5.03835 14.0703 8.93057 15.0013 12.9818 15.0031L12.9999 15.0014L13.0143 15.0019L13.6336 14.9954C17.4651 14.903 21.1201 13.9824 24.049 12.3715V8.41756C24.049 6.73823 22.7081 5.3737 21.0575 5.3737ZM14.6777 1.97567H11.322C10.4462 1.97567 9.70696 2.57927 9.48857 3.39721H16.5112C16.2928 2.57927 15.5535 1.97567 14.6777 1.97567Z" fill="white"/>
</svg>
