<svg width="22" height="26" viewBox="0 0 22 26" fill="none" xmlns="http://www.w3.org/2000/svg">
<path d="M15.9545 15.1667C15.9545 15.454 15.8425 15.7295 15.643 15.9327C15.4435 16.1359 15.173 16.25 14.8909 16.25H6.38181C6.09972 16.25 5.82918 16.1359 5.62971 15.9327C5.43024 15.7295 5.31818 15.454 5.31818 15.1667C5.31818 14.8794 5.43024 14.6038 5.62971 14.4006C5.82918 14.1975 6.09972 14.0833 6.38181 14.0833H14.8909C15.173 14.0833 15.4435 14.1975 15.643 14.4006C15.8425 14.6038 15.9545 14.8794 15.9545 15.1667ZM11.7 18.4167H6.38181C6.09972 18.4167 5.82918 18.5308 5.62971 18.734C5.43024 18.9371 5.31818 19.2127 5.31818 19.5C5.31818 19.7873 5.43024 20.0629 5.62971 20.266C5.82918 20.4692 6.09972 20.5833 6.38181 20.5833H11.7C11.9821 20.5833 12.2526 20.4692 12.4521 20.266C12.6516 20.0629 12.7636 19.7873 12.7636 19.5C12.7636 19.2127 12.6516 18.9371 12.4521 18.734C12.2526 18.5308 11.9821 18.4167 11.7 18.4167ZM21.2727 11.3588V20.5833C21.271 22.0194 20.7102 23.3961 19.7132 24.4116C18.7162 25.427 17.3645 25.9983 15.9545 26H5.31818C3.90823 25.9983 2.55651 25.427 1.55952 24.4116C0.562537 23.3961 0.0016889 22.0194 0 20.5833V5.41669C0.0016889 3.98063 0.562537 2.60388 1.55952 1.58843C2.55651 0.57298 3.90823 0.00174515 5.31818 2.49694e-05H10.1205C11.0986 -0.0025392 12.0676 0.192412 12.9713 0.573605C13.875 0.954799 14.6955 1.51467 15.3855 2.22086L19.0912 5.99735C19.7849 6.69961 20.335 7.5351 20.7094 8.45541C21.0839 9.37572 21.2754 10.3626 21.2727 11.3588V11.3588ZM13.8815 3.75269C13.5468 3.42245 13.1709 3.13836 12.7636 2.90769V7.58335C12.7636 7.87067 12.8757 8.14622 13.0752 8.34938C13.2746 8.55255 13.5452 8.66668 13.8273 8.66668H18.4179C18.1913 8.25197 17.912 7.86951 17.5872 7.52918L13.8815 3.75269ZM19.1454 11.3588C19.1454 11.18 19.1114 11.0088 19.0954 10.8333H13.8273C12.981 10.8333 12.1694 10.4909 11.5709 9.88145C10.9725 9.27195 10.6364 8.4453 10.6364 7.58335V2.21761C10.464 2.20136 10.2949 2.16669 10.1205 2.16669H5.31818C4.47189 2.16669 3.66028 2.5091 3.06186 3.11859C2.46345 3.72808 2.12727 4.55473 2.12727 5.41669V20.5833C2.12727 21.4453 2.46345 22.2719 3.06186 22.8814C3.66028 23.4909 4.47189 23.8333 5.31818 23.8333H15.9545C16.8008 23.8333 17.6124 23.4909 18.2108 22.8814C18.8092 22.2719 19.1454 21.4453 19.1454 20.5833V11.3588Z" fill="white"/>
</svg>
