<svg id="Attendance" xmlns="http://www.w3.org/2000/svg" width="31.618" height="23.811" viewBox="0 0 31.618 23.811">
  <path id="Path_1110" data-name="Path 1110" d="M17.84,3.848H26.9a1.675,1.675,0,0,1,1.67,1.67V18.965a1.675,1.675,0,0,1-1.67,1.67H17.84a1.675,1.675,0,0,1-1.67-1.67V5.519a1.675,1.675,0,0,1,1.67-1.67ZM2.353,0H29.265a2.359,2.359,0,0,1,2.353,2.353V21.458a2.359,2.359,0,0,1-2.353,2.353H2.353A2.359,2.359,0,0,1,0,21.458V2.353A2.359,2.359,0,0,1,2.353,0Zm9.985,18.452h1.02a.662.662,0,0,1,.66.66v.84a.661.661,0,0,1-.66.66h-1.02a.662.662,0,0,1-.66-.66v-.84a.662.662,0,0,1,.66-.66Zm0-3.506h1.02a.662.662,0,0,1,.66.66v.84a.661.661,0,0,1-.66.66h-1.02a.662.662,0,0,1-.66-.66v-.84a.662.662,0,0,1,.66-.66ZM8.4,18.452h1.02a.662.662,0,0,1,.66.66v.84a.662.662,0,0,1-.66.66H8.4a.661.661,0,0,1-.66-.66v-.84a.661.661,0,0,1,.66-.66Zm0-3.506h1.02a.662.662,0,0,1,.66.66v.84a.662.662,0,0,1-.66.66H8.4a.661.661,0,0,1-.66-.66v-.84a.661.661,0,0,1,.66-.66Zm-3.94,3.506h1.02a.662.662,0,0,1,.66.66v.84a.662.662,0,0,1-.66.66H4.458a.662.662,0,0,1-.66-.66v-.84a.662.662,0,0,1,.66-.66Zm0-3.506h1.02a.662.662,0,0,1,.66.66v.84a.662.662,0,0,1-.66.66H4.458a.662.662,0,0,1-.66-.66v-.84a.662.662,0,0,1,.66-.66ZM5.227,3.961h7.361a1.882,1.882,0,0,1,1.332.555h0a1.884,1.884,0,0,1,.555,1.334v5.079a1.9,1.9,0,0,1-1.889,1.889H5.227a1.885,1.885,0,0,1-1.334-.555l-.032-.035a1.881,1.881,0,0,1-.523-1.3V5.849a1.883,1.883,0,0,1,.554-1.332l0,0a1.884,1.884,0,0,1,1.332-.554Zm7.361,1.09H5.227a.8.8,0,0,0-.8.8v5.079a.8.8,0,0,0,.213.542l.022.021a.8.8,0,0,0,.563.235h7.361a.8.8,0,0,0,.8-.8V5.849a.8.8,0,0,0-.8-.8ZM29.265,1.279H2.353A1.079,1.079,0,0,0,1.279,2.353V21.458a1.079,1.079,0,0,0,1.074,1.075H29.265a1.079,1.079,0,0,0,1.074-1.075V2.353a1.079,1.079,0,0,0-1.074-1.074ZM23.81,6.442a4.975,4.975,0,0,1,1.364.725A3.534,3.534,0,0,1,26.1,8.2a4.434,4.434,0,0,1,.238.476,4.82,4.82,0,0,1,.188.518,7.429,7.429,0,0,1,.2.824q.08.434.121.9c.027.306.041.633.042.978s-.009.693-.032,1.058c-.019.221-.045.442-.067.663a.127.127,0,0,1-.127.115h-.489a.128.128,0,0,1-.128-.128l.069-.682c0-.2.006-.415.011-.63a11.316,11.316,0,0,0-.02-1.313q-.038-.443-.109-.834a6.788,6.788,0,0,0-.178-.742,4.23,4.23,0,0,0-.159-.435l0-.006a3.826,3.826,0,0,0-.2-.4l0-.006a2.814,2.814,0,0,0-.744-.817,4.233,4.233,0,0,0-1.143-.6,3.374,3.374,0,0,0-1.062-.188,3.561,3.561,0,0,0-1.086.152,3.652,3.652,0,0,0-.378.141,3.486,3.486,0,0,0-.356.179.371.371,0,1,1-.371-.643,4.136,4.136,0,0,1,.432-.217l.009,0A4.225,4.225,0,0,1,21.2,6.4a4.293,4.293,0,0,1,1.316-.184,4.117,4.117,0,0,1,1.291.228Zm-3.573,4.149a5.6,5.6,0,0,0,.015.953c.008.116.017.234.023.35.013.232.022.462.027.687s0,.43,0,.633-.027.528-.051.841v0c-.022.284-.048.554-.069.693a.128.128,0,0,1-.126.109h-.492a.128.128,0,0,1-.128-.128l0-.031c.021-.137.048-.4.07-.673.027-.321.048-.653.053-.834s.006-.4,0-.606-.013-.426-.027-.656c0-.11-.015-.226-.022-.337a6.15,6.15,0,0,1-.013-1.116,2.959,2.959,0,0,1,.384-1.165,2.672,2.672,0,0,1,.174-.271,2.553,2.553,0,0,1,.208-.25,3.586,3.586,0,0,1,.318-.29,1.158,1.158,0,0,1,.26-.169c.141-.068.281-.127.418-.178a4.017,4.017,0,0,1,.426-.131h.006a3.219,3.219,0,0,1,.435-.076,2.82,2.82,0,0,1,.432-.011h.02a.371.371,0,0,1,.242.121.366.366,0,0,1,.1.26v.02a.371.371,0,0,1-.388.337,2.132,2.132,0,0,0-.329.009,2.575,2.575,0,0,0-.337.059,3.326,3.326,0,0,0-.347.108c-.117.043-.233.093-.349.148a2.081,2.081,0,0,0-.193.141,1.855,1.855,0,0,0-.17.16,1.908,1.908,0,0,0-.149.179,1.845,1.845,0,0,0-.125.2,2.3,2.3,0,0,0-.294.914Zm-1.306,2.022a4.844,4.844,0,0,1-.152,1.017c-.029.091-.056.171-.089.261a.127.127,0,0,1-.119.081H18.04a.128.128,0,0,1-.128-.128.126.126,0,0,1,.017-.065c.027-.055.051-.111.073-.168s.045-.124.065-.19a3.124,3.124,0,0,0,.116-.71,5.07,5.07,0,0,0-.033-.866,6.484,6.484,0,0,1-.127-1.005,5.07,5.07,0,0,1,.043-.942,4.141,4.141,0,0,1,.222-.878,3.674,3.674,0,0,1,.4-.775l0,0a.372.372,0,0,1,.235-.152.367.367,0,0,1,.277.058l0,0a.371.371,0,0,1,.094.513,2.929,2.929,0,0,0-.321.622l0,.006A3.436,3.436,0,0,0,18.8,10a4.406,4.406,0,0,0-.036.814,5.705,5.705,0,0,0,.112.883,3.388,3.388,0,0,1,.054.913Zm4.88-4.289.116.075c.08.057.145.106.221.167l.107.094a3.673,3.673,0,0,1,1.006,1.646,7.192,7.192,0,0,1,.3,2.058c0,.289-.013.7-.039,1.114-.03.476-.072.957-.111,1.271a.128.128,0,0,1-.127.112h-.489a.128.128,0,0,1-.128-.128l0-.027c.039-.31.082-.778.112-1.24.027-.413.043-.818.04-1.095a6.509,6.509,0,0,0-.25-1.8,2.984,2.984,0,0,0-.813-1.362l-.08-.07L23.51,9.01l-.085-.054A.371.371,0,0,1,23.3,8.45l.005-.007a.37.37,0,0,1,.5-.118Zm.169,3.581c.015.118.026.231.036.349.027.4.03,1.059.013,1.732-.016.631-.05,1.276-.1,1.732l-.01.085a.127.127,0,0,1-.127.113H21.169a.128.128,0,0,1-.128-.128l0-.023c.022-.248.026-.653.02-1.083-.008-.563-.034-1.174-.059-1.535l-.026-.387-.021-.388c-.008-.192-.014-.383-.009-.569a3.129,3.129,0,0,1,.059-.553,1.74,1.74,0,0,1,.667-1.079,1.266,1.266,0,0,1,.673-.241,1.19,1.19,0,0,1,.71.2,2.129,2.129,0,0,1,.814,1.255l0,.006c.017.062.033.127.049.194s.03.14.042.208l.017.115Z" fill="#57b993" fill-rule="evenodd"/>
</svg>
