<svg id="Project_Details" data-name="Project Details" xmlns="http://www.w3.org/2000/svg" width="26.302" height="28.23" viewBox="0 0 26.302 28.23">
  <path id="Path_22" data-name="Path 22" d="M24.191,17.512l.872.872a.582.582,0,0,1,0,.826l-.711.711a5.115,5.115,0,0,1,.436,1.171h.918a.608.608,0,0,1,.6.6v1.239a.608.608,0,0,1-.6.6h-.987a4.959,4.959,0,0,1-.5,1.125l.643.643a.582.582,0,0,1,0,.826l-.872.872a.582.582,0,0,1-.826,0l-.711-.711a5.115,5.115,0,0,1-1.171.436v.918a.608.608,0,0,1-.6.6H19.44a.608.608,0,0,1-.6-.6v-1.01a4.959,4.959,0,0,1-1.125-.5l-.643.643a.582.582,0,0,1-.826,0l-.872-.872a.582.582,0,0,1,0-.826l.711-.711a5.115,5.115,0,0,1-.436-1.171h-.918a.608.608,0,0,1-.6-.6V21.345a.608.608,0,0,1,.6-.6h.987a4.959,4.959,0,0,1,.5-1.125l-.62-.62a.582.582,0,0,1,0-.826l.872-.872a.582.582,0,0,1,.826,0l.711.711a5.115,5.115,0,0,1,1.171-.436v-.918a.608.608,0,0,1,.6-.6h1.239a.608.608,0,0,1,.6.6v.987a4.959,4.959,0,0,1,1.125.5l.643-.643a.554.554,0,0,1,.8,0ZM9.5,18.866a.644.644,0,0,1-.574-.689.63.63,0,0,1,.574-.689h2.846a.644.644,0,0,1,.574.689.63.63,0,0,1-.574.689Zm.849,6.908a.689.689,0,0,1,0,1.377H1.63a1.634,1.634,0,0,1-1.148-.482A1.594,1.594,0,0,1,0,25.522V1.63A1.594,1.594,0,0,1,.482.482,1.594,1.594,0,0,1,1.63,0h19.9a1.634,1.634,0,0,1,1.148.482,1.594,1.594,0,0,1,.482,1.148V12.715a.689.689,0,1,1-1.377,0V1.63a.235.235,0,0,0-.23-.23H1.63a.208.208,0,0,0-.161.069A.179.179,0,0,0,1.4,1.63V25.568a.235.235,0,0,0,.23.23h8.721v-.023ZM4.315,17.007H6.771a.217.217,0,0,1,.23.23v2.112a.217.217,0,0,1-.23.23H4.315a.217.217,0,0,1-.23-.23V17.236a.217.217,0,0,1,.23-.23Zm0-12.141H6.771A.217.217,0,0,1,7,5.1V7.207a.217.217,0,0,1-.23.23H4.315a.217.217,0,0,1-.23-.23V5.1a.217.217,0,0,1,.23-.23ZM9.5,6.725a.644.644,0,0,1-.574-.689A.63.63,0,0,1,9.5,5.348h7.964a.644.644,0,0,1,.574.689.63.63,0,0,1-.574.689ZM5.026,13.174a.4.4,0,0,1-.528-.069l-.046-.046L3.718,12.3a.417.417,0,0,1,.069-.6.49.49,0,0,1,.643-.023l.39.413,1.285-1.033a.4.4,0,0,1,.574.138.462.462,0,0,1-.046.643L5.026,13.174Zm4.085-.6a.644.644,0,0,1-.574-.689.63.63,0,0,1,.574-.689h7.964a.644.644,0,0,1,.574.689.63.63,0,0,1-.574.689ZM20.22,19.715a2.433,2.433,0,1,1-2.433,2.433,2.434,2.434,0,0,1,2.433-2.433Z" transform="translate(0 0)" fill="#57b993" fill-rule="evenodd"/>
</svg>
