<svg id="Settings" xmlns="http://www.w3.org/2000/svg" width="26.61" height="26.61" viewBox="0 0 26.61 26.61">
  <path id="Path_1144" data-name="Path 1144" d="M12,15a3,3,0,1,0-3-3A3,3,0,0,0,12,15Z" transform="translate(1.305 1.305)" fill="none" stroke="#57b993" stroke-linecap="round" stroke-linejoin="round" stroke-width="2"/>
  <path id="Path_1145" data-name="Path 1145" d="M21.583,16.661a1.845,1.845,0,0,0,.369,2.036l.067.067a2.239,2.239,0,1,1-3.166,3.166l-.067-.067a1.858,1.858,0,0,0-3.155,1.32v.19a2.237,2.237,0,0,1-4.475,0v-.1a1.845,1.845,0,0,0-1.208-1.689,1.845,1.845,0,0,0-2.036.369l-.067.067A2.239,2.239,0,1,1,4.68,18.854l.067-.067a1.858,1.858,0,0,0-1.32-3.155h-.19a2.237,2.237,0,0,1,0-4.475h.1A1.845,1.845,0,0,0,5.027,9.949a1.845,1.845,0,0,0-.369-2.036l-.067-.067A2.239,2.239,0,1,1,7.757,4.68l.067.067a1.845,1.845,0,0,0,2.036.369h.089a1.846,1.846,0,0,0,1.119-1.689v-.19a2.237,2.237,0,0,1,4.475,0v.1A1.858,1.858,0,0,0,18.7,4.658l.067-.067A2.239,2.239,0,1,1,21.93,7.757l-.067.067a1.845,1.845,0,0,0-.369,2.036v.089a1.846,1.846,0,0,0,1.689,1.119h.19a2.237,2.237,0,0,1,0,4.475h-.1a1.846,1.846,0,0,0-1.689,1.119Z" fill="none" stroke="#57b993" stroke-linecap="round" stroke-linejoin="round" stroke-width="2"/>
</svg>
