<svg width="41" height="28" viewBox="0 0 41 28" fill="none" xmlns="http://www.w3.org/2000/svg">
<path d="M0.166016 0.03125H40.9154V27.8149H0.166016V0.03125Z" fill="#E3E4E5"/>
<path d="M10.1211 0.03125H40.9146V27.8149H10.1211V0.03125Z" fill="#1B5E20"/>
<path d="M25.171 5.58984C22.9604 5.58984 20.8404 6.468 19.2772 8.03114C17.7141 9.59427 16.8359 11.7143 16.8359 13.9249C16.8359 16.1355 17.7141 18.2556 19.2772 19.8187C20.8404 21.3819 22.9604 22.26 25.171 22.26C27.3816 22.26 29.5017 21.3819 31.0648 19.8187C32.628 18.2556 33.5061 16.1355 33.5061 13.9249C33.5061 11.7143 32.628 9.59427 31.0648 8.03114C29.5017 6.468 27.3816 5.58984 25.171 5.58984Z" fill="#ECEFF1"/>
<path d="M22.2566 5.72318C20.6962 7.11025 19.7507 9.06038 19.6281 11.1446C19.5055 13.2288 20.2159 15.2763 21.603 16.8367C22.9901 18.3971 24.9402 19.3426 27.0244 19.4652C29.1086 19.5878 31.1561 18.8774 32.7165 17.4904C34.2769 16.1033 35.2225 14.1532 35.345 12.069C35.4676 9.98478 34.7572 7.93726 33.3702 6.37683C31.9831 4.81641 30.033 3.8709 27.9488 3.74832C25.8646 3.62574 23.8171 4.33612 22.2566 5.72318Z" fill="#1B5E20"/>
<path d="M27.9507 7.44531L31.2199 11.9389L25.9336 10.2246L31.2171 8.50479L27.9544 13.002L27.9507 7.44531Z" fill="#ECEFF1"/>
</svg>
