<svg width="27" height="26" viewBox="0 0 27 26" fill="none" xmlns="http://www.w3.org/2000/svg">
<path fill-rule="evenodd" clip-rule="evenodd" d="M12.1004 0C15.2802 0 17.8672 2.587 17.8672 5.7668V6.9784C17.8672 7.5166 17.4304 7.9534 16.8922 7.9534C16.354 7.9534 15.9172 7.5166 15.9172 6.9784V5.7668C15.9172 3.6608 14.2051 1.95 12.1004 1.95H5.7629C3.6608 1.95 1.95 3.6608 1.95 5.7668V20.2345C1.95 22.3392 3.6608 24.05 5.7629 24.05H12.1147C14.2103 24.05 15.9172 22.3444 15.9172 20.2488V19.0229C15.9172 18.4847 16.354 18.0479 16.8922 18.0479C17.4304 18.0479 17.8672 18.4847 17.8672 19.0229V20.2488C17.8672 23.4208 15.2854 26 12.1147 26H5.7629C2.5857 26 0 23.4143 0 20.2345V5.7668C0 2.587 2.5857 0 5.7629 0H12.1004ZM22.6045 8.5202L26.4109 12.3097C26.4449 12.3434 26.4753 12.3784 26.5031 12.4155L26.4109 12.3097C26.457 12.3551 26.4979 12.4047 26.5335 12.4576C26.5491 12.4816 26.5642 12.5064 26.5782 12.5319C26.5895 12.5518 26.6 12.5726 26.6097 12.5937C26.6179 12.6124 26.6258 12.631 26.6331 12.65C26.6429 12.6747 26.6514 12.7001 26.659 12.7258C26.6646 12.7461 26.6699 12.7663 26.6744 12.7868C26.6802 12.8116 26.6848 12.8366 26.6884 12.8618C26.6904 12.8782 26.6924 12.8953 26.694 12.9126C26.6969 12.9422 26.6982 12.9711 26.6982 13L26.6916 13.0806L26.6889 13.1322C26.6886 13.1344 26.6883 13.1367 26.688 13.1389L26.6982 13C26.6982 13.0722 26.6902 13.1436 26.6747 13.2131C26.6699 13.2337 26.6646 13.2539 26.6588 13.2738C26.6514 13.2999 26.6429 13.3253 26.6332 13.3503C26.6258 13.369 26.6179 13.3876 26.6094 13.406C26.6 13.4274 26.5895 13.4482 26.5784 13.4686C26.5642 13.4936 26.5491 13.5184 26.533 13.5424C26.5239 13.5567 26.5139 13.5707 26.5035 13.5845C26.4725 13.6253 26.4388 13.6636 26.4023 13.6991L22.6045 17.4811C22.4147 17.6709 22.1651 17.7658 21.9168 17.7658C21.6672 17.7658 21.4163 17.6709 21.2265 17.4785C20.8469 17.0963 20.8482 16.4801 21.2291 16.1005L23.361 13.975H10.0695C9.53134 13.975 9.09454 13.5382 9.09454 13C9.09454 12.4618 9.53134 12.025 10.0695 12.025H23.3636L21.2291 9.9008C20.8482 9.5212 20.8456 8.905 21.2265 8.5228C21.6061 8.1406 22.2223 8.1406 22.6045 8.5202Z" fill="white"/>
</svg>
