<svg width="26" height="26" viewBox="0 0 26 26" fill="none" xmlns="http://www.w3.org/2000/svg">
<path d="M26.0001 24.9167C26.0001 25.204 25.886 25.4796 25.6828 25.6827C25.4797 25.8859 25.2041 26 24.9168 26H1.08501C0.797711 26 0.522178 25.8859 0.319027 25.6827C0.115875 25.4796 0.00174572 25.204 0.00174572 24.9167C0.00174572 24.6294 0.115875 24.3539 0.319027 24.1508C0.522178 23.9476 0.797711 23.8335 1.08501 23.8335H24.9168C25.2041 23.8335 25.4797 23.9476 25.6828 24.1508C25.886 24.3539 26.0001 24.6294 26.0001 24.9167ZM0.316976 9.26573C0.0835563 8.83277 -0.0245834 8.34333 0.00469266 7.85234C0.0339687 7.36134 0.199502 6.88822 0.482715 6.48607C0.945549 5.80699 1.56538 5.24959 2.2896 4.86117L10.4152 0.632107C11.2138 0.216817 12.1007 0 13.0009 0C13.9011 0 14.788 0.216817 15.5867 0.632107L23.7112 4.86442C24.4354 5.25284 25.0552 5.81024 25.518 6.48932C25.8013 6.89147 25.9668 7.36459 25.9961 7.85559C26.0253 8.34658 25.9172 8.83602 25.6838 9.26898C25.4325 9.74434 25.0556 10.1417 24.5941 10.4177C24.1326 10.6937 23.6043 10.8378 23.0666 10.8343H22.7503V19.5004H23.8336C24.1209 19.5004 24.3964 19.6145 24.5995 19.8177C24.8027 20.0208 24.9168 20.2964 24.9168 20.5837C24.9168 20.871 24.8027 21.1465 24.5995 21.3497C24.3964 21.5528 24.1209 21.6669 23.8336 21.6669H2.16827C1.88097 21.6669 1.60544 21.5528 1.40229 21.3497C1.19914 21.1465 1.08501 20.871 1.08501 20.5837C1.08501 20.2964 1.19914 20.0208 1.40229 19.8177C1.60544 19.6145 1.88097 19.5004 2.16827 19.5004H3.25154V10.8343H2.93523C2.39702 10.8377 1.86822 10.6932 1.40651 10.4165C0.944805 10.1399 0.567923 9.74186 0.316976 9.26573ZM5.41807 19.5004H8.66786V10.8343H5.41807V19.5004ZM10.8344 10.8343V19.5004H15.1674V10.8343H10.8344ZM20.5838 10.8343H17.334V19.5004H20.5838V10.8343ZM2.23652 8.26154C2.30449 8.38685 2.40563 8.49104 2.52887 8.56269C2.65212 8.63434 2.7927 8.67069 2.93523 8.66776H23.0666C23.2091 8.67069 23.3497 8.63434 23.473 8.56269C23.5962 8.49104 23.6974 8.38685 23.7653 8.26154C23.8148 8.17874 23.8388 8.08316 23.8341 7.9868C23.8295 7.89043 23.7965 7.79759 23.7393 7.71991C23.4769 7.32984 23.1242 7.00879 22.7113 6.78397L14.5868 2.55165C14.0972 2.29754 13.5536 2.1649 13.002 2.1649C12.4504 2.1649 11.9068 2.29754 11.4172 2.55165L3.2927 6.78397C2.87996 7.00951 2.52741 7.33086 2.26469 7.72099C2.20737 7.79834 2.17413 7.89088 2.16912 7.98702C2.16411 8.08316 2.18755 8.17865 2.23652 8.26154Z" fill="white"/>
</svg>
