<svg width="26" height="26" viewBox="0 0 26 26" fill="none" xmlns="http://www.w3.org/2000/svg">
<path fill-rule="evenodd" clip-rule="evenodd" d="M18.6342 0C23.0399 0 26 3.0914 26 7.6908V18.3092C26 22.9086 23.0399 26 18.6316 26H7.3632C2.9588 26 0 22.9086 0 18.3092V7.6908C0 3.0914 2.9588 0 7.3632 0H18.6342ZM18.6342 1.95H7.3632C4.0755 1.95 1.95 4.2029 1.95 7.6908V18.3092C1.95 21.7971 4.0755 24.05 7.3632 24.05H18.6316C21.9232 24.05 24.05 21.7971 24.05 18.3092V7.6908C24.05 4.2029 21.9232 1.95 18.6342 1.95ZM12.9922 12.025C13.5304 12.025 13.9672 12.4618 13.9672 13V18.2C13.9672 18.7382 13.5304 19.175 12.9922 19.175C12.454 19.175 12.0172 18.7382 12.0172 18.2V13C12.0172 12.4618 12.454 12.025 12.9922 12.025ZM12.9986 6.76533C13.7175 6.76533 14.2986 7.34643 14.2986 8.06533C14.2986 8.78423 13.7175 9.36533 12.9986 9.36533C12.2797 9.36533 11.6921 8.78423 11.6921 8.06533C11.6921 7.34643 12.268 6.76533 12.9856 6.76533H12.9986Z" fill="white"/>
</svg>
