<svg width="26" height="26" viewBox="0 0 26 26" fill="none" xmlns="http://www.w3.org/2000/svg">
<path fill-rule="evenodd" clip-rule="evenodd" d="M18.6668 0C23.0529 0 26 3.07888 26 7.66093V18.3391C26 22.9211 23.0529 26 18.6668 26H7.33321C2.94707 26 0 22.9211 0 18.3391V7.66093C0 3.07888 2.94707 0 7.33321 0H18.6668ZM18.6668 1.81395H7.33321C3.98102 1.81395 1.81395 4.108 1.81395 7.66093V18.3391C1.81395 21.892 3.98102 24.186 7.33321 24.186H18.6668C22.0202 24.186 24.186 21.892 24.186 18.3391V7.66093C24.186 4.108 22.0202 1.81395 18.6668 1.81395ZM7.40226 9.9193C7.90291 9.9193 8.30924 10.3256 8.30924 10.8263V19.1221C8.30924 19.6227 7.90291 20.0291 7.40226 20.0291C6.90161 20.0291 6.49528 19.6227 6.49528 19.1221V10.8263C6.49528 10.3256 6.90161 9.9193 7.40226 9.9193ZM13.0461 5.94795C13.5467 5.94795 13.9531 6.35428 13.9531 6.85493V19.1209C13.9531 19.6215 13.5467 20.0279 13.0461 20.0279C12.5454 20.0279 12.1391 19.6215 12.1391 19.1209V6.85493C12.1391 6.35428 12.5454 5.94795 13.0461 5.94795ZM18.5971 14.303C19.0978 14.303 19.5041 14.7093 19.5041 15.21V19.1209C19.5041 19.6215 19.0978 20.0279 18.5971 20.0279C18.0965 20.0279 17.6902 19.6215 17.6902 19.1209V15.21C17.6902 14.7093 18.0965 14.303 18.5971 14.303Z" fill="white"/>
</svg>
