<svg width="22" height="16" viewBox="0 0 22 16" fill="none" xmlns="http://www.w3.org/2000/svg">
<path d="M2.09545 6.12507H16.7955L13.2575 2.58807C13.1157 2.4514 13.0032 2.28729 12.9268 2.10574C12.8505 1.92419 12.8119 1.72901 12.8135 1.53207C12.8179 1.1273 12.9806 0.740341 13.2667 0.454016C13.5528 0.16769 13.9397 0.00474994 14.3445 7.01631e-05C14.5414 -0.00187179 14.7368 0.036517 14.9184 0.112874C15.1 0.189231 15.264 0.301941 15.4005 0.44407L21.4925 6.53607C21.6528 6.6749 21.7811 6.84681 21.8686 7.03998C21.9562 7.23316 22.0008 7.443 21.9995 7.65507C22.0062 7.86518 21.9652 8.07409 21.8795 8.26603C21.7937 8.45797 21.6655 8.62793 21.5045 8.76307L15.4045 14.8631C15.268 15.0052 15.104 15.1179 14.9224 15.1943C14.7408 15.2706 14.5454 15.309 14.3485 15.3071C13.9438 15.3026 13.5569 15.1399 13.2708 14.8538C12.9846 14.5676 12.8219 14.1807 12.8175 13.7761C12.8159 13.5791 12.8545 13.3839 12.9308 13.2024C13.0072 13.0209 13.1197 12.8567 13.2615 12.7201L16.7985 9.18307H2.09545C1.68941 9.18307 1.29999 9.02177 1.01287 8.73465C0.725754 8.44753 0.564453 8.05812 0.564453 7.65207C0.564453 7.24602 0.725754 6.85661 1.01287 6.56949C1.29999 6.28237 1.68941 6.12107 2.09545 6.12107V6.12507Z" fill="white"/>
</svg>
