<svg width="22" height="16" viewBox="0 0 22 16" fill="none" xmlns="http://www.w3.org/2000/svg">
<path d="M19.9007 6.12507H5.20672L8.74372 2.58807C8.88552 2.4514 8.99801 2.28729 9.07435 2.10574C9.15068 1.92419 9.18925 1.72901 9.18772 1.53207C9.18331 1.1273 9.02062 0.740341 8.73448 0.454016C8.44834 0.16769 8.06149 0.00474994 7.65672 7.01631e-05C7.45973 -0.00187179 7.26442 0.036517 7.08281 0.112874C6.9012 0.189231 6.73714 0.301941 6.60072 0.44407L0.507723 6.53607C0.347273 6.67501 0.218859 6.84708 0.131331 7.04044C0.0438027 7.23379 -0.00075684 7.44383 0.00072338 7.65607C-0.00606249 7.86618 0.0349676 8.0751 0.120717 8.26703C0.206466 8.45897 0.334694 8.62893 0.495723 8.76407L6.59572 14.8641C6.73214 15.0062 6.89621 15.1189 7.07781 15.1953C7.25942 15.2716 7.45473 15.31 7.65172 15.3081C8.0564 15.3037 8.44325 15.1409 8.72942 14.8548C9.01558 14.5686 9.1783 14.1817 9.18272 13.7771C9.18425 13.5801 9.14568 13.3849 9.06935 13.2034C8.99301 13.0219 8.88052 12.8577 8.73872 12.7211L5.20672 9.18707H19.9007C20.3068 9.18707 20.6962 9.02577 20.9833 8.73865C21.2704 8.45153 21.4317 8.06212 21.4317 7.65607C21.4317 7.25002 21.2704 6.86061 20.9833 6.57349C20.6962 6.28637 20.3068 6.12507 19.9007 6.12507Z" fill="#8B8B8B"/>
</svg>
