<svg width="30" height="30" viewBox="0 0 30 30" fill="none" xmlns="http://www.w3.org/2000/svg">
<path d="M15 29.5C11.1269 29.5 7.48564 27.9917 4.74695 25.2531C2.00826 22.5144 0.5 18.8731 0.5 15C0.5 11.1269 2.00826 7.48564 4.74695 4.74695C7.48564 2.00826 11.1269 0.5 15 0.5C18.8731 0.5 22.5144 2.00826 25.2531 4.74695C27.9917 7.48564 29.5 11.1269 29.5 15C29.5 18.8731 27.9917 22.5144 25.2531 25.2531C22.5144 27.9917 18.8731 29.5 15 29.5Z" fill="white"/>
<path d="M15 1C11.2605 1 7.74476 2.45625 5.10051 5.10051C2.45625 7.74476 1 11.2605 1 15C1 18.7395 2.45625 22.2552 5.10051 24.8995C7.74476 27.5438 11.2605 29 15 29C18.7395 29 22.2552 27.5438 24.8995 24.8995C27.5438 22.2552 29 18.7395 29 15C29 11.2605 27.5438 7.74476 24.8995 5.10051C22.2552 2.45625 18.7395 1 15 1ZM15 0C23.2843 0 30 6.71573 30 15C30 23.2843 23.2843 30 15 30C6.71573 30 0 23.2843 0 15C0 6.71573 6.71573 0 15 0Z" fill="#8B8B8B"/>
<path d="M21.504 14.014H11.238L13.704 11.544C13.8031 11.4485 13.8817 11.3338 13.935 11.2069C13.9883 11.08 14.0152 10.9436 14.014 10.806C14.0107 10.5241 13.8973 10.2547 13.6982 10.0552C13.4991 9.85573 13.2299 9.74189 12.948 9.738C12.8104 9.73654 12.6739 9.76329 12.5469 9.81661C12.42 9.86992 12.3053 9.94867 12.21 10.048L7.95802 14.301C7.84612 14.3979 7.75653 14.5179 7.69543 14.6527C7.63432 14.7875 7.60313 14.934 7.60402 15.082C7.59929 15.2286 7.62789 15.3743 7.68765 15.5082C7.74741 15.6421 7.83678 15.7607 7.94902 15.855L12.211 20.116C12.3063 20.2153 12.421 20.2941 12.5479 20.3474C12.6749 20.4007 12.8114 20.4275 12.949 20.426C13.2312 20.4226 13.5009 20.309 13.7005 20.1095C13.9 19.9099 14.0136 19.6402 14.017 19.358C14.0182 19.2204 13.9913 19.084 13.938 18.9571C13.8847 18.8302 13.8061 18.7155 13.707 18.62L11.238 16.151H21.504C21.7875 16.151 22.0594 16.0384 22.2599 15.8379C22.4604 15.6374 22.573 15.3655 22.573 15.082C22.573 14.7985 22.4604 14.5266 22.2599 14.3261C22.0594 14.1256 21.7875 14.013 21.504 14.013V14.014Z" fill="#8B8B8B"/>
</svg>
