<svg xmlns="http://www.w3.org/2000/svg" width="28.445" height="28.447" viewBox="0 0 28.445 28.447">
  <g id="Calender" transform="translate(0.5 0.5)">
    <path id="Path_185" data-name="Path 185" d="M18.227,1.056A1.19,1.19,0,0,1,19.516,0,1.19,1.19,0,0,1,20.8,1.056V5.684a1.19,1.19,0,0,1-1.289,1.056,1.19,1.19,0,0,1-1.289-1.056V1.056ZM14.766,23.186c-.076,0-.136-.319-.136-.715s.06-.715.136-.715h3.527c.076,0,.136.319.136.715s-.06.715-.136.715ZM3.54,14.984c-.076,0-.136-.319-.136-.715s.06-.715.136-.715H7.067c.076,0,.136.319.136.715s-.06.715-.136.715Zm5.613,0c-.076,0-.136-.319-.136-.715s.06-.715.136-.715H12.68c.076,0,.136.319.136.715s-.06.715-.136.715Zm5.613,0c-.076,0-.136-.319-.136-.715s.06-.715.136-.715h3.527c.076,0,.136.319.136.715s-.06.715-.136.715Zm5.615,0c-.076,0-.136-.319-.136-.715s.06-.715.136-.715h3.527c.076,0,.136.319.136.715s-.06.715-.136.715Zm-16.84,4.1c-.076,0-.136-.319-.136-.715s.06-.715.136-.715H7.067c.076,0,.136.319.136.715s-.06.715-.136.715Zm5.613,0c-.076,0-.136-.319-.136-.715s.06-.715.136-.715H12.68c.076,0,.136.319.136.715s-.06.715-.136.715Zm5.613,0c-.076,0-.136-.319-.136-.715s.06-.715.136-.715h3.527c.076,0,.136.319.136.715s-.06.715-.136.715Zm5.615,0c-.076,0-.136-.319-.136-.715s.06-.715.136-.715h3.527c.076,0,.136.319.136.715s-.06.715-.136.715Zm-16.84,4.1c-.076,0-.136-.319-.136-.715s.06-.715.136-.715H7.067c.076,0,.136.319.136.715s-.06.715-.136.715Zm5.613,0c-.076,0-.136-.319-.136-.715s.06-.715.136-.715H12.68c.076,0,.136.319.136.715s-.06.715-.136.715ZM6.613,1.056A1.19,1.19,0,0,1,7.9,0,1.19,1.19,0,0,1,9.191,1.056V5.684A1.19,1.19,0,0,1,7.9,6.741,1.19,1.19,0,0,1,6.613,5.684V1.056ZM1.429,10.122H26.013V4.8a.659.659,0,0,0-.192-.462.652.652,0,0,0-.462-.192H23a.715.715,0,0,1,0-1.429h2.356A2.089,2.089,0,0,1,27.445,4.8V25.363a2.089,2.089,0,0,1-2.084,2.084H2.084A2.089,2.089,0,0,1,0,25.361V4.8A2.089,2.089,0,0,1,2.084,2.711H4.6a.715.715,0,1,1,0,1.429H2.084a.659.659,0,0,0-.462.192.652.652,0,0,0-.192.462v5.327Zm24.586,1.432H1.429V25.361a.659.659,0,0,0,.192.462.652.652,0,0,0,.462.192H25.361a.659.659,0,0,0,.462-.192.652.652,0,0,0,.192-.462V11.554ZM11.263,4.141a.715.715,0,1,1,0-1.429h4.8a.715.715,0,1,1,0,1.429Z" transform="translate(0)" fill="#57b993" stroke="#57b993" stroke-width="1"/>
  </g>
</svg>
