<svg xmlns="http://www.w3.org/2000/svg" width="26.517" height="25.901" viewBox="0 0 26.517 25.901">
  <g id="Clients_Info" data-name="Clients Info" transform="translate(0)">
    <path id="Path_21" data-name="Path 21" d="M8.511,9.174a1.17,1.17,0,0,0-.6.158.482.482,0,0,0-.173.2.7.7,0,0,0-.056.322,2.856,2.856,0,0,0,.57,1.39l0,.009h0l1.2,1.9a10.217,10.217,0,0,0,1.61,2.115,3.3,3.3,0,0,0,2.3.926,3.385,3.385,0,0,0,2.43-.965,10.665,10.665,0,0,0,1.657-2.259l1.349-2.223a2.141,2.141,0,0,0,.285-1.183c-.035-.134-.181-.2-.434-.211-.054,0-.108,0-.164,0s-.123.006-.188.011a.327.327,0,0,1-.1-.006,1.943,1.943,0,0,1-.369-.019l.462-2.046c-3.429.54-5.993-2.007-9.618-.509l.261,2.41a2.33,2.33,0,0,1-.414-.017Zm2.171,10.352a1.619,1.619,0,0,1,0-2.372,6.954,6.954,0,0,1,2.242,1.023,1.166,1.166,0,0,1,.527-.041,15.619,15.619,0,0,1,2.48-1.122,1.548,1.548,0,0,1-.088,2.616,6.679,6.679,0,0,1-1.636-.615,1.444,1.444,0,0,1-.11.468l1.057,3.669a16.334,16.334,0,0,0,1.862-5.376c-.324-.38-.667-.883-.965-1.319-.088-.129-.17-.25-.25-.365a3.962,3.962,0,0,1-2.445.775,3.9,3.9,0,0,1-2.6-.971l-.013.022c-.112.155-.237.339-.373.537-.255.373-.539.792-.82,1.144a19.77,19.77,0,0,0,2.016,5.55L12.62,19.48a1.319,1.319,0,0,1-.207-.6,6.2,6.2,0,0,1-1.731.645Zm5.537-3.777c.084.121.179.259.278.4.186.272.391.572.593.846,1.4,1.211,5.414,1.461,6.914,2.3a3.973,3.973,0,0,1,1.258,1.064,5.112,5.112,0,0,1,.939,2.76l.315,1.409a1.39,1.39,0,0,1-1.452,1.357H1.452A1.389,1.389,0,0,1,0,24.53l.315-1.409a5.119,5.119,0,0,1,.939-2.76A3.922,3.922,0,0,1,2.512,19.3c1.424-.794,5.112-1.06,6.683-2.121.246-.317.5-.691.727-1.023.14-.207.272-.4.382-.55a.272.272,0,0,1,.067-.065A12,12,0,0,1,8.88,13.513l-1.2-1.906A3.49,3.49,0,0,1,7,9.869a1.388,1.388,0,0,1,.117-.624,1.157,1.157,0,0,1,.412-.479,1.42,1.42,0,0,1,.291-.149,30.518,30.518,0,0,1-.056-3.425,4.621,4.621,0,0,1,.147-.775A4.584,4.584,0,0,1,9.938,1.839a5.484,5.484,0,0,1,1.09-.531c.688-.25.354-1.3,1.118-1.321A9.989,9.989,0,0,1,18.008,2.7,4.641,4.641,0,0,1,19.18,5.63L19.1,8.738h0a.868.868,0,0,1,.632.652,2.7,2.7,0,0,1-.328,1.636h0l-.019.039-1.366,2.249a11.1,11.1,0,0,1-1.774,2.4l-.03.035Z" transform="translate(0 0.014)" fill="#fafafa" fill-rule="evenodd"/>
  </g>
</svg>
