<svg width="27" height="24" viewBox="0 0 27 24" fill="none" xmlns="http://www.w3.org/2000/svg">
<path d="M0.88437 23.3609C0.760303 23.3617 0.63748 23.3361 0.52398 23.286C0.41048 23.2359 0.308874 23.1624 0.225844 23.0702C0.142814 22.978 0.0802422 22.8692 0.0422425 22.7511C0.00424285 22.633 -0.00832337 22.5082 0.0053704 22.3849L0.68237 16.2299C0.706404 16.0331 0.796269 15.8502 0.93737 15.7109L15.3224 1.3259C15.5837 1.06409 15.8942 0.856382 16.2359 0.714664C16.5776 0.572946 16.9439 0.5 17.3139 0.5C17.6838 0.5 18.0501 0.572946 18.3919 0.714664C18.7336 0.856382 19.044 1.06409 19.3054 1.3259L22.0404 4.0609C22.3022 4.32227 22.5099 4.6327 22.6516 4.97442C22.7933 5.31615 22.8663 5.68246 22.8663 6.0524C22.8663 6.42235 22.7933 6.78866 22.6516 7.13039C22.5099 7.47211 22.3022 7.78254 22.0404 8.0439L7.66337 22.4209C7.52408 22.562 7.34118 22.6519 7.14437 22.6759L0.98937 23.3529L0.88437 23.3609ZM2.40537 16.7229L1.87737 21.4889L6.64337 20.9609L20.8054 6.7989C20.9038 6.70088 20.9819 6.58439 21.0352 6.45612C21.0884 6.32784 21.1159 6.19031 21.1159 6.0514C21.1159 5.9125 21.0884 5.77497 21.0352 5.64669C20.9819 5.51842 20.9038 5.40193 20.8054 5.3039L18.0574 2.5649C17.9594 2.46649 17.8429 2.3884 17.7146 2.33511C17.5863 2.28183 17.4488 2.2544 17.3099 2.2544C17.171 2.2544 17.0334 2.28183 16.9052 2.33511C16.7769 2.3884 16.6604 2.46649 16.5624 2.5649L2.40537 16.7229Z" fill="#8B8B8B"/>
<path d="M19.3485 10.3559C19.2329 10.3566 19.1182 10.3344 19.0111 10.2906C18.904 10.2468 18.8067 10.1824 18.7245 10.1009L13.2645 4.62291C13.1825 4.5409 13.1175 4.44354 13.0731 4.33639C13.0287 4.22924 13.0059 4.11439 13.0059 3.99841C13.0059 3.88243 13.0287 3.76759 13.0731 3.66043C13.1175 3.55328 13.1825 3.45592 13.2645 3.37391C13.3465 3.2919 13.4439 3.22685 13.5511 3.18246C13.6582 3.13808 13.7731 3.11523 13.889 3.11523C14.005 3.11523 14.1199 3.13808 14.227 3.18246C14.3342 3.22685 14.4315 3.2919 14.5135 3.37391L19.9915 8.85191C20.1151 8.97628 20.1987 9.13472 20.2316 9.3069C20.2645 9.47909 20.2452 9.65718 20.1762 9.81835C20.1072 9.97951 19.9917 10.1164 19.8444 10.2115C19.6971 10.3065 19.5248 10.3554 19.3495 10.3519L19.3485 10.3559Z" fill="#8B8B8B"/>
<path d="M13.2693 8.8564L6.42383 15.7019L7.66763 16.9457L14.5131 10.1002L13.2693 8.8564Z" fill="#8B8B8B"/>
<path d="M25.5051 23.362H11.4361C11.2029 23.362 10.9792 23.2694 10.8142 23.1044C10.6493 22.9395 10.5566 22.7158 10.5566 22.4825C10.5566 22.2493 10.6493 22.0256 10.8142 21.8606C10.9792 21.6957 11.2029 21.603 11.4361 21.603H25.5051C25.7384 21.603 25.9621 21.6957 26.127 21.8606C26.292 22.0256 26.3846 22.2493 26.3846 22.4825C26.3846 22.7158 26.292 22.9395 26.127 23.1044C25.9621 23.2694 25.7384 23.362 25.5051 23.362Z" fill="#8B8B8B"/>
</svg>
