<svg width="30" height="30" viewBox="0 0 30 30" fill="none" xmlns="http://www.w3.org/2000/svg">
<path d="M15 29.5C11.1269 29.5 7.48564 27.9917 4.74695 25.2531C2.00826 22.5144 0.5 18.8731 0.5 15C0.5 11.1269 2.00826 7.48564 4.74695 4.74695C7.48564 2.00826 11.1269 0.5 15 0.5C18.8731 0.5 22.5144 2.00826 25.2531 4.74695C27.9917 7.48564 29.5 11.1269 29.5 15C29.5 18.8731 27.9917 22.5144 25.2531 25.2531C22.5144 27.9917 18.8731 29.5 15 29.5Z" fill="white"/>
<path d="M15 1C11.2605 1 7.74476 2.45625 5.10051 5.10051C2.45625 7.74476 1 11.2605 1 15C1 18.7395 2.45625 22.2552 5.10051 24.8995C7.74476 27.5438 11.2605 29 15 29C18.7395 29 22.2552 27.5438 24.8995 24.8995C27.5438 22.2552 29 18.7395 29 15C29 11.2605 27.5438 7.74476 24.8995 5.10051C22.2552 2.45625 18.7395 1 15 1ZM15 0C23.2843 0 30 6.71573 30 15C30 23.2843 23.2843 30 15 30C6.71573 30 0 23.2843 0 15C0 6.71573 6.71573 0 15 0Z" fill="#8B8B8B"/>
<path d="M21.504 14.0141H11.238L13.704 11.5441C13.8031 11.4486 13.8817 11.3339 13.935 11.207C13.9883 11.0801 14.0152 10.9437 14.014 10.8061C14.0107 10.5242 13.8973 10.2548 13.6982 10.0553C13.4991 9.85582 13.2299 9.74199 12.948 9.73809C12.8104 9.73663 12.6739 9.76338 12.5469 9.8167C12.42 9.87001 12.3053 9.94876 12.21 10.0481L7.95802 14.3011C7.84612 14.398 7.75653 14.518 7.69543 14.6528C7.63432 14.7876 7.60313 14.9341 7.60402 15.0821C7.59929 15.2286 7.62789 15.3744 7.68765 15.5083C7.74741 15.6422 7.83678 15.7607 7.94902 15.8551L12.211 20.1161C12.3063 20.2154 12.421 20.2942 12.5479 20.3475C12.6749 20.4008 12.8114 20.4276 12.949 20.4261C13.2312 20.4227 13.5009 20.3091 13.7005 20.1096C13.9 19.91 14.0136 19.6403 14.017 19.3581C14.0182 19.2205 13.9913 19.0841 13.938 18.9572C13.8847 18.8303 13.8061 18.7156 13.707 18.6201L11.238 16.1511H21.504C21.7875 16.1511 22.0594 16.0385 22.2599 15.838C22.4604 15.6375 22.573 15.3656 22.573 15.0821C22.573 14.7986 22.4604 14.5267 22.2599 14.3262C22.0594 14.1257 21.7875 14.0131 21.504 14.0131V14.0141Z" fill="#8B8B8B"/>
</svg>
