<svg xmlns="http://www.w3.org/2000/svg" width="17.283" height="19.005" viewBox="0 0 17.283 19.005">
  <g id="filter-and-sort-arrows" transform="translate(0)">
    <path id="Path_385" data-name="Path 385" d="M35.945,3.505V1.924a.163.163,0,0,0-.005-.042C35.8.659,32.028,0,28.513,0s-7.286.659-7.426,1.881a.147.147,0,0,0-.006.043V3.505a.159.159,0,0,0,.074.134l5.4,3.4v5.872a.158.158,0,0,0,.158.158.148.148,0,0,0,.046-.007l3.6-1.107a.159.159,0,0,0,.112-.151V7.043l5.4-3.4A.158.158,0,0,0,35.945,3.505Zm-1.66-1.556a14.077,14.077,0,0,1-1.763.462c-.267.05-.542.093-.811.133a29.249,29.249,0,0,1-3.257.171c-3.971,0-6.049-.635-6.049-.975S24.483.764,28.454.764,34.5,1.4,34.5,1.739C34.5,1.78,34.438,1.863,34.285,1.949ZM26.068,14.862a.158.158,0,0,1,0,.192l-2.99,3.889a.159.159,0,0,1-.252,0l-2.989-3.889a.158.158,0,0,1,0-.192.16.16,0,0,1,.185-.052L22,15.592V11.009a.159.159,0,0,1,.159-.159h1.587a.159.159,0,0,1,.159.159v4.583l1.98-.782A.158.158,0,0,1,26.068,14.862Zm11.018.036a.158.158,0,0,1-.217.148l-1.979-.782v4.583a.159.159,0,0,1-.159.159H33.144a.159.159,0,0,1-.159-.159V14.263l-1.979.782a.159.159,0,0,1-.184-.244l2.99-3.889a.159.159,0,0,1,.252,0l2.99,3.889A.161.161,0,0,1,37.086,14.9Z" transform="translate(-19.803)" fill="#555"/>
  </g>
</svg>
