<svg width="31" height="30" viewBox="0 0 31 30" fill="none" xmlns="http://www.w3.org/2000/svg">
<path d="M15.9803 1.24166e-05C19.4507 -3.46466e-05 22.8137 1.20323 25.4963 3.40479C28.179 5.60634 30.0152 8.66997 30.6923 12.0736C31.3693 15.4773 30.8452 19.0105 29.2093 22.071C27.5733 25.1316 24.9268 27.5303 21.7206 28.8583C18.5144 30.1863 14.9469 30.3615 11.626 29.354C8.30505 28.3466 5.4362 26.2188 3.50824 23.3333C1.58028 20.4477 0.712505 16.9829 1.05277 13.5293C1.39303 10.0756 2.92028 6.84684 5.37429 4.39301C6.76558 2.99819 8.41879 1.89206 10.2389 1.13816C12.059 0.384265 14.0102 -0.00252632 15.9803 1.24166e-05ZM20.5503 9.12301C20.6254 9.04529 20.7152 8.9833 20.8145 8.94066C20.9138 8.89802 21.0206 8.87558 21.1287 8.87466C21.2368 8.87373 21.3439 8.89433 21.4439 8.93526C21.544 8.97619 21.6348 9.03662 21.7113 9.11304C21.7877 9.18946 21.8481 9.28033 21.889 9.38035C21.93 9.48038 21.9506 9.58755 21.9496 9.69562C21.9487 9.80369 21.9263 9.91049 21.8836 10.0098C21.841 10.1091 21.779 10.1989 21.7013 10.274L16.9743 15L21.7013 19.727C21.779 19.8021 21.841 19.8919 21.8836 19.9912C21.9263 20.0905 21.9487 20.1973 21.9496 20.3054C21.9506 20.4135 21.93 20.5206 21.889 20.6207C21.8481 20.7207 21.7877 20.8116 21.7113 20.888C21.6348 20.9644 21.544 21.0248 21.4439 21.0658C21.3439 21.1067 21.2368 21.1273 21.1287 21.1264C21.0206 21.1254 20.9138 21.103 20.8145 21.0604C20.7152 21.0177 20.6254 20.9557 20.5503 20.878L15.8233 16.151L11.0963 20.878C10.9428 21.0263 10.7371 21.1084 10.5237 21.1066C10.3102 21.1048 10.106 21.0192 9.95509 20.8682C9.80415 20.7173 9.71854 20.5131 9.71671 20.2996C9.71487 20.0862 9.79696 19.8805 9.94529 19.727L14.6733 15L9.94629 10.274C9.79796 10.1205 9.71587 9.91487 9.71771 9.70141C9.71954 9.48795 9.80515 9.28376 9.95609 9.13281C10.107 8.98187 10.3112 8.89626 10.5247 8.89443C10.7381 8.8926 10.9438 8.97469 11.0973 9.12301L15.8243 13.85L20.5503 9.12301ZM25.4363 5.54401C23.2487 3.35607 20.3702 1.99432 17.2912 1.6908C14.2122 1.38727 11.1232 2.16075 8.55056 3.87944C5.9779 5.59813 4.08078 8.15568 3.18243 11.1163C2.28407 14.077 2.44009 17.2575 3.62388 20.116C4.80767 22.9745 6.94599 25.3341 9.6745 26.7928C12.403 28.2515 15.5529 28.7189 18.5874 28.1155C21.6219 27.5121 24.3533 25.8752 26.3163 23.4836C28.2792 21.0921 29.3521 18.0939 29.3523 15C29.3547 13.2436 29.0099 11.504 28.3379 9.88123C27.6659 8.25846 26.6798 6.78448 25.4363 5.54401Z" fill="#8B8B8B"/>
</svg>
