<svg xmlns="http://www.w3.org/2000/svg" width="24.665" height="24.721" viewBox="0 0 24.665 24.721">
  <g id="PayRoll" transform="translate(0 0)">
    <path id="Path_5" data-name="Path 5" d="M16.992,11.908h6.155a1.457,1.457,0,0,1,1.518,1.376v5.641A1.457,1.457,0,0,1,23.147,20.3H16.992a4.442,4.442,0,0,1-4.629-4.2h0a4.441,4.441,0,0,1,4.629-4.2ZM10.014,4.05l1.007.863L13.2,2.907c.193-.177.313-.318.55-.1l.768.714c.253.225.24.358,0,.569L11.46,6.711c-.5.447-.415.473-.923.016L8.722,5.2c-.107-.1-.1-.209.022-.314l.892-.839c.131-.127.237-.119.377,0ZM2.436,5.281H6.364c-.007-.1-.011-.2-.011-.3A5.255,5.255,0,0,1,11.844,0a5.253,5.253,0,0,1,5.489,4.977c0,.1,0,.2-.009.3l1.444,0a2.535,2.535,0,0,1,2.683,2.384v.4a2.387,2.387,0,0,1,1.209,2.03v.877h-1.7v-.585A1.209,1.209,0,0,0,19.7,9.238H4.021V7.965a.326.326,0,0,1,.339-.308H7.218a4.791,4.791,0,0,1-.479-.847H2.816a.849.849,0,0,0-.885.8V22.225a.849.849,0,0,0,.885.8h17.24a.849.849,0,0,0,.885-.8v-.919H22.69v1.519h0c-.007,1.05-1.243,1.9-2.463,1.9H2.43A2.335,2.335,0,0,1,0,22.516V7.49A2.338,2.338,0,0,1,2.436,5.281ZM16.948,6.808a4.791,4.791,0,0,1-.479.847h3.506a2.739,2.739,0,0,1,.288.014V7.611a.849.849,0,0,0-.885-.8h-2.43Zm.277,6.637h5.461v5.319H17.225a2.815,2.815,0,0,1-2.933-2.66h0a2.814,2.814,0,0,1,2.933-2.66Zm1.342,1.778a.912.912,0,1,1-1,.907.958.958,0,0,1,1-.907Z" transform="translate(0 0)" fill="#fafafa" fill-rule="evenodd"/>
  </g>
</svg>
