<?xml version="1.0" encoding="iso-8859-1"?>
<!-- Generator: Adobe Illustrator 16.0.0, SVG Export Plug-In . SVG Version: 6.00 Build 0)  -->
<!DOCTYPE svg PUBLIC "-//W3C//DTD SVG 1.1//EN" "http://www.w3.org/Graphics/SVG/1.1/DTD/svg11.dtd">
<svg version="1.1" id="Capa_1" xmlns="http://www.w3.org/2000/svg" xmlns:xlink="http://www.w3.org/1999/xlink" x="0px" y="0px"
	 width="369.965px" height="369.965px" viewBox="0 0 369.965 369.965" style="enable-background:new 0 0 369.965 369.965;"
	 xml:space="preserve" fill='#8b8b8b'>
<g>
	<g>
		<path d="M282.385,102.63l-5.012-95.213H92.589l-5.008,95.213H71.42L0,162.669v138.744h79.923l-2.095,34.233l-0.21,3.477h-11.81
			v23.426h238.345v-23.426h-11.801l-0.219-3.477l-2.095-34.233h79.926V162.669l-71.419-60.039H282.385z M53.338,213.096H34.532
			v-31.289h18.807V213.096z M273.464,336.785H96.504l2.165-35.372h172.628L273.464,336.785z M306.711,139.168
			c0,3.443-2.789,6.235-6.235,6.235h-15.844h-6.248H176.242H91.566h-6.241H69.48c-3.449,0-6.235-2.792-6.235-6.235
			c0-3.44,2.786-6.235,6.235-6.235h16.499h6.242h6.241l1.595-30.303l4.36-82.743h161.119l4.359,82.743l1.596,30.303h6.241h6.241
			h16.502C303.922,132.933,306.711,135.728,306.711,139.168z"/>
		<path d="M258.375,49.362c-0.207-2.761-3.251-3.581-5.005-2.5c-1.662-0.155-3.465,0.484-4.201,2.338
			c-7.43,18.636-26.556,27.928-43.903,37.649c-21.979-27.986-60.355-27.033-94.153-26.064c-1.924,0.055-3.066,1.196-3.477,2.545
			c-0.277,0.448-0.475,0.959-0.457,1.632c0.338,12.565,0.167,25.13,0.319,37.68c0.11,9.274,0.365,18.539,1.239,27.791
			c0.113,1.172,0.643,1.988,1.452,2.515c0.469,0.299,0.999,0.53,1.666,0.603c20.313,2.284,40.849,2.463,61.36,1.374
			c8.449-0.451,16.901-1.118,25.328-1.977c20.673-2.109,41.236-5.252,61.452-8.862c1.419-0.256,2.186-1.708,2.289-3.005
			c0.487-6.159,0.585-12.304,0.433-18.438C262.297,84.84,259.764,67.139,258.375,49.362z M113.432,67.8
			c30.062-0.892,65.833-2.244,85.404,22.782c-6.022,3.642-11.655,7.615-16.745,12.048c-5.246,4.558-9.877,9.639-13.737,15.402
			c-1.59,2.375-3.094,4.826-4.403,7.45c-0.618,1.248-0.399,2.411,0.195,3.367c-12.839,0.469-25.696,0.454-38.529-0.274
			c-3.303-0.188-10.71,1.148-11.191-3.934c-0.554-5.876-0.625-11.797-0.761-17.691c-0.031-1.44-0.012-2.887-0.031-4.327
			C113.484,91.021,113.657,79.409,113.432,67.8z M191.267,127.166c-6.622,0.605-13.256,1.029-19.896,1.367
			c-0.186,0.012-0.38,0.03-0.566,0.036c0.119-0.231,0.268-0.432,0.393-0.661c5.642-10.683,14.303-18.52,24.071-25.285
			c20.307-14.066,45.31-23.532,57.651-44.344c1.383,14.781,3.118,29.523,3.538,44.344c0.128,4.378,0.165,8.762,0,13.156
			C256.171,123.704,198.848,126.475,191.267,127.166z"/>
		<path d="M215.118,31.268c10.851,0,19.655,8.799,19.655,19.653c0,10.854-8.805,19.652-19.655,19.652
			c-10.852,0-19.656-8.799-19.656-19.652C195.462,40.066,204.267,31.268,215.118,31.268z"/>
	</g>
</g>
<g>
</g>
<g>
</g>
<g>
</g>
<g>
</g>
<g>
</g>
<g>
</g>
<g>
</g>
<g>
</g>
<g>
</g>
<g>
</g>
<g>
</g>
<g>
</g>
<g>
</g>
<g>
</g>
<g>
</g>
</svg>
