<svg width="21" height="14" viewBox="0 0 21 14" fill="none" xmlns="http://www.w3.org/2000/svg">
<path d="M15.036 0.552917C14.8988 0.735248 14.8246 0.957232 14.8246 1.18541C14.8246 1.41359 14.8988 1.63559 15.036 1.81792L18.324 5.91792H1.49796C1.29544 5.96321 1.11438 6.07613 0.984631 6.2381C0.854881 6.40006 0.78418 6.60139 0.78418 6.80891C0.78418 7.01644 0.854881 7.21778 0.984631 7.37975C1.11438 7.54171 1.29544 7.65464 1.49796 7.69992H18.31L15.036 11.7729C14.901 11.9547 14.8281 12.175 14.8281 12.4014C14.8281 12.6278 14.901 12.8482 15.036 13.0299C15.0932 13.1102 15.1688 13.1757 15.2565 13.2208C15.3442 13.266 15.4413 13.2896 15.54 13.2896C15.6386 13.2896 15.7358 13.266 15.8234 13.2208C15.9111 13.1757 15.9867 13.1102 16.044 13.0299L20.59 7.36192C20.7155 7.19995 20.7836 7.00083 20.7836 6.79591C20.7836 6.59099 20.7155 6.39189 20.59 6.22992L16.051 0.552917C15.9938 0.471422 15.9178 0.404889 15.8295 0.358963C15.7411 0.313037 15.643 0.289062 15.5435 0.289062C15.4439 0.289062 15.3458 0.313037 15.2575 0.358963C15.1691 0.404889 15.0932 0.471422 15.036 0.552917Z" fill="white"/>
</svg>
