<svg id="Sales_Order_Management" data-name="Sales Order Management" xmlns="http://www.w3.org/2000/svg" width="26.06" height="23.691" viewBox="0 0 26.06 23.691">
  <g id="dashboard" transform="translate(0 0)">
    <path id="Path_12" data-name="Path 12" d="M5.738,18H3.369a2.369,2.369,0,0,0,0,4.738H5.738a2.369,2.369,0,0,0,0-4.738Z" transform="translate(-1 0.953)" fill="#fafafa"/>
    <path id="Path_13" data-name="Path 13" d="M13.738,16H11.369A2.376,2.376,0,0,0,9,18.369v2.369a2.376,2.376,0,0,0,2.369,2.369h2.369a2.376,2.376,0,0,0,2.369-2.369V18.369A2.376,2.376,0,0,0,13.738,16Z" transform="translate(0.476 0.583)" fill="#fafafa"/>
    <path id="Path_14" data-name="Path 14" d="M21.738,12H19.369A2.376,2.376,0,0,0,17,14.369v7.107a2.376,2.376,0,0,0,2.369,2.369h2.369a2.376,2.376,0,0,0,2.369-2.369V14.369A2.376,2.376,0,0,0,21.738,12Z" transform="translate(1.952 -0.155)" fill="#fafafa"/>
    <path id="Path_15" data-name="Path 15" d="M25.875,2H18.057a1.185,1.185,0,0,0-.829,2.014l2.251,2.251C15.1,11.239,8.818,15.03,2.185,15.03a1.185,1.185,0,0,0,0,2.369c7.936,0,15.28-2.251,20.611-7.818l2.132,2.132a1.185,1.185,0,0,0,2.014-.829v-7.7A.98.98,0,0,0,25.875,2Z" transform="translate(-1 -2)" fill="#fafafa"/>
  </g>
</svg>
