<?xml version="1.0" encoding="utf-8"?>
<!-- Generator: Adobe Illustrator 25.0.0, SVG Export Plug-In . SVG Version: 6.00 Build 0)  -->
<svg version="1.1" id="Layer_1" xmlns="http://www.w3.org/2000/svg" xmlns:xlink="http://www.w3.org/1999/xlink" x="0px" y="0px"
	 viewBox="0 0 21.7 21.7" style="enable-background:new 0 0 21.7 21.7;" xml:space="preserve">
<style type="text/css">
	.st0{fill-rule:evenodd;clip-rule:evenodd;fill:#55B792;}
	.st1{fill:#FFFFFF;}
</style>
<g>
	<ellipse transform="matrix(0.1607 -0.987 0.987 0.1607 -1.6009 19.7894)" class="st0" cx="10.8" cy="10.8" rx="10.8" ry="10.8"/>
	<g>
		<path class="st1" d="M17.4,9.3C17,8.9,16.3,9,15.9,9.4l-0.2,0.3l1.6,1.3l0.2-0.3C17.9,10.3,17.8,9.7,17.4,9.3z"/>
		<path class="st1" d="M12.2,14.9c0,0.1,0,0.3,0.1,0.3c0.1,0.1,0.2,0.1,0.4,0.1l1.3-0.6c0.1-0.1,0.3-0.2,0.4-0.3l0.1-0.1L12.9,13
			l-0.1,0.1c-0.1,0.1-0.2,0.3-0.2,0.4L12.2,14.9z"/>
		<polygon class="st1" points="13.3,12.5 14.9,13.8 16.9,11.6 15.3,10.2 		"/>
		<path class="st1" d="M14.6,6.4l-1.3-1.3C13.2,5.1,13,5,12.9,5v2h2.1C14.9,6.8,14.8,6.6,14.6,6.4z"/>
		<path class="st1" d="M14.3,15.4L13,16c-0.4,0.2-0.8,0.1-1.1-0.2c-0.3-0.3-0.4-0.7-0.3-1l0.3-1.4c0.1-0.3,0.2-0.5,0.4-0.7l2.7-3.2
			V7.7h-2.4c-0.2,0-0.3-0.2-0.3-0.3V4.9H6.9c-0.6,0-1,0.5-1,1v9.8c0,0.6,0.5,1,1,1h6.9c0.6,0,1-0.5,1-1v-0.8l0,0.1
			C14.7,15.2,14.5,15.3,14.3,15.4z M7.6,7h3.5c0.2,0,0.3,0.2,0.3,0.3s-0.2,0.3-0.3,0.3H7.6c-0.2,0-0.3-0.2-0.3-0.3S7.5,7,7.6,7z
			 M7.6,9.1h5.6c0.2,0,0.3,0.2,0.3,0.3s-0.2,0.3-0.3,0.3H7.6c-0.2,0-0.3-0.2-0.3-0.3S7.5,9.1,7.6,9.1z M7.6,11.2h4.2
			c0.2,0,0.3,0.2,0.3,0.3c0,0.2-0.2,0.3-0.3,0.3H7.6c-0.2,0-0.3-0.2-0.3-0.3C7.3,11.3,7.5,11.2,7.6,11.2z M10.4,14H7.6
			c-0.2,0-0.3-0.2-0.3-0.3s0.2-0.3,0.3-0.3h2.8c0.2,0,0.3,0.2,0.3,0.3S10.6,14,10.4,14z"/>
	</g>
</g>
</svg>
