<?xml version="1.0" encoding="utf-8"?>
<!-- Generator: Adobe Illustrator 25.0.0, SVG Export Plug-In . SVG Version: 6.00 Build 0)  -->
<svg version="1.1" id="Layer_1" xmlns="http://www.w3.org/2000/svg" xmlns:xlink="http://www.w3.org/1999/xlink" x="0px" y="0px"
	 viewBox="0 0 14.7 15.8" style="enable-background:new 0 0 14.7 15.8;" xml:space="preserve">
<style type="text/css">
	.st0{fill-rule:evenodd;clip-rule:evenodd;fill:#55B792;}
</style>
<g>
	<path class="st0" d="M14.3,12l-3-1.9h0c-0.1-0.1-0.2-0.1-0.4-0.1c-0.2,0-0.5,0.1-0.7,0.3l-0.9,1c0,0-0.1,0-0.1,0.1c0,0-0.1,0-0.1,0
		l-0.2,0c-0.1,0-0.3-0.1-0.6-0.2c-0.2-0.1-0.5-0.3-0.9-0.6c-0.4-0.3-0.8-0.7-1.2-1.2C5.7,8.6,5.4,8.2,5.1,7.8
		c-0.3-0.4-0.5-0.7-0.6-1C4.4,6.5,4.3,6.3,4.3,6c0,0,0-0.1,0-0.1c0-0.1,0-0.1,0.1-0.1L5.1,5c0.1-0.1,0.2-0.3,0.3-0.5
		c0-0.2,0-0.4-0.1-0.6L3.6,0.4C3.5,0.3,3.5,0.2,3.4,0.1C3.3,0,3.1,0,3,0C2.8,0,2.6,0.1,2.5,0.2L0.4,2.5C0.3,2.6,0.2,2.7,0.2,2.9
		C0.1,3,0,3.2,0,3.3c0,0,0,0.1,0,0.3c0,0.2,0,0.5,0.1,0.8c0.1,0.4,0.2,0.8,0.3,1.3c0.1,0.5,0.4,1,0.7,1.6c0.3,0.6,0.7,1.3,1.2,2
		c0.5,0.7,1.1,1.4,1.8,2.2c0.9,1,1.8,1.8,2.6,2.4c0.8,0.6,1.5,1,2.2,1.3c0.6,0.3,1.2,0.5,1.6,0.5c0.4,0.1,0.8,0.1,1,0.1
		c0.1,0,0.2,0,0.2,0c0.1,0,0.1,0,0.1,0c0.1,0,0.3-0.1,0.4-0.2c0.2-0.1,0.3-0.2,0.4-0.3l2.1-2.2c0.2-0.2,0.2-0.4,0.2-0.7
		C14.7,12.3,14.6,12.1,14.3,12z"/>
</g>
</svg>
