<?xml version="1.0" encoding="utf-8"?>
<!-- Generator: Adobe Illustrator 25.0.0, SVG Export Plug-In . SVG Version: 6.00 Build 0)  -->
<svg version="1.1" id="Layer_1" xmlns="http://www.w3.org/2000/svg" xmlns:xlink="http://www.w3.org/1999/xlink" x="0px" y="0px"
	 viewBox="0 0 15.8 15.8" style="enable-background:new 0 0 15.8 15.8;" xml:space="preserve">
<style type="text/css">
	.st0{fill-rule:evenodd;clip-rule:evenodd;fill:#55B792;}
</style>
<g>
	<path class="st0" d="M15.8,7.4c-0.3-4-3.4-7.1-7.4-7.4v0H7.9H7.4v0C3.4,0.3,0.3,3.4,0,7.4h0v0.5v0.5h0c0.3,4,3.4,7.1,7.4,7.4v0h0.5
		h0.5v0c4-0.3,7.1-3.4,7.4-7.4h0V7.9L15.8,7.4L15.8,7.4z M5,1.7C4.5,2.4,4,3.3,3.7,4.2H2.1C2.8,3.2,3.8,2.3,5,1.7z M1.6,5.3h1.9
		C3.3,6,3.2,6.7,3.2,7.4H1.1C1.1,6.7,1.3,5.9,1.6,5.3z M1.1,8.5h2.1c0,0.7,0.1,1.4,0.3,2.1H1.6C1.3,9.9,1.1,9.2,1.1,8.5z M2.1,11.6
		h1.6c0.3,1,0.7,1.8,1.2,2.5C3.8,13.6,2.8,12.7,2.1,11.6z M7.4,14.7c-1.1-0.3-2-1.5-2.6-3.1h2.6V14.7z M7.4,10.6H4.5
		C4.4,9.9,4.3,9.2,4.2,8.5h3.2V10.6z M7.4,7.4H4.2c0-0.7,0.1-1.5,0.3-2.1h2.9V7.4z M7.4,4.2H4.8c0.6-1.6,1.5-2.8,2.6-3.1V4.2z
		 M13.7,4.2h-1.6c-0.3-1-0.7-1.8-1.2-2.5C12,2.3,13,3.2,13.7,4.2z M8.5,1.1c1.1,0.3,2,1.5,2.6,3.1H8.5V1.1z M8.5,5.3h2.9
		c0.1,0.7,0.2,1.4,0.3,2.1H8.5V5.3z M8.5,8.5h3.2c0,0.7-0.1,1.5-0.3,2.1H8.5V8.5z M8.5,14.7v-3.1H11C10.5,13.3,9.5,14.4,8.5,14.7z
		 M10.9,14.1c0.5-0.7,0.9-1.5,1.2-2.5h1.6C13,12.7,12,13.6,10.9,14.1z M14.3,10.6h-1.9c0.1-0.7,0.2-1.4,0.3-2.1h2.1
		C14.7,9.2,14.5,9.9,14.3,10.6z M12.7,7.4c0-0.7-0.1-1.4-0.3-2.1h1.9c0.3,0.7,0.4,1.4,0.5,2.1H12.7z"/>
</g>
</svg>
