<svg xmlns="http://www.w3.org/2000/svg" width="8.422" height="19.813" viewBox="0 0 8.422 19.813">
  <g id="Group_2033" data-name="Group 2033" transform="translate(0)">
    <path id="Path_388" data-name="Path 388" d="M75.739,19.813A.743.743,0,0,1,75,19.07V.743a.743.743,0,1,1,1.486,0V19.07A.743.743,0,0,1,75.739,19.813Zm0,0" transform="translate(-71.527)" fill="#6e6d6d"/>
    <path id="Path_389" data-name="Path 389" d="M4.542,324.938a.737.737,0,0,1-.525-.218L.55,321.253A.743.743,0,0,1,1.6,320.2l2.942,2.942L7.485,320.2a.743.743,0,0,1,1.051,1.051L5.069,324.72a.745.745,0,0,1-.527.218Zm0,0" transform="translate(-0.332 -305.125)" fill="#6e6d6d"/>
  </g>
</svg>
