<svg width="18" height="20" viewBox="0 0 18 20" fill="none" xmlns="http://www.w3.org/2000/svg">
<path d="M16.1991 3.505V1.924C16.1993 1.90984 16.1976 1.89572 16.1941 1.882C16.0541 0.659 12.2821 0 8.7671 0C5.2521 0 1.4811 0.659 1.3411 1.881C1.33699 1.89496 1.33496 1.90945 1.3351 1.924V3.505C1.33516 3.53176 1.34198 3.55807 1.35492 3.58149C1.36785 3.60491 1.38649 3.6247 1.4091 3.639L6.8091 7.039V12.911C6.8091 12.9529 6.82575 12.9931 6.85538 13.0227C6.88501 13.0524 6.9252 13.069 6.9671 13.069C6.98271 13.0691 6.99824 13.0667 7.0131 13.062L10.6131 11.955C10.6454 11.945 10.6737 11.925 10.6938 11.8978C10.714 11.8707 10.7249 11.8378 10.7251 11.804V7.043L16.1251 3.643C16.1484 3.62841 16.1674 3.60801 16.1804 3.58381C16.1934 3.55961 16.1998 3.53245 16.1991 3.505ZM14.5391 1.949C13.962 2.14092 13.3731 2.29524 12.7761 2.411C12.5091 2.461 12.2341 2.504 11.9651 2.544C10.8835 2.66153 9.79611 2.71862 8.7081 2.715C4.7371 2.715 2.6591 2.08 2.6591 1.74C2.6591 1.4 4.7371 0.764 8.7081 0.764C12.6791 0.764 14.7541 1.4 14.7541 1.739C14.7541 1.78 14.6921 1.863 14.5391 1.949ZM6.3221 14.862C6.34319 14.8896 6.35461 14.9233 6.35461 14.958C6.35461 14.9927 6.34319 15.0264 6.3221 15.054L3.3321 18.943C3.31725 18.9623 3.29817 18.9779 3.27632 18.9887C3.25448 18.9994 3.23045 19.005 3.2061 19.005C3.18175 19.005 3.15773 18.9994 3.13588 18.9887C3.11404 18.9779 3.09495 18.9623 3.0801 18.943L0.0911026 15.054C0.070018 15.0264 0.0585938 14.9927 0.0585938 14.958C0.0585938 14.9233 0.070018 14.8896 0.0911026 14.862C0.112148 14.8345 0.141564 14.8145 0.174927 14.8051C0.208289 14.7958 0.243794 14.7975 0.276102 14.81L2.2541 15.592V11.009C2.2541 10.9668 2.27085 10.9264 2.30067 10.8966C2.33049 10.8668 2.37093 10.85 2.4131 10.85H4.0001C4.04227 10.85 4.08272 10.8668 4.11253 10.8966C4.14235 10.9264 4.1591 10.9668 4.1591 11.009V15.592L6.1391 14.81C6.17111 14.7976 6.20629 14.796 6.23931 14.8054C6.27232 14.8148 6.30139 14.8346 6.3221 14.862ZM17.3401 14.898C17.3403 14.924 17.3342 14.9496 17.3221 14.9726C17.3101 14.9956 17.2926 15.0153 17.2711 15.03C17.2497 15.0446 17.2249 15.0537 17.1991 15.0565C17.1733 15.0593 17.1472 15.0557 17.1231 15.046L15.1441 14.264V18.847C15.1441 18.8892 15.1274 18.9296 15.0975 18.9594C15.0677 18.9892 15.0273 19.006 14.9851 19.006H13.3981C13.3559 19.006 13.3155 18.9892 13.2857 18.9594C13.2559 18.9296 13.2391 18.8892 13.2391 18.847V14.263L11.2601 15.045C11.2279 15.0573 11.1925 15.0589 11.1594 15.0494C11.1262 15.0399 11.097 15.0198 11.0763 14.9923C11.0555 14.9647 11.0442 14.9312 11.0442 14.8967C11.0442 14.8622 11.0554 14.8286 11.0761 14.801L14.0661 10.912C14.081 10.8927 14.1 10.8771 14.1219 10.8663C14.1437 10.8556 14.1678 10.85 14.1921 10.85C14.2165 10.85 14.2405 10.8556 14.2623 10.8663C14.2842 10.8771 14.3033 10.8927 14.3181 10.912L17.3081 14.801C17.3294 14.8295 17.3407 14.8644 17.3401 14.9V14.898Z" fill="#57B993"/>
</svg>
