<svg xmlns="http://www.w3.org/2000/svg" width="15.772" height="18.685" viewBox="0 0 15.772 18.685">
  <g id="sort" transform="translate(0 0)">
    <path id="Path_388" data-name="Path 388" d="M75.692,18.555a.7.7,0,0,1-.7-.7V.7a.7.7,0,0,1,1.392,0V17.859A.7.7,0,0,1,75.692,18.555Zm0,0" transform="translate(79.638 18.555) rotate(180)" fill="#6e6d6d"/>
    <path id="Path_389" data-name="Path 389" d="M4.275,324.624a.69.69,0,0,1-.492-.2L.536,321.173a.7.7,0,0,1,.984-.984l2.755,2.755,2.755-2.755a.7.7,0,1,1,.984.984L4.768,324.42a.7.7,0,0,1-.493.2Zm0,0" transform="translate(8.219 324.624) rotate(180)" fill="#6e6d6d"/>
    <path id="Path_390" data-name="Path 390" d="M260.259,263.422h-3.247a.7.7,0,0,1-.613-1.025l2.694-5.005h-2.081a.7.7,0,0,1,0-1.392h3.247a.7.7,0,0,1,.613,1.025l-2.7,5.005h2.082a.7.7,0,1,1,0,1.392Zm0,0" transform="translate(-245.183 -255.739)" fill="#6e6d6d"/>
    <path id="Path_391" data-name="Path 391" d="M260.271,7.422a.7.7,0,0,1-.7-.7V2.319a.928.928,0,0,0-1.856,0V6.726a.7.7,0,1,1-1.392,0V2.319a2.319,2.319,0,0,1,4.639,0V6.726A.7.7,0,0,1,260.271,7.422Zm0,0" transform="translate(-245.195 11.263)" fill="#6e6d6d"/>
    <path id="Path_392" data-name="Path 392" d="M260.271,81.392h-3.247a.7.7,0,0,1,0-1.392h3.247a.7.7,0,0,1,0,1.392Zm0,0" transform="translate(-245.195 -65.258)" fill="#6e6d6d"/>
  </g>
</svg>
