<svg width="30" height="30" viewBox="0 0 30 30" fill="none" xmlns="http://www.w3.org/2000/svg">
<rect x="0.5" y="0.5" width="29" height="29" rx="4.5" fill="white" stroke="#AFAFAF"/>
<path d="M13.9344 14.9005L13.9344 14.9005C13.9363 15.0225 13.9867 15.1387 14.0742 15.2246L18.334 19.4065C18.4532 19.5287 18.6304 19.5775 18.797 19.5348L18.7971 19.5348C18.9632 19.492 19.0936 19.3643 19.1375 19.2003L19.1375 19.2003C19.1813 19.0355 19.131 18.8608 19.0065 18.7437L15.0842 14.8932L19.006 11.0431C19.0062 11.0429 19.0063 11.0428 19.0065 11.0427C19.131 10.9256 19.1813 10.7509 19.1375 10.5861L19.1375 10.5861C19.0936 10.4221 18.9632 10.2944 18.7971 10.2516L18.797 10.2516C18.6304 10.2089 18.4532 10.2577 18.334 10.3799C18.3339 10.3801 18.3337 10.3802 18.3336 10.3803L14.0742 14.5618C13.983 14.6514 13.9326 14.7731 13.9344 14.9005Z" fill="#AFAFAF" stroke="#AFAFAF" stroke-width="0.1"/>
<path d="M9.83872 14.9005L9.83872 14.9005C9.84059 15.0225 9.89104 15.1387 9.9785 15.2246L14.2383 19.4065C14.3575 19.5287 14.5347 19.5775 14.7013 19.5348L14.7014 19.5348C14.8675 19.492 14.9979 19.3643 15.0418 19.2003L15.0418 19.2003C15.0856 19.0355 15.0353 18.8608 14.9108 18.7437L10.9885 14.8932L14.9103 11.0431C14.9105 11.0429 14.9106 11.0428 14.9108 11.0427C15.0353 10.9256 15.0856 10.7509 15.0418 10.5861L15.0418 10.5861C14.9979 10.4221 14.8675 10.2944 14.7014 10.2516L14.7013 10.2516C14.5347 10.2089 14.3575 10.2577 14.2383 10.3799C14.2382 10.3801 14.238 10.3802 14.2379 10.3803L9.9785 14.5618C9.88729 14.6514 9.83686 14.7731 9.83872 14.9005Z" fill="#AFAFAF" stroke="#AFAFAF" stroke-width="0.1"/>
</svg>
