<svg width="28" height="24" viewBox="0 0 28 24" fill="none" xmlns="http://www.w3.org/2000/svg">
<rect x="0.429504" y="0.429504" width="26.9334" height="22.9387" rx="3.86553" stroke="#9EA3AE" stroke-width="0.859007"/>
<path d="M12.5958 5.95117L11.9444 6.54611H8.6875V7.736H9.33888V16.6601C9.33888 16.9708 9.46351 17.2876 9.7091 17.5119C9.9547 17.7362 10.3015 17.85 10.6417 17.85H17.1555C17.4957 17.85 17.8425 17.7362 18.088 17.5119C18.3336 17.2876 18.4583 16.9708 18.4583 16.6601V7.736H19.1096V6.54611H15.8527L15.2013 5.95117H12.5958ZM10.6417 7.736H17.1555V16.6601H10.6417V7.736ZM11.9444 8.92588V15.4702H13.2472V8.92588H11.9444ZM14.55 8.92588V15.4702H15.8527V8.92588H14.55Z" fill="#9EA3AE"/>
</svg>
