<svg width="130" height="130" viewBox="0 0 130 130" fill="none" xmlns="http://www.w3.org/2000/svg">
<path d="M64.529 0C28.9489 0 0 28.9489 0 64.529C0 100.109 28.9489 129.058 64.529 129.058C100.109 129.058 129.058 100.109 129.058 64.529C129.058 28.9489 100.109 0 64.529 0ZM64.529 9.92754C94.7383 9.92754 119.131 34.3198 119.131 64.529C119.131 94.7383 94.7383 119.131 64.529 119.131C34.3198 119.131 9.92754 94.7383 9.92754 64.529C9.92754 34.3198 34.3198 9.92754 64.529 9.92754ZM45.7598 38.6244L38.6244 45.7598L57.3936 64.529L38.6244 83.2983L45.7598 90.4337L64.529 71.6645L83.2983 90.4337L90.4337 83.2983L71.6645 64.529L90.4337 45.7598L83.2983 38.6244L64.529 57.3936L45.7598 38.6244Z" fill="#57B894"/>
</svg>
