<svg width="15" height="15" viewBox="0 0 15 15" fill="none" xmlns="http://www.w3.org/2000/svg">
<path d="M6.50202 7.64173C6.50466 7.8138 6.57582 7.97811 6.6997 8.09972L13.4471 14.7237C13.6158 14.8971 13.8675 14.967 14.1047 14.9062C14.3406 14.8454 14.5251 14.6642 14.587 14.4326C14.649 14.1998 14.5778 13.9527 14.4012 13.7871L8.13089 7.63138L14.4012 1.4757C14.5778 1.3101 14.649 1.06299 14.587 0.830118C14.5251 0.598536 14.3406 0.417411 14.1047 0.356604C13.8675 0.295797 13.6158 0.36566 13.4471 0.539023L6.6997 7.16304C6.57055 7.28983 6.49939 7.4619 6.50202 7.64173Z" fill="#CACACA"/>
<path d="M0.0156954 7.64173C0.0183312 7.8138 0.0894951 7.97811 0.213373 8.09972L6.96077 14.7237C7.12945 14.8971 7.38116 14.967 7.61837 14.9062C7.85427 14.8454 8.03877 14.6642 8.10071 14.4326C8.16265 14.1998 8.09148 13.9527 7.91489 13.7871L1.64456 7.63138L7.91489 1.4757C8.09148 1.3101 8.16264 1.06299 8.10071 0.830118C8.03877 0.598536 7.85427 0.417411 7.61837 0.356604C7.38116 0.295797 7.12945 0.36566 6.96077 0.539023L0.213373 7.16304C0.0842237 7.28983 0.0130598 7.4619 0.0156954 7.64173Z" fill="#CACACA"/>
</svg>
