<svg width="28" height="33" viewBox="0 0 28 33" fill="none" xmlns="http://www.w3.org/2000/svg">
<path d="M20.3029 0.886719C18.4923 0.886719 16.7123 1.58856 15.3391 2.96173L3.13319 15.1677C-0.737106 19.038 -0.737106 25.3342 3.13319 29.2045C7.00349 33.0748 13.2997 33.0748 17.17 29.2045L25.3073 21.0672L23.4764 19.2363L15.3391 27.3736C12.4656 30.2471 7.83756 30.2471 4.96408 27.3736C2.0906 24.5001 2.0906 19.872 4.96408 16.9985L17.17 4.79262C18.9195 3.0431 21.7269 3.0431 23.4764 4.79262C25.2259 6.54213 25.2259 9.3495 23.4764 11.099L11.2705 23.3049C10.6449 23.9305 9.65828 23.9305 9.03273 23.3049C8.40717 22.6794 8.40717 21.6927 9.03273 21.0672L20.2215 9.87842L18.3906 8.04753L7.20184 19.2363C5.57946 20.8587 5.57946 23.5135 7.20184 25.1358C8.82421 26.7582 11.479 26.7582 13.1014 25.1358L25.3073 12.9299C28.0536 10.1836 28.0536 5.70806 25.3073 2.96173C23.9341 1.58856 22.1134 0.886719 20.3029 0.886719Z" fill="#2D2D32"/>
</svg>
