<svg width="30" height="30" viewBox="0 0 30 30" fill="none" xmlns="http://www.w3.org/2000/svg">
<rect x="0.5" y="0.5" width="29" height="29" rx="4.5" fill="white" stroke="#AFAFAF"/>
<path d="M15.5617 14.9005L15.5617 14.9005C15.5598 15.0225 15.5093 15.1387 15.4219 15.2246L11.1621 19.4065C11.0429 19.5287 10.8657 19.5775 10.6991 19.5348L10.699 19.5348C10.5329 19.492 10.4025 19.3643 10.3586 19.2003L10.3586 19.2003C10.3148 19.0355 10.3651 18.8608 10.4896 18.7437L14.4119 14.8932L10.4901 11.0431C10.4899 11.0429 10.4898 11.0428 10.4896 11.0427C10.3651 10.9256 10.3148 10.7509 10.3586 10.5861L10.3586 10.5861C10.4025 10.4221 10.5329 10.2944 10.699 10.2516L10.6991 10.2516C10.8657 10.2089 11.0429 10.2577 11.1621 10.3799C11.1622 10.3801 11.1624 10.3802 11.1625 10.3803L15.4219 14.5618C15.5131 14.6514 15.5635 14.7731 15.5617 14.9005Z" fill="#AFAFAF" stroke="#AFAFAF" stroke-width="0.1"/>
<path d="M19.6574 14.9005L19.6574 14.9005C19.6555 15.0225 19.6051 15.1387 19.5176 15.2246L15.2578 19.4065C15.1386 19.5287 14.9614 19.5775 14.7948 19.5348L14.7947 19.5348C14.6286 19.492 14.4982 19.3643 14.4543 19.2003L14.4543 19.2003C14.4105 19.0355 14.4608 18.8608 14.5853 18.7437L18.5076 14.8932L14.5858 11.0431C14.5856 11.0429 14.5855 11.0428 14.5853 11.0427C14.4608 10.9256 14.4105 10.7509 14.4543 10.5861L14.4543 10.5861C14.4982 10.4221 14.6286 10.2944 14.7947 10.2516L14.7948 10.2516C14.9614 10.2089 15.1386 10.2577 15.2578 10.3799C15.2579 10.3801 15.2581 10.3802 15.2582 10.3803L19.5176 14.5618C19.6088 14.6514 19.6592 14.7731 19.6574 14.9005Z" fill="#AFAFAF" stroke="#AFAFAF" stroke-width="0.1"/>
</svg>
