<svg width="31" height="30" viewBox="0 0 31 30" fill="none" xmlns="http://www.w3.org/2000/svg">
<rect x="0.998047" y="0.5" width="29" height="29" rx="4.5" fill="white" stroke="#AFAFAF"/>
<path d="M11.5536 15.0079L11.5536 15.0079C11.5554 15.1299 11.6059 15.2462 11.6933 15.332L15.9531 19.5139C16.0723 19.6361 16.2495 19.685 16.4162 19.6422L16.4162 19.6422C16.5823 19.5994 16.7127 19.4717 16.7566 19.3077L16.7566 19.3077C16.8004 19.1429 16.7501 18.9682 16.6256 18.8512L12.7034 15.0006L16.6252 11.1505C16.6253 11.1504 16.6255 11.1502 16.6256 11.1501C16.7501 11.033 16.8004 10.8583 16.7566 10.6936L16.7566 10.6935C16.7127 10.5295 16.5823 10.4018 16.4162 10.359L16.4162 10.359C16.2495 10.3163 16.0723 10.3652 15.9531 10.4873C15.953 10.4875 15.9529 10.4876 15.9527 10.4878L11.6933 14.6692C11.6021 14.7588 11.5517 14.8805 11.5536 15.0079Z" fill="#AFAFAF" stroke="#AFAFAF" stroke-width="0.1"/>
</svg>
