<svg width="35" height="35" viewBox="0 0 35 35" fill="none" xmlns="http://www.w3.org/2000/svg">
<circle cx="17.5157" cy="17.4161" r="16.2742" fill="#E2E2EA" stroke="white" stroke-width="1.54158"/>
<path d="M13.109 14.9522C13.177 13.8982 13.5794 13.0765 14.316 12.4872C15.064 11.8978 16.016 11.6032 17.172 11.6032C17.9654 11.6032 18.651 11.7448 19.229 12.0282C19.807 12.3115 20.2434 12.6968 20.538 13.1842C20.8327 13.6715 20.98 14.2212 20.98 14.8332C20.98 15.5358 20.793 16.1365 20.419 16.6352C20.045 17.1338 19.5974 17.4682 19.076 17.6382V17.7062C19.7447 17.9102 20.266 18.2842 20.64 18.8282C21.014 19.3608 21.201 20.0465 21.201 20.8852C21.201 21.5538 21.048 22.1488 20.742 22.6702C20.436 23.1915 19.9827 23.6052 19.382 23.9112C18.7814 24.2058 18.0617 24.3532 17.223 24.3532C15.999 24.3532 14.9904 24.0415 14.197 23.4182C13.415 22.7835 12.9957 21.8768 12.939 20.6982H14.809C14.8544 21.2988 15.0867 21.7918 15.506 22.1772C15.9254 22.5512 16.492 22.7382 17.206 22.7382C17.8974 22.7382 18.43 22.5512 18.804 22.1772C19.178 21.7918 19.365 21.2988 19.365 20.6982C19.365 19.9048 19.11 19.3438 18.6 19.0152C18.1014 18.6752 17.3307 18.5052 16.288 18.5052H15.846V16.9072H16.305C17.223 16.8958 17.92 16.7428 18.396 16.4482C18.8834 16.1535 19.127 15.6888 19.127 15.0542C19.127 14.5102 18.9514 14.0795 18.6 13.7622C18.2487 13.4335 17.75 13.2692 17.104 13.2692C16.4694 13.2692 15.9764 13.4335 15.625 13.7622C15.2737 14.0795 15.064 14.4762 14.996 14.9522H13.109Z" fill="white"/>
<path d="M13.109 14.9522L11.5707 14.8529L11.4648 16.4937H13.109V14.9522ZM14.316 12.4872L13.362 11.2762L13.353 11.2834L14.316 12.4872ZM19.229 12.0282L18.5505 13.4124L18.5505 13.4124L19.229 12.0282ZM20.538 13.1842L21.8572 12.3865L21.8572 12.3865L20.538 13.1842ZM20.419 16.6352L21.6523 17.5601L20.419 16.6352ZM19.076 17.6382L18.5981 16.1725L17.5345 16.5194V17.6382H19.076ZM19.076 17.7062H17.5345V18.8476L18.6262 19.1806L19.076 17.7062ZM20.64 18.8282L19.3697 19.7015L19.374 19.7078L19.3784 19.714L20.64 18.8282ZM20.742 22.6702L19.4126 21.8898L20.742 22.6702ZM19.382 23.9112L20.061 25.2952L20.0714 25.29L20.0818 25.2848L19.382 23.9112ZM14.197 23.4182L13.2256 24.6151L13.235 24.6228L13.2446 24.6303L14.197 23.4182ZM12.939 20.6982V19.1566H11.3216L11.3992 20.7722L12.939 20.6982ZM14.809 20.6982L16.3463 20.5821L16.2387 19.1566H14.809V20.6982ZM15.506 22.1772L14.463 23.3123L14.4714 23.32L14.4799 23.3276L15.506 22.1772ZM18.804 22.1772L19.8941 23.2672L19.9022 23.2591L19.9103 23.2508L18.804 22.1772ZM18.6 19.0152L17.7316 20.2889L17.7482 20.3001L17.765 20.311L18.6 19.0152ZM15.846 18.5052H14.3045V20.0467H15.846V18.5052ZM15.846 16.9072V15.3656H14.3045V16.9072H15.846ZM16.305 16.9072V18.4487H16.3146L16.3241 18.4486L16.305 16.9072ZM18.396 16.4482L17.5984 15.129L17.5915 15.1332L17.5846 15.1374L18.396 16.4482ZM18.6 13.7622L17.5469 14.8879L17.5567 14.8971L17.5667 14.9062L18.6 13.7622ZM15.625 13.7622L16.6583 14.9062L16.6683 14.8971L16.6782 14.8879L15.625 13.7622ZM14.996 14.9522V16.4937H16.3331L16.5221 15.1702L14.996 14.9522ZM14.6474 15.0514C14.6912 14.3727 14.9234 13.9754 15.2791 13.6909L13.353 11.2834C12.2353 12.1776 11.6629 13.4236 11.5707 14.8529L14.6474 15.0514ZM15.2701 13.6981C15.6918 13.3658 16.2858 13.1447 17.172 13.1447V10.0616C15.7463 10.0616 14.4363 10.4298 13.362 11.2763L15.2701 13.6981ZM17.172 13.1447C17.7837 13.1447 18.2271 13.2538 18.5505 13.4124L19.9076 10.6439C19.075 10.2358 18.147 10.0616 17.172 10.0616V13.1447ZM18.5505 13.4124C18.8988 13.5831 19.0964 13.7793 19.2189 13.9818L21.8572 12.3865C21.3904 11.6144 20.7153 11.0399 19.9076 10.6439L18.5505 13.4124ZM19.2189 13.9818C19.3572 14.2105 19.4385 14.4806 19.4385 14.8332H22.5216C22.5216 13.9618 22.3083 13.1325 21.8572 12.3865L19.2189 13.9818ZM19.4385 14.8332C19.4385 15.2468 19.3345 15.5119 19.1858 15.7102L21.6523 17.5601C22.2516 16.7611 22.5216 15.8249 22.5216 14.8332H19.4385ZM19.1858 15.7102C18.975 15.9913 18.778 16.1139 18.5981 16.1725L19.554 19.1038C20.4168 18.8224 21.1151 18.2764 21.6523 17.5601L19.1858 15.7102ZM17.5345 17.6382V17.7062H20.6176V17.6382H17.5345ZM18.6262 19.1806C18.9824 19.2893 19.2055 19.4626 19.3697 19.7015L21.9104 17.9548C21.3266 17.1057 20.507 16.531 19.5259 16.2317L18.6262 19.1806ZM19.3784 19.714C19.524 19.9214 19.6595 20.2723 19.6595 20.8852H22.7426C22.7426 19.8207 22.5041 18.8003 21.9017 17.9423L19.3784 19.714ZM19.6595 20.8852C19.6595 21.3094 19.5653 21.6296 19.4126 21.8898L22.0715 23.4505C22.5308 22.668 22.7426 21.7983 22.7426 20.8852H19.6595ZM19.4126 21.8898C19.2723 22.1287 19.0519 22.3492 18.6823 22.5375L20.0818 25.2848C20.9135 24.8611 21.5998 24.2542 22.0715 23.4505L19.4126 21.8898ZM18.7031 22.5271C18.3604 22.6953 17.8845 22.8116 17.223 22.8116V25.8947C18.2389 25.8947 19.2023 25.7164 20.061 25.2952L18.7031 22.5271ZM17.223 22.8116C16.2686 22.8116 15.617 22.5733 15.1495 22.206L13.2446 24.6303C14.3638 25.5096 15.7295 25.8947 17.223 25.8947V22.8116ZM15.1685 22.2212C14.7864 21.9111 14.5184 21.4473 14.4788 20.6241L11.3992 20.7722C11.473 22.3064 12.0437 23.6559 13.2256 24.6151L15.1685 22.2212ZM12.939 22.2397H14.809V19.1566H12.939V22.2397ZM13.2718 20.8142C13.3447 21.7802 13.7378 22.6459 14.463 23.3123L16.5491 21.042C16.4356 20.9377 16.364 20.8175 16.3463 20.5821L13.2718 20.8142ZM14.4799 23.3276C15.2518 24.016 16.2194 24.2797 17.206 24.2797V21.1966C16.7647 21.1966 16.599 21.0863 16.5321 21.0267L14.4799 23.3276ZM17.206 24.2797C18.1756 24.2797 19.1502 24.0112 19.8941 23.2672L17.714 21.0871C17.7099 21.0912 17.6191 21.1966 17.206 21.1966V24.2797ZM19.9103 23.2508C20.5975 22.5427 20.9066 21.648 20.9066 20.6982H17.8235C17.8235 20.9497 17.7586 21.0409 17.6978 21.1035L19.9103 23.2508ZM20.9066 20.6982C20.9066 19.5619 20.5187 18.4176 19.4351 17.7193L17.765 20.311C17.7721 20.3156 17.7702 20.3154 17.7659 20.3103C17.7616 20.3054 17.764 20.3062 17.7704 20.3203C17.7846 20.3517 17.8235 20.4607 17.8235 20.6982H20.9066ZM19.4685 17.7415C18.5875 17.1408 17.4406 16.9636 16.288 16.9636V20.0467C17.2208 20.0467 17.6153 20.2095 17.7316 20.2889L19.4685 17.7415ZM16.288 16.9636H15.846V20.0467H16.288V16.9636ZM17.3876 18.5052V16.9072H14.3045V18.5052H17.3876ZM15.846 18.4487H16.305V15.3656H15.846V18.4487ZM16.3241 18.4486C17.3616 18.4358 18.3861 18.2674 19.2075 17.7589L17.5846 15.1374C17.454 15.2183 17.0845 15.3558 16.286 15.3657L16.3241 18.4486ZM19.1937 17.7673C20.2027 17.1572 20.6686 16.1545 20.6686 15.0542H17.5855C17.5855 15.1146 17.5796 15.1496 17.5763 15.1647C17.5732 15.1787 17.5722 15.1757 17.579 15.1627C17.5862 15.1491 17.5959 15.1358 17.6053 15.1261C17.6141 15.117 17.6147 15.1191 17.5984 15.129L19.1937 17.7673ZM20.6686 15.0542C20.6686 14.1458 20.3579 13.2726 19.6333 12.6181L17.5667 14.9062C17.5726 14.9115 17.5727 14.9125 17.5704 14.9093C17.5681 14.906 17.5672 14.9038 17.5679 14.9054C17.5687 14.9073 17.5855 14.9484 17.5855 15.0542H20.6686ZM19.6532 12.6364C18.93 11.9599 18.0044 11.7276 17.104 11.7276V14.8107C17.2994 14.8107 17.4175 14.8359 17.4801 14.8565C17.5104 14.8665 17.5275 14.8754 17.5355 14.88C17.5431 14.8844 17.546 14.887 17.5469 14.8879L19.6532 12.6364ZM17.104 11.7276C16.2065 11.7276 15.2904 11.9643 14.5719 12.6364L16.6782 14.8879C16.6791 14.8871 16.6927 14.8726 16.7458 14.8549C16.8048 14.8352 16.9171 14.8107 17.104 14.8107V11.7276ZM14.5917 12.6181C13.9684 13.1811 13.5881 13.9075 13.47 14.7341L16.5221 15.1702C16.54 15.0449 16.579 14.9778 16.6583 14.9062L14.5917 12.6181ZM14.996 13.4106H13.109V16.4937H14.996V13.4106Z" fill="white"/>
</svg>
