<svg width="28" height="28" viewBox="0 0 28 28" fill="none" xmlns="http://www.w3.org/2000/svg">
<path d="M15.486 12.4107H25.7056C26.0928 12.4107 26.4641 12.5657 26.7379 12.8417C27.0117 13.1176 27.1655 13.4918 27.1655 13.882C27.1655 14.2722 27.0117 14.6464 26.7379 14.9223C26.4641 15.1983 26.0928 15.3533 25.7056 15.3533H15.486V25.6521C15.486 26.0423 15.3322 26.4165 15.0584 26.6925C14.7847 26.9684 14.4133 27.1234 14.0261 27.1234C13.6389 27.1234 13.2676 26.9684 12.9938 26.6925C12.72 26.4165 12.5662 26.0423 12.5662 25.6521V15.3533H2.34665C1.95945 15.3533 1.58811 15.1983 1.31432 14.9223C1.04053 14.6464 0.886719 14.2722 0.886719 13.882C0.886719 13.4918 1.04053 13.1176 1.31432 12.8417C1.58811 12.5657 1.95945 12.4107 2.34665 12.4107H12.5662V2.11189C12.5662 1.72169 12.72 1.34746 12.9938 1.07155C13.2676 0.795633 13.6389 0.640625 14.0261 0.640625C14.4133 0.640625 14.7847 0.795633 15.0584 1.07155C15.3322 1.34746 15.486 1.72169 15.486 2.11189V12.4107Z" fill="white"/>
</svg>
