<svg width="15" height="28" viewBox="0 0 15 28" fill="none" xmlns="http://www.w3.org/2000/svg">
<path d="M14.6835 13.6476C14.6785 13.9644 14.5538 14.2667 14.3357 14.4907L2.46554 26.6837C2.35616 26.8007 2.22515 26.8942 2.08018 26.9585C1.93521 27.0229 1.7792 27.0569 1.62128 27.0585C1.46336 27.0602 1.3067 27.0294 1.16049 26.9681C1.01427 26.9068 0.881442 26.8161 0.769769 26.7014C0.658096 26.5867 0.569826 26.4503 0.510132 26.3001C0.450438 26.1499 0.420519 25.989 0.422126 25.8268C0.423733 25.6645 0.456833 25.5043 0.519489 25.3554C0.582146 25.2065 0.673099 25.0719 0.787021 24.9595L11.8179 13.6286L0.78702 2.29766C0.673097 2.1853 0.582144 2.05073 0.519486 1.90182C0.456829 1.75291 0.423726 1.59265 0.422119 1.43043C0.420511 1.26821 0.450432 1.1073 0.510127 0.957106C0.569821 0.806914 0.658088 0.670468 0.769762 0.555756C0.881435 0.441046 1.01427 0.350378 1.16048 0.289059C1.3067 0.227741 1.46335 0.197006 1.62127 0.198658C1.7792 0.200308 1.93521 0.234312 2.08018 0.298674C2.22515 0.363035 2.35616 0.456463 2.46554 0.573485L14.3357 12.7665C14.4482 12.882 14.5369 13.0195 14.5966 13.1708C14.6564 13.3222 14.6859 13.4843 14.6835 13.6476Z" fill="white"/>
</svg>
