<svg width="37" height="36" viewBox="0 0 37 36" fill="none" xmlns="http://www.w3.org/2000/svg">
<rect x="1.1207" y="0.4" width="35.2" height="35.2" rx="2.8" fill="white" stroke="#E2E2EA" stroke-width="0.8"/>
<path d="M18.5266 11.4372C17.2164 11.5215 15.9883 12.1045 15.0946 13.0662C14.2008 14.028 13.7094 15.2955 13.7213 16.6084V19.0544L12.8291 20.8489L12.8245 20.8587C12.7441 21.0386 12.7095 21.2356 12.7239 21.4321C12.7382 21.6286 12.801 21.8185 12.9066 21.9849C13.0122 22.1512 13.1574 22.2888 13.3292 22.3854C13.501 22.4819 13.694 22.5344 13.891 22.5382H16.7516C16.7516 23.0738 16.9643 23.5875 17.3431 23.9663C17.7219 24.3451 18.2356 24.5578 18.7712 24.5578C19.3069 24.5578 19.8206 24.3451 20.1993 23.9663C20.5781 23.5875 20.7909 23.0738 20.7909 22.5382H23.6505C23.8475 22.5343 24.0404 22.4817 24.2121 22.3851C24.3838 22.2886 24.529 22.151 24.6346 21.9847C24.7402 21.8184 24.803 21.6285 24.8174 21.432C24.8318 21.2356 24.7973 21.0386 24.717 20.8587L24.7124 20.8489L23.8202 19.0544V16.4799C23.819 15.7967 23.6793 15.1207 23.4096 14.4929C23.1399 13.8652 22.7458 13.2985 22.2511 12.8273C21.7564 12.356 21.1713 11.9898 20.5312 11.7509C19.891 11.512 19.2091 11.4053 18.5266 11.4372ZM18.573 12.4457C19.1195 12.4179 19.666 12.5018 20.1791 12.6921C20.6922 12.8824 21.1612 13.1752 21.5575 13.5527C21.9537 13.9301 22.2689 14.3844 22.4839 14.8876C22.6989 15.3909 22.8092 15.9327 22.808 16.4799V19.175C22.8078 19.253 22.8258 19.3299 22.8604 19.3998L23.8003 21.2918C23.8164 21.3169 23.825 21.3461 23.8251 21.3759C23.8251 21.4058 23.8166 21.435 23.8006 21.4602C23.7845 21.4854 23.7616 21.5054 23.7345 21.518C23.7074 21.5305 23.6773 21.535 23.6477 21.531H13.89C13.8605 21.5348 13.8306 21.5302 13.8036 21.5175C13.7767 21.5049 13.7539 21.4848 13.738 21.4597C13.7221 21.4346 13.7137 21.4054 13.7137 21.3757C13.7138 21.3459 13.7224 21.3168 13.7384 21.2918L14.6783 19.4003C14.7129 19.3304 14.7309 19.2534 14.7307 19.1754V16.6084C14.7178 15.5547 15.1089 14.5362 15.8237 13.762C16.5384 12.9878 17.5226 12.5168 18.5739 12.4457H18.573ZM17.7601 22.5387H19.7795C19.7739 22.8027 19.665 23.054 19.4763 23.2388C19.2875 23.4235 19.0339 23.527 18.7698 23.527C18.5057 23.527 18.2521 23.4235 18.0634 23.2388C17.8746 23.054 17.7658 22.8027 17.7601 22.5387Z" fill="#44444F"/>
<path d="M22.4536 14.2139C23.2219 14.2139 23.8447 13.591 23.8447 12.8227C23.8447 12.0545 23.2219 11.4316 22.4536 11.4316C21.6853 11.4316 21.0625 12.0545 21.0625 12.8227C21.0625 13.591 21.6853 14.2139 22.4536 14.2139Z" fill="#57B894"/>
<path d="M22.453 14.4451C23.3494 14.4451 24.076 13.7185 24.076 12.8222C24.076 11.9258 23.3494 11.1992 22.453 11.1992C21.5567 11.1992 20.8301 11.9258 20.8301 12.8222C20.8301 13.7185 21.5567 14.4451 22.453 14.4451Z" stroke="white" stroke-width="0.64" stroke-miterlimit="10"/>
</svg>
