<svg width="50" height="51" viewBox="0 0 50 51" fill="none" xmlns="http://www.w3.org/2000/svg">
<path d="M20.2696 8.60092H30.0992C30.0992 7.29743 29.5814 6.04733 28.6597 5.12563C27.738 4.20392 26.4879 3.68611 25.1844 3.68611C23.8809 3.68611 22.6308 4.20392 21.7091 5.12563C20.7874 6.04733 20.2696 7.29743 20.2696 8.60092ZM16.5835 8.60092C16.5835 7.47143 16.806 6.35301 17.2382 5.30949C17.6704 4.26598 18.304 3.31782 19.1026 2.51915C19.9013 1.72048 20.8495 1.08694 21.893 0.654706C22.9365 0.22247 24.0549 0 25.1844 0C26.3139 0 27.4323 0.22247 28.4758 0.654706C29.5194 1.08694 30.4675 1.72048 31.2662 2.51915C32.0649 3.31782 32.6984 4.26598 33.1306 5.30949C33.5629 6.35301 33.7853 7.47143 33.7853 8.60092H47.9154C48.4042 8.60092 48.873 8.7951 49.2187 9.14074C49.5643 9.48638 49.7585 9.95517 49.7585 10.444C49.7585 10.9328 49.5643 11.4016 49.2187 11.7472C48.873 12.0929 48.4042 12.287 47.9154 12.287H44.6716L41.7965 42.0487C41.5759 44.3291 40.5138 46.4456 38.8173 47.9854C37.1208 49.5251 34.9116 50.3777 32.6205 50.3768H17.7483C15.4577 50.3771 13.249 49.5242 11.5531 47.9845C9.85707 46.4448 8.79532 44.3287 8.57481 42.0487L5.69718 12.287H2.45341C1.9646 12.287 1.49581 12.0929 1.15017 11.7472C0.80453 11.4016 0.610352 10.9328 0.610352 10.444C0.610352 9.95517 0.80453 9.48638 1.15017 9.14074C1.49581 8.7951 1.9646 8.60092 2.45341 8.60092H16.5835ZM21.4983 20.2736C21.4983 19.7848 21.3041 19.316 20.9585 18.9704C20.6128 18.6247 20.1441 18.4306 19.6553 18.4306C19.1664 18.4306 18.6977 18.6247 18.352 18.9704C18.0064 19.316 17.8122 19.7848 17.8122 20.2736V38.7042C17.8122 39.193 18.0064 39.6618 18.352 40.0074C18.6977 40.353 19.1664 40.5472 19.6553 40.5472C20.1441 40.5472 20.6128 40.353 20.9585 40.0074C21.3041 39.6618 21.4983 39.193 21.4983 38.7042V20.2736ZM30.7136 18.4306C31.2024 18.4306 31.6712 18.6247 32.0168 18.9704C32.3625 19.316 32.5566 19.7848 32.5566 20.2736V38.7042C32.5566 39.193 32.3625 39.6618 32.0168 40.0074C31.6712 40.353 31.2024 40.5472 30.7136 40.5472C30.2248 40.5472 29.756 40.353 29.4103 40.0074C29.0647 39.6618 28.8705 39.193 28.8705 38.7042V20.2736C28.8705 19.7848 29.0647 19.316 29.4103 18.9704C29.756 18.6247 30.2248 18.4306 30.7136 18.4306ZM12.2437 41.6948C12.3763 43.0627 13.0135 44.3322 14.0312 45.2559C15.0488 46.1795 16.374 46.691 17.7483 46.6907H32.6205C33.9948 46.691 35.32 46.1795 36.3377 45.2559C37.3554 44.3322 37.9926 43.0627 38.1251 41.6948L40.9708 12.287H9.39804L12.2437 41.6948Z" fill="#57B894"/>
</svg>
