<svg width="21" height="18" viewBox="0 0 21 18" fill="none" xmlns="http://www.w3.org/2000/svg">
<rect x="0.32115" y="0.32115" width="20.1387" height="17.1518" rx="2.89035" stroke="#AFAFAF" stroke-width="0.6423"/>
<path d="M7.37619 6.25602C7.30171 6.25604 7.22892 6.27827 7.16714 6.31988C7.10535 6.36148 7.05738 6.42057 7.02935 6.48958C7.00132 6.55859 6.99451 6.63439 7.00979 6.70729C7.02507 6.78019 7.06174 6.84688 7.11512 6.89883L9.47135 9.25506L7.11512 11.6113C7.07918 11.6458 7.05049 11.6871 7.03073 11.7328C7.01097 11.7786 7.00053 11.8278 7.00002 11.8776C6.99951 11.9274 7.00895 11.9768 7.02778 12.0229C7.04661 12.0691 7.07445 12.111 7.10968 12.1462C7.1449 12.1814 7.1868 12.2092 7.23292 12.2281C7.27904 12.2469 7.32846 12.2563 7.37827 12.2558C7.42808 12.2553 7.47729 12.2449 7.52302 12.2251C7.56875 12.2054 7.61007 12.1767 7.64458 12.1407L10.0008 9.78451L12.357 12.1407C12.3915 12.1767 12.4329 12.2054 12.4786 12.2251C12.5243 12.2449 12.5735 12.2553 12.6233 12.2558C12.6731 12.2563 12.7226 12.2469 12.7687 12.2281C12.8148 12.2092 12.8567 12.1814 12.8919 12.1462C12.9272 12.111 12.955 12.0691 12.9738 12.0229C12.9927 11.9768 13.0021 11.9274 13.0016 11.8776C13.0011 11.8278 12.9906 11.7786 12.9709 11.7328C12.9511 11.6871 12.9224 11.6458 12.8865 11.6113L10.5303 9.25506L12.8865 6.89883C12.9406 6.84624 12.9775 6.77853 12.9925 6.70457C13.0075 6.63061 12.9997 6.55386 12.9703 6.48438C12.9409 6.41489 12.8912 6.35591 12.8277 6.31516C12.7642 6.27441 12.6899 6.2538 12.6144 6.25602C12.5172 6.25892 12.4248 6.29958 12.357 6.36937L10.0008 8.7256L7.64458 6.36937C7.60968 6.33351 7.56796 6.30499 7.52186 6.28553C7.47576 6.26606 7.42623 6.25603 7.37619 6.25602Z" fill="#AFAFAF"/>
</svg>
