<svg width="13" height="14" viewBox="0 0 13 14" fill="none" xmlns="http://www.w3.org/2000/svg">
<path d="M4.01348 0.382806L4.01348 0.382812C4.12615 0.381427 4.23184 0.432039 4.30204 0.519251L5.71871 1.93101C5.81293 2.02108 5.85107 2.15597 5.81705 2.28159L5.74726 2.26269M4.01348 0.382806L4.16451 4.16583C4.25483 4.113 4.30902 4.01632 4.30789 3.9129H4.38019V3.91253V1.61611L5.20801 2.44041C5.29833 2.5341 5.43331 2.57192 5.55896 2.53836C5.68583 2.5059 5.78476 2.40741 5.81729 2.28067L5.74726 2.26269M4.01348 0.382806L4.01254 0.38283C3.90344 0.385581 3.80195 0.435872 3.73431 0.521781L2.31907 1.931C2.22495 2.02096 2.18679 2.15563 2.22059 2.28113C2.25328 2.4078 2.35233 2.50617 2.47927 2.53848L2.4971 2.46841M4.01348 0.382806L3.72988 3.9129H3.65758V3.91255V1.61611L2.82977 2.4404C2.73934 2.53421 2.60413 2.57201 2.47835 2.53824L2.4971 2.46841M5.74726 2.26269C5.72129 2.36386 5.64227 2.44255 5.54067 2.46841L5.66824 1.98279C5.74387 2.05473 5.77435 2.16265 5.74726 2.26269ZM2.4971 2.46841C2.3955 2.44255 2.31647 2.36386 2.29051 2.26269L2.7782 2.38972C2.70595 2.46504 2.59757 2.49539 2.4971 2.46841ZM9.58225 0.747877C9.58351 0.65096 9.5454 0.55699 9.4763 0.488184C9.40708 0.419259 9.31263 0.381411 9.21539 0.382813L9.2149 0.382823L9.50995 0.74738M9.58225 0.747877C9.58225 0.748062 9.58225 0.748247 9.58224 0.748431L9.50995 0.74738M9.58225 0.747877V0.74738H9.50995M9.58225 0.747877V3.04417M9.50995 0.74738V3.11616L9.58225 3.04417M9.58225 3.04417L10.4101 2.21988M9.58225 3.04417V3.1462L10.4616 2.27056M10.4101 2.21988L10.4106 2.21933L10.4616 2.27056M10.4101 2.21988C10.4099 2.22009 10.4097 2.2203 10.4095 2.22051L10.4616 2.27056M10.4101 2.21988L10.4616 2.27056M7.43795 2.33567L7.43829 2.33483C7.49457 2.20034 7.62564 2.1117 7.77254 2.1117C7.86997 2.1117 7.96334 2.14916 8.03177 2.21981L8.85964 3.04417V0.747917V0.74738H8.93194L7.43795 2.33567ZM7.43795 2.33567C7.38299 2.47177 7.41536 2.62647 7.5209 2.72905C7.52103 2.72917 7.52115 2.72929 7.52128 2.72941L8.93661 4.13986C9.00551 4.22576 9.10958 4.27621 9.22049 4.27635M7.43795 2.33567L9.50827 4.13576M9.50827 4.13576L9.5071 4.13727C9.43836 4.22527 9.3327 4.27762 9.22049 4.27635M9.50827 4.13576L10.9208 2.72927C11.0149 2.63932 11.053 2.50465 11.0192 2.37915L9.50827 4.13576ZM9.22049 4.27635C9.22034 4.27635 9.22019 4.27635 9.22003 4.27635L9.22095 4.20405V4.27635C9.22079 4.27635 9.22064 4.27635 9.22049 4.27635ZM10.7615 2.12205C10.7612 2.12197 10.7609 2.12188 10.7606 2.12181L10.7427 2.19187L10.7615 2.12205ZM4.98833 11.9919L4.9888 11.9922L7.87883 13.7188L7.87941 13.7192C7.99168 13.7849 8.12965 13.7864 8.24251 13.7232L8.2431 13.7229C8.35539 13.6586 8.42624 13.5394 8.42624 13.4095V10.1054L12.3354 6.21394C12.379 6.17842 12.4152 6.13327 12.4392 6.08028L12.4531 6.0664V6.04735C12.4733 5.99354 12.4792 5.93601 12.4723 5.88098V5.064C12.4723 4.86528 12.3098 4.70393 12.111 4.70393H1.12885C0.93003 4.70393 0.767542 4.86528 0.767542 5.064V5.92733C0.767542 6.02308 0.805743 6.11456 0.873497 6.18203L4.81359 10.1054V11.6828C4.81359 11.8096 4.88014 11.9262 4.98833 11.9919ZM12.4499 6.05706L12.4499 6.05702L12.4499 6.05706ZM1.49015 5.42408H11.7497V5.77813L7.91541 9.5961H5.32442L1.49015 5.77813V5.42408ZM5.5362 10.3162H7.70363V12.7739L5.5362 11.4788V10.3162Z" fill="#171725" stroke="#AFAFAF" stroke-width="0.144603"/>
</svg>
