<svg width="13" height="13" viewBox="0 0 13 13" fill="none" xmlns="http://www.w3.org/2000/svg">
<path d="M0.803778 0.000344902C0.644632 0.000386348 0.489113 0.0474919 0.357105 0.135639C0.225098 0.223787 0.122599 0.348971 0.0627135 0.495187C0.00282781 0.641403 -0.0117236 0.802008 0.0209196 0.956468C0.0535628 1.11093 0.131917 1.25223 0.245966 1.36229L5.28034 6.35456L0.245966 11.3468C0.169187 11.4199 0.107889 11.5075 0.0656607 11.6044C0.0234328 11.7013 0.00112426 11.8055 4.14092e-05 11.9111C-0.00104144 12.0166 0.0191233 12.1213 0.0593546 12.219C0.0995859 12.3167 0.159075 12.4055 0.234338 12.4801C0.309601 12.5548 0.399125 12.6138 0.497667 12.6537C0.596209 12.6936 0.701787 12.7136 0.80822 12.7125C0.914652 12.7114 1.0198 12.6893 1.1175 12.6474C1.2152 12.6055 1.3035 12.5448 1.37722 12.4686L6.41159 7.47635L11.446 12.4686C11.5197 12.5448 11.608 12.6055 11.7057 12.6474C11.8034 12.6893 11.9085 12.7114 12.015 12.7125C12.1214 12.7136 12.227 12.6936 12.3255 12.6537C12.4241 12.6138 12.5136 12.5548 12.5888 12.4802C12.6641 12.4055 12.7236 12.3167 12.7638 12.219C12.8041 12.1213 12.8242 12.0166 12.8231 11.9111C12.8221 11.8055 12.7998 11.7013 12.7575 11.6044C12.7153 11.5075 12.654 11.4199 12.5772 11.3468L7.54284 6.35456L12.5772 1.36229C12.6928 1.25086 12.7718 1.1074 12.8037 0.950708C12.8357 0.794014 12.8192 0.631398 12.7564 0.484171C12.6935 0.336945 12.5873 0.211975 12.4516 0.12564C12.3159 0.039305 12.1571 -0.00436764 11.996 0.000344902C11.7881 0.00648601 11.5909 0.0926228 11.446 0.240507L6.41159 5.23277L1.37722 0.240507C1.30266 0.164512 1.21351 0.104106 1.11502 0.0628563C1.01652 0.0216068 0.910694 0.000351082 0.803778 0.000344902Z" fill="#BBBBBB"/>
</svg>
