<svg width="31" height="31" viewBox="0 0 31 31" fill="none" xmlns="http://www.w3.org/2000/svg">
<path d="M2.73902 0.72151C2.36995 0.721607 2.00929 0.83177 1.70315 1.03791C1.39702 1.24406 1.15932 1.53682 1.02044 1.87877C0.881558 2.22071 0.847812 2.59631 0.923514 2.95753C0.999216 3.31876 1.18093 3.6492 1.44541 3.90662L13.1205 15.5817L1.44541 27.2568C1.26736 27.4278 1.1252 27.6325 1.02727 27.8591C0.929342 28.0857 0.877607 28.3295 0.875096 28.5764C0.872585 28.8232 0.919348 29.068 1.01265 29.2965C1.10595 29.5251 1.24391 29.7327 1.41845 29.9072C1.59299 30.0818 1.8006 30.2197 2.02913 30.313C2.25765 30.4063 2.5025 30.4531 2.74932 30.4506C2.99615 30.4481 3.23999 30.3963 3.46657 30.2984C3.69315 30.2005 3.89791 30.0583 4.06887 29.8803L15.744 18.2052L27.4191 29.8803C27.59 30.0583 27.7948 30.2005 28.0214 30.2984C28.2479 30.3963 28.4918 30.4481 28.7386 30.4506C28.9854 30.4531 29.2303 30.4063 29.4588 30.313C29.6873 30.2197 29.8949 30.0818 30.0695 29.9072C30.244 29.7327 30.382 29.5251 30.4753 29.2966C30.5686 29.068 30.6154 28.8232 30.6128 28.5764C30.6103 28.3295 30.5586 28.0857 30.4607 27.8591C30.3627 27.6325 30.2206 27.4278 30.0425 27.2568L18.3674 15.5817L30.0425 3.90662C30.3106 3.64602 30.4937 3.31051 30.5678 2.94406C30.642 2.57761 30.6037 2.19731 30.458 1.853C30.3123 1.50869 30.0659 1.21644 29.7513 1.01453C29.4366 0.812623 29.0683 0.710489 28.6946 0.72151C28.2126 0.735872 27.7551 0.937314 27.4191 1.28316L15.744 12.9583L4.06887 1.28316C3.89598 1.10544 3.68922 0.964169 3.46081 0.867701C3.2324 0.771234 2.98697 0.721524 2.73902 0.72151Z" fill="#BBBBBB"/>
</svg>
