<svg width="12" height="12" viewBox="0 0 12 12" fill="none" xmlns="http://www.w3.org/2000/svg">
<path d="M0.75218 0.00032557C0.603249 0.000364693 0.457714 0.0448301 0.334181 0.128037C0.210648 0.211244 0.114729 0.329411 0.0586875 0.467432C0.00264628 0.605453 -0.010971 0.757056 0.0195767 0.902859C0.0501244 1.04866 0.123449 1.18204 0.230176 1.28594L4.94137 5.99839L0.230176 10.7108C0.158326 10.7798 0.100963 10.8625 0.0614456 10.954C0.0219285 11.0454 0.00105209 11.1438 3.87509e-05 11.2435C-0.000974589 11.3431 0.0178957 11.4419 0.0555443 11.5342C0.093193 11.6264 0.148863 11.7102 0.219295 11.7806C0.289726 11.8511 0.373503 11.9068 0.465719 11.9444C0.557935 11.9821 0.656736 12.001 0.756336 12C0.855936 11.9989 0.954333 11.9781 1.04576 11.9385C1.13719 11.899 1.21982 11.8416 1.28881 11.7698L6 7.0573L10.7112 11.7698C10.7802 11.8416 10.8628 11.899 10.9542 11.9385C11.0457 11.9781 11.1441 11.9989 11.2437 12C11.3433 12.001 11.4421 11.9821 11.5343 11.9444C11.6265 11.9068 11.7103 11.8511 11.7807 11.7806C11.8511 11.7102 11.9068 11.6264 11.9445 11.5342C11.9821 11.4419 12.001 11.3431 12 11.2435C11.9989 11.1438 11.9781 11.0454 11.9386 10.954C11.899 10.8625 11.8417 10.7798 11.7698 10.7108L7.05863 5.99839L11.7698 1.28594C11.878 1.18075 11.9519 1.04533 11.9818 0.897421C12.0117 0.74951 11.9963 0.596009 11.9375 0.457034C11.8787 0.318059 11.7793 0.200094 11.6523 0.118598C11.5253 0.037102 11.3767 -0.00412283 11.2259 0.00032557C11.0314 0.00612248 10.8468 0.0874313 10.7112 0.227026L6 4.93948L1.28881 0.227026C1.21904 0.155291 1.13561 0.0982707 1.04344 0.0593332C0.951269 0.0203958 0.852232 0.000331404 0.75218 0.00032557Z" fill="#BBBBBB"/>
</svg>
