<svg width="21" height="20" viewBox="0 0 21 20" fill="none" xmlns="http://www.w3.org/2000/svg">
<path d="M17.0117 20H3.01172C2.21607 20 1.45301 19.6839 0.890398 19.1213C0.327789 18.5587 0.0117188 17.7956 0.0117188 17L0.0117188 3.7C0.0117187 3.19609 0.211897 2.71282 0.568216 2.3565C0.924535 2.00018 1.40781 1.8 1.91172 1.8H4.51172V1C4.51172 0.734784 4.61708 0.48043 4.80461 0.292893C4.99215 0.105357 5.2465 4.21468e-08 5.51172 4.21468e-08C5.77694 4.21468e-08 6.03129 0.105357 6.21883 0.292893C6.40636 0.48043 6.51172 0.734784 6.51172 1V1.8H14.4117V1C14.4117 0.868678 14.4376 0.738642 14.4878 0.617317C14.5381 0.495991 14.6118 0.385752 14.7046 0.292893C14.7975 0.200035 14.9077 0.126375 15.029 0.0761205C15.1504 0.0258658 15.2804 0 15.4117 0C15.543 0 15.6731 0.0258658 15.7944 0.0761205C15.9157 0.126375 16.026 0.200035 16.1188 0.292893C16.2117 0.385752 16.2853 0.495991 16.3356 0.617317C16.3859 0.738642 16.4117 0.868678 16.4117 1V1.8H18.1117C18.6156 1.8 19.0989 2.00018 19.4552 2.3565C19.8115 2.71282 20.0117 3.19609 20.0117 3.7V17C20.0117 17.7956 19.6956 18.5587 19.133 19.1213C18.5704 19.6839 17.8074 20 17.0117 20ZM2.01172 7.4V17C2.01172 17.2652 2.11708 17.5196 2.30461 17.7071C2.49215 17.8946 2.7465 18 3.01172 18H17.0117C17.2769 18 17.5313 17.8946 17.7188 17.7071C17.9064 17.5196 18.0117 17.2652 18.0117 17V7.4H2.01172ZM2.01172 3.8V5.4H18.0117V3.8H16.4117C16.3881 4.04769 16.2731 4.2777 16.089 4.44509C15.9049 4.61248 15.665 4.70524 15.4162 4.70524C15.1674 4.70524 14.9275 4.61248 14.7434 4.44509C14.5594 4.2777 14.4443 4.04769 14.4207 3.8H6.51172C6.51172 4.06522 6.40636 4.31957 6.21883 4.50711C6.03129 4.69464 5.77694 4.8 5.51172 4.8C5.2465 4.8 4.99215 4.69464 4.80461 4.50711C4.61708 4.31957 4.51172 4.06522 4.51172 3.8H2.01172ZM11.8117 14.6H4.61172C4.3465 14.6 4.09215 14.4946 3.90461 14.3071C3.71708 14.1196 3.61172 13.8652 3.61172 13.6C3.61172 13.3348 3.71708 13.0804 3.90461 12.8929C4.09215 12.7054 4.3465 12.6 4.61172 12.6H11.8117C12.0769 12.6 12.3313 12.7054 12.5188 12.8929C12.7064 13.0804 12.8117 13.3348 12.8117 13.6C12.8117 13.8652 12.7064 14.1196 12.5188 14.3071C12.3313 14.4946 12.0769 14.6 11.8117 14.6ZM8.21172 11H4.61172C4.3465 11 4.09215 10.8946 3.90461 10.7071C3.71708 10.5196 3.61172 10.2652 3.61172 10C3.61172 9.73478 3.71708 9.48043 3.90461 9.29289C4.09215 9.10536 4.3465 9 4.61172 9H8.21172C8.47694 9 8.73129 9.10536 8.91883 9.29289C9.10636 9.48043 9.21172 9.73478 9.21172 10C9.21172 10.2652 9.10636 10.5196 8.91883 10.7071C8.73129 10.8946 8.47694 11 8.21172 11Z" fill="#AFAFAF"/>
</svg>
