<svg width="64" height="66" viewBox="0 0 64 66" fill="none" xmlns="http://www.w3.org/2000/svg">
<path d="M25.4634 11.1402H38.1951C38.1951 9.45191 37.5244 7.83273 36.3306 6.63891C35.1368 5.44508 33.5176 4.77439 31.8293 4.77439C30.1409 4.77439 28.5218 5.44508 27.3279 6.63891C26.1341 7.83273 25.4634 9.45191 25.4634 11.1402ZM20.689 11.1402C20.689 9.67729 20.9772 8.22865 21.537 6.87706C22.0969 5.52546 22.9175 4.29737 23.9519 3.2629C24.9864 2.22843 26.2145 1.40785 27.5661 0.848001C28.9177 0.288151 30.3663 0 31.8293 0C33.2922 0 34.7409 0.288151 36.0925 0.848001C37.444 1.40785 38.6721 2.22843 39.7066 3.2629C40.7411 4.29737 41.5617 5.52546 42.1215 6.87706C42.6814 8.22865 42.9695 9.67729 42.9695 11.1402H61.2713C61.9045 11.1402 62.5117 11.3918 62.9593 11.8394C63.407 12.2871 63.6585 12.8943 63.6585 13.5274C63.6585 14.1606 63.407 14.7678 62.9593 15.2154C62.5117 15.6631 61.9045 15.9146 61.2713 15.9146H57.0699L53.3459 54.4631C53.0602 57.4168 51.6845 60.1581 49.4871 62.1525C47.2897 64.1468 44.4283 65.2511 41.4608 65.25H22.1977C19.2308 65.2503 16.3701 64.1457 14.1734 62.1514C11.9767 60.1571 10.6015 57.4162 10.3159 54.4631L6.58866 15.9146H2.3872C1.75407 15.9146 1.14688 15.6631 0.699193 15.2154C0.251507 14.7678 0 14.1606 0 13.5274C0 12.8943 0.251507 12.2871 0.699193 11.8394C1.14688 11.3918 1.75407 11.1402 2.3872 11.1402H20.689ZM27.0549 26.2591C27.0549 25.626 26.8034 25.0188 26.3557 24.5711C25.908 24.1235 25.3008 23.872 24.6677 23.872C24.0346 23.872 23.4274 24.1235 22.9797 24.5711C22.532 25.0188 22.2805 25.626 22.2805 26.2591V50.1311C22.2805 50.7642 22.532 51.3714 22.9797 51.8191C23.4274 52.2668 24.0346 52.5183 24.6677 52.5183C25.3008 52.5183 25.908 52.2668 26.3557 51.8191C26.8034 51.3714 27.0549 50.7642 27.0549 50.1311V26.2591ZM38.9909 23.872C39.624 23.872 40.2312 24.1235 40.6789 24.5711C41.1265 25.0188 41.378 25.626 41.378 26.2591V50.1311C41.378 50.7642 41.1265 51.3714 40.6789 51.8191C40.2312 52.2668 39.624 52.5183 38.9909 52.5183C38.3577 52.5183 37.7505 52.2668 37.3029 51.8191C36.8552 51.3714 36.6037 50.7642 36.6037 50.1311V26.2591C36.6037 25.626 36.8552 25.0188 37.3029 24.5711C37.7505 24.1235 38.3577 23.872 38.9909 23.872ZM15.068 54.0047C15.2397 55.7765 16.065 57.4208 17.3831 58.6171C18.7013 59.8134 20.4177 60.476 22.1977 60.4756H41.4608C43.2409 60.476 44.9573 59.8134 46.2754 58.6171C47.5935 57.4208 48.4189 55.7765 48.5906 54.0047L52.2764 15.9146H11.3821L15.068 54.0047Z" fill="#57B894"/>
</svg>
