<svg width="11" height="12" viewBox="0 0 11 12" fill="none" xmlns="http://www.w3.org/2000/svg">
<path d="M4.01136 0L3.36136 0.6H0.111328V1.8H0.761334V10.8C0.761334 11.1133 0.885699 11.4328 1.13077 11.659C1.37584 11.8852 1.7219 12 2.06135 12H8.5614C8.90085 12 9.2469 11.8852 9.49198 11.659C9.73705 11.4328 9.86141 11.1133 9.86141 10.8V1.8H10.5114V0.6H7.26139L6.61139 0H4.01136ZM2.06135 1.8H8.5614V10.8H2.06135V1.8ZM3.36136 3V9.6H4.66137V3H3.36136ZM5.96138 3V9.6H7.26139V3H5.96138Z" fill="#9EA3AE"/>
</svg>
