<svg xmlns="http://www.w3.org/2000/svg" width="17.497" height="19.94" viewBox="0 0 17.497 19.94">
  <g id="iconfinder_trash_bin_1370026" transform="translate(-2.4)">
    <g id="Group_50" data-name="Group 50" transform="translate(4.145 7.477)">
      <path id="Path_311" data-name="Path 311" d="M16.917,27.462H8.841A2.947,2.947,0,0,1,5.9,24.521V15.5a.5.5,0,0,1,1,0v9.023a1.947,1.947,0,0,0,1.944,1.944h8.076a1.947,1.947,0,0,0,1.944-1.944V15.5a.5.5,0,0,1,1,0v9.023A2.979,2.979,0,0,1,16.917,27.462Z" transform="translate(-5.9 -15)" fill="#6e6d6d"/>
    </g>
    <g id="Group_51" data-name="Group 51" transform="translate(2.4)">
      <path id="Path_312" data-name="Path 312" d="M17.8,2.443H14.015a2.932,2.932,0,0,0-5.783,0H4.444A2.022,2.022,0,0,0,2.4,4.486,1.98,1.98,0,0,0,4.444,6.48h13.41a2.02,2.02,0,1,0-.05-4.038ZM11.124,1a1.874,1.874,0,0,1,1.844,1.446H9.229A1.974,1.974,0,0,1,11.124,1ZM17.8,5.483H4.444a1.047,1.047,0,1,1,0-2.094h13.41A1.053,1.053,0,0,1,18.9,4.437,1.1,1.1,0,0,1,17.8,5.483Z" transform="translate(-2.4)" fill="#6e6d6d"/>
    </g>
    <g id="Group_52" data-name="Group 52" transform="translate(7.136 8.175)">
      <path id="Path_313" data-name="Path 313" d="M12.4,25.722a.471.471,0,0,1-.5-.5V16.9a.5.5,0,1,1,1,0v8.325A.536.536,0,0,1,12.4,25.722Z" transform="translate(-11.9 -16.4)" fill="#6e6d6d"/>
    </g>
    <g id="Group_53" data-name="Group 53" transform="translate(14.115 8.175)">
      <path id="Path_314" data-name="Path 314" d="M26.4,25.722a.471.471,0,0,1-.5-.5V16.9a.5.5,0,1,1,1,0v8.325A.536.536,0,0,1,26.4,25.722Z" transform="translate(-25.9 -16.4)" fill="#6e6d6d"/>
    </g>
    <g id="Group_54" data-name="Group 54" transform="translate(10.625 8.175)">
      <path id="Path_315" data-name="Path 315" d="M19.4,25.722a.471.471,0,0,1-.5-.5V16.9a.5.5,0,1,1,1,0v8.325A.536.536,0,0,1,19.4,25.722Z" transform="translate(-18.9 -16.4)" fill="#6e6d6d"/>
    </g>
  </g>
</svg>
