<svg width="21" height="24" viewBox="0 0 21 24" fill="none" xmlns="http://www.w3.org/2000/svg">
<path d="M15.4328 23.362H6.17379C5.27997 23.3604 4.42321 23.0047 3.79118 22.3726C3.15915 21.7406 2.80338 20.8839 2.80179 19.99V9.64503C2.79712 9.5687 2.80871 9.49224 2.8358 9.42072C2.86289 9.34921 2.90487 9.28426 2.95894 9.23018C3.01302 9.17611 3.07797 9.13413 3.14948 9.10704C3.221 9.07995 3.29746 9.06836 3.37379 9.07303C3.45012 9.06836 3.52658 9.07995 3.5981 9.10704C3.66961 9.13413 3.73456 9.17611 3.78864 9.23018C3.84272 9.28426 3.88469 9.34921 3.91178 9.42072C3.93887 9.49224 3.95047 9.5687 3.94579 9.64503V19.99C3.94658 20.581 4.18168 21.1474 4.59953 21.5653C5.01737 21.9831 5.58387 22.2182 6.17479 22.219H15.4338C16.0247 22.2182 16.5912 21.9831 17.0091 21.5653C17.4269 21.1474 17.662 20.581 17.6628 19.99V9.64503C17.669 9.4976 17.7319 9.35825 17.8384 9.25611C17.9449 9.15397 18.0867 9.09694 18.2343 9.09694C18.3819 9.09694 18.5237 9.15397 18.6302 9.25611C18.7367 9.35825 18.7996 9.4976 18.8058 9.64503V19.99C18.7944 20.881 18.4353 21.7322 17.8052 22.3621C17.1751 22.9921 16.3237 23.3509 15.4328 23.362Z" fill="#8B8B8B"/>
<path d="M18.4619 3.3001H14.1179C13.9855 2.51667 13.58 1.80545 12.9731 1.29257C12.3663 0.779685 11.5975 0.498291 10.8029 0.498291C10.0084 0.498291 9.23954 0.779685 8.63271 1.29257C8.02589 1.80545 7.62032 2.51667 7.48793 3.3001H3.14393C2.83523 3.29675 2.52897 3.3551 2.24312 3.47172C1.95728 3.58834 1.69761 3.76089 1.47936 3.97924C1.26111 4.19758 1.08867 4.45732 0.972168 4.74322C0.855666 5.02911 0.797448 5.3354 0.800929 5.6441C0.798616 5.94978 0.85807 6.25279 0.975724 6.53494C1.09338 6.81709 1.26681 7.07256 1.48562 7.28605C1.70442 7.49953 1.96409 7.66662 2.24905 7.77729C2.53401 7.88796 2.83839 7.93993 3.14393 7.9301H18.5189C18.8282 7.93454 19.1353 7.87698 19.422 7.7608C19.7087 7.64463 19.9692 7.4722 20.1882 7.25368C20.4072 7.03517 20.5801 6.77501 20.6969 6.48855C20.8137 6.20209 20.8719 5.89514 20.868 5.58582C20.8642 5.27651 20.7985 4.97108 20.6747 4.68759C20.5509 4.40409 20.3716 4.14826 20.1473 3.93521C19.9231 3.72215 19.6584 3.55619 19.3689 3.4471C19.0794 3.33802 18.771 3.28804 18.4619 3.3001ZM10.8009 1.6431C11.2897 1.63722 11.7658 1.7982 12.1507 2.09946C12.5356 2.40073 12.8062 2.82425 12.9179 3.3001H8.63093C8.76289 2.8253 9.04622 2.40655 9.43789 2.10748C9.82955 1.8084 10.3081 1.64535 10.8009 1.6431ZM18.4599 6.7871H3.14393C2.82567 6.7871 2.52044 6.66067 2.2954 6.43562C2.07036 6.21058 1.94393 5.90535 1.94393 5.5871C1.94393 5.26884 2.07036 4.96361 2.2954 4.73857C2.52044 4.51352 2.82567 4.3871 3.14393 4.3871H18.5189C18.8366 4.38893 19.1408 4.51595 19.3654 4.7406C19.5901 4.96524 19.7171 5.2694 19.7189 5.5871C19.7043 5.91049 19.5654 6.21576 19.3312 6.4393C19.097 6.66285 18.7857 6.78743 18.4619 6.7871H18.4599Z" fill="#8B8B8B"/>
<path d="M6.80348 20.561C6.72715 20.5657 6.65069 20.5541 6.57917 20.527C6.50766 20.4999 6.44271 20.458 6.38863 20.4039C6.33455 20.3498 6.29258 20.2849 6.26549 20.2133C6.2384 20.1418 6.2268 20.0654 6.23148 19.989V10.445C6.22825 10.368 6.24065 10.2911 6.26792 10.2189C6.29518 10.1468 6.33676 10.0809 6.39015 10.0252C6.44353 9.96953 6.50763 9.92524 6.57857 9.89498C6.64952 9.86472 6.72585 9.84912 6.80298 9.84912C6.88011 9.84912 6.95644 9.86472 7.02739 9.89498C7.09833 9.92524 7.16243 9.96953 7.21581 10.0252C7.2692 10.0809 7.31078 10.1468 7.33804 10.2189C7.36531 10.2911 7.3777 10.368 7.37448 10.445V19.99C7.36422 20.1381 7.30076 20.2774 7.19582 20.3824C7.09088 20.4873 6.95153 20.5508 6.80348 20.561Z" fill="#8B8B8B"/>
<path d="M14.8035 20.561C14.7271 20.5657 14.6507 20.5541 14.5792 20.527C14.5077 20.4999 14.4427 20.458 14.3886 20.4039C14.3346 20.3498 14.2926 20.2849 14.2655 20.2133C14.2384 20.1418 14.2268 20.0654 14.2315 19.989V10.445C14.2283 10.368 14.2406 10.2911 14.2679 10.2189C14.2952 10.1468 14.3368 10.0809 14.3901 10.0252C14.4435 9.96953 14.5076 9.92524 14.5786 9.89498C14.6495 9.86472 14.7259 9.84912 14.803 9.84912C14.8801 9.84912 14.9564 9.86472 15.0274 9.89498C15.0983 9.92524 15.1624 9.96953 15.2158 10.0252C15.2692 10.0809 15.3108 10.1468 15.338 10.2189C15.3653 10.2911 15.3777 10.368 15.3745 10.445V19.99C15.3642 20.1381 15.3008 20.2774 15.1958 20.3824C15.0909 20.4873 14.9515 20.5508 14.8035 20.561Z" fill="#8B8B8B"/>
<path d="M10.8035 20.561C10.7271 20.5657 10.6507 20.5541 10.5792 20.527C10.5077 20.4999 10.4427 20.458 10.3886 20.4039C10.3346 20.3498 10.2926 20.2849 10.2655 20.2133C10.2384 20.1418 10.2268 20.0654 10.2315 19.989V10.445C10.2283 10.368 10.2406 10.2911 10.2679 10.2189C10.2952 10.1468 10.3368 10.0809 10.3901 10.0252C10.4435 9.96953 10.5076 9.92524 10.5786 9.89498C10.6495 9.86472 10.7259 9.84912 10.803 9.84912C10.8801 9.84912 10.9564 9.86472 11.0274 9.89498C11.0983 9.92524 11.1624 9.96953 11.2158 10.0252C11.2692 10.0809 11.3108 10.1468 11.338 10.2189C11.3653 10.2911 11.3777 10.368 11.3745 10.445V19.99C11.3642 20.1381 11.3008 20.2774 11.1958 20.3824C11.0909 20.4873 10.9515 20.5508 10.8035 20.561Z" fill="#8B8B8B"/>
</svg>
