<svg width="73" height="72" viewBox="0 0 73 72" fill="none" xmlns="http://www.w3.org/2000/svg">
<path d="M36.5391 0.667969C16.9381 0.667969 0.990234 16.6158 0.990234 36.2168C0.990234 55.8178 16.9381 71.7657 36.5391 71.7657C56.1401 71.7657 72.0879 55.8178 72.0879 36.2168C72.0879 16.6158 56.1401 0.667969 36.5391 0.667969ZM36.5391 6.13702C53.1812 6.13702 66.6189 19.5747 66.6189 36.2168C66.6189 52.859 53.1812 66.2966 36.5391 66.2966C19.8969 66.2966 6.45929 52.859 6.45929 36.2168C6.45929 19.5747 19.8969 6.13702 36.5391 6.13702ZM26.1992 21.946L22.2683 25.8769L32.6082 36.2168L22.2683 46.5568L26.1992 50.4876L36.5391 40.1477L46.879 50.4876L50.8099 46.5568L40.47 36.2168L50.8099 25.8769L46.879 21.946L36.5391 32.2859L26.1992 21.946Z" fill="#57B894"/>
</svg>
