<svg width="35" height="26" viewBox="0 0 35 26" fill="none" xmlns="http://www.w3.org/2000/svg">
<path d="M32.6469 0.000852149C32.1281 0.016025 31.6356 0.228843 31.2739 0.594221L10.7176 20.7687L4.1412 14.3144C3.95718 14.1263 3.73676 13.9761 3.49285 13.8727C3.24895 13.7692 2.98646 13.7146 2.72076 13.7119C2.45506 13.7093 2.1915 13.7587 1.9455 13.8572C1.6995 13.9558 1.47601 14.1015 1.28813 14.2859C1.10024 14.4703 0.951731 14.6897 0.851298 14.9311C0.750864 15.1725 0.700525 15.4312 0.703228 15.692C0.705932 15.9527 0.761622 16.2103 0.86704 16.4497C0.972458 16.6891 1.12548 16.9054 1.31715 17.086L9.30562 24.9262C9.68017 25.2936 10.1881 25.5 10.7176 25.5C11.2472 25.5 11.7551 25.2936 12.1297 24.9262L34.098 3.36582C34.3866 3.09051 34.5837 2.73606 34.6635 2.34892C34.7433 1.96177 34.702 1.56 34.5452 1.19624C34.3883 0.83249 34.1232 0.523727 33.7844 0.310419C33.4457 0.097111 33.0492 -0.0107911 32.6469 0.000852149Z" fill="white"/>
</svg>
