<svg width="16" height="15" viewBox="0 0 16 15" fill="none" xmlns="http://www.w3.org/2000/svg">
<path d="M9.07805 7.64173C9.07542 7.8138 9.00425 7.97811 8.88038 8.09972L2.13298 14.7237C1.9643 14.8971 1.71259 14.967 1.47538 14.9062C1.23948 14.8454 1.05498 14.6642 0.993044 14.4326C0.931105 14.1998 1.00227 13.9527 1.17886 13.7871L7.44919 7.63138L1.17886 1.4757C1.00227 1.3101 0.931105 1.06299 0.993045 0.830118C1.05498 0.598536 1.23948 0.417411 1.47538 0.356604C1.71259 0.295797 1.9643 0.36566 2.13298 0.539023L8.88038 7.16304C9.00953 7.28983 9.08069 7.4619 9.07805 7.64173Z" fill="#CACACA"/>
<path d="M15.5644 7.64173C15.5617 7.8138 15.4906 7.97811 15.3667 8.09972L8.61931 14.7237C8.45063 14.8971 8.19892 14.967 7.96171 14.9062C7.72581 14.8454 7.54131 14.6642 7.47937 14.4326C7.41743 14.1998 7.4886 13.9527 7.66519 13.7871L13.9355 7.63138L7.66519 1.4757C7.4886 1.3101 7.41743 1.06299 7.47937 0.830118C7.54131 0.598536 7.72581 0.417411 7.96171 0.356604C8.19892 0.295797 8.45063 0.36566 8.61931 0.539023L15.3667 7.16304C15.4959 7.28983 15.567 7.4619 15.5644 7.64173Z" fill="#CACACA"/>
</svg>
