<svg width="19" height="19" viewBox="0 0 19 19" fill="none" xmlns="http://www.w3.org/2000/svg">
<path d="M8.70383 0.289062C8.21175 0.289062 7.81237 0.688438 7.81237 1.18053V8.31223H4.69225C4.57403 8.31223 4.46066 8.35919 4.37707 8.44278C4.29348 8.52637 4.24652 8.63975 4.24652 8.75796C4.24654 8.87617 4.29351 8.98953 4.3771 9.07311C4.38601 9.08221 4.39531 9.09092 4.40496 9.09922L8.9563 13.3911L8.9859 13.419C9.15091 13.5742 9.36879 13.6607 9.5953 13.661C9.8218 13.6607 10.0397 13.5742 10.2047 13.419L10.2169 13.4085C10.2198 13.4051 10.2227 13.4016 10.2256 13.3981L14.7752 9.10793C14.7842 9.10016 14.7929 9.09203 14.8013 9.08355L14.8083 9.07833C14.81 9.0766 14.8118 9.07486 14.8135 9.07311C14.8971 8.98953 14.9441 8.87617 14.9441 8.75796C14.9441 8.63975 14.8971 8.52637 14.8135 8.44278C14.7299 8.35919 14.6166 8.31223 14.4983 8.31223H11.3782V1.18053C11.3782 0.688438 10.9788 0.289062 10.4868 0.289062H9.5953H8.70383ZM1.57213 16.3354C1.454 16.3337 1.33672 16.3556 1.22709 16.3996C1.11747 16.4437 1.0177 16.5091 0.933572 16.592C0.849445 16.6749 0.782642 16.7738 0.737045 16.8828C0.691449 16.9918 0.667969 17.1087 0.667969 17.2269C0.667969 17.345 0.691449 17.462 0.737045 17.571C0.782642 17.6799 0.849445 17.7788 0.933572 17.8617C1.0177 17.9447 1.11747 18.0101 1.22709 18.0541C1.33672 18.0982 1.454 18.12 1.57213 18.1183H17.6185C17.7366 18.12 17.8539 18.0982 17.9635 18.0541C18.0731 18.0101 18.1729 17.9447 18.257 17.8617C18.3411 17.7788 18.408 17.6799 18.4535 17.571C18.4991 17.462 18.5226 17.345 18.5226 17.2269C18.5226 17.1087 18.4991 16.9918 18.4535 16.8828C18.408 16.7738 18.3411 16.6749 18.257 16.592C18.1729 16.5091 18.0731 16.4437 17.9635 16.3996C17.8539 16.3556 17.7366 16.3337 17.6185 16.3354H1.57213Z" fill="#9EA3AE"/>
</svg>
