<svg width="21" height="18" viewBox="0 0 21 18" fill="none" xmlns="http://www.w3.org/2000/svg">
<rect x="0.32115" y="0.32115" width="20.1387" height="17.1518" rx="2.89035" stroke="#AFAFAF" stroke-width="0.6423"/>
<path d="M13.9943 6.86294L13.9943 6.86299C13.9922 6.86621 13.9902 6.86933 13.9849 6.87645L13.9847 6.87665L13.9812 6.88141L13.9811 6.88157C13.9484 6.92455 13.8083 7.10176 13.105 7.9829C13.0976 7.99551 13.0896 8.00712 13.0812 8.01805L13.9943 6.86294ZM13.9943 6.86294C14.1996 6.5375 14.2637 6.15216 14.1756 5.77892C14.0874 5.40354 13.8549 5.08515 13.555 4.90553L13.5485 4.90047L13.5232 4.88083L13.4328 4.8106L13.1569 4.59622L12.7393 4.27161C12.7392 4.27153 12.7391 4.27145 12.739 4.27138C12.1195 3.77459 11.2018 3.86357 10.6933 4.47035C10.6919 4.47182 10.6908 4.47319 10.69 4.47421L10.6899 4.47414L10.6864 4.47849L6.2101 10.0772L13.9943 6.86294ZM13.3249 6.40338C13.3256 6.40257 13.3261 6.40187 13.3266 6.40128L13.3661 6.43187C13.444 6.30547 13.4745 6.1268 13.4336 5.95478C13.3918 5.77848 13.282 5.62879 13.1238 5.53328C13.09 5.51 12.2893 4.88844 12.2646 4.86896C11.9633 4.62756 11.5238 4.66938 11.2795 4.9583M13.3249 6.40338C13.3945 6.28906 13.4227 6.12522 13.3849 5.96633L13.3849 5.96632C13.3463 5.80331 13.2449 5.66479 13.0979 5.57609L13.0953 5.57451L13.0954 5.57443C13.0599 5.54999 12.2575 4.92705 12.2337 4.90822L12.2333 4.90798C11.953 4.68338 11.5447 4.72266 11.3181 4.99008M13.3249 6.40338C13.294 6.443 13.0531 6.74509 12.6879 7.20262L10.7425 5.70923M13.3249 6.40338L10.7113 5.74828L10.7425 5.70923M11.3181 4.99008L11.3186 4.98954L11.2795 4.9583M11.3181 4.99008C11.318 4.99024 11.3179 4.99041 11.3177 4.99058L11.2795 4.9583M11.3181 4.99008L10.7425 5.70923M11.2795 4.9583L10.7029 5.67878L10.7425 5.70923M10.2348 6.34427L12.1804 7.83814L10.7348 9.64745L10.5365 9.89567L10.3385 10.1435L8.80141 12.0667C8.80139 12.0668 8.80138 12.0668 8.80137 12.0668C8.7268 12.1594 8.61414 12.2141 8.49153 12.2154L8.49142 12.2154L7.08739 12.2329L6.77299 10.901L6.77297 10.9009C6.74664 10.7902 6.77286 10.6748 6.84464 10.5849C6.84464 10.5849 6.84464 10.5849 6.84465 10.5849L10.2348 6.34427ZM15.3165 12.6436C15.3165 12.4192 15.1345 12.2372 14.9101 12.2372H11.4635C11.2392 12.2372 11.0571 12.4192 11.0571 12.6436C11.0571 12.8679 11.2392 13.05 11.4635 13.05H14.9101C15.1345 13.05 15.3165 12.8679 15.3165 12.6436Z" fill="#AFAFAF" stroke="#AFAFAF" stroke-width="0.1"/>
</svg>
