<svg width="49" height="49" viewBox="0 0 49 49" fill="none" xmlns="http://www.w3.org/2000/svg">
<path d="M24.5122 48.4568C37.7414 48.4568 48.4658 37.7405 48.4658 24.5214C48.4658 11.3022 37.7414 0.585938 24.5122 0.585938C11.283 0.585938 0.558594 11.3022 0.558594 24.5214C0.558594 37.7405 11.283 48.4568 24.5122 48.4568Z" fill="#57B894"/>
<path d="M24.5106 47.6599C37.2988 47.6599 47.6657 37.3009 47.6657 24.5223C47.6657 11.7438 37.2988 1.38477 24.5106 1.38477C11.7224 1.38477 1.35547 11.7438 1.35547 24.5223C1.35547 37.3009 11.7224 47.6599 24.5106 47.6599Z" stroke="white" stroke-width="2.52143" stroke-miterlimit="10"/>
<path d="M33.0401 34.094H24.5015C24.2192 34.094 23.9485 33.982 23.7489 33.7825C23.5493 33.5831 23.4371 33.3126 23.4371 33.0305C23.4371 32.7484 23.5493 32.4779 23.7489 32.2785C23.9485 32.079 24.2192 31.967 24.5015 31.967H33.0401C33.3224 31.967 33.5931 32.079 33.7927 32.2785C33.9923 32.4779 34.1045 32.7484 34.1045 33.0305C34.1045 33.3126 33.9923 33.5831 33.7927 33.7825C33.5931 33.982 33.3224 34.094 33.0401 34.094ZM14.9232 34.094C14.7678 34.0934 14.6145 34.0586 14.474 33.9922C14.3336 33.9258 14.2094 33.8294 14.1104 33.7097C14.0114 33.5901 13.9399 33.4501 13.901 33.2998C13.8621 33.1495 13.8567 32.9924 13.8852 32.8398L14.8242 27.7846C14.8629 27.5746 14.9649 27.3815 15.1165 27.2309L27.8885 14.475C28.0771 14.286 28.3011 14.1361 28.5477 14.0338C28.7943 13.9316 29.0587 13.8789 29.3257 13.8789C29.5927 13.8789 29.8571 13.9316 30.1038 14.0338C30.3504 14.1361 30.5744 14.286 30.7629 14.475L33.5048 17.2148C33.8855 17.5959 34.0993 18.1124 34.0993 18.6509C34.0993 19.1894 33.8855 19.7059 33.5048 20.087L20.7328 32.8366C20.5821 32.9881 20.3888 33.0899 20.1786 33.1286L15.1181 34.0749C15.0538 34.0866 14.9886 34.0925 14.9232 34.0924V34.094ZM26.6413 18.7163L16.8523 28.4947L16.2503 31.7101L19.468 31.1149L29.2539 21.3301L26.6413 18.7163ZM29.3241 16.0339L28.1376 17.2196L30.7518 19.8333L31.9383 18.6477L29.3241 16.0339Z" fill="white"/>
</svg>
