<svg xmlns="http://www.w3.org/2000/svg" width="22.297" height="19.32" viewBox="0 0 22.297 19.32">
  <g id="Layer_42" data-name="Layer 42" transform="translate(-0.994 -3)">
    <path id="Path_316" data-name="Path 316" d="M1.742,22.32A.743.743,0,0,1,1,21.5l.572-5.2a.743.743,0,0,1,.215-.438L13.943,3.7a2.378,2.378,0,0,1,3.366,0L19.62,6.01a2.378,2.378,0,0,1,0,3.366L7.471,21.525a.743.743,0,0,1-.438.215l-5.2.572ZM6.943,21ZM3.027,16.71l-.446,4.028,4.028-.446L18.572,8.328a.892.892,0,0,0,0-1.263L16.254,4.746a.892.892,0,0,0-1.263,0Z" fill="#8b8b8b"/>
    <path id="Path_317" data-name="Path 317" d="M21.147,12.095a.743.743,0,0,1-.528-.215L16,7.25A.746.746,0,1,1,17.06,6.194l4.629,4.629a.743.743,0,0,1-.542,1.271Z" transform="translate(-3.8 -0.764)" fill="#8b8b8b"/>
    <rect id="Rectangle_400" data-name="Rectangle 400" width="8.181" height="1.486" transform="translate(6.423 15.847) rotate(-45)" fill="#8b8b8b"/>
    <path id="Path_318" data-name="Path 318" d="M25.632,28.486H13.743a.743.743,0,1,1,0-1.486H25.632a.743.743,0,0,1,0,1.486Z" transform="translate(-3.085 -6.166)" fill="#8b8b8b"/>
  </g>
</svg>
