<svg width="21" height="19" viewBox="0 0 21 19" fill="none" xmlns="http://www.w3.org/2000/svg">
<rect x="0.32115" y="1.06529" width="20.1387" height="17.1518" rx="2.89035" stroke="#AFAFAF" stroke-width="0.6423"/>
<path d="M13.9943 7.60708L13.9943 7.60713C13.9922 7.61035 13.9902 7.61347 13.9849 7.62059L13.9847 7.62079L13.9812 7.62555L13.9811 7.62571C13.9484 7.66869 13.8083 7.8459 13.105 8.72704L13.9943 7.60708ZM13.9943 7.60708C14.1996 7.28164 14.2637 6.8963 14.1756 6.52306C14.0874 6.14768 13.8549 5.82929 13.555 5.64967L13.5485 5.64461L13.5232 5.62497L13.4328 5.55474L13.1569 5.34036L12.7393 5.01575C12.7392 5.01567 12.7391 5.01559 12.739 5.01552C12.1195 4.51873 11.2018 4.60771 10.6933 5.21449C10.6919 5.21596 10.6908 5.21733 10.69 5.21835L10.6899 5.21828L10.6864 5.22263L6.2101 10.8213L13.9943 7.60708ZM13.3249 7.14752C13.3256 7.14671 13.3261 7.14601 13.3266 7.14543L13.3661 7.17601C13.444 7.04961 13.4745 6.87094 13.4336 6.69892C13.3918 6.52262 13.282 6.37294 13.1238 6.27742C13.09 6.25414 12.2893 5.63258 12.2646 5.6131C11.9633 5.3717 11.5238 5.41352 11.2795 5.70244M13.3249 7.14752C13.3945 7.0332 13.4227 6.86936 13.3849 6.71047L13.3849 6.71046C13.3463 6.54745 13.2449 6.40893 13.0979 6.32023L13.0953 6.31865L13.0954 6.31857C13.0599 6.29413 12.2575 5.67119 12.2337 5.65236L12.2333 5.65212C11.953 5.42752 11.5447 5.4668 11.3181 5.73422M13.3249 7.14752C13.294 7.18714 13.0531 7.48923 12.6879 7.94676L10.7425 6.45337M13.3249 7.14752L10.7113 6.49242L10.7425 6.45337M11.3181 5.73422L11.3186 5.73368L11.2795 5.70244M11.3181 5.73422C11.318 5.73439 11.3179 5.73455 11.3177 5.73472L11.2795 5.70244M11.3181 5.73422L10.7425 6.45337M11.2795 5.70244L10.7029 6.42292L10.7425 6.45337M10.2348 7.08841L12.1804 8.58228L10.7348 10.3916L10.5365 10.6398L10.3385 10.8876L8.80141 12.8109C8.80139 12.8109 8.80138 12.8109 8.80137 12.8109C8.7268 12.9036 8.61414 12.9582 8.49153 12.9595L8.49142 12.9595L7.08739 12.9771L6.77299 11.6451L6.77297 11.645C6.74664 11.5343 6.77286 11.4189 6.84465 11.3291L10.2348 7.08841ZM15.3165 13.3877C15.3165 13.1634 15.1345 12.9813 14.9101 12.9813H11.4635C11.2392 12.9813 11.0571 13.1634 11.0571 13.3877C11.0571 13.612 11.2392 13.7941 11.4635 13.7941H14.9101C15.1345 13.7941 15.3165 13.612 15.3165 13.3877Z" fill="#AFAFAF" stroke="#AFAFAF" stroke-width="0.1"/>
</svg>
