<svg width="17" height="17" viewBox="0 0 17 17" fill="none" xmlns="http://www.w3.org/2000/svg">
<path d="M12.4173 8.03622L12.2367 8.26231L10.8983 9.93797L10.6293 10.2747C9.61744 11.5412 8.3215 13.1628 6.66136 15.2397C6.29784 15.6927 5.75295 15.9564 5.16767 15.9636L12.4173 8.03622ZM12.4173 8.03622L12.4563 8.06742C12.5446 7.95687 12.6286 7.8516 12.7083 7.75137L5.1683 16.0136C5.76835 16.0063 6.32738 15.7358 6.70036 15.271L6.70042 15.2709C8.36055 13.194 9.6565 11.5724 10.6684 10.3059L10.9374 9.96918L12.2758 8.29351L12.4563 8.06742L12.4173 8.03622ZM2.28625 16.05L5.16828 16.0136L12.7754 7.67657C12.7754 7.67655 12.7754 7.67652 12.7755 7.67649C12.7893 7.65854 12.8023 7.63966 12.8141 7.6193C13.9878 6.14877 14.2211 5.8537 14.2752 5.78246L14.2753 5.7823L14.2813 5.77438L14.2814 5.77418C14.2898 5.76294 14.2927 5.75845 14.2956 5.75384L14.2957 5.75378C14.6331 5.21894 14.7383 4.58587 14.5935 3.9725C14.4483 3.35445 14.0653 2.83108 13.5728 2.53678L13.5714 2.53572L13.5603 2.5271L13.5182 2.49437L13.3676 2.37732L12.9078 2.02002L12.2112 1.47868C12.2111 1.4786 12.211 1.47852 12.2109 1.47844C11.1924 0.661421 9.683 0.808009 8.84717 1.80589C8.84422 1.80907 8.84193 1.81203 8.84089 1.81336L8.84065 1.81368C8.84053 1.81383 8.84043 1.81397 8.84033 1.81409L8.84019 1.81395L8.83671 1.8183L1.37618 11.1495C1.00149 11.6177 0.864867 12.2211 1.00223 12.8055L1.00224 12.8055L1.65088 15.5545L1.65091 15.5546C1.72044 15.8456 1.97971 16.05 2.2777 16.05L2.28562 16.05L2.28625 16.05ZM11.3478 7.39116C10.6312 8.28837 9.77948 9.35445 8.91746 10.4332L8.58687 10.8469L8.25685 11.2599L5.69498 14.4655C5.56434 14.6278 5.36708 14.7234 5.15289 14.7256L5.15279 14.7256L2.78601 14.7552L2.25587 12.5093L2.25585 12.5092C2.20957 12.3145 2.25575 12.1117 2.3817 11.9541L8.05239 4.86077L11.3478 7.39116ZM13.3407 4.2695L13.3407 4.26952C13.4057 4.54309 13.3572 4.82605 13.2357 5.02462C13.1883 5.08543 12.7767 5.60163 12.1521 6.38405L8.85697 3.85445L9.83785 2.62892C10.2272 2.16891 10.9286 2.10176 11.4097 2.48729L11.4101 2.48753C11.4504 2.51935 12.7866 3.55665 12.8445 3.59662L12.8445 3.5967L12.8471 3.59827C13.0995 3.75065 13.2741 3.98896 13.3407 4.2695ZM16.4942 15.4059C16.4942 15.0504 16.2057 14.7619 15.8502 14.7619H10.1059C9.75038 14.7619 9.46189 15.0504 9.46189 15.4059C9.46189 15.7614 9.75038 16.0499 10.1059 16.0499H15.8502C16.2057 16.0499 16.4942 15.7614 16.4942 15.4059Z" fill="#AFAFAF" stroke="#AFAFAF" stroke-width="0.1"/>
</svg>
