<svg width="24" height="25" viewBox="0 0 24 25" fill="none" xmlns="http://www.w3.org/2000/svg">
<path d="M1.1786 1.02224L1.16453 1.02372L1.15074 1.02686C0.82552 1.1009 0.594078 1.39165 0.598424 1.72661L0.598418 23.4341L0.598429 23.4357C0.601092 23.8218 0.914668 24.1354 1.30077 24.138H1.3024L14.8706 24.1381L14.8723 24.138C15.2584 24.1354 15.5719 23.8218 15.5746 23.4357V23.4341V18.9113V18.6737H15.337H14.4042H14.1666V18.9113V22.7301H2.00639V2.4289H14.1666V6.24766V6.48523H14.4042H15.337H15.5746V6.24766L15.5746 1.72492L15.5746 1.72328C15.5719 1.33718 15.2584 1.0236 14.8723 1.02094V1.02094H14.8706H1.31367C1.26836 1.01701 1.22416 1.01745 1.1786 1.02224ZM18.4464 7.86158H18.4255L18.405 7.86522C18.1454 7.91119 17.9376 8.1006 17.8649 8.35092L17.8647 8.35157C17.7928 8.60198 17.8665 8.86941 18.0548 9.04702L20.8851 11.8896H8.08651H8.08643H8.08635H8.08626H8.08618H8.0861H8.08602H8.08593H8.08585H8.08577H8.08568H8.0856H8.08552H8.08544H8.08535H8.08527H8.08519H8.0851H8.08502H8.08494H8.08486H8.08477H8.08469H8.08461H8.08452H8.08444H8.08436H8.08428H8.08419H8.08411H8.08403H8.08394H8.08386H8.08378H8.0837H8.08361H8.08353H8.08345H8.08336H8.08328H8.0832H8.08312H8.08303H8.08295H8.08287H8.08279H8.0827H8.08262H8.08254H8.08245H8.08237H8.08229H8.08221H8.08212H8.08204H8.08196H8.08187H8.08179H8.08171H8.08163H8.08154H8.08146H8.08138H8.0813H8.08121H8.08113H8.08105H8.08096H8.08088H8.0808H8.08072H8.08063H8.08055H8.08047H8.08038H8.0803H8.08022H8.08014H8.08005H8.07997H8.07989H8.0798H8.07972H8.07964H8.07956H8.07947H8.07939H8.07931H8.07922H8.07914H8.07906H8.07898H8.07889H8.07881H8.07873H8.07864H8.07856H8.07848H8.0784H8.07831H8.07823H8.07815H8.07806H8.07798H8.0779H8.07782H8.07773H8.07765H8.07757H8.07749H8.0774H8.07732H8.07724H8.07715H8.07707H8.07699H8.07691H8.07682H8.07674H8.07666H8.07657H8.07649H8.07641H8.07633H8.07624H8.07616H8.07608H8.07599H8.07591H8.07583H8.07575H8.07566H8.07558H8.0755H8.07542H8.07533H8.07525H8.07517H8.07508H8.075H8.07492H8.07484H8.07475H8.07467H8.07459H8.0745H8.07442H8.07434H8.07426H8.07417H8.07409H8.07401H8.07392H8.07384H8.07376H8.07368H8.07359H8.07351H8.07343H8.07334H8.07326H8.07318H8.0731H8.07301H8.07293H8.07285H8.07276H8.07268H8.0726H8.07252H8.07243H8.07235H8.07227H8.07219H8.0721H8.07202H8.07194H8.07185H8.07177H8.07169H8.07161H8.07152H8.07144H8.07136H8.07127H8.07119H8.07111H8.07103H8.07094H8.07086H8.07078H8.07069H8.07061H8.07053H8.07045H8.07036H8.07028H8.0702H8.07012H8.07003H8.06995H8.06987H8.06978H8.0697H8.06962H8.06954H8.06945H8.06937H8.06929H8.0692H8.06912H8.06904H8.06896H8.06887H8.06879H8.06871H8.06862H8.06854H8.06846H8.06838H8.06829H8.06821H8.06813H8.06804H8.06796H8.06788H8.0678H8.06771H8.06763H8.06755H8.06746H8.06738H8.0673H8.06722H8.06713H8.06705H8.06697H8.06689H8.0668H8.06672H8.06664H8.06655H8.06647H8.06639H8.06631H8.06622H8.06614H8.06606H8.06597H8.06589H8.06581H8.06573H8.06564H8.06556H8.06548H8.06539H8.06531H8.06523H8.06515H8.06506H8.06498H8.0649H8.06482H8.06473H8.06465H8.06457H8.06448H8.0644H8.06432H8.06424H8.06415H8.06407H8.06399H8.0639H8.06382H8.06374H8.06366H8.06357H8.06349H8.06341H8.06332H8.06324H8.06316H8.06308H8.06299H8.06291H8.06283H8.06274H8.06266H8.06258H8.0625H8.06241H8.06233H8.06225H8.06216H8.06208H8.062H8.06192H8.06183H8.06175H8.06167H8.06159H8.0615H8.06142H8.06134H8.06125H8.06117H8.06109H8.06101H8.06092H8.06084H8.06076H8.06067H8.06059H8.06051H8.06043H8.06034H8.06026H8.06018H8.06009H8.06001H8.05993H8.05985H8.05976H8.05968H8.0596H8.05951H8.05943H8.05935H8.05927H8.05918H8.0591H8.05902H8.05894H8.05885H8.05877H8.05869H8.0586H8.05852H8.05844H8.05836H8.05827H8.05819H8.05811H8.05802H8.05794H8.05786H8.05778H8.05769H8.05761H8.05753H8.05744H8.05736H8.05728H8.0572H8.05711H8.05703H8.05695H8.05686H8.05678H8.0567H8.05662H8.05653H8.05645H8.05637H8.05628H8.0562H8.05612H8.05604H8.05595H8.05587H8.05579H8.05571H8.05562H8.05554H8.05546H8.05537H8.05529H8.05521H8.05513H8.05504H8.05496H8.05488H8.05479H8.05471H8.05463H8.05455H8.05446H8.05438H8.0543H8.05421H8.05413H8.05405H8.05397H8.05388H8.0538H8.05372H8.05364H8.05355H8.05347H8.05339H8.0533H8.05322H8.05314H8.05306H8.05297H8.05289H8.05281H8.05272H8.05264H8.05256H8.05248H8.05239H8.05231H8.05223H8.05214H8.05206H8.05198H8.0519H8.05181H8.05173H8.05165H8.05156H8.05148H8.0514H8.05132H8.05123H8.05115H8.05107H8.05098H8.0509H8.05082H8.05074H8.05065H8.05057H8.05049H8.05041H8.05032H8.05024H8.05016H8.05007H8.04999H8.04991H8.04983H8.04974H8.04966H8.04958H8.04949H8.04941H8.04933H8.04925H8.04916H8.04908H8.049H8.04891H8.04883H8.04875H8.04867H8.04858H8.0485H8.04842H8.04834H8.04825H8.04817H8.04809H8.048H8.04792H8.04784H8.04776H8.04767H8.04759H8.04751H8.04742H8.04734H8.04726H8.04718H8.04709H8.04701H8.04693H8.04684H8.04676H8.04668H8.0466H8.04651H8.04643H8.04635H8.04626H8.04618H8.0461H8.04602H8.04593H8.04585H8.04577H8.04568H8.0456H8.04552H8.04544H8.04535H8.04527H8.04519H8.0451H8.04502H8.04494H8.04486H8.04477H8.04469H8.04461H8.04453H8.04444H8.04436H8.04428H8.04419H8.04411V11.8893L8.03233 11.8899C7.65389 11.9087 7.3568 12.2306 7.37576 12.6125C7.39444 12.9888 7.7128 13.2846 8.09181 13.2693H20.8851L18.0597 16.1071C17.8639 16.2732 17.7731 16.5347 17.8315 16.7896L17.8316 16.7901C17.8909 17.0463 18.0924 17.2478 18.3486 17.3072L18.3492 17.3073C18.6041 17.3657 18.8656 17.2749 19.0317 17.079L23.052 13.0728L23.0521 13.0729L23.056 13.0688L23.367 12.7437L23.524 12.5795L23.367 12.4153L23.056 12.0902L23.0561 12.0902L23.052 12.0861L19.0268 8.07506C18.8847 7.92445 18.6831 7.84892 18.4806 7.86158H18.4805H18.4804H18.4804H18.4803H18.4802H18.4801H18.48H18.4799H18.4799H18.4798H18.4797H18.4796H18.4795H18.4795H18.4794H18.4793H18.4792H18.4791H18.479H18.479H18.4789H18.4788H18.4787H18.4786H18.4785H18.4785H18.4784H18.4783H18.4782H18.4781H18.478H18.478H18.4779H18.4778H18.4777H18.4776H18.4775H18.4775H18.4774H18.4773H18.4772H18.4771H18.4771H18.477H18.4769H18.4768H18.4767H18.4766H18.4766H18.4765H18.4764H18.4763H18.4762H18.4761H18.4761H18.476H18.4759H18.4758H18.4757H18.4756H18.4756H18.4755H18.4754H18.4753H18.4752H18.4751H18.4751H18.475H18.4749H18.4748H18.4747H18.4747H18.4746H18.4745H18.4744H18.4743H18.4742H18.4742H18.4741H18.474H18.4739H18.4738H18.4737H18.4737H18.4736H18.4735H18.4734H18.4733H18.4732H18.4732H18.4731H18.473H18.4729H18.4728H18.4727H18.4727H18.4726H18.4725H18.4724H18.4723H18.4722H18.4722H18.4721H18.472H18.4719H18.4718H18.4718H18.4717H18.4716H18.4715H18.4714H18.4713H18.4713H18.4712H18.4711H18.471H18.4709H18.4708H18.4708H18.4707H18.4706H18.4705H18.4704H18.4703H18.4703H18.4702H18.4701H18.47H18.4699H18.4698H18.4698H18.4697H18.4696H18.4695H18.4694H18.4694H18.4693H18.4692H18.4691H18.469H18.4689H18.4689H18.4688H18.4687H18.4686H18.4685H18.4684H18.4684H18.4683H18.4682H18.4681H18.468H18.4679H18.4679H18.4678H18.4677H18.4676H18.4675H18.4674H18.4674H18.4673H18.4672H18.4671H18.467H18.4669H18.4669H18.4668H18.4667H18.4666H18.4665H18.4665H18.4664H18.4663H18.4662H18.4661H18.466H18.466H18.4659H18.4658H18.4657H18.4656H18.4655H18.4655H18.4654H18.4653H18.4652H18.4651H18.465H18.465H18.4649H18.4648H18.4647H18.4646H18.4645H18.4645H18.4644H18.4643H18.4642H18.4641H18.4641H18.464H18.4639H18.4638H18.4637H18.4636H18.4636H18.4635H18.4634H18.4633H18.4632H18.4631H18.4631H18.463H18.4629H18.4628H18.4627H18.4626H18.4626H18.4625H18.4624H18.4623H18.4622H18.4621H18.4621H18.462H18.4619H18.4618H18.4617H18.4616H18.4616H18.4615H18.4614H18.4613H18.4612H18.4612H18.4611H18.461H18.4609H18.4608H18.4607H18.4607H18.4606H18.4605H18.4604H18.4603H18.4602H18.4602H18.4601H18.46H18.4599H18.4598H18.4597H18.4597H18.4596H18.4595H18.4594H18.4593H18.4592H18.4592H18.4591H18.459H18.4589H18.4588H18.4587H18.4587H18.4586H18.4585H18.4584H18.4583H18.4583H18.4582H18.4581H18.458H18.4579H18.4578H18.4578H18.4577H18.4576H18.4575H18.4574H18.4573H18.4573H18.4572H18.4571H18.457H18.4569H18.4568H18.4568H18.4567H18.4566H18.4565H18.4564H18.4563H18.4563H18.4562H18.4561H18.456H18.4559H18.4559H18.4558H18.4557H18.4556H18.4555H18.4554H18.4554H18.4553H18.4552H18.4551H18.455H18.4549H18.4549H18.4548H18.4547H18.4546H18.4545H18.4544H18.4544H18.4543H18.4542H18.4541H18.454H18.4539H18.4539H18.4538H18.4537H18.4536H18.4535H18.4535H18.4534H18.4533H18.4532H18.4531H18.453H18.453H18.4529H18.4528H18.4527H18.4526H18.4525H18.4525H18.4524H18.4523H18.4522H18.4521H18.452H18.452H18.4519H18.4518H18.4517H18.4516H18.4515H18.4515H18.4514H18.4513H18.4512H18.4511H18.451H18.451H18.4509H18.4508H18.4507H18.4506H18.4506H18.4505H18.4504H18.4503H18.4502H18.4501H18.4501H18.45H18.4499H18.4498H18.4497H18.4496H18.4496H18.4495H18.4494H18.4493H18.4492H18.4491H18.4491H18.449H18.4489H18.4488H18.4487H18.4486H18.4486H18.4485H18.4484H18.4483H18.4482H18.4482H18.4481H18.448H18.4479H18.4478H18.4477H18.4477H18.4476H18.4475H18.4474H18.4473H18.4472H18.4472H18.4471H18.447H18.4469H18.4468H18.4467H18.4467H18.4466H18.4465H18.4464Z" fill="#57B894" stroke="#57B894" stroke-width="0.475147"/>
</svg>
