<svg width="24" height="24" viewBox="0 0 24 24" fill="none" xmlns="http://www.w3.org/2000/svg">
<path d="M21.8729 11.9846C21.6942 11.7402 17.4371 6 11.9999 6C6.56275 6 2.30539 11.7402 2.12691 11.9844C1.9577 12.2163 1.9577 12.5308 2.12691 12.7626C2.30539 13.0071 6.56275 18.7473 11.9999 18.7473C17.4371 18.7473 21.6942 13.007 21.8729 12.7628C22.0424 12.531 22.0424 12.2163 21.8729 11.9846ZM11.9999 17.4286C7.99486 17.4286 4.52606 13.6187 3.49922 12.3732C4.52473 11.1266 7.98627 7.31868 11.9999 7.31868C16.0048 7.31868 19.4733 11.1279 20.5006 12.3741C19.4751 13.6206 16.0136 17.4286 11.9999 17.4286Z" fill="#AFAFAF"/>
<path d="M11.9999 8.41797C9.81855 8.41797 8.04382 10.1927 8.04382 12.374C8.04382 14.5554 9.81855 16.3301 11.9999 16.3301C14.1812 16.3301 15.956 14.5554 15.956 12.374C15.956 10.1927 14.1812 8.41797 11.9999 8.41797ZM11.9999 15.0114C10.5456 15.0114 9.36254 13.8283 9.36254 12.374C9.36254 10.9198 10.5456 9.73668 11.9999 9.73668C13.4542 9.73668 14.6372 10.9198 14.6372 12.374C14.6372 13.8283 13.4542 15.0114 11.9999 15.0114Z" fill="#AFAFAF"/>
</svg>
