<svg width="16" height="19" viewBox="0 0 16 19" fill="none" xmlns="http://www.w3.org/2000/svg">
<path d="M8.0017 2.87695C11.3105 2.87854 14.2824 5.18601 15.952 9.04796C16.016 9.19426 16.016 9.35965 15.952 9.50675C15.7536 9.96554 15.5328 10.4116 15.2944 10.8298C15.1352 11.1113 14.78 11.2091 14.4968 11.0517C14.2152 10.8927 14.116 10.5388 14.2744 10.2589C14.452 9.94645 14.62 9.61647 14.7744 9.27695C13.2808 5.99386 10.7625 4.04182 8.0001 4.04102C5.23693 4.04182 2.71857 5.99386 1.22498 9.27695C2.71857 12.56 5.23693 14.5129 8.0001 14.5129C9.60648 14.5129 11.1561 13.8482 12.4816 12.5895C12.716 12.3692 13.0856 12.3772 13.3088 12.6093C13.5328 12.8407 13.5232 13.2089 13.2896 13.4307C11.7433 14.8993 9.91528 15.6762 8.0017 15.677C4.68974 15.6754 1.71778 13.3687 0.0473994 9.50675C-0.0157998 9.36044 -0.0157998 9.19426 0.0473994 9.04796C1.71778 5.18601 4.68974 2.87854 7.9977 2.87695H8.0017ZM7.9997 6.17642C9.71968 6.17642 11.1189 7.56711 11.1189 9.27664C11.1189 10.987 9.71968 12.3776 7.9997 12.3776C7.43331 12.3776 6.87891 12.225 6.39652 11.9363C6.11892 11.7718 6.02932 11.4139 6.19652 11.138C6.36292 10.8637 6.72292 10.7723 6.99891 10.94C7.29971 11.1197 7.6461 11.2144 7.9997 11.2144C9.07409 11.2144 9.94848 10.3453 9.94848 9.27664C9.94848 8.20957 9.07409 7.34049 7.9997 7.34049C6.92531 7.34049 6.05092 8.20957 6.05092 9.27664C6.05092 9.59866 5.78853 9.85867 5.46533 9.85867C5.14214 9.85867 4.88054 9.59866 4.88054 9.27664C4.88054 7.56711 6.27972 6.17642 7.9997 6.17642Z" fill="#AFAFAF"/>
<path d="M13 0.876953L3 17.377" stroke="#AFAFAF" stroke-width="1.5" stroke-linecap="round"/>
</svg>
