<svg width="72" height="64" viewBox="0 0 72 64" fill="none" xmlns="http://www.w3.org/2000/svg">
<rect x="0.94544" y="0.797002" width="69.406" height="62.406" rx="5.55245" fill="white" stroke="#E2E2EA" stroke-width="1.594"/>
<path d="M41.5203 18.7363C40.0016 18.7363 38.7075 19.7311 38.2173 21.0972H22.7302C22.5746 21.095 22.42 21.1239 22.2756 21.1822C22.1312 21.2406 21.9998 21.3272 21.889 21.437C21.7781 21.5468 21.6901 21.6777 21.6301 21.822C21.57 21.9663 21.5391 22.1212 21.5391 22.2777C21.5391 22.4341 21.57 22.589 21.6301 22.7333C21.6901 22.8776 21.7781 23.0085 21.889 23.1183C21.9998 23.2281 22.1312 23.3147 22.2756 23.3731C22.42 23.4314 22.5746 23.4603 22.7302 23.4581H38.2173C38.7075 24.8243 40.0016 25.819 41.5203 25.819C43.0389 25.819 44.3331 24.8243 44.8232 23.4581H48.5666C48.7222 23.4603 48.8767 23.4314 49.0211 23.3731C49.1655 23.3147 49.2969 23.2281 49.4078 23.1183C49.5186 23.0085 49.6066 22.8776 49.6667 22.7333C49.7267 22.589 49.7577 22.4341 49.7577 22.2777C49.7577 22.1212 49.7267 21.9663 49.6667 21.822C49.6066 21.6777 49.5186 21.5468 49.4078 21.437C49.2969 21.3272 49.1655 21.2406 49.0211 21.1822C48.8767 21.1239 48.7222 21.095 48.5666 21.0972H44.8232C44.3331 19.7311 43.0389 18.7363 41.5203 18.7363ZM41.5203 21.0972C42.1589 21.0972 42.6458 21.5798 42.6809 22.2108C42.6783 22.2561 42.6783 22.3015 42.6809 22.3468C42.6447 22.9767 42.1581 23.4581 41.5203 23.4581C40.8816 23.4581 40.3947 22.9755 40.3597 22.3445C40.3623 22.2992 40.3623 22.2538 40.3597 22.2085C40.3958 21.5786 40.8824 21.0972 41.5203 21.0972ZM32.1252 28.1799C30.6066 28.1799 29.3124 29.1746 28.8223 30.5407H22.7302C22.5746 30.5385 22.42 30.5674 22.2756 30.6258C22.1312 30.6841 21.9998 30.7707 21.889 30.8805C21.7781 30.9903 21.6901 31.1212 21.6301 31.2655C21.57 31.4099 21.5391 31.5647 21.5391 31.7212C21.5391 31.8776 21.57 32.0325 21.6301 32.1768C21.6901 32.3211 21.7781 32.452 21.889 32.5618C21.9998 32.6717 22.1312 32.7583 22.2756 32.8166C22.42 32.8749 22.5746 32.9038 22.7302 32.9016H28.8223C29.3124 34.2678 30.6066 35.2625 32.1252 35.2625C33.6439 35.2625 34.938 34.2678 35.4282 32.9016H48.5666C48.7222 32.9038 48.8767 32.8749 49.0211 32.8166C49.1655 32.7583 49.2969 32.6717 49.4078 32.5618C49.5186 32.452 49.6066 32.3211 49.6667 32.1768C49.7267 32.0325 49.7577 31.8776 49.7577 31.7212C49.7577 31.5647 49.7267 31.4099 49.6667 31.2655C49.6066 31.1212 49.5186 30.9903 49.4078 30.8805C49.2969 30.7707 49.1655 30.6841 49.0211 30.6258C48.8767 30.5674 48.7222 30.5385 48.5666 30.5407H35.4282C34.938 29.1746 33.6439 28.1799 32.1252 28.1799ZM32.1252 30.5407C32.7639 30.5407 33.2508 31.0233 33.2858 31.6543C33.2832 31.6996 33.2832 31.745 33.2858 31.7903C33.2497 32.4202 32.7631 32.9016 32.1252 32.9016C31.4866 32.9016 30.9997 32.419 30.9646 31.788C30.9672 31.7427 30.9672 31.6973 30.9646 31.652C31.0008 31.0222 31.4873 30.5407 32.1252 30.5407ZM36.8227 37.6234C35.3041 37.6234 34.0099 38.6181 33.5198 39.9843H22.7302C22.5746 39.982 22.42 40.011 22.2756 40.0693C22.1312 40.1276 21.9998 40.2142 21.889 40.324C21.7781 40.4339 21.6901 40.5648 21.6301 40.7091C21.57 40.8534 21.5391 41.0083 21.5391 41.1647C21.5391 41.3211 21.57 41.476 21.6301 41.6203C21.6901 41.7647 21.7781 41.8955 21.889 42.0054C21.9998 42.1152 22.1312 42.2018 22.2756 42.2601C22.42 42.3185 22.5746 42.3474 22.7302 42.3451H33.5198C34.0099 43.7113 35.3041 44.706 36.8227 44.706C38.3414 44.706 39.6356 43.7113 40.1257 42.3451H48.5666C48.7222 42.3474 48.8767 42.3185 49.0211 42.2601C49.1655 42.2018 49.2969 42.1152 49.4078 42.0054C49.5186 41.8955 49.6066 41.7647 49.6667 41.6203C49.7267 41.476 49.7577 41.3211 49.7577 41.1647C49.7577 41.0083 49.7267 40.8534 49.6667 40.7091C49.6066 40.5648 49.5186 40.4339 49.4078 40.324C49.2969 40.2142 49.1655 40.1276 49.0211 40.0693C48.8767 40.011 48.7222 39.982 48.5666 39.9843H40.1257C39.6356 38.6181 38.3414 37.6234 36.8227 37.6234ZM36.8227 39.9843C37.4614 39.9843 37.9483 40.4668 37.9834 41.0978C37.9808 41.1431 37.9808 41.1886 37.9834 41.2339C37.9472 41.8637 37.4606 42.3451 36.8227 42.3451C36.1841 42.3451 35.6972 41.8626 35.6621 41.2316C35.6647 41.1863 35.6647 41.1408 35.6621 41.0955C35.6983 40.4657 36.1849 39.9843 36.8227 39.9843Z" fill="#44444F"/>
</svg>
