<svg width="23" height="26" viewBox="0 0 23 26" fill="none" xmlns="http://www.w3.org/2000/svg">
<path d="M6.89211 0.480963L6.89405 0.480915C7.10943 0.478279 7.31146 0.574917 7.44577 0.741387L10.0997 3.38617C10.2798 3.55836 10.3528 3.81607 10.2881 4.05634C10.2256 4.2985 10.0364 4.48662 9.79392 4.54869C9.5534 4.6129 9.29512 4.54052 9.12224 4.36126L7.59591 2.84142V7.1096V7.11035H7.44591C7.44802 7.30415 7.34648 7.4853 7.17725 7.5843L6.89211 0.480963ZM6.89211 0.480963C6.68367 0.486218 6.4897 0.582192 6.36024 0.74618L3.709 3.38615C3.52893 3.55833 3.45588 3.81606 3.52057 4.05633C3.58309 4.2985 3.77229 4.48661 4.01479 4.54869C4.25531 4.6129 4.51359 4.54052 4.68647 4.36126L6.2128 2.84142V7.1096V7.11035H6.3628L6.89211 0.480963ZM16.6407 0.48095L16.6417 0.480928C16.8278 0.478246 17.0086 0.550672 17.1411 0.682608M16.6407 0.48095L17.1411 0.682608M16.6407 0.48095C16.2618 0.488977 15.956 0.799269 15.9608 1.17959V5.44753L14.4343 3.92756C14.3032 3.79225 14.1245 3.72063 13.9382 3.72063C13.657 3.72063 13.4062 3.89031 13.2985 4.14765L13.2978 4.1494M16.6407 0.48095L13.2978 4.1494M17.1411 0.682608C17.2733 0.814306 17.3463 0.994155 17.3439 1.17966V5.44752L18.8702 3.92765C19.0431 3.74841 19.3014 3.67605 19.5419 3.74026C19.7844 3.80233 19.9735 3.99041 20.0361 4.23254C20.1008 4.47282 20.0278 4.73056 19.8477 4.90276L17.2016 7.53761M17.1411 0.682608L17.2016 7.53761M13.2978 4.1494C13.1926 4.40986 13.2545 4.70598 13.4565 4.90232C13.4567 4.90257 13.457 4.90283 13.4573 4.90308L16.1087 7.54535C16.2405 7.70934 16.4394 7.80564 16.6514 7.80592M13.2978 4.1494L17.2016 7.53761M17.2016 7.53761L17.2 7.53972C17.0685 7.70808 16.8663 7.80833 16.6514 7.80592M16.6514 7.80592C16.6511 7.80592 16.6507 7.80592 16.6504 7.80591L16.6523 7.65592V7.80592C16.652 7.80592 16.6517 7.80592 16.6514 7.80592ZM17.1888 7.55142L17.1887 7.55157L17.1888 7.55142ZM17.1888 7.55142L17.1892 7.55106M17.1888 7.55142L17.1892 7.55106M17.1892 7.55106L17.1901 7.55013L17.1892 7.55106ZM8.71342 22.2617L8.7144 22.2623L14.1299 25.4978L14.1311 25.4985C14.3459 25.6242 14.6099 25.6272 14.826 25.5062L14.8272 25.5055C15.042 25.3825 15.1777 25.1544 15.1777 24.9056V18.7202L22.4981 11.433C22.5806 11.3657 22.6492 11.2804 22.6949 11.1802L22.7234 11.1518V11.1126C22.7613 11.0105 22.7723 10.9016 22.7594 10.7974V9.26736C22.7594 8.8869 22.4484 8.57811 22.0679 8.57811H1.48882C1.1083 8.57811 0.797266 8.8869 0.797266 9.26736V10.8851C0.797266 11.0684 0.870398 11.2435 1.00008 11.3727L8.37902 18.7202V21.6701C8.37902 21.9128 8.50642 22.1359 8.71342 22.2617ZM2.18037 9.95661H21.3763V10.5995L14.1999 17.7454H9.35675L2.18037 10.5995V9.95661ZM9.76212 19.1239H13.7946V23.6891L9.76212 21.2796V19.1239Z" fill="#2D2D32" stroke="#2D2D32" stroke-width="0.3"/>
</svg>
