<svg width="34" height="21" viewBox="0 0 34 21" fill="none" xmlns="http://www.w3.org/2000/svg">
<rect x="1.05105" y="0.37332" width="32.0743" height="20.0667" rx="3.35988" stroke="#AFAFAF" stroke-width="0.746639"/>
<path d="M6.80061 5.60547C6.51286 5.60547 6.28027 5.84402 6.28027 6.13914V14.6779C6.28027 14.9731 6.51286 15.2116 6.80061 15.2116H8.88194V5.60547H6.80061ZM9.9226 5.60547V15.2116H13.0446V5.60547H9.9226ZM14.0853 5.60547V15.2116H16.1666C16.4543 15.2116 16.6869 14.9731 16.6869 14.6779V6.13914C16.6869 5.84402 16.4543 5.60547 16.1666 5.60547H14.0853Z" fill="#AFAFAF"/>
<line x1="21.0907" y1="1.74953e-08" x2="21.0907" y2="20.8133" stroke="#AFAFAF" stroke-width="0.800512"/>
<path d="M30.197 9.99014L30.2801 9.9525C30.2243 9.82943 30.0956 9.75615 29.9607 9.7585L29.9607 9.75849L29.9598 9.75851C29.873 9.76085 29.7892 9.79353 29.7263 9.85327L27.4805 11.9115L25.2344 9.85297C25.1698 9.79276 25.0834 9.75982 24.9939 9.75982C24.8603 9.75982 24.7349 9.83462 24.6812 9.95627C24.626 10.08 24.6602 10.22 24.7601 10.3094L27.2433 12.5852C27.3752 12.7061 27.5858 12.7061 27.7177 12.5852L30.2008 10.3095C30.3023 10.2196 30.3373 10.0772 30.2799 9.95212L30.197 9.99014ZM30.197 9.99014C30.2368 10.0768 30.2135 10.1769 30.1398 10.2418L29.7886 9.91989C29.8342 9.87633 29.8963 9.85143 29.9622 9.84965C30.0646 9.84787 30.1577 9.90344 30.197 9.99014Z" fill="#AFAFAF" stroke="#AFAFAF" stroke-width="0.182339"/>
</svg>
