<svg xmlns="http://www.w3.org/2000/svg" width="179.176" height="179.176" viewBox="0 0 179.176 179.176">
  <path id="user2" d="M89.588,0C40.315,0,0,40.315,0,89.588s40.315,89.588,89.588,89.588,89.588-40.315,89.588-89.588S138.862,0,89.588,0Zm0,29.863c16.424,0,29.863,16.424,29.863,37.328S106.013,104.52,89.588,104.52,59.725,88.1,59.725,67.191,73.164,29.863,89.588,29.863Zm49.273,115.718a75.839,75.839,0,0,1-49.273,18.664,75.839,75.839,0,0,1-49.273-18.664c-2.986-2.986-3.733-7.466-.747-10.452,8.212-9.705,19.411-16.424,31.356-20.157a41.124,41.124,0,0,0,37.328,0,63.591,63.591,0,0,1,31.356,20.157C142.594,138.115,142.594,142.594,138.862,145.581Z" fill="#555"/>
</svg>
