<svg width="12" height="16" viewBox="0 0 8 11" fill="none" xmlns="http://www.w3.org/2000/svg">
<path d="M3.96589 0.759766H3.96184C1.77727 0.759766 0 2.39263 0 4.39971C0 5.17954 0.279736 5.95309 0.787637 6.57786L3.79158 10.273H4.13613L7.1401 6.57788C7.648 5.95309 7.92773 5.17954 7.92773 4.39971C7.92773 2.39263 6.15047 0.759766 3.96589 0.759766ZM3.96387 5.4235C3.29478 5.4235 2.75044 4.92339 2.75044 4.30867C2.75044 3.69394 3.29478 3.19383 3.96387 3.19383C4.63295 3.19383 5.1773 3.69394 5.1773 4.30867C5.1773 4.92339 4.63295 5.4235 3.96387 5.4235Z" fill="#AFAFAF"/>
</svg>
