<svg xmlns="http://www.w3.org/2000/svg" xmlns:xlink="http://www.w3.org/1999/xlink" width="44.174" height="38.557" viewBox="0 0 44.174 38.557">
  <defs>
    <filter id="Polygon_8" x="0" y="0" width="44.174" height="38.557" filterUnits="userSpaceOnUse">
      <feOffset dy="3" input="SourceAlpha"/>
      <feGaussianBlur stdDeviation="3" result="blur"/>
      <feFlood floodOpacity="0.102"/>
      <feComposite operator="in" in2="blur"/>
      <feComposite in="SourceGraphic"/>
    </filter>
  </defs>
  <g transform="matrix(1, 0, 0, 1, 0, 0)" filter="url(#Polygon_8)">
    <g id="Polygon_8-2" data-name="Polygon 8" transform="translate(9 6)" fill="#fff">
      <path d="M 22.52957725524902 20.05710029602051 L 3.644096851348877 20.05710029602051 C 3.088176727294922 20.05710029602051 2.596606731414795 19.76613998413086 2.329126834869385 19.2787914276123 C 2.061656713485718 18.79145050048828 2.080206871032715 18.22052001953125 2.378746747970581 17.75156021118164 L 11.82147693634033 2.918700456619263 C 12.09831714630127 2.483850479125977 12.5713472366333 2.224230527877808 13.08683681488037 2.224230527877808 C 13.60232639312744 2.224230527877808 14.07535648345947 2.483850479125977 14.35218715667725 2.918700456619263 L 23.7949275970459 17.75156021118164 C 24.09346771240234 18.22052001953125 24.11201667785645 18.79144096374512 23.84454727172852 19.2787914276123 C 23.57707595825195 19.76613998413086 23.08549690246582 20.05710029602051 22.52957725524902 20.05710029602051 Z" stroke="none"/>
      <path d="M 13.08683681488037 2.72422981262207 C 12.73804664611816 2.72422981262207 12.43057727813721 2.892980575561523 12.24326705932617 3.187210083007812 L 2.800527572631836 18.02008056640625 C 2.513656616210938 18.47070121765137 2.681827545166016 18.88220977783203 2.767446517944336 19.0382194519043 C 2.853067398071289 19.1942310333252 3.109897613525391 19.55710029602051 3.644096374511719 19.55710029602051 L 22.52955627441406 19.55710029602051 C 23.06376647949219 19.55710029602051 23.32059669494629 19.1942310333252 23.40621757507324 19.0382194519043 C 23.49183654785156 18.88220977783203 23.6600170135498 18.47070121765137 23.37313652038574 18.02007102966309 L 13.93039703369141 3.187210083007812 C 13.74308681488037 2.892980575561523 13.43562698364258 2.72422981262207 13.08683681488037 2.72422981262207 M 13.08683586120605 1.724233627319336 C 13.73391151428223 1.724233627319336 14.3809871673584 2.03288459777832 14.77396678924561 2.650190353393555 L 24.21670722961426 17.48305130004883 C 25.06430625915527 18.81447982788086 24.10790634155273 20.55709075927734 22.52956771850586 20.55710029602051 L 3.644096374511719 20.55710029602051 C 2.065767288208008 20.55709075927734 1.109355926513672 18.81447982788086 1.956966400146484 17.48305130004883 L 11.39969635009766 2.650190353393555 C 11.79268169403076 2.03288459777832 12.43975925445557 1.724233627319336 13.08683586120605 1.724233627319336 Z" stroke="none" fill="#d9d9d9"/>
    </g>
  </g>
</svg>
