<svg id="Notification_1" data-name="Notification 1" xmlns="http://www.w3.org/2000/svg" width="35.102" height="33.083" viewBox="0 0 35.102 33.083">
  <g id="notification" transform="translate(0 0)">
    <path id="Path_97" data-name="Path 97" d="M20.144,29.354a4.571,4.571,0,0,1-.528,1.44,4.634,4.634,0,0,1-1.023,1.212,4.526,4.526,0,0,1-1.378.8,4.789,4.789,0,0,1-3.166,0,4.459,4.459,0,0,1-1.376-.8,4.626,4.626,0,0,1-1.023-1.212,4.51,4.51,0,0,1-.536-1.489.488.488,0,0,1,.393-.565l.086-.008h8.082a.49.49,0,0,1,.49.49.71.71,0,0,1-.022.132ZM5.442.065A.96.96,0,1,1,6.15,1.85a7.281,7.281,0,0,0-2.673,1.78A7.238,7.238,0,0,0,1.88,6.48.961.961,0,0,1,.044,5.915a9.123,9.123,0,0,1,2.025-3.6A9.189,9.189,0,0,1,5.442.065ZM25.112,1.85A.96.96,0,1,1,25.82.065a9.162,9.162,0,0,1,3.373,2.256,9.128,9.128,0,0,1,2.025,3.6.961.961,0,0,1-1.836.565,7.2,7.2,0,0,0-1.6-2.851A7.253,7.253,0,0,0,25.112,1.85Zm-6.906.985a9.812,9.812,0,0,1,1.155.377A10.815,10.815,0,0,1,20.944,4c.019.013.04.024.059.038a10.726,10.726,0,0,1,1.352.983,10.38,10.38,0,0,1,1.217,1.238l0,0h0a10.247,10.247,0,0,1,.988,1.424,11.118,11.118,0,0,1,.748,1.578h0a9.887,9.887,0,0,1,.479,1.726,10.4,10.4,0,0,1,.159,1.82v1.973q0,.945.011,1.847v.005h0a13.957,13.957,0,0,0,.1,1.637,13.011,13.011,0,0,0,.291,1.567h0a8.237,8.237,0,0,0,.512,1.432,9.273,9.273,0,0,0,.8,1.384h0a8.342,8.342,0,0,0,1.171,1.311,13.715,13.715,0,0,0,1.685,1.308.8.8,0,0,1-.447,1.465v0H1.177a.8.8,0,0,1-.415-1.489,14.089,14.089,0,0,0,1.672-1.306A8,8,0,0,0,3.6,22.623a.2.2,0,0,1,.03-.038A9.477,9.477,0,0,0,4.4,21.236,8.431,8.431,0,0,0,4.922,19.8c0-.011.005-.022.008-.03a11.731,11.731,0,0,0,.283-1.516,13.735,13.735,0,0,0,.1-1.653V12.8a10.131,10.131,0,0,1,.164-1.823,9.635,9.635,0,0,1,.482-1.734,10.875,10.875,0,0,1,.757-1.588,10.419,10.419,0,0,1,1-1.432l.005-.005h0a10.387,10.387,0,0,1,2.646-2.259,9.939,9.939,0,0,1,2.778-1.142,2.406,2.406,0,0,1,.711-1.171,2.6,2.6,0,0,1,1.828-.608,2.638,2.638,0,0,1,1.812.625,2.443,2.443,0,0,1,.711,1.168ZM18.779,4.7a8.739,8.739,0,0,0-1.357-.412.8.8,0,0,1-.692-.7,1.14,1.14,0,0,0-.3-.735,1.146,1.146,0,0,0-.759-.215,1.1,1.1,0,0,0-.751.2,1.151,1.151,0,0,0-.3.743h0a.8.8,0,0,1-.649.695,8.48,8.48,0,0,0-2.786,1.055,8.552,8.552,0,0,0-1.2.864A8.683,8.683,0,0,0,8.95,7.25h0a8.941,8.941,0,0,0-.843,1.214,9.527,9.527,0,0,0-.643,1.357,8.11,8.11,0,0,0-.407,1.446,8.587,8.587,0,0,0-.132,1.54v3.8a15.4,15.4,0,0,1-.11,1.847,13.5,13.5,0,0,1-.328,1.723l-.008.038a10.24,10.24,0,0,1-.622,1.707,11.242,11.242,0,0,1-.9,1.575l-.032.048a9.8,9.8,0,0,1-1.395,1.575l-.022.019H27.755a9.946,9.946,0,0,1-1.389-1.562h0v0a11.05,11.05,0,0,1-.945-1.623,9.65,9.65,0,0,1-.619-1.715h0v0a14.006,14.006,0,0,1-.328-1.766,15.674,15.674,0,0,1-.11-1.823v0q-.008-.892-.011-1.86c-.005-1.2-.005-1.847-.005-1.973a8.512,8.512,0,0,0-.135-1.54,8.105,8.105,0,0,0-.4-1.438h0v0a9.4,9.4,0,0,0-.635-1.349,8.7,8.7,0,0,0-.837-1.206h0a8.924,8.924,0,0,0-1.026-1.042,9.366,9.366,0,0,0-1.144-.837.534.534,0,0,1-.054-.03,9.972,9.972,0,0,0-1.341-.66Z" transform="translate(-0.001 0.004)" fill="#555"/>
  </g>
  <circle id="Ellipse_9" data-name="Ellipse 9" cx="5" cy="5" r="5" transform="translate(25.102 16.784)" fill="#4caf50"/>
</svg>
