<svg xmlns="http://www.w3.org/2000/svg" xmlns:xlink="http://www.w3.org/1999/xlink" width="310" height="492.335" viewBox="0 0 310 492.335">
  <defs>
    <filter id="Union_8" x="0" y="0" width="310" height="492.335" filterUnits="userSpaceOnUse">
      <feOffset dy="3" input="SourceAlpha"/>
      <feGaussianBlur stdDeviation="3" result="blur"/>
      <feFlood floodOpacity="0.102"/>
      <feComposite operator="in" in2="blur"/>
      <feComposite in="SourceGraphic"/>
    </filter>
  </defs>
  <g transform="matrix(1, 0, 0, 1, 0, 0)" filter="url(#Union_8)">
    <g id="Union_8-2" data-name="Union 8" transform="translate(9 5.33)" fill="#fff">
      <path d="M 287.0001525878906 474.5001831054688 L 5.00039005279541 474.5001831054688 C 2.518860340118408 474.5001831054688 0.499978095293045 472.4817199707031 0.499978095293045 470.000732421875 L 0.499978095293045 21.25260925292969 C 0.499978095293045 18.77107810974121 2.518860340118408 16.752197265625 5.00039005279541 16.752197265625 L 255.6239776611328 16.752197265625 L 255.8983917236328 16.752197265625 L 256.0457458496094 16.52072525024414 L 265.3790893554688 1.859725952148438 C 265.6558532714844 1.424726009368896 266.1288452148438 1.165137767791748 266.6443786621094 1.165137767791748 C 267.159912109375 1.165137767791748 267.6329040527344 1.424726009368896 267.9096374511719 1.859608292579651 L 277.2429809570312 16.52072525024414 L 277.3903198242188 16.752197265625 L 277.6647338867188 16.752197265625 L 287.0001525878906 16.752197265625 C 289.4811401367188 16.752197265625 291.4996337890625 18.77107810974121 291.4996337890625 21.25260925292969 L 291.4996337890625 470.000732421875 C 291.4996337890625 472.4817199707031 289.4811401367188 474.5001831054688 287.0001525878906 474.5001831054688 Z" stroke="none"/>
      <path d="M 287.0001525878906 474.0001831054688 C 289.2054443359375 474.0001831054688 290.9996337890625 472.2060241699219 290.9996337890625 470.000732421875 L 290.9996337890625 21.25260925292969 C 290.9996337890625 19.04678535461426 289.2054443359375 17.252197265625 287.0001525878906 17.252197265625 L 277.1159057617188 17.252197265625 L 267.4877319335938 2.128020048141479 C 267.3005676269531 1.833843588829041 266.9931640625 1.665137767791748 266.6443786621094 1.665137767791748 C 266.2956237792969 1.665137767791748 265.9882202148438 1.833902478218079 265.8009338378906 2.128196477890015 L 256.1727905273438 17.252197265625 L 5.00039005279541 17.252197265625 C 2.79456639289856 17.252197265625 0.9999781250953674 19.04678535461426 0.9999781250953674 21.25260925292969 L 0.9999781250953674 470.000732421875 C 0.9999781250953674 472.2060241699219 2.79456639289856 474.0001831054688 5.00039005279541 474.0001831054688 L 287.0001525878906 474.0001831054688 M 287.0001525878906 475.0001831054688 L 5.00039005279541 475.0001831054688 C 2.238331079483032 475.0001831054688 -2.189366932725534e-05 472.7619018554688 -2.189366932725534e-05 470.000732421875 L -2.189366932725534e-05 21.25260925292969 C -2.189366932725534e-05 18.49137306213379 2.238331079483032 16.252197265625 5.00039005279541 16.252197265625 L 255.6239776611328 16.252197265625 L 264.9573364257812 1.591196537017822 C 265.7430725097656 0.3564026951789856 267.5457763671875 0.3564609885215759 268.3314514160156 1.591196537017822 L 277.6647338867188 16.252197265625 L 287.0001525878906 16.252197265625 C 289.7613220214844 16.252197265625 291.9996337890625 18.49137306213379 291.9996337890625 21.25260925292969 L 291.9996337890625 470.000732421875 C 291.9996337890625 472.7619018554688 289.7613220214844 475.0001831054688 287.0001525878906 475.0001831054688 Z" stroke="none" fill="#d9d9d9"/>
    </g>
  </g>
</svg>
