<svg width="49" height="41" viewBox="0 0 49 41" fill="none" xmlns="http://www.w3.org/2000/svg">
<rect x="1.19284" y="0.765101" width="46.1409" height="39.2974" rx="6.62224" stroke="#9EA3AE" stroke-width="1.47161"/>
<path d="M15.247 23.2614L15.247 23.2614C14.9712 23.5191 14.7668 23.8417 14.6579 24.1992C14.6579 24.1992 14.6579 24.1993 14.6578 24.1994L13.0312 29.5201L13.0311 29.5204C12.9706 29.719 12.9679 29.9296 13.0235 30.1296C13.079 30.3294 13.1899 30.5087 13.3414 30.6502L13.3414 30.6502C13.4926 30.7915 13.6792 30.8904 13.8807 30.9392C14.0821 30.9881 14.2936 30.9858 14.4939 30.9326L14.4941 30.9325L20.1917 29.4129L20.2806 29.3892L20.2848 29.3852C20.6174 29.2817 20.9241 29.1073 21.178 28.8701L21.178 28.8701L33.3141 17.5327C34.9619 15.9935 34.9619 13.4642 33.3142 11.9251C32.4945 11.159 31.4183 10.7805 30.3492 10.7805C29.2801 10.7805 28.2039 11.159 27.3842 11.925C27.3842 11.925 27.3842 11.925 27.3842 11.9251L15.247 23.2614ZM31.6476 13.5491L31.6866 13.5854C32.3564 14.2478 32.3438 15.2593 31.6488 15.9085L30.8365 16.6673L28.2739 14.2737L29.0496 13.5491L29.0496 13.5491C29.4082 13.2139 29.8767 13.0439 30.3492 13.0439C30.8214 13.0439 31.2889 13.2138 31.6476 13.5491ZM19.529 27.2297L15.9164 28.1939L16.9343 24.865L26.5719 15.8635L29.1344 18.2572L19.529 27.2297Z" fill="#9EA3AE" stroke="#9EA3AE" stroke-width="0.735804"/>
</svg>
