<svg width="25" height="21" viewBox="0 0 25 21" fill="none" xmlns="http://www.w3.org/2000/svg">
<rect x="0.376025" y="0.376025" width="23.5798" height="20.0825" rx="3.38423" stroke="#9EA3AE" stroke-width="0.75205"/>
<path d="M15.9729 8.20899L15.9729 8.20903C15.9709 8.21222 15.9689 8.21532 15.9632 8.22296L15.9631 8.22311L15.9591 8.22846L15.959 8.22857C15.9225 8.27668 15.765 8.47578 14.9733 9.46769C14.9653 9.4815 14.9565 9.49428 14.9471 9.50642L15.9729 8.20899ZM15.9729 8.20899C16.2011 7.84739 16.2722 7.41937 16.1743 7.00469C16.0761 6.58695 15.8173 6.23313 15.4843 6.03407L15.4836 6.03348L15.4761 6.02766L15.4477 6.00558L15.346 5.92661L15.0358 5.68555L14.5659 5.32036C14.5658 5.3203 14.5658 5.32024 14.5657 5.32019C13.8771 4.76788 12.8568 4.86695 12.2917 5.54152C12.2897 5.54375 12.2881 5.54582 12.2874 5.54671L12.2872 5.54688L12.2872 5.54678L12.2846 5.55001L7.25121 11.8455C6.99778 12.1621 6.90537 12.5702 6.99828 12.9655L6.99828 12.9655L7.4359 14.8202L7.43592 14.8203C7.48318 15.0181 7.65944 15.1571 7.86202 15.1571L7.86736 15.1571L7.86783 15.157L9.81224 15.1325C9.81224 15.1325 9.81225 15.1325 9.81225 15.1325C10.2181 15.1275 10.5962 14.9446 10.8484 14.6302L10.8485 14.6302M15.9729 8.20899L10.8485 14.6302M10.8485 14.6302C11.9685 13.229 12.8428 12.1349 13.5255 11.2804L13.707 11.0533L14.61 9.92276L14.7318 9.77022L14.7028 9.74711M10.8485 14.6302L14.7028 9.74711M14.7028 9.74711L14.7318 9.77022C14.7913 9.6957 14.8479 9.62474 14.9016 9.55717M14.7028 9.74711L14.9016 9.55717M8.17834 14.3142L9.80217 14.2939C9.95659 14.2923 10.0993 14.2234 10.1938 14.1058M8.17834 14.3142L8.2144 14.3057L8.20758 14.2768M8.17834 14.3142L8.17788 14.2772L8.20758 14.2768M8.17834 14.3142L7.81446 12.7727C7.7808 12.6311 7.81446 12.4836 7.90583 12.3693L10.1938 14.1058M8.20758 14.2768L9.8017 14.2569L9.80178 14.2569C9.94531 14.2554 10.0775 14.1914 10.165 14.0826M8.20758 14.2768L7.85052 12.7642L7.85051 12.7641C7.81952 12.6338 7.85043 12.498 7.93477 12.3924C7.93478 12.3924 7.93478 12.3924 7.93478 12.3924L11.7586 7.60935L13.9766 9.31247C13.4936 9.91724 12.9198 10.6355 12.3391 11.3622L12.116 11.6413L11.8934 11.92L10.165 14.0826M10.165 14.0826L10.1649 14.0827L10.1938 14.1058M10.165 14.0826L10.1938 14.1058M14.9016 9.55717C14.9179 9.5417 14.9331 9.52479 14.9471 9.50648L14.9016 9.55717ZM15.3226 7.20659L15.3226 7.2066C15.3662 7.3903 15.3337 7.58022 15.2523 7.71339C15.2199 7.75496 14.9432 8.10194 14.5234 8.62783L12.3055 6.92523L12.9652 6.1011C13.2267 5.79216 13.6978 5.74702 14.021 6.00601L14.0213 6.00619C14.0484 6.02761 14.95 6.72754 14.9892 6.75458L14.9892 6.75464L14.9911 6.75581C15.1607 6.85816 15.2779 7.0182 15.3226 7.20659ZM17.4567 14.7192C17.4567 14.4775 17.2606 14.2814 17.0189 14.2814H13.1434C12.9018 14.2814 12.7056 14.4775 12.7056 14.7192C12.7056 14.9609 12.9018 15.157 13.1434 15.157H17.0189C17.2606 15.157 17.4567 14.9609 17.4567 14.7192Z" fill="#9EA3AE" stroke="#AFAFAF" stroke-width="0.0741003"/>
</svg>
