<svg width="18" height="17" viewBox="0 0 18 17" fill="none" xmlns="http://www.w3.org/2000/svg">
<path d="M14.6429 5.40992L14.6429 5.40998C14.6397 5.41508 14.6365 5.42003 14.6273 5.4323L14.6272 5.43253L14.6207 5.44113L14.6205 5.44131C14.5619 5.51866 14.3086 5.83884 13.0353 7.43412C13.0225 7.45634 13.0083 7.47691 12.9932 7.49644M14.6429 5.40992L12.9472 7.46101M14.6429 5.40992C15.0096 4.82872 15.124 4.14075 14.9666 3.47421C14.8088 2.80277 14.3927 2.2341 13.8575 1.91421L13.8562 1.91319L13.8442 1.90384L13.7985 1.86833L13.6351 1.74133L13.1362 1.35366L12.3805 0.766346C12.3804 0.766247 12.3802 0.766148 12.3801 0.766049C11.2733 -0.121667 9.63338 0.0375824 8.72514 1.12183C8.72183 1.1254 8.71928 1.1287 8.71817 1.13013L8.71791 1.13046C8.7179 1.13048 8.71788 1.13051 8.71786 1.13053M14.6429 5.40992L8.71786 1.13053M12.9932 7.49644L12.9472 7.46101M12.9932 7.49644C12.9933 7.49641 12.9933 7.49638 12.9933 7.49635L12.9472 7.46101M12.9932 7.49644C12.9707 7.52586 12.9463 7.55301 12.9202 7.57786M12.9472 7.46101C12.9256 7.48912 12.9022 7.51496 12.8772 7.53849M12.9202 7.57786C12.921 7.57679 12.9219 7.57571 12.9227 7.57464L12.8772 7.53849M12.9202 7.57786C12.8338 7.68655 12.7427 7.8007 12.647 7.92057L12.6016 7.8843M12.9202 7.57786C12.9192 7.57885 12.9181 7.57983 12.9171 7.58081L12.8772 7.53849M12.8772 7.53849L12.6016 7.8843M12.6016 7.8843L12.4057 8.12961L10.9536 9.9477L10.6617 10.313C9.56379 11.6872 8.15769 13.4466 6.35644 15.7001C5.96202 16.1916 5.37081 16.4777 4.73579 16.4855L12.6016 7.8843ZM12.6016 7.8843L12.647 7.92057L12.4512 8.16587L10.999 9.98398L10.7071 10.3493C9.60919 11.7235 8.20309 13.4829 6.40184 15.7364L6.40178 15.7364C5.99636 16.2417 5.38871 16.5356 4.73649 16.5436L1.6095 16.5831L1.60876 16.5831L1.60017 16.5831C1.27506 16.5831 0.992187 16.3601 0.916339 16.0427L0.916301 16.0425L0.212527 13.0599L0.212516 13.0598C0.0632028 12.4246 0.211712 11.7687 0.619 11.2598M12.6016 7.8843L0.618982 11.2598L0.619 11.2598M0.619 11.2598L8.71367 1.13543L8.71771 1.13038L8.71786 1.13053M0.619 11.2598L8.71786 1.13053M7.86637 4.44433L11.4358 7.18507C10.6588 8.1579 9.73559 9.3134 8.80128 10.4826L8.4426 10.9315L8.08452 11.3796L5.3049 14.8576C5.30489 14.8576 5.30488 14.8576 5.30487 14.8576C5.16386 15.0329 4.95095 15.136 4.71971 15.1384L4.71959 15.1384L2.15474 15.1705L1.58026 12.7367L1.58024 12.7366C1.5303 12.5265 1.58012 12.3077 1.71604 12.1376L7.86637 4.44433ZM13.5997 3.7983L13.5997 3.79832C13.67 4.09413 13.6175 4.39999 13.4864 4.61451C13.4345 4.68116 12.9891 5.23974 12.3132 6.0863L8.74417 3.34641L9.8059 2.01987C10.227 1.5224 10.9856 1.44973 11.506 1.86673L11.5064 1.86701C11.5501 1.90148 13 3.02707 13.063 3.07052L13.0629 3.07061L13.066 3.07244C13.339 3.23724 13.5278 3.49495 13.5997 3.7983ZM17.0289 15.8804C17.0289 15.4926 16.7142 15.1778 16.3263 15.1778H10.0937C9.70589 15.1778 9.39114 15.4926 9.39114 15.8804C9.39114 16.2683 9.70589 16.583 10.0937 16.583H16.3263C16.7142 16.583 17.0289 16.2683 17.0289 15.8804Z" fill="#AFAFAF" stroke="#AFAFAF" stroke-width="0.11625"/>
</svg>
