<svg width="31" height="18" viewBox="0 0 31 18" fill="none" xmlns="http://www.w3.org/2000/svg">
<path d="M2.37121 17.2893L2.3737 17.2892C2.78918 17.277 3.18203 17.106 3.47115 16.8055L15.7129 4.56383L27.9545 16.8055C27.9548 16.8058 27.9551 16.8061 27.9554 16.8064C28.2529 17.1096 28.6582 17.2815 29.0851 17.2815C29.7258 17.2815 30.3008 16.8904 30.5404 16.2974L30.319 16.2079L30.54 16.2984C30.7831 15.7046 30.6386 15.0254 30.1816 14.5797L16.8261 1.22418C16.2111 0.609179 15.2146 0.609179 14.5996 1.22418L1.24467 14.5792C0.779295 15.0276 0.631647 15.7183 0.883726 16.3183C1.13295 16.9177 1.72321 17.3016 2.37121 17.2893Z" fill="#2D2D32" stroke="#2D2D32" stroke-width="0.477617"/>
</svg>
