<svg width="12" height="13" viewBox="0 0 12 13" fill="none" xmlns="http://www.w3.org/2000/svg">
<path d="M6.66667 5.99349H11.3333C11.5101 5.99349 11.6797 6.06373 11.8047 6.18875C11.9298 6.31378 12 6.48335 12 6.66016C12 6.83697 11.9298 7.00654 11.8047 7.13156C11.6797 7.25659 11.5101 7.32682 11.3333 7.32682H6.66667V11.9935C6.66667 12.1703 6.59643 12.3399 6.4714 12.4649C6.34638 12.5899 6.17681 12.6602 6 12.6602C5.82319 12.6602 5.65362 12.5899 5.5286 12.4649C5.40357 12.3399 5.33333 12.1703 5.33333 11.9935V7.32682H0.666667C0.489856 7.32682 0.320286 7.25659 0.195262 7.13156C0.0702379 7.00654 0 6.83697 0 6.66016C0 6.48335 0.0702379 6.31378 0.195262 6.18875C0.320286 6.06373 0.489856 5.99349 0.666667 5.99349H5.33333V1.32682C5.33333 1.15001 5.40357 0.980443 5.5286 0.855418C5.65362 0.730394 5.82319 0.660156 6 0.660156C6.17681 0.660156 6.34638 0.730394 6.4714 0.855418C6.59643 0.980443 6.66667 1.15001 6.66667 1.32682V5.99349Z" fill="white"/>
</svg>
