<svg width="13" height="12" viewBox="0 0 13 12" fill="none" xmlns="http://www.w3.org/2000/svg">
<path d="M10.6316 0C10.0311 0 9.43063 0.214917 8.97556 0.644719L1.56916 7.63606C1.42864 7.76872 1.32572 7.9337 1.27116 8.11482L0.278452 11.3964C0.25397 11.4776 0.252913 11.5635 0.275389 11.6452C0.297866 11.7269 0.34306 11.8015 0.406297 11.8612C0.469535 11.9209 0.548518 11.9636 0.635079 11.9848C0.721639 12.006 0.812633 12.005 0.898647 11.9819L4.3754 11.0447C4.56596 10.993 4.74095 10.8965 4.88188 10.7634L12.2876 3.77145C13.1981 2.9119 13.1981 1.50427 12.2876 0.644719C11.8326 0.214917 11.2321 0 10.6316 0ZM10.6316 0.942091C10.9732 0.942091 11.3142 1.06634 11.5772 1.31473C12.1042 1.81221 12.1049 2.60396 11.5779 3.10144L10.9289 3.71407L9.03634 1.92737L9.68529 1.31473C9.94828 1.06634 10.29 0.942091 10.6316 0.942091ZM8.32661 2.59738L10.2192 4.38409L4.1715 10.0934C4.15188 10.1118 4.12703 10.1259 4.09896 10.1335L1.49139 10.8368L2.23641 8.37456C2.24408 8.34909 2.25814 8.32567 2.27889 8.30608L8.32661 2.59738Z" fill="#9EA3AE"/>
</svg>
