<svg width="18" height="17" viewBox="0 0 18 17" fill="none" xmlns="http://www.w3.org/2000/svg">
<path d="M14.6429 5.40992L14.6429 5.40998C14.6397 5.41508 14.6365 5.42003 14.6273 5.4323L14.6272 5.43253L14.6207 5.44113L14.6205 5.44131C14.5619 5.51866 14.3086 5.83884 13.0353 7.43412C13.0225 7.4563 13.0083 7.47684 12.9933 7.49635C12.9933 7.49638 12.9933 7.49641 12.9932 7.49644L12.9472 7.46101C12.9256 7.48912 12.9022 7.51496 12.8772 7.53849L14.6429 5.40992ZM14.6429 5.40992C15.0096 4.82874 15.124 4.14079 14.9666 3.47427C14.8088 2.80281 14.3928 2.23411 13.8575 1.91421L13.8562 1.91319L13.8442 1.90384L13.7985 1.86833L13.6351 1.74133L13.1362 1.35366L12.3805 0.766346C12.3804 0.766252 12.3802 0.766159 12.3801 0.766065C11.2734 -0.121668 9.63338 0.0375757 8.72514 1.12183C8.72184 1.12539 8.71929 1.12868 8.71817 1.13012L8.71791 1.13046C8.7179 1.13048 8.71788 1.1305 8.71786 1.13053L8.71771 1.13038L8.71367 1.13543L0.619 11.2598C0.211712 11.7687 0.0632028 12.4246 0.212516 13.0598L0.212527 13.0599L0.916301 16.0425L0.916339 16.0427C0.992187 16.3601 1.27506 16.5831 1.60017 16.5831L1.60876 16.5831L1.6095 16.5831L4.73649 16.5436C5.38871 16.5356 5.99636 16.2417 6.40178 15.7364L6.40184 15.7364C8.20309 13.4829 9.60919 11.7235 10.7071 10.3493L10.999 9.98398L12.4512 8.16587L12.4113 8.13403L12.4512 8.16587L12.647 7.92057C12.7427 7.8007 12.8338 7.68655 12.9202 7.57786L14.6429 5.40992ZM2.10888 15.2292L4.72032 15.1965C4.96866 15.1939 5.19809 15.0831 5.35019 14.894M2.10888 15.2292L2.16545 15.2158L2.15474 15.1705M2.10888 15.2292L2.10815 15.171L2.15474 15.1705M2.10888 15.2292L1.52369 12.7501C1.46955 12.5223 1.52369 12.2852 1.67063 12.1013L7.86637 4.44433M2.15474 15.1705L4.71959 15.1384L4.71971 15.1384C4.95091 15.136 5.16379 15.0329 5.3048 14.8577L5.30479 14.8577L5.35019 14.894M2.15474 15.1705L1.58026 12.7367L1.58024 12.7366C1.5303 12.5265 1.58012 12.3077 1.71604 12.1376L7.86637 4.44433M5.35019 14.894L5.3049 14.8576M5.35019 14.894L8.12993 11.4159L8.48801 10.9678L8.84669 10.5189C9.78128 9.34933 10.7048 8.19349 11.4819 7.22048L11.4358 7.18507M5.3049 14.8576L11.4721 7.13965C11.46 7.15474 11.4479 7.16989 11.4358 7.18507M5.3049 14.8576L8.08452 11.3796L8.4426 10.9315L8.80128 10.4826C9.73559 9.3134 10.6588 8.1579 11.4358 7.18507M5.3049 14.8576L7.86637 4.44433M11.4358 7.18507L7.86637 4.44433M13.5997 3.7983L13.5997 3.79832C13.67 4.09413 13.6175 4.39999 13.4864 4.61451C13.4345 4.68114 12.9891 5.23972 12.3132 6.08631L8.74417 3.34641L9.8059 2.01987C10.227 1.5224 10.9856 1.44973 11.506 1.86673L11.5064 1.86701C11.5501 1.90148 13 3.02707 13.063 3.07052L13.0629 3.07061L13.066 3.07244C13.339 3.23724 13.5278 3.49495 13.5997 3.7983ZM17.0289 15.8804C17.0289 15.4926 16.7142 15.1778 16.3263 15.1778H10.0937C9.70589 15.1778 9.39114 15.4926 9.39114 15.8804C9.39114 16.2683 9.70589 16.583 10.0937 16.583H16.3263C16.7142 16.583 17.0289 16.2683 17.0289 15.8804Z" fill="#AFAFAF" stroke="#AFAFAF" stroke-width="0.11625"/>
</svg>
