<svg width="25" height="21" viewBox="0 0 25 21" fill="none" xmlns="http://www.w3.org/2000/svg">
<rect x="0.376025" y="0.376025" width="23.5798" height="20.0825" rx="3.38423" stroke="#9EA3AE" stroke-width="0.75205"/>
<path d="M10.7619 13.8179C10.2489 13.8179 9.83477 13.4075 9.83477 12.9395L9.83477 10.6956L9.83477 10.6956H9.88477L10.7619 13.8179ZM10.7619 13.8179H14.1668C14.4016 13.8179 14.6267 13.7246 14.7927 13.5586C14.9587 13.3926 15.052 13.1675 15.052 12.9327V10.6956M10.7619 13.8179L15.052 10.6956M15.052 10.6956C15.052 10.6956 15.052 10.6956 15.052 10.6956V10.6956ZM10.7689 9.76097C10.7689 9.76097 10.7689 9.76097 10.7689 9.76097L15.002 10.6956C15.002 10.5794 14.9791 10.4644 14.9347 10.3571C14.8902 10.2497 14.825 10.1522 14.7429 10.0701C14.6607 9.98802 14.5631 9.92291 14.4558 9.87852C14.3484 9.83414 14.2334 9.81135 14.1172 9.81145V9.76145H14.1172H13.6967V8.97335C13.6967 8.59752 13.5812 8.2889 13.3664 8.07415C13.1516 7.85941 12.843 7.74395 12.4673 7.74395C12.0915 7.74395 11.7829 7.85945 11.5682 8.07422C11.3535 8.28899 11.238 8.59761 11.238 8.97335V9.76097H10.7689ZM10.6547 10.4203C10.6908 10.4053 10.7296 10.3976 10.7687 10.3976H14.0686C14.1078 10.3976 14.1465 10.4053 14.1827 10.4203C14.2188 10.4353 14.2517 10.4572 14.2793 10.4849C14.307 10.5126 14.3289 10.5454 14.3439 10.5815C14.3589 10.6177 14.3666 10.6564 14.3666 10.6956V12.9327C14.3666 13.0117 14.3352 13.0875 14.2793 13.1434C14.2234 13.1993 14.1477 13.2307 14.0686 13.2307H10.7687C10.6897 13.2307 10.6139 13.1993 10.558 13.1434C10.5022 13.0875 10.4708 13.0117 10.4708 12.9327V10.6956C10.4708 10.6564 10.4785 10.6177 10.4934 10.5815C10.5084 10.5454 10.5304 10.5126 10.558 10.4849C10.5857 10.4572 10.6185 10.4353 10.6547 10.4203ZM13.0121 8.97335V9.76098L11.8742 9.76144V8.97335C11.8742 8.76098 11.9238 8.61478 12.0117 8.52159C12.099 8.42897 12.2322 8.38011 12.4188 8.38011C12.6312 8.38011 12.7766 8.42976 12.8695 8.52265C12.9624 8.61555 13.0121 8.76095 13.0121 8.97335Z" fill="#9EA3AE" stroke="#9EA3AE" stroke-width="0.1"/>
<path d="M12.4728 16.2183L12.4728 16.2186C9.42952 16.2186 6.95 13.7391 6.95 10.696C6.95 7.65289 9.42952 5.17338 12.4728 5.17338C13.7238 5.17338 14.8695 5.59343 15.8585 6.33075L15.663 5.40246L15.662 5.39736L15.6622 5.39733L12.4728 16.2183ZM12.4728 16.2183C15.5148 16.2176 18.0531 13.7395 18.05 10.6956C18.0498 10.48 18.0356 10.2626 18.0144 10.081C17.9942 9.90778 17.9673 9.76238 17.9386 9.6824V9.68152L17.9361 9.674C17.9008 9.56508 17.856 9.47369 17.7944 9.40908C17.731 9.34268 17.6515 9.30655 17.5539 9.30655H17.498V9.30623L17.4923 9.30688C17.3944 9.31807 17.3272 9.35213 17.2818 9.38997C17.2371 9.42727 17.2161 9.46615 17.2073 9.48321C17.196 9.50453 17.1887 9.52778 17.1858 9.55176L17.1854 9.55171L17.1854 9.55818C17.1859 9.60516 17.1912 9.65196 17.2014 9.69781C17.2051 9.71591 17.2093 9.73525 17.2135 9.75505C17.2239 9.80408 17.2349 9.85585 17.2416 9.89803C17.2793 10.1332 17.2812 10.3735 17.2812 10.6574C17.2818 13.4358 14.9496 15.6642 12.1765 15.4952C9.49681 15.332 7.40549 12.9675 7.69038 10.1896C7.9166 7.98496 9.62595 6.21285 11.8232 5.92786C13.2365 5.74603 14.6272 6.16189 15.6603 7.09023L14.3099 7.35054C14.2679 7.35219 14.231 7.37312 14.2015 7.39528C14.1707 7.41834 14.1407 7.44835 14.1138 7.47528L14.1123 7.47669C14.0733 7.51571 14.057 7.57015 14.0495 7.61551C14.0418 7.66148 14.0418 7.70675 14.0418 7.73449V7.73542C14.0418 7.81507 14.0995 7.88388 14.1596 7.92896C14.2211 7.97511 14.3012 8.0088 14.3711 8.0088H14.4281V8.00973L14.4376 8.00788L16.4418 7.61803C16.5858 7.61478 16.7101 7.47444 16.7101 7.28899V7.23567L12.4728 16.2183ZM15.7666 5.16879C15.712 5.22451 15.712 5.33385 15.712 5.38973V5.39216L15.9193 6.37659L15.9901 5H15.935C15.8794 5 15.8239 5.05534 15.7685 5.16603L15.7666 5.16879ZM15.7666 5.16879L15.7588 5.16117L15.7484 5.15599L15.7666 5.16879ZM15.6695 5.27105C15.662 5.31606 15.662 5.36041 15.662 5.38817L16.7098 7.22732L16.7101 7.22729L16.7091 7.22243L16.3193 5.21813C16.3168 5.14064 16.2604 5.07385 16.2016 5.02977C16.14 4.98363 16.0599 4.95 15.9901 4.95H15.935C15.8894 4.95 15.8496 4.97296 15.8164 5.0061C15.7842 5.03815 15.7545 5.08317 15.7264 5.13854C15.6915 5.17694 15.6766 5.22805 15.6695 5.27105ZM15.9093 6.43194C15.9112 6.43346 15.9136 6.43435 15.916 6.43448C15.9185 6.43461 15.921 6.43398 15.923 6.43267C15.9251 6.43135 15.9268 6.42943 15.9277 6.42715C15.9287 6.42488 15.9289 6.42236 15.9284 6.41995L15.9263 6.41022L15.9263 6.40987L15.921 6.38474C15.9202 6.38465 15.9194 6.38459 15.9187 6.38455C15.9109 6.38414 15.9031 6.38615 15.8965 6.3903C15.8898 6.39447 15.8847 6.40058 15.8816 6.40778C15.8813 6.40854 15.881 6.40932 15.8807 6.4101C15.8876 6.41528 15.8944 6.42048 15.9011 6.42569C15.9012 6.42574 15.9013 6.4258 15.9014 6.42586C15.904 6.42788 15.9066 6.42991 15.9093 6.43194Z" fill="#9EA3AE" stroke="#9EA3AE" stroke-width="0.1"/>
</svg>
