<svg width="21" height="18" viewBox="0 0 21 18" fill="none" xmlns="http://www.w3.org/2000/svg">
<rect x="0.32115" y="0.32115" width="20.1387" height="17.1518" rx="2.89035" stroke="#AFAFAF" stroke-width="0.6423"/>
<path d="M11 8.3L12.25 9.55C12.3417 9.64167 12.3875 9.75833 12.3875 9.9C12.3875 10.0417 12.3417 10.1583 12.25 10.25C12.1583 10.3417 12.0417 10.3875 11.9 10.3875C11.7583 10.3875 11.6417 10.3417 11.55 10.25L10.15 8.85C10.1 8.8 10.0625 8.74367 10.0375 8.681C10.0125 8.61867 10 8.55417 10 8.4875V6.5C10 6.35833 10.048 6.2395 10.144 6.1435C10.2397 6.04783 10.3583 6 10.5 6C10.6417 6 10.7605 6.04783 10.8565 6.1435C10.9522 6.2395 11 6.35833 11 6.5V8.3ZM10.5 13C9.49167 13 8.5875 12.702 7.7875 12.106C6.9875 11.5103 6.45 10.7333 6.175 9.775C6.13333 9.625 6.148 9.48333 6.219 9.35C6.28967 9.21667 6.4 9.13333 6.55 9.1C6.69167 9.06667 6.81883 9.09783 6.9315 9.1935C7.04383 9.2895 7.12083 9.40833 7.1625 9.55C7.37917 10.2833 7.798 10.875 8.419 11.325C9.03967 11.775 9.73333 12 10.5 12C11.475 12 12.302 11.6603 12.981 10.981C13.6603 10.302 14 9.475 14 8.5C14 7.525 13.6603 6.69783 12.981 6.0185C12.302 5.3395 11.475 5 10.5 5C9.925 5 9.3875 5.13333 8.8875 5.4C8.3875 5.66667 7.96667 6.03333 7.625 6.5H8.5C8.64167 6.5 8.7605 6.54783 8.8565 6.6435C8.95217 6.7395 9 6.85833 9 7C9 7.14167 8.95217 7.26033 8.8565 7.356C8.7605 7.452 8.64167 7.5 8.5 7.5H6.5C6.35833 7.5 6.23967 7.452 6.144 7.356C6.048 7.26033 6 7.14167 6 7V5C6 4.85833 6.048 4.7395 6.144 4.6435C6.23967 4.54783 6.35833 4.5 6.5 4.5C6.64167 4.5 6.7605 4.54783 6.8565 4.6435C6.95217 4.7395 7 4.85833 7 5V5.675C7.425 5.14167 7.94383 4.72917 8.5565 4.4375C9.16883 4.14583 9.81667 4 10.5 4C11.125 4 11.7105 4.11867 12.2565 4.356C12.8022 4.59367 13.2772 4.9145 13.6815 5.3185C14.0855 5.72283 14.4063 6.19783 14.644 6.7435C14.8813 7.2895 15 7.875 15 8.5C15 9.125 14.8813 9.71033 14.644 10.256C14.4063 10.802 14.0855 11.277 13.6815 11.681C13.2772 12.0853 12.8022 12.4063 12.2565 12.644C11.7105 12.8813 11.125 13 10.5 13Z" fill="#AFAFAF"/>
</svg>
