<svg width="21" height="18" viewBox="0 0 21 18" fill="none" xmlns="http://www.w3.org/2000/svg">
<mask id="path-1-outside-1_7305_15849" maskUnits="userSpaceOnUse" x="5" y="3.25586" width="11" height="11" fill="black">
<rect fill="white" x="5" y="3.25586" width="11" height="11"/>
<path d="M10.4934 13.4259C8.01743 13.4259 6 11.4084 6 8.93256C6 6.45669 8.01743 4.43926 10.4934 4.43926C11.5389 4.43926 12.4944 4.79982 13.315 5.43155C13.3166 5.4328 13.3185 5.43353 13.3205 5.43364C13.3225 5.43375 13.3245 5.43323 13.3263 5.43215C13.328 5.43107 13.3293 5.42949 13.3301 5.42762C13.3309 5.42576 13.3311 5.42369 13.3307 5.42171L13.153 4.57784C13.1529 4.57718 13.1529 4.57651 13.153 4.57585C13.153 4.52997 13.153 4.44019 13.1978 4.39444L13.1994 4.39218C13.2449 4.3013 13.2904 4.25586 13.3361 4.25586H13.3813C13.473 4.25586 13.6106 4.34749 13.6106 4.43926L13.9314 6.08842C13.9315 6.08904 13.9315 6.08967 13.9314 6.09028V6.13524C13.9314 6.27276 13.8396 6.36439 13.748 6.36439L12.0988 6.68518H12.052C11.9604 6.68518 11.8227 6.59341 11.8227 6.50178C11.8227 6.45589 11.8227 6.36426 11.8686 6.31837C11.9145 6.27249 11.9603 6.22674 12.0061 6.22674L13.179 6.00065C13.1809 6.00031 13.1825 5.99947 13.1839 5.99822C13.1853 5.99697 13.1863 5.99537 13.1868 5.99359C13.1873 5.99181 13.1873 5.98992 13.1868 5.98813C13.1863 5.98635 13.1853 5.98474 13.184 5.98349C12.322 5.18351 11.1476 4.82349 9.95479 4.97697C8.13167 5.21344 6.71366 6.68372 6.526 8.51256C6.28967 10.817 8.02461 12.7786 10.2477 12.914C12.5485 13.0541 14.4829 11.2053 14.4824 8.90091C14.4824 8.66816 14.4809 8.46774 14.4494 8.2709C14.4414 8.22103 14.4263 8.15453 14.416 8.10439C14.4082 8.06945 14.4041 8.03379 14.4038 7.99799C14.4056 7.98323 14.4101 7.96894 14.4171 7.95583C14.4291 7.93242 14.4739 7.84943 14.6194 7.83281H14.6653C14.8027 7.83281 14.8837 7.93229 14.94 8.10612V8.10771C14.9851 8.22475 15.0313 8.58145 15.0315 8.93229C15.0341 11.4086 12.9684 13.4256 10.4924 13.4256L10.4934 13.4259Z"/>
</mask>
<path d="M10.4934 13.4259C8.01743 13.4259 6 11.4084 6 8.93256C6 6.45669 8.01743 4.43926 10.4934 4.43926C11.5389 4.43926 12.4944 4.79982 13.315 5.43155C13.3166 5.4328 13.3185 5.43353 13.3205 5.43364C13.3225 5.43375 13.3245 5.43323 13.3263 5.43215C13.328 5.43107 13.3293 5.42949 13.3301 5.42762C13.3309 5.42576 13.3311 5.42369 13.3307 5.42171L13.153 4.57784C13.1529 4.57718 13.1529 4.57651 13.153 4.57585C13.153 4.52997 13.153 4.44019 13.1978 4.39444L13.1994 4.39218C13.2449 4.3013 13.2904 4.25586 13.3361 4.25586H13.3813C13.473 4.25586 13.6106 4.34749 13.6106 4.43926L13.9314 6.08842C13.9315 6.08904 13.9315 6.08967 13.9314 6.09028V6.13524C13.9314 6.27276 13.8396 6.36439 13.748 6.36439L12.0988 6.68518H12.052C11.9604 6.68518 11.8227 6.59341 11.8227 6.50178C11.8227 6.45589 11.8227 6.36426 11.8686 6.31837C11.9145 6.27249 11.9603 6.22674 12.0061 6.22674L13.179 6.00065C13.1809 6.00031 13.1825 5.99947 13.1839 5.99822C13.1853 5.99697 13.1863 5.99537 13.1868 5.99359C13.1873 5.99181 13.1873 5.98992 13.1868 5.98813C13.1863 5.98635 13.1853 5.98474 13.184 5.98349C12.322 5.18351 11.1476 4.82349 9.95479 4.97697C8.13167 5.21344 6.71366 6.68372 6.526 8.51256C6.28967 10.817 8.02461 12.7786 10.2477 12.914C12.5485 13.0541 14.4829 11.2053 14.4824 8.90091C14.4824 8.66816 14.4809 8.46774 14.4494 8.2709C14.4414 8.22103 14.4263 8.15453 14.416 8.10439C14.4082 8.06945 14.4041 8.03379 14.4038 7.99799C14.4056 7.98323 14.4101 7.96894 14.4171 7.95583C14.4291 7.93242 14.4739 7.84943 14.6194 7.83281H14.6653C14.8027 7.83281 14.8837 7.93229 14.94 8.10612V8.10771C14.9851 8.22475 15.0313 8.58145 15.0315 8.93229C15.0341 11.4086 12.9684 13.4256 10.4924 13.4256L10.4934 13.4259Z" fill="#AFAFAF"/>
<path d="M10.4934 13.4259V13.6259L10.542 13.2318L10.4934 13.4259ZM13.315 5.43155L13.4385 5.27426L13.437 5.27307L13.315 5.43155ZM13.3307 5.42171L13.1349 5.46292L13.1353 5.46442L13.3307 5.42171ZM13.153 4.57784L12.9541 4.59868L12.9551 4.60895L12.9573 4.61905L13.153 4.57784ZM13.153 4.57585L13.3519 4.59668L13.353 4.58629V4.57585H13.153ZM13.1978 4.39444L13.3407 4.5344L13.3519 4.52292L13.3612 4.5098L13.1978 4.39444ZM13.1994 4.39218L13.3628 4.50754L13.3715 4.4952L13.3782 4.48169L13.1994 4.39218ZM13.6106 4.43926H13.4106V4.45853L13.4143 4.47745L13.6106 4.43926ZM13.9314 6.08842L14.1305 6.06976L14.1296 6.05993L14.1277 6.05024L13.9314 6.08842ZM13.9314 6.09028L13.7323 6.07162L13.7314 6.08093V6.09028H13.9314ZM13.748 6.36439V6.16439H13.7287L13.7098 6.16807L13.748 6.36439ZM12.0988 6.68518V6.88518H12.1181L12.137 6.8815L12.0988 6.68518ZM12.0061 6.22674V6.42674H12.0252L12.044 6.42312L12.0061 6.22674ZM13.179 6.00065L13.1425 5.80401L13.1412 5.80426L13.179 6.00065ZM13.184 5.98349L13.0479 6.13008L13.0487 6.13086L13.184 5.98349ZM9.95479 4.97697L9.92927 4.7786L9.92907 4.77863L9.95479 4.97697ZM6.526 8.51256L6.32705 8.49214L6.32705 8.49215L6.526 8.51256ZM10.2477 12.914L10.2598 12.7143L10.2598 12.7143L10.2477 12.914ZM14.4824 8.90091H14.2824V8.90095L14.4824 8.90091ZM14.4494 8.2709L14.2519 8.3025L14.2519 8.30253L14.4494 8.2709ZM14.416 8.10439L14.612 8.06436L14.6112 8.06072L14.416 8.10439ZM14.4038 7.99799L14.2052 7.97408L14.2037 7.98688L14.2038 7.99977L14.4038 7.99799ZM14.4171 7.95583L14.5935 8.0502L14.5952 8.04689L14.4171 7.95583ZM14.6194 7.83281V7.63281H14.608L14.5967 7.6341L14.6194 7.83281ZM14.94 8.10612H15.14V8.07449L15.1303 8.0444L14.94 8.10612ZM14.94 8.10771H14.74V8.1449L14.7534 8.17961L14.94 8.10771ZM15.0315 8.93229L14.8315 8.93245V8.9325L15.0315 8.93229ZM10.4924 13.4256V13.2256L10.4438 13.6196L10.4924 13.4256ZM10.4934 13.2259C8.12788 13.2259 6.2 11.298 6.2 8.93256H5.8C5.8 11.5189 7.90698 13.6259 10.4934 13.6259V13.2259ZM6.2 8.93256C6.2 6.56715 8.12788 4.63926 10.4934 4.63926V4.23926C7.90698 4.23926 5.8 6.34623 5.8 8.93256H6.2ZM10.4934 4.63926C11.4904 4.63926 12.4037 4.98242 13.193 5.59003L13.437 5.27307C12.585 4.61721 11.5874 4.23926 10.4934 4.23926V4.63926ZM13.1914 5.58884C13.2254 5.61553 13.2668 5.63108 13.31 5.63336L13.3311 5.23392C13.3702 5.23599 13.4077 5.25008 13.4385 5.27426L13.1914 5.58884ZM13.31 5.63336C13.3531 5.63564 13.3959 5.62455 13.4325 5.60159L13.22 5.26271C13.2532 5.24191 13.292 5.23185 13.3311 5.23392L13.31 5.63336ZM13.4325 5.60159C13.4691 5.57863 13.4978 5.54492 13.5145 5.50509L13.1457 5.35016C13.1609 5.31406 13.1868 5.28352 13.22 5.26271L13.4325 5.60159ZM13.5145 5.50509C13.5312 5.46525 13.5353 5.42121 13.526 5.379L13.1353 5.46442C13.1269 5.42616 13.1306 5.38626 13.1457 5.35016L13.5145 5.50509ZM13.5264 5.3805L13.3487 4.53664L12.9573 4.61905L13.1349 5.46292L13.5264 5.3805ZM13.3519 4.55701C13.3533 4.5702 13.3533 4.5835 13.3519 4.59668L12.9541 4.55502C12.9525 4.56953 12.9525 4.58416 12.9541 4.59868L13.3519 4.55701ZM13.353 4.57585C13.353 4.56418 13.353 4.55411 13.3535 4.54356C13.3539 4.53308 13.3548 4.52447 13.3559 4.51771C13.3571 4.51062 13.358 4.5088 13.3573 4.51069C13.3565 4.51257 13.3522 4.52261 13.3407 4.5344L13.0549 4.25448C12.9894 4.32133 12.9692 4.40455 12.9612 4.45248C12.9526 4.50472 12.953 4.55411 12.953 4.57585H13.353ZM13.3612 4.5098L13.3628 4.50754L13.036 4.27683L13.0344 4.27909L13.3612 4.5098ZM13.3782 4.48169C13.3867 4.46473 13.394 4.45234 13.3998 4.44363C13.4058 4.43475 13.409 4.43148 13.4089 4.43157C13.4089 4.43159 13.4032 4.43736 13.391 4.4434C13.378 4.4499 13.3591 4.45586 13.3361 4.45586V4.05586C13.2418 4.05586 13.1712 4.1037 13.1265 4.14831C13.0822 4.19245 13.048 4.24776 13.0205 4.30267L13.3782 4.48169ZM13.3361 4.45586H13.3813V4.05586H13.3361V4.45586ZM13.3813 4.45586C13.3764 4.45586 13.3744 4.45529 13.3756 4.45554C13.3766 4.45576 13.3793 4.45644 13.3834 4.45802C13.3919 4.46135 13.4018 4.46673 13.4104 4.47318C13.4194 4.47995 13.4222 4.4842 13.4213 4.48286C13.4206 4.48189 13.4106 4.46669 13.4106 4.43926H13.8106C13.8106 4.29801 13.7132 4.20031 13.6503 4.15311C13.5817 4.10168 13.4832 4.05586 13.3813 4.05586V4.45586ZM13.4143 4.47745L13.7351 6.12661L14.1277 6.05024L13.8069 4.40107L13.4143 4.47745ZM13.7323 6.10709C13.7312 6.09529 13.7312 6.08342 13.7323 6.07162L14.1305 6.10895C14.1317 6.09592 14.1317 6.08279 14.1305 6.06976L13.7323 6.10709ZM13.7314 6.09028V6.13524H14.1314V6.09028H13.7314ZM13.7314 6.13524C13.7314 6.15898 13.7238 6.16936 13.7223 6.17117C13.7194 6.17448 13.7262 6.16439 13.748 6.16439V6.56439C13.9778 6.56439 14.1314 6.35333 14.1314 6.13524H13.7314ZM13.7098 6.16807L12.0606 6.48886L12.137 6.8815L13.7862 6.56071L13.7098 6.16807ZM12.0988 6.48518H12.052V6.88518H12.0988V6.48518ZM12.052 6.48518C12.0569 6.48518 12.059 6.48575 12.0578 6.48551C12.0568 6.48529 12.0541 6.4846 12.0501 6.48302C12.0415 6.47969 12.0316 6.47431 12.023 6.46783C12.014 6.46105 12.0112 6.45678 12.012 6.4581C12.0127 6.45903 12.0227 6.47426 12.0227 6.50178H11.6227C11.6227 6.64299 11.7201 6.7407 11.783 6.78785C11.8516 6.83927 11.9501 6.88518 12.052 6.88518V6.48518ZM12.0227 6.50178C12.0227 6.49012 12.0228 6.47997 12.0232 6.4693C12.0237 6.45869 12.0246 6.44991 12.0257 6.44299C12.027 6.43572 12.028 6.43383 12.0272 6.43571C12.0264 6.43759 12.022 6.44785 12.01 6.4598L11.7272 6.17695C11.66 6.2442 11.6393 6.32885 11.6312 6.37717C11.6224 6.43003 11.6227 6.47999 11.6227 6.50178H12.0227ZM12.01 6.4598C12.0219 6.44789 12.0311 6.43876 12.0398 6.43061C12.0484 6.42254 12.054 6.41791 12.0573 6.41538C12.0609 6.41269 12.0589 6.4148 12.0518 6.41788C12.0443 6.42116 12.0283 6.42674 12.0061 6.42674V6.02674C11.918 6.02674 11.8519 6.06946 11.8174 6.09532C11.7809 6.12271 11.7475 6.15663 11.7272 6.17695L12.01 6.4598ZM12.044 6.42312L13.2169 6.19703L13.1412 5.80426L11.9683 6.03036L12.044 6.42312ZM13.2156 6.19728C13.2539 6.19015 13.2896 6.17247 13.3184 6.14623L13.0494 5.85021C13.0755 5.82646 13.1078 5.81046 13.1425 5.80401L13.2156 6.19728ZM13.3184 6.14623C13.3473 6.12 13.3683 6.08623 13.379 6.04873L12.9946 5.93845C13.0043 5.90451 13.0233 5.87395 13.0494 5.85021L13.3184 6.14623ZM13.379 6.04873C13.3898 6.01122 13.3899 5.97146 13.3793 5.93392L12.9943 6.04235C12.9847 6.00837 12.9848 5.97239 12.9946 5.93845L13.379 6.04873ZM13.3793 5.93392C13.3688 5.89638 13.3479 5.86251 13.3192 5.83612L13.0487 6.13086C13.0227 6.10698 13.0039 6.07632 12.9943 6.04235L13.3793 5.93392ZM13.32 5.8369C12.4126 4.99472 11.1783 4.6179 9.92927 4.7786L9.98032 5.17533C11.117 5.02908 12.2314 5.3723 13.0479 6.13008L13.32 5.8369ZM9.92907 4.77863C8.01298 5.02716 6.52408 6.57193 6.32705 8.49214L6.72496 8.53297C6.90324 6.79551 8.25036 5.39972 9.98052 5.17531L9.92907 4.77863ZM6.32705 8.49215C6.07892 10.9116 7.90088 12.9714 10.2355 13.1136L10.2598 12.7143C8.14834 12.5857 6.50042 10.7224 6.72496 8.53296L6.32705 8.49215ZM10.2355 13.1136C12.6532 13.2609 14.683 11.3187 14.6824 8.90086L14.2824 8.90095C14.2829 11.092 12.4438 12.8474 10.2598 12.7143L10.2355 13.1136ZM14.6824 8.90091C14.6824 8.67014 14.6813 8.4542 14.6469 8.23928L14.2519 8.30253C14.2806 8.48127 14.2824 8.66619 14.2824 8.90091H14.6824ZM14.6469 8.2393C14.638 8.18389 14.6207 8.10677 14.612 8.06437L14.2201 8.14441C14.2319 8.20229 14.2448 8.25817 14.2519 8.3025L14.6469 8.2393ZM14.6112 8.06072C14.6065 8.03954 14.604 8.01792 14.6038 7.99622L14.2038 7.99977C14.2043 8.04966 14.21 8.09937 14.2209 8.14806L14.6112 8.06072ZM14.6024 8.0219C14.6012 8.0318 14.5982 8.0414 14.5934 8.05019L14.2408 7.86148C14.222 7.89648 14.21 7.93467 14.2052 7.97408L14.6024 8.0219ZM14.5952 8.04689C14.5962 8.04484 14.596 8.04541 14.5956 8.04593C14.5953 8.04635 14.5954 8.04611 14.5962 8.04539C14.597 8.04477 14.5997 8.0426 14.6058 8.04003C14.612 8.03742 14.6234 8.03365 14.6421 8.03152L14.5967 7.6341C14.4866 7.64668 14.4021 7.68652 14.3401 7.73816C14.2793 7.78886 14.2503 7.84273 14.239 7.86477L14.5952 8.04689ZM14.6194 8.03281H14.6653V7.63281H14.6194V8.03281ZM14.6653 8.03281C14.6748 8.03281 14.6783 8.03439 14.6787 8.03458C14.6793 8.03482 14.6824 8.03615 14.6883 8.04236C14.7029 8.05756 14.7256 8.09318 14.7498 8.16783L15.1303 8.0444C15.0981 7.94523 15.0522 7.8442 14.9777 7.7662C14.8964 7.681 14.7899 7.63281 14.6653 7.63281V8.03281ZM14.74 8.10612V8.10771H15.14V8.10612H14.74ZM14.7534 8.17961C14.766 8.21216 14.7868 8.30796 14.8039 8.45547C14.8203 8.59589 14.8314 8.76509 14.8315 8.93245L15.2315 8.93214C15.2314 8.74865 15.2193 8.56408 15.2013 8.40918C15.184 8.26137 15.1592 8.1203 15.1267 8.03582L14.7534 8.17961ZM14.8315 8.9325C14.834 11.2953 12.8608 13.2256 10.4924 13.2256V13.6256C13.076 13.6256 15.2342 11.5218 15.2315 8.93209L14.8315 8.9325ZM10.4438 13.6196L10.4449 13.6199L10.542 13.2318L10.5409 13.2316L10.4438 13.6196Z" fill="#AFAFAF" mask="url(#path-1-outside-1_7305_15849)"/>
<rect x="0.32115" y="0.32115" width="20.1387" height="17.1518" rx="2.89035" stroke="#AFAFAF" stroke-width="0.6423"/>
</svg>
