<svg width="29" height="53" viewBox="0 0 29 53" fill="none" xmlns="http://www.w3.org/2000/svg">
<path d="M-5.54654e-07 45.9973C-2.48327e-07 49.5013 2.84054 52.3418 6.34451 52.3418L28.5503 52.3418L28.5503 -0.000437371L6.34451 -0.00043543C2.84053 -0.000435124 -4.32758e-06 2.8401 -4.02125e-06 6.34408L-5.54654e-07 45.9973Z" fill="#383738"/>
<path d="M20.6851 26.289L20.6851 26.2888C20.6814 26.0556 20.587 25.833 20.422 25.6681C20.422 25.668 20.422 25.668 20.422 25.668L13.8228 19.0695C13.7404 18.9842 13.6419 18.916 13.5331 18.869C13.4234 18.8216 13.3054 18.7965 13.1859 18.7953C13.0664 18.7941 12.9479 18.8167 12.8373 18.8619C12.7267 18.9071 12.6262 18.9738 12.5418 19.0583C12.4573 19.1428 12.3905 19.2432 12.3453 19.3539C12.3002 19.4645 12.2775 19.583 12.2788 19.7024C12.28 19.8219 12.305 19.9399 12.3524 20.0496C12.3995 20.1584 12.4676 20.2569 12.5529 20.3393L18.5172 26.303L12.553 32.2666C12.4676 32.349 12.3995 32.4475 12.3524 32.5563C12.305 32.666 12.28 32.784 12.2787 32.9035C12.2775 33.023 12.3002 33.1415 12.3453 33.2521C12.3905 33.3627 12.4573 33.4631 12.5418 33.5476C12.6262 33.6321 12.7267 33.6989 12.8373 33.744C12.9479 33.7892 13.0664 33.8118 13.1859 33.8106C13.3054 33.8094 13.4234 33.7843 13.5331 33.7369C13.6419 33.6899 13.7404 33.6217 13.8228 33.5364L20.422 26.9379C20.422 26.9379 20.422 26.9379 20.422 26.9379C20.5071 26.8528 20.5742 26.7516 20.6194 26.6401C20.6646 26.5287 20.6869 26.4093 20.6851 26.289Z" fill="white" stroke="white" stroke-width="0.475838"/>
</svg>
