<svg width="12" height="8" viewBox="0 0 12 8" fill="none" xmlns="http://www.w3.org/2000/svg">
<path d="M0.52087 4.46829L9.76641 4.46829L7.22583 7.00887C7.02279 7.21191 7.02279 7.5451 7.22583 7.74814C7.27399 7.7964 7.3312 7.83469 7.39418 7.86082C7.45716 7.88694 7.52467 7.90039 7.59286 7.90039C7.66104 7.90039 7.72856 7.88694 7.79154 7.86082C7.85452 7.83469 7.91173 7.7964 7.95989 7.74814L11.3907 4.31731C11.439 4.26915 11.4773 4.21194 11.5034 4.14896C11.5295 4.08598 11.543 4.01846 11.543 3.95028C11.543 3.8821 11.5295 3.81458 11.5034 3.7516C11.4773 3.68862 11.439 3.63141 11.3907 3.58325L7.95989 0.152418C7.91169 0.104219 7.85447 0.0659866 7.79149 0.0399014C7.72852 0.0138162 7.66102 0.000390318 7.59286 0.000390312C7.5247 0.000390305 7.4572 0.0138161 7.39422 0.0399013C7.33125 0.0659866 7.27403 0.104219 7.22583 0.152418C7.17763 0.200617 7.1394 0.257839 7.11331 0.320814C7.08723 0.383789 7.0738 0.451287 7.0738 0.519451C7.0738 0.587615 7.08723 0.65511 7.11331 0.718086C7.1394 0.781061 7.17763 0.838282 7.22583 0.886482L9.76641 3.42707L0.52087 3.42707C0.234534 3.42707 0.000259186 3.66134 0.000259161 3.94768C0.000259136 4.23401 0.234534 4.46829 0.52087 4.46829Z" fill="black"/>
</svg>
