<svg width="11" height="11" viewBox="0 0 11 11" fill="none" xmlns="http://www.w3.org/2000/svg">
<path d="M4.5992 0.630859C2.4673 0.630859 0.730469 2.36769 0.730469 4.49959C0.730469 6.63149 2.4673 8.36832 4.5992 8.36832C5.52139 8.36832 6.36913 8.04256 7.03487 7.50119L9.65242 10.1187C9.68929 10.1571 9.73347 10.1878 9.78234 10.2089C9.83122 10.2301 9.88382 10.2412 9.93706 10.2418C9.99031 10.2423 10.0431 10.2322 10.0924 10.2121C10.1417 10.192 10.1865 10.1622 10.2242 10.1245C10.2618 10.0869 10.2916 10.0421 10.3117 9.99281C10.3318 9.94352 10.3419 9.8907 10.3414 9.83745C10.3408 9.78421 10.3297 9.73161 10.3085 9.68273C10.2874 9.63386 10.2568 9.58968 10.2183 9.55281L7.6008 6.93526C8.14217 6.26952 8.46793 5.42178 8.46793 4.49959C8.46793 2.36769 6.7311 0.630859 4.5992 0.630859ZM4.5992 1.43129C6.29852 1.43129 7.6675 2.80027 7.6675 4.49959C7.6675 5.32739 7.34098 6.07529 6.81132 6.62625C6.77867 6.65024 6.74985 6.67906 6.72585 6.71171C6.1749 7.24137 5.427 7.56789 4.5992 7.56789C2.89988 7.56789 1.5309 6.19891 1.5309 4.49959C1.5309 2.80027 2.89988 1.43129 4.5992 1.43129Z" fill="#AFAFAF"/>
</svg>
