<svg width="31" height="18" viewBox="0 0 31 18" fill="none" xmlns="http://www.w3.org/2000/svg">
<path d="M0.837212 1.38973L0.616202 1.29927C0.373138 1.89308 0.517669 2.57229 0.974672 3.01797L14.3302 16.3735C14.9452 16.9885 15.9416 16.9885 16.5566 16.3735L29.9116 3.0185C30.377 2.57009 30.5246 1.87939 30.2725 1.27938C30.0233 0.679947 29.433 0.296068 28.785 0.308339L28.7825 0.308413C28.3671 0.320633 27.9742 0.491676 27.6851 0.792118L15.4434 13.0338L3.20172 0.792164C3.20142 0.79186 3.20112 0.791556 3.20082 0.791252C2.90331 0.48809 2.49802 0.316136 2.07113 0.316136C1.43044 0.316136 0.855474 0.707216 0.615802 1.30025L0.837212 1.38973ZM0.837212 1.38973C1.04069 0.886251 1.52852 0.554944 2.07113 0.554944C2.43374 0.554944 2.77809 0.701033 3.03114 0.959295L16.3877 16.2046C15.866 16.7264 15.0208 16.7264 14.499 16.2046L1.14243 2.848C0.753734 2.46974 0.631125 1.89321 0.837212 1.38973Z" fill="#2D2D32" stroke="#2D2D32" stroke-width="0.477617"/>
</svg>
