<svg width="25" height="14" viewBox="0 0 25 14" fill="none" xmlns="http://www.w3.org/2000/svg">
<path d="M1.07607 1.62887L0.892182 1.5513C0.700799 2.00502 0.815498 2.52293 1.17269 2.86102L11.4413 12.8256C11.9199 13.2901 12.6929 13.2901 13.1715 12.8256L23.4397 2.86148C23.8033 2.52137 23.9205 1.99475 23.722 1.5363C23.5263 1.07952 23.0654 0.791423 22.5643 0.800632L22.5623 0.80069C22.2406 0.80987 21.9352 0.938343 21.7095 1.1659L12.3064 10.2905L2.90336 1.16591C2.90311 1.16566 2.90285 1.16541 2.9026 1.16516C2.67041 0.935601 2.35537 0.806448 2.0248 0.806448C1.52915 0.806448 1.08008 1.10014 0.891832 1.55214L1.07607 1.62887ZM1.07607 1.62887C1.23252 1.25321 1.6076 1.00602 2.0248 1.00602C2.3036 1.00602 2.56836 1.11502 2.76292 1.30771L13.0325 12.6824C12.6313 13.0717 11.9815 13.0717 11.5803 12.6824L1.31074 2.7169C1.01188 2.43467 0.91761 2.00452 1.07607 1.62887Z" fill="#2D2D32" stroke="#2D2D32" stroke-width="0.399146"/>
</svg>
