<svg width="37" height="23" viewBox="0 0 37 23" fill="none" xmlns="http://www.w3.org/2000/svg">
<rect x="0.25" y="0.25" width="36.5" height="22.5" rx="1.75" stroke="#E2E2EA" stroke-width="0.5"/>
<path d="M21.5 11H24.5C24.7652 11 25.0196 10.8946 25.2071 10.7071C25.3946 10.5196 25.5 10.2652 25.5 10V7C25.5 6.73478 25.3946 6.48043 25.2071 6.29289C25.0196 6.10536 24.7652 6 24.5 6H21.5C21.2348 6 20.9804 6.10536 20.7929 6.29289C20.6054 6.48043 20.5 6.73478 20.5 7V8H20C19.4701 8.00165 18.9623 8.21289 18.5876 8.58761C18.2129 8.96232 18.0016 9.47007 18 10V11.5H16.5V10.75C16.5 10.4848 16.3946 10.2304 16.2071 10.0429C16.0196 9.85536 15.7652 9.75 15.5 9.75H13C12.7348 9.75 12.4804 9.85536 12.2929 10.0429C12.1054 10.2304 12 10.4848 12 10.75V13.25C12 13.5152 12.1054 13.7696 12.2929 13.9571C12.4804 14.1446 12.7348 14.25 13 14.25H15.5C15.7652 14.25 16.0196 14.1446 16.2071 13.9571C16.3946 13.7696 16.5 13.5152 16.5 13.25V12.5H18V14C18.0016 14.5299 18.2129 15.0377 18.5876 15.4124C18.9623 15.7871 19.4701 15.9984 20 16H20.5V17C20.5 17.2652 20.6054 17.5196 20.7929 17.7071C20.9804 17.8946 21.2348 18 21.5 18H24.5C24.7652 18 25.0196 17.8946 25.2071 17.7071C25.3946 17.5196 25.5 17.2652 25.5 17V14C25.5 13.7348 25.3946 13.4804 25.2071 13.2929C25.0196 13.1054 24.7652 13 24.5 13H21.5C21.2348 13 20.9804 13.1054 20.7929 13.2929C20.6054 13.4804 20.5 13.7348 20.5 14V15H20C19.7348 15 19.4804 14.8946 19.2929 14.7071C19.1054 14.5196 19 14.2652 19 14V10C19 9.73478 19.1054 9.48043 19.2929 9.29289C19.4804 9.10536 19.7348 9 20 9H20.5V10C20.5 10.2652 20.6054 10.5196 20.7929 10.7071C20.9804 10.8946 21.2348 11 21.5 11ZM15.5 13.25H13V10.75H15.5V13.25ZM21.5 14H24.5V17H21.5V14ZM21.5 7H24.5V10H21.5V7Z" fill="#AFAFAF"/>
</svg>
