<svg width="9" height="15" viewBox="0 0 9 15" fill="none" xmlns="http://www.w3.org/2000/svg">
<path d="M0.337961 7.64173C0.340597 7.8138 0.411761 7.97811 0.535639 8.09972L7.28303 14.7237C7.45172 14.8971 7.70343 14.967 7.94064 14.9062C8.17653 14.8454 8.36103 14.6642 8.42297 14.4326C8.48491 14.1998 8.41375 13.9527 8.23715 13.7871L1.96682 7.63138L8.23715 1.4757C8.41375 1.3101 8.48491 1.06299 8.42297 0.830118C8.36103 0.598536 8.17653 0.417411 7.94064 0.356604C7.70342 0.295797 7.45172 0.36566 7.28303 0.539023L0.535639 7.16304C0.406489 7.28983 0.335325 7.4619 0.337961 7.64173Z" fill="#CACACA"/>
</svg>
