<svg width="9" height="15" viewBox="0 0 9 15" fill="none" xmlns="http://www.w3.org/2000/svg">
<path d="M8.24212 7.64173C8.23948 7.8138 8.16832 7.97811 8.04444 8.09972L1.29705 14.7237C1.12836 14.8971 0.876653 14.967 0.63944 14.9062C0.403544 14.8454 0.219045 14.6642 0.157106 14.4326C0.0951674 14.1998 0.166331 13.9527 0.342923 13.7871L6.61325 7.63138L0.342924 1.4757C0.166332 1.3101 0.095168 1.06299 0.157107 0.830118C0.219046 0.598536 0.403545 0.417411 0.63944 0.356604C0.876653 0.295798 1.12836 0.36566 1.29705 0.539023L8.04444 7.16304C8.17359 7.28983 8.24475 7.4619 8.24212 7.64173Z" fill="#CACACA"/>
</svg>
