<svg width="20" height="20" viewBox="0 0 20 20" fill="none" xmlns="http://www.w3.org/2000/svg">
<rect x="0.810428" y="0.283084" width="18.6174" height="18.6174" rx="1.33901" fill="white" stroke="#E2E2EA" stroke-width="0.382575"/>
<path fill-rule="evenodd" clip-rule="evenodd" d="M9.74981 5.22656C11.9176 5.22656 13.6808 6.99815 13.6808 9.17612C13.6808 10.2037 13.2884 11.1409 12.6461 11.8442L13.9099 13.1114C14.0282 13.2302 14.0286 13.4224 13.9103 13.5413C13.8514 13.6013 13.7735 13.6309 13.6959 13.6309C13.6188 13.6309 13.5413 13.6013 13.482 13.5421L12.2029 12.2606C11.5301 12.802 10.6769 13.1261 9.74981 13.1261C7.58204 13.1261 5.81836 11.3541 5.81836 9.17612C5.81836 6.99815 7.58204 5.22656 9.74981 5.22656ZM9.74981 5.83494C7.91588 5.83494 6.42388 7.33356 6.42388 9.17612C6.42388 11.0187 7.91588 12.5177 9.74981 12.5177C11.5833 12.5177 13.0753 11.0187 13.0753 9.17612C13.0753 7.33356 11.5833 5.83494 9.74981 5.83494Z" fill="#44444F"/>
</svg>
