<svg width="25" height="21" viewBox="0 0 25 21" fill="none" xmlns="http://www.w3.org/2000/svg">
<rect x="0.376025" y="0.376025" width="23.5798" height="20.0825" rx="3.38423" stroke="#AFAFAF" stroke-width="0.75205"/>
<path d="M12.1875 6C16.6875 6 18.375 10.5 18.375 10.5C18.375 10.5 16.6875 15 12.1875 15C7.6875 15 6 10.5 6 10.5C6 10.5 7.6875 6 12.1875 6ZM12.1875 7.6875C10.6344 7.6875 9.375 8.94694 9.375 10.5C9.375 12.0531 10.6344 13.3125 12.1875 13.3125C13.7406 13.3125 15 12.0531 15 10.5C15 8.94694 13.7406 7.6875 12.1875 7.6875ZM12.1875 8.8125C12.6351 8.8125 13.0643 8.99029 13.3807 9.30676C13.6972 9.62322 13.875 10.0524 13.875 10.5C13.875 10.9476 13.6972 11.3768 13.3807 11.6932C13.0643 12.0097 12.6351 12.1875 12.1875 12.1875C11.7399 12.1875 11.3107 12.0097 10.9943 11.6932C10.6778 11.3768 10.5 10.9476 10.5 10.5C10.5 10.0524 10.6778 9.62322 10.9943 9.30676C11.3107 8.99029 11.7399 8.8125 12.1875 8.8125Z" fill="#AFAFAF"/>
</svg>
