<svg width="25" height="21" viewBox="0 0 25 21" fill="none" xmlns="http://www.w3.org/2000/svg">
<rect x="0.376025" y="0.376025" width="23.5798" height="20.0825" rx="3.38423" stroke="#AFAFAF" stroke-width="0.75205"/>
<path d="M11.0941 6L10.5784 6.471H8V7.413H8.51568V14.478C8.51568 14.724 8.61435 14.9747 8.80878 15.1523C9.00321 15.3299 9.27775 15.42 9.54705 15.42H14.7039C14.9732 15.42 15.2477 15.3299 15.4422 15.1523C15.6366 14.9747 15.7353 14.724 15.7353 14.478V7.413H16.2509V6.471H13.6725L13.1568 6H11.0941ZM9.54705 7.413H14.7039V14.478H9.54705V7.413ZM10.5784 8.355V13.536H11.6098V8.355H10.5784ZM12.6412 8.355V13.536H13.6725V8.355H12.6412Z" fill="#AFAFAF"/>
</svg>
