<svg width="48" height="42" viewBox="0 0 48 42" fill="none" xmlns="http://www.w3.org/2000/svg">
<rect x="0.886195" y="1.30026" width="46.1409" height="39.2974" rx="6.62224" stroke="#9EA3AE" stroke-width="1.47161"/>
<path d="M23.957 13.5469C31.8221 13.5469 34.7715 21.412 34.7715 21.412C34.7715 21.412 31.8221 29.2771 23.957 29.2771C16.0919 29.2771 13.1425 21.412 13.1425 21.412C13.1425 21.412 16.0919 13.5469 23.957 13.5469ZM23.957 16.4963C21.2425 16.4963 19.0413 18.6975 19.0413 21.412C19.0413 24.1264 21.2425 26.3277 23.957 26.3277C26.6714 26.3277 28.8727 24.1264 28.8727 21.412C28.8727 18.6975 26.6714 16.4963 23.957 16.4963ZM23.957 18.4626C24.7392 18.4626 25.4894 18.7733 26.0425 19.3264C26.5956 19.8795 26.9064 20.6297 26.9064 21.412C26.9064 22.1942 26.5956 22.9444 26.0425 23.4975C25.4894 24.0506 24.7392 24.3614 23.957 24.3614C23.1747 24.3614 22.4245 24.0506 21.8714 23.4975C21.3183 22.9444 21.0076 22.1942 21.0076 21.412C21.0076 20.6297 21.3183 19.8795 21.8714 19.3264C22.4245 18.7733 23.1747 18.4626 23.957 18.4626Z" fill="#9EA3AE"/>
</svg>
