<svg width="12" height="8" viewBox="0 0 12 8" fill="none" xmlns="http://www.w3.org/2000/svg">
<path d="M10.7805 0.910805L10.7795 0.910832C10.6242 0.915401 10.4773 0.97936 10.3692 1.0917L5.79164 5.66923L1.21412 1.09172C1.21401 1.09161 1.2139 1.09149 1.21379 1.09138C1.10254 0.978019 0.950988 0.91372 0.791361 0.91372C0.551852 0.91372 0.336911 1.05987 0.247245 1.28152C0.156461 1.50353 0.210522 1.75741 0.381362 1.92401L5.37538 6.91803C5.60534 7.14799 5.97794 7.14799 6.2079 6.91803L11.2017 1.92421C11.3757 1.75655 11.4309 1.4983 11.3367 1.27395C11.2435 1.04978 11.0228 0.906216 10.7805 0.910805Z" fill="#2D2D32" stroke="#2D2D32" stroke-width="0.178595"/>
</svg>
