<svg width="23" height="17" viewBox="0 0 23 17" fill="none" xmlns="http://www.w3.org/2000/svg">
<path d="M11.5664 0.802734C19.4314 0.802734 22.3809 8.66783 22.3809 8.66783C22.3809 8.66783 19.4314 16.5329 11.5664 16.5329C3.70126 16.5329 0.751844 8.66783 0.751844 8.66783C0.751844 8.66783 3.70126 0.802734 11.5664 0.802734ZM11.5664 3.75215C8.85191 3.75215 6.65067 5.95339 6.65067 8.66783C6.65067 11.3823 8.85191 13.5835 11.5664 13.5835C14.2808 13.5835 16.482 11.3823 16.482 8.66783C16.482 5.95339 14.2808 3.75215 11.5664 3.75215ZM11.5664 5.71842C12.3486 5.71842 13.0988 6.02916 13.6519 6.58228C14.205 7.1354 14.5158 7.8856 14.5158 8.66783C14.5158 9.45006 14.205 10.2003 13.6519 10.7534C13.0988 11.3065 12.3486 11.6172 11.5664 11.6172C10.7841 11.6172 10.0339 11.3065 9.4808 10.7534C8.92768 10.2003 8.61694 9.45006 8.61694 8.66783C8.61694 7.8856 8.92768 7.1354 9.4808 6.58228C10.0339 6.02916 10.7841 5.71842 11.5664 5.71842Z" fill="#9EA3AE"/>
</svg>
