<svg width="10" height="10" viewBox="0 0 10 10" fill="none" xmlns="http://www.w3.org/2000/svg">
<path d="M5.55556 4.44444H9.44444C9.59179 4.44444 9.7331 4.50298 9.83728 4.60716C9.94147 4.71135 10 4.85266 10 5C10 5.14734 9.94147 5.28865 9.83728 5.39284C9.7331 5.49702 9.59179 5.55556 9.44444 5.55556H5.55556V9.44444C5.55556 9.59179 5.49702 9.7331 5.39284 9.83728C5.28865 9.94147 5.14734 10 5 10C4.85266 10 4.71135 9.94147 4.60716 9.83728C4.50298 9.7331 4.44444 9.59179 4.44444 9.44444V5.55556H0.555556C0.408213 5.55556 0.266905 5.49702 0.162718 5.39284C0.0585316 5.28865 0 5.14734 0 5C0 4.85266 0.0585316 4.71135 0.162718 4.60716C0.266905 4.50298 0.408213 4.44444 0.555556 4.44444H4.44444V0.555556C4.44444 0.408213 4.50298 0.266905 4.60716 0.162718C4.71135 0.0585316 4.85266 0 5 0C5.14734 0 5.28865 0.0585316 5.39284 0.162718C5.49702 0.266905 5.55556 0.408213 5.55556 0.555556V4.44444Z" fill="white"/>
</svg>
