<svg width="14" height="13" viewBox="0 0 14 13" fill="none" xmlns="http://www.w3.org/2000/svg">
<path d="M12.3666 2.50933H10.6311L8.81452 0.692721C8.75231 0.630282 8.67836 0.580764 8.59694 0.547019C8.51551 0.513273 8.42821 0.495967 8.34007 0.496094H5.65575C5.56761 0.495967 5.48031 0.513273 5.39888 0.547019C5.31746 0.580764 5.24351 0.630282 5.1813 0.692721L3.36468 2.50933H1.62927C0.889068 2.50933 0.287109 3.11129 0.287109 3.85149V11.2334C0.287109 11.9736 0.889068 12.5755 1.62927 12.5755H12.3666C13.1068 12.5755 13.7087 11.9736 13.7087 11.2334V3.85149C13.7087 3.11129 13.1068 2.50933 12.3666 2.50933ZM6.99791 10.5623C5.17928 10.5623 3.64251 9.02552 3.64251 7.20689C3.64251 5.38827 5.17928 3.85149 6.99791 3.85149C8.81654 3.85149 10.3533 5.38827 10.3533 7.20689C10.3533 9.02552 8.81654 10.5623 6.99791 10.5623Z" fill="white"/>
</svg>
