<svg width="30" height="30" viewBox="0 0 30 30" fill="none" xmlns="http://www.w3.org/2000/svg">
<rect x="0.5" y="0.5" width="29" height="29" rx="4.5" fill="white" stroke="#AFAFAF"/>
<path d="M18.4386 15.0079L18.4386 15.0079C18.4368 15.1299 18.3863 15.2462 18.2988 15.332L14.0391 19.5139C13.9199 19.6361 13.7427 19.685 13.576 19.6422L13.5759 19.6422C13.4099 19.5994 13.2794 19.4717 13.2356 19.3077L13.2356 19.3077C13.1917 19.1429 13.2421 18.9682 13.3666 18.8512L17.2888 15.0006L13.367 11.1505C13.3669 11.1504 13.3667 11.1502 13.3666 11.1501C13.242 11.033 13.1918 10.8583 13.2356 10.6936L13.2356 10.6935C13.2794 10.5295 13.4099 10.4018 13.5759 10.359L13.576 10.359C13.7427 10.3163 13.9199 10.3652 14.0391 10.4873C14.0392 10.4875 14.0393 10.4876 14.0395 10.4878L18.2988 14.6692C18.3901 14.7588 18.4405 14.8805 18.4386 15.0079Z" fill="#AFAFAF" stroke="#AFAFAF" stroke-width="0.1"/>
</svg>
