<svg width="11" height="11" viewBox="0 0 11 11" fill="none" xmlns="http://www.w3.org/2000/svg">
<path d="M1.22579 5.69196C1.16479 5.75299 1.12322 5.83068 1.1064 5.91509C1.08959 5.9995 1.09828 6.08679 1.13138 6.16581C1.16448 6.24483 1.22048 6.31199 1.29222 6.3587C1.36395 6.4054 1.44817 6.42953 1.5341 6.42801L5.37839 6.41186L5.36224 10.2562C5.36083 10.3136 5.3709 10.3707 5.39186 10.424C5.41281 10.4774 5.44424 10.5259 5.48429 10.5668C5.52434 10.6077 5.57221 10.6401 5.6251 10.6621C5.67799 10.6841 5.73484 10.6954 5.79231 10.6951C5.84978 10.6949 5.90672 10.6832 5.9598 10.6607C6.01288 10.6382 6.06102 10.6054 6.10142 10.5642C6.14181 10.523 6.17365 10.4742 6.19505 10.4207C6.21646 10.3671 6.227 10.31 6.22608 10.2525L6.24222 6.40823L10.0865 6.39209C10.144 6.39302 10.2011 6.38247 10.2546 6.36107C10.3082 6.33966 10.3569 6.30783 10.3982 6.26743C10.4394 6.22704 10.4722 6.17889 10.4947 6.12581C10.5172 6.07274 10.5289 6.01579 10.5291 5.95832C10.5294 5.90085 10.5181 5.84401 10.4961 5.79111C10.4741 5.73822 10.4416 5.69035 10.4008 5.6503C10.3599 5.61025 10.3113 5.57883 10.258 5.55787C10.2047 5.53691 10.1476 5.52685 10.0901 5.52826L6.24585 5.5444L6.26199 1.70012C6.26359 1.61307 6.23886 1.52779 6.19104 1.45546C6.14322 1.38312 6.07454 1.32711 5.994 1.29475C5.91346 1.26239 5.82482 1.2552 5.7397 1.27413C5.65457 1.29305 5.57693 1.3372 5.51695 1.40079C5.43962 1.48283 5.39701 1.59149 5.39816 1.70374L5.38202 5.54803L1.53773 5.56418C1.48001 5.56362 1.42266 5.57465 1.36909 5.59659C1.31551 5.61854 1.26678 5.65097 1.22579 5.69196Z" fill="#AFAFAF" stroke="#AFAFAF" stroke-width="0.55659"/>
</svg>
