<svg width="15" height="9" viewBox="0 0 15 9" fill="none" xmlns="http://www.w3.org/2000/svg">
<path d="M1.60617 8.35151L1.60617 8.35151L1.60754 8.35147C1.79785 8.34577 1.97744 8.26599 2.10932 8.12653L7.50157 2.63552L12.8938 8.12649C12.894 8.12666 12.8941 8.12683 12.8943 8.12699C13.0299 8.2677 13.2152 8.34801 13.411 8.34801C13.7051 8.34801 13.9671 8.16536 14.0761 7.89121C14.1862 7.61689 14.1209 7.30288 13.9128 7.09616L8.01093 1.08615C7.72981 0.799881 7.27334 0.799881 6.99222 1.08615L1.09057 7.09588C0.878697 7.30389 0.812034 7.62323 0.926338 7.90045C1.03956 8.17783 1.30876 8.35725 1.60617 8.35151Z" fill="#2D2D32" stroke="#2D2D32" stroke-width="0.257971"/>
</svg>
