<svg width="8" height="14" viewBox="0 0 8 14" fill="none" xmlns="http://www.w3.org/2000/svg">
<path d="M0.779363 7.0386C0.78168 7.18834 0.840473 7.33128 0.943294 7.43716L6.53882 13.2017C6.59038 13.257 6.65214 13.3012 6.72047 13.3316C6.78881 13.362 6.86236 13.3781 6.9368 13.3789C7.01124 13.3797 7.08509 13.3651 7.15401 13.3361C7.22294 13.3071 7.28555 13.2643 7.33819 13.2101C7.39084 13.1558 7.43245 13.0913 7.46059 13.0203C7.48873 12.9493 7.50283 12.8732 7.50207 12.7965C7.50131 12.7198 7.48571 12.6441 7.45618 12.5737C7.42664 12.5033 7.38376 12.4397 7.33006 12.3865L2.13016 7.02959L7.33006 1.67265C7.38377 1.61953 7.42664 1.55591 7.45618 1.48551C7.48571 1.4151 7.50132 1.33934 7.50208 1.26265C7.50283 1.18596 7.48873 1.10988 7.46059 1.03887C7.43245 0.967867 7.39084 0.903359 7.3382 0.849127C7.28556 0.794894 7.22294 0.752029 7.15401 0.72304C7.08509 0.694051 7.01124 0.67952 6.9368 0.680301C6.86236 0.681081 6.78881 0.697157 6.72047 0.727586C6.65214 0.758014 6.59038 0.802183 6.53882 0.857508L0.943294 6.62202C0.890282 6.67661 0.848454 6.74161 0.820294 6.81317C0.792134 6.88473 0.778215 6.96139 0.779363 7.0386Z" fill="#57B894"/>
</svg>
