<svg width="25" height="20" viewBox="0 0 25 20" fill="none" xmlns="http://www.w3.org/2000/svg">
<path d="M12.4507 0.847656C11.5917 0.847656 10.6936 1.52735 10.3295 2.46099L10.0307 3.23778H7.49118V2.75976C7.49118 2.4946 7.27831 2.28173 7.01315 2.28173H3.66698C3.40182 2.28173 3.18895 2.4946 3.18895 2.75976V3.37223C1.78289 3.78676 0.798828 5.08453 0.798828 6.58395V16.6225C0.798828 18.4674 2.30013 19.9687 4.145 19.9687H21.3539C23.1988 19.9687 24.7001 18.4674 24.7001 16.6225V6.58395C24.7001 4.73908 23.1988 3.23778 21.3539 3.23778H20.2485L19.9497 2.46099C19.5856 1.52735 18.6874 0.847656 17.8285 0.847656H12.4507ZM15.1396 5.14988C18.566 5.14988 21.3539 7.93774 21.3539 11.3642C21.3539 14.7907 18.566 17.5785 15.1396 17.5785C11.7131 17.5785 8.92525 14.7907 8.92525 11.3642C8.92525 7.93774 11.7131 5.14988 15.1396 5.14988ZM4.145 5.6279C4.67344 5.6279 5.10105 6.05551 5.10105 6.58395C5.10105 7.1124 4.67344 7.54 4.145 7.54C3.61656 7.54 3.18895 7.1124 3.18895 6.58395C3.18895 6.05551 3.61656 5.6279 4.145 5.6279ZM15.1396 6.10593C12.2397 6.10593 9.8813 8.46431 9.8813 11.3642C9.8813 14.2641 12.2397 16.6225 15.1396 16.6225C18.0395 16.6225 20.3979 14.2641 20.3979 11.3642C20.3979 8.46431 18.0395 6.10593 15.1396 6.10593Z" fill="#2D2D32"/>
</svg>
