<svg width="28" height="24" viewBox="0 0 28 24" fill="none" xmlns="http://www.w3.org/2000/svg">
<rect x="0.429504" y="0.429504" width="26.9334" height="22.9387" rx="3.86553" stroke="#9EA3AE" stroke-width="0.859007"/>
<path d="M8.63375 13.5628L8.63375 13.5628C8.47274 13.7132 8.35345 13.9015 8.28989 14.1101C8.28987 14.1102 8.28985 14.1102 8.28984 14.1103L7.34032 17.2161L7.34026 17.2163C7.30494 17.3322 7.3034 17.4552 7.33585 17.5719C7.36827 17.6885 7.43297 17.7932 7.52139 17.8757L7.52138 17.8757C7.60969 17.9582 7.71859 18.0159 7.8362 18.0445C7.95379 18.073 8.0772 18.0717 8.19412 18.0406L8.19429 18.0405L11.52 17.1535L11.5719 17.1397L11.5744 17.1374C11.7685 17.077 11.9476 16.9751 12.0958 16.8367L12.0958 16.8367L19.1799 10.2188C20.1417 9.32034 20.1417 7.84393 19.1799 6.94548C18.7014 6.49837 18.0732 6.27744 17.4492 6.27744C16.8251 6.27744 16.1969 6.49838 15.7184 6.94551L8.63375 13.5628ZM18.2071 7.89348L18.2299 7.91472C18.6209 8.30136 18.6135 8.89178 18.2078 9.27076L17.7336 9.71368L16.2378 8.31644L16.6906 7.89352L16.6906 7.89348C16.8999 7.69786 17.1734 7.59863 17.4492 7.59863C17.7248 7.59863 17.9977 7.69779 18.2071 7.89348ZM11.1332 15.8792L9.02448 16.442L9.61868 14.4988L15.2443 9.24447L16.7401 10.6417L11.1332 15.8792Z" fill="#9EA3AE" stroke="white" stroke-width="0.429504"/>
</svg>
