<svg width="33" height="32" viewBox="0 0 33 32" fill="none" xmlns="http://www.w3.org/2000/svg">
<path fill-rule="evenodd" clip-rule="evenodd" d="M15.2064 0.708984C19.0177 0.708984 22.1184 3.80971 22.1184 7.62096V9.07316C22.1184 9.71824 21.5949 10.2418 20.9498 10.2418C20.3047 10.2418 19.7812 9.71824 19.7812 9.07316V7.62096C19.7812 5.09675 17.7291 3.04622 15.2064 3.04622H7.61043C5.09089 3.04622 3.04036 5.09675 3.04036 7.62096V24.9617C3.04036 27.4843 5.09089 29.5349 7.61043 29.5349H15.2236C17.7353 29.5349 19.7812 27.4906 19.7812 24.9788V23.5095C19.7812 22.8644 20.3047 22.3409 20.9498 22.3409C21.5949 22.3409 22.1184 22.8644 22.1184 23.5095V24.9788C22.1184 28.7807 19.0239 31.8721 15.2236 31.8721H7.61043C3.8023 31.8721 0.703125 28.7729 0.703125 24.9617V7.62096C0.703125 3.80971 3.8023 0.708984 7.61043 0.708984H15.2064ZM27.7965 10.9211L32.3588 15.4632C32.3995 15.5036 32.4359 15.5455 32.4693 15.59L32.3588 15.4632C32.414 15.5176 32.4631 15.5771 32.5057 15.6405C32.5244 15.6692 32.5425 15.6989 32.5593 15.7295C32.5729 15.7533 32.5854 15.7782 32.597 15.8036C32.6068 15.8259 32.6163 15.8483 32.625 15.871C32.6368 15.9007 32.647 15.9311 32.6561 15.9619C32.6629 15.9862 32.6691 16.0105 32.6746 16.035C32.6816 16.0648 32.687 16.0947 32.6914 16.1249C32.6938 16.1445 32.6962 16.1651 32.698 16.1858C32.7016 16.2213 32.7031 16.2559 32.7031 16.2905L32.6952 16.3871L32.692 16.449C32.6916 16.4517 32.6913 16.4543 32.6909 16.457L32.7031 16.2905C32.7031 16.377 32.6935 16.4627 32.6749 16.546C32.6691 16.5706 32.6629 16.5949 32.6559 16.6188C32.647 16.65 32.6368 16.6804 32.6252 16.7104C32.6163 16.7328 32.6068 16.7552 32.5967 16.7772C32.5854 16.8028 32.5729 16.8277 32.5595 16.8522C32.5425 16.8822 32.5244 16.9119 32.5051 16.9407C32.4942 16.9578 32.4822 16.9746 32.4697 16.9912C32.4326 17.04 32.3922 17.0859 32.3484 17.1284L27.7965 21.6615C27.569 21.889 27.2698 22.0027 26.9722 22.0027C26.6731 22.0027 26.3723 21.889 26.1448 21.6584C25.6899 21.2003 25.6914 20.4617 26.148 20.0067L28.7032 17.4592H12.7723C12.1272 17.4592 11.6037 16.9356 11.6037 16.2905C11.6037 15.6455 12.1272 15.1219 12.7723 15.1219H28.7063L26.148 12.5759C25.6914 12.1209 25.6883 11.3824 26.1448 10.9243C26.5998 10.4662 27.3384 10.4662 27.7965 10.9211Z" fill="white"/>
</svg>
