<svg width="47" height="46" viewBox="0 0 47 46" fill="none" xmlns="http://www.w3.org/2000/svg">
<rect x="0.988281" y="0.503906" width="45.1749" height="45.1749" rx="6.44064" fill="#57B894" fill-opacity="0.2"/>
<path d="M20.2351 10.8398C18.4009 10.8398 16.8944 12.3452 16.8944 14.178V27.5307C16.8944 29.3635 18.4009 30.8689 20.2351 30.8689H29.9535C31.7878 30.8689 33.2942 29.3635 33.2942 27.5307V14.178C33.2942 12.3452 31.7878 10.8398 29.9535 10.8398H20.2351ZM20.2351 12.6607H29.9535C30.8028 12.6607 31.472 13.3294 31.472 14.178V27.5307C31.472 28.3793 30.8028 29.048 29.9535 29.048H20.2351C19.3858 29.048 18.7166 28.3793 18.7166 27.5307V14.178C18.7166 13.3294 19.3858 12.6607 20.2351 12.6607ZM15.6796 13.8745L14.9394 14.3677C14.2633 14.818 13.8574 15.5762 13.8574 16.3877V28.1376C13.8574 31.3222 16.4407 33.9036 19.6277 33.9036H27.7422C28.5549 33.9036 29.3136 33.498 29.7637 32.8225L30.2572 32.0827H19.6277C17.4472 32.0827 15.6796 30.3165 15.6796 28.1376V13.8745Z" fill="#57B894"/>
</svg>
