<svg width="30" height="37" viewBox="0 0 30 37" fill="none" xmlns="http://www.w3.org/2000/svg">
<path d="M20.5764 0.305497C20.1478 0.290501 19.7131 0.336387 19.2832 0.447127C18.137 0.742435 17.1929 1.46417 16.6198 2.44853L15.4063 4.58131C15.1366 5.04068 15.305 5.66462 15.777 5.92711L21.6095 9.20831C21.7781 9.30675 21.9467 9.33905 22.1152 9.33905C22.2164 9.33905 22.2834 9.33917 22.3845 9.30636C22.6542 9.24074 22.8568 9.07655 22.9916 8.84687L24.2387 6.71409C24.8118 5.72973 24.9807 4.58182 24.6773 3.46621C24.3738 2.35061 23.6323 1.43174 22.6209 0.873939C21.9888 0.525312 21.2909 0.330491 20.5764 0.305497ZM14.0907 7.67474C13.7641 7.69909 13.4507 7.87084 13.2821 8.15794L3.10122 25.3515C1.95499 27.2546 1.31471 29.3876 1.17986 31.5531L0.9099 35.786C0.876187 36.1469 1.07846 36.5075 1.41559 36.7044C1.58415 36.8028 1.75271 36.8357 1.92128 36.8357C2.12355 36.8357 2.32556 36.7701 2.49413 36.6717L6.13535 34.3422C7.98954 33.1281 9.57403 31.5202 10.6865 29.6171L20.9017 12.4235C21.1714 11.9641 21.0023 11.3408 20.5303 11.0783C20.0584 10.8158 19.418 10.9798 19.1483 11.4391L8.93375 28.6327C7.95609 30.2405 6.60719 31.6516 4.98899 32.7016L3.03405 33.948L3.16838 31.6845C3.26952 29.8142 3.84276 27.9765 4.82043 26.3359L15.0356 9.1423C15.3053 8.68293 15.1369 8.05964 14.6649 7.79714C14.4879 7.6987 14.2867 7.66012 14.0907 7.67474ZM10.3494 34.867C9.7763 34.867 9.33804 35.2936 9.33804 35.8514C9.33804 36.4092 9.7763 36.8357 10.3494 36.8357H23.8344C24.4076 36.8357 24.8458 36.4092 24.8458 35.8514C24.8458 35.2936 24.4076 34.867 23.8344 34.867H10.3494ZM28.8913 34.867C28.6231 34.867 28.3658 34.9707 28.1762 35.1553C27.9865 35.3399 27.88 35.5903 27.88 35.8514C27.88 36.1125 27.9865 36.3628 28.1762 36.5474C28.3658 36.732 28.6231 36.8357 28.8913 36.8357C29.1596 36.8357 29.4168 36.732 29.6065 36.5474C29.7962 36.3628 29.9027 36.1125 29.9027 35.8514C29.9027 35.5903 29.7962 35.3399 29.6065 35.1553C29.4168 34.9707 29.1596 34.867 28.8913 34.867Z" fill="#878787"/>
</svg>
