<svg width="35" height="31" viewBox="0 0 35 31" fill="none" xmlns="http://www.w3.org/2000/svg">
<path d="M7.40238 0.126953V6.88865H5.71585C2.93307 6.88865 0.65625 9.17072 0.65625 11.9599V23.7929H7.40238V30.5546H27.6408V23.7929H34.3869V11.9599C34.3869 9.17072 32.1101 6.88865 29.3273 6.88865H27.6408V0.126953H7.40238ZM10.7754 3.5078H24.2677V6.88865H10.7754V3.5078ZM5.71585 10.2695H29.3273C30.2583 10.2695 31.0138 11.0268 31.0138 11.9599V20.412H27.6408V17.0312H7.40238V20.412H4.02931V11.9599C4.02931 11.0268 4.78488 10.2695 5.71585 10.2695ZM27.6408 11.9599C27.1935 11.9599 26.7645 12.138 26.4482 12.455C26.1319 12.7721 25.9542 13.202 25.9542 13.6503C25.9542 14.0987 26.1319 14.5286 26.4482 14.8457C26.7645 15.1627 27.1935 15.3408 27.6408 15.3408C28.0881 15.3408 28.517 15.1627 28.8333 14.8457C29.1496 14.5286 29.3273 14.0987 29.3273 13.6503C29.3273 13.202 29.1496 12.7721 28.8333 12.455C28.517 12.138 28.0881 11.9599 27.6408 11.9599ZM10.7754 20.412H24.2677V27.1737H10.7754V20.412Z" fill="white"/>
</svg>
