<svg width="15" height="15" viewBox="0 0 15 15" fill="none" xmlns="http://www.w3.org/2000/svg">
<path d="M14.9195 13.9531L11.1673 10.2009C12.142 9.00887 12.6212 7.4878 12.5059 5.95233C12.3905 4.41686 11.6894 2.98447 10.5475 1.95144C9.40566 0.918411 7.91043 0.36378 6.37112 0.402268C4.8318 0.440755 3.36616 1.06942 2.27736 2.15822C1.18856 3.24702 0.559896 4.71266 0.521408 6.25198C0.482921 7.79129 1.03755 9.28652 2.07058 10.4284C3.10361 11.5702 4.536 12.2713 6.07147 12.3867C7.60694 12.5021 9.12801 12.0229 10.3201 11.0482L14.0723 14.8004L14.9195 13.9531ZM6.53072 11.2052C5.58263 11.2052 4.65584 10.924 3.86753 10.3973C3.07923 9.87059 2.46482 9.12193 2.102 8.24601C1.73919 7.37009 1.64426 6.40626 1.82922 5.47639C2.01418 4.54652 2.47073 3.69238 3.14113 3.02199C3.81153 2.35159 4.66566 1.89504 5.59553 1.71008C6.5254 1.52512 7.48924 1.62005 8.36515 1.98286C9.24107 2.34568 9.98973 2.96009 10.5165 3.74839C11.0432 4.5367 11.3243 5.46349 11.3243 6.41158C11.3229 7.68248 10.8174 8.90093 9.91873 9.79959C9.02007 10.6983 7.80162 11.2038 6.53072 11.2052Z" fill="#E2E2EA"/>
</svg>
