<svg width="29" height="54" viewBox="0 0 29 54" fill="none" xmlns="http://www.w3.org/2000/svg">
<path d="M0.375 7.18044C0.375 3.67647 3.21554 0.835938 6.71951 0.835938H28.9253V53.1782H6.71952C3.21554 53.1782 0.375 50.3376 0.375 46.8337V7.18044Z" fill="#383738"/>
<path d="M9.65672 26.8887L9.65672 26.8889C9.66044 27.1221 9.75478 27.3448 9.91977 27.5097C9.91978 27.5097 9.91979 27.5097 9.91981 27.5097L16.519 34.1083C16.6014 34.1936 16.6999 34.2617 16.8087 34.3088C16.9184 34.3562 17.0364 34.3812 17.1559 34.3824C17.2753 34.3836 17.3939 34.361 17.5045 34.3158C17.6151 34.2707 17.7156 34.2039 17.8 34.1194C17.8845 34.035 17.9513 33.9345 17.9965 33.8239C18.0416 33.7133 18.0643 33.5948 18.063 33.4753C18.0618 33.3559 18.0368 33.2378 17.9894 33.1282C17.9423 33.0193 17.8742 32.9208 17.7889 32.8385L11.8246 26.8748L17.7888 20.9111C17.8742 20.8287 17.9423 20.7303 17.9894 20.6214C18.0368 20.5117 18.0618 20.3937 18.063 20.2742C18.0643 20.1548 18.0416 20.0363 17.9965 19.9257C17.9513 19.8151 17.8845 19.7146 17.8 19.6301C17.7156 19.5456 17.6151 19.4789 17.5045 19.4337C17.3939 19.3886 17.2753 19.3659 17.1559 19.3671C17.0364 19.3684 16.9184 19.3934 16.8087 19.4408C16.6999 19.4879 16.6014 19.556 16.519 19.6413L9.91981 26.2398C9.91979 26.2399 9.91978 26.2399 9.91977 26.2399C9.83471 26.3249 9.7676 26.4261 9.72241 26.5376C9.67721 26.6491 9.65488 26.7685 9.65672 26.8887Z" fill="white" stroke="white" stroke-width="0.475838"/>
</svg>
