<svg width="48" height="41" viewBox="0 0 48 41" fill="none" xmlns="http://www.w3.org/2000/svg">
<rect x="0.735804" y="0.735804" width="46.1409" height="39.2974" rx="6.62224" stroke="#9EA3AE" stroke-width="1.47161"/>
<path d="M21.2385 9.75586L20.1226 10.7751H14.543V12.8135H15.6589V28.1019C15.6589 28.6342 15.8724 29.1768 16.2931 29.5611C16.7139 29.9454 17.308 30.1404 17.8907 30.1404H29.0499C29.6327 30.1404 30.2268 29.9454 30.6475 29.5611C31.0682 29.1768 31.2818 28.6342 31.2818 28.1019V12.8135H32.3977V10.7751H26.8181L25.7022 9.75586H21.2385ZM17.8907 12.8135H29.0499V28.1019H17.8907V12.8135ZM20.1226 14.852V26.0635H22.3544V14.852H20.1226ZM24.5862 14.852V26.0635H26.8181V14.852H24.5862Z" fill="#9EA3AE"/>
</svg>
