<svg width="49" height="41" viewBox="0 0 49 41" fill="none" xmlns="http://www.w3.org/2000/svg">
<rect x="1.68307" y="0.765101" width="46.1409" height="39.2974" rx="6.62224" stroke="#9EA3AE" stroke-width="1.47161"/>
<path d="M15.7353 23.2614L15.7353 23.2614C15.4594 23.5191 15.2551 23.8417 15.1462 24.1992C15.1462 24.1992 15.1461 24.1993 15.1461 24.1994L13.5194 29.5201L13.5193 29.5204C13.4588 29.719 13.4562 29.9296 13.5118 30.1296C13.5673 30.3294 13.6782 30.5087 13.8296 30.6502L13.8296 30.6502C13.9809 30.7915 14.1675 30.8904 14.369 30.9392C14.5704 30.9881 14.7818 30.9858 14.9821 30.9326L14.9824 30.9325L20.6799 29.4129L20.7689 29.3892L20.7731 29.3852C21.1057 29.2817 21.4124 29.1073 21.6663 28.8701L21.6663 28.8701L33.8024 17.5327C35.4502 15.9935 35.4502 13.4642 33.8025 11.9251C32.9828 11.159 31.9066 10.7805 30.8375 10.7805C29.7683 10.7805 28.6922 11.159 27.8725 11.925C27.8725 11.925 27.8725 11.925 27.8724 11.9251L15.7353 23.2614ZM32.1359 13.5491L32.1748 13.5854C32.8447 14.2478 32.8321 15.2593 32.1371 15.9085L31.3247 16.6673L28.7622 14.2737L29.5378 13.5491L29.5379 13.5491C29.8965 13.2139 30.365 13.0439 30.8375 13.0439C31.3097 13.0439 31.7772 13.2138 32.1359 13.5491ZM20.0172 27.2297L16.4047 28.1939L17.4226 24.865L27.0602 15.8635L29.6227 18.2572L20.0172 27.2297Z" fill="#9EA3AE" stroke="#9EA3AE" stroke-width="0.735804"/>
</svg>
