<svg width="33" height="25" viewBox="0 0 33 25" fill="none" xmlns="http://www.w3.org/2000/svg">
<path d="M30.538 0.000803236C30.0489 0.0151052 29.5847 0.215708 29.2438 0.560112L9.86742 19.5766L3.66847 13.4928C3.495 13.3155 3.28724 13.1739 3.05733 13.0764C2.82743 12.9789 2.58001 12.9273 2.32956 12.9248C2.07911 12.9223 1.83067 12.9689 1.5988 13.0618C1.36692 13.1547 1.15626 13.2921 0.979156 13.4659C0.802055 13.6397 0.66207 13.8465 0.567402 14.0741C0.472733 14.3016 0.425284 14.5455 0.427832 14.7913C0.43038 15.037 0.482874 15.2799 0.582241 15.5055C0.681607 15.7311 0.825849 15.9351 1.00652 16.1053L8.53645 23.4954C8.8895 23.8417 9.36824 24.0363 9.86742 24.0363C10.3666 24.0363 10.8454 23.8417 11.1984 23.4954L31.9057 3.17263C32.1777 2.91312 32.3635 2.57901 32.4388 2.21409C32.514 1.84917 32.4751 1.47045 32.3273 1.12758C32.1794 0.784705 31.9295 0.493665 31.6102 0.292601C31.2909 0.0915369 30.9172 -0.0101717 30.538 0.000803236Z" fill="white"/>
</svg>
