<svg width="31" height="35" viewBox="0 0 31 35" fill="none" xmlns="http://www.w3.org/2000/svg">
<path d="M11.1411 0.326172V3.02214H19.1204V0.326172H11.1411ZM26.7258 3.40127L24.814 5.339L25.853 6.39211L24.4816 7.82435C21.9465 5.68126 18.6789 4.37013 15.1308 4.37013C7.0683 4.37013 0.501953 11.0258 0.501953 19.198C0.501953 27.3702 7.0683 34.0258 15.1308 34.0258C23.1932 34.0258 29.7596 27.3702 29.7596 19.198C29.7596 15.6016 28.4661 12.2896 26.3517 9.71995L27.7647 8.32984L28.8037 9.38296L30.7154 7.44523L26.7258 3.40127ZM15.1308 7.0661C21.7543 7.0661 27.0998 12.4844 27.0998 19.198C27.0998 25.9116 21.7543 31.3299 15.1308 31.3299C8.50728 31.3299 3.16174 25.9116 3.16174 19.198C3.16174 12.4844 8.50728 7.0661 15.1308 7.0661ZM9.43717 11.4892L7.52545 13.4269L12.5541 18.524C12.497 18.7399 12.471 18.9663 12.471 19.198C12.471 20.6881 13.6606 21.894 15.1308 21.894C16.6009 21.894 17.7906 20.6881 17.7906 19.198C17.7906 17.7078 16.6009 16.502 15.1308 16.502C14.9022 16.502 14.6788 16.5283 14.4658 16.5863L9.43717 11.4892Z" fill="#AFAFAF"/>
</svg>
