<svg width="49" height="42" viewBox="0 0 49 42" fill="none" xmlns="http://www.w3.org/2000/svg">
<rect x="1.29244" y="1.02096" width="46.1409" height="39.2974" rx="6.62224" stroke="#9EA3AE" stroke-width="1.47161"/>
<path d="M15.3447 23.5173L15.3447 23.5173C15.0688 23.7749 14.8644 24.0976 14.7556 24.455C14.7555 24.4551 14.7555 24.4552 14.7555 24.4553L13.1288 29.7759L13.1287 29.7763C13.0682 29.9748 13.0656 30.1855 13.1212 30.3855C13.1767 30.5853 13.2875 30.7646 13.439 30.906L13.439 30.906C13.5903 31.0473 13.7768 31.1462 13.9783 31.1951C14.1798 31.244 14.3912 31.2417 14.5915 31.1884L14.5918 31.1884L20.2893 29.6688L20.3782 29.645L20.3825 29.6411C20.715 29.5376 21.0217 29.3631 21.2756 29.126L21.2756 29.1259L33.4118 17.7885C35.0595 16.2494 35.0595 13.7201 33.4118 12.1809C32.5922 11.4149 31.516 11.0364 30.4468 11.0364C29.3777 11.0364 28.3015 11.4149 27.4819 12.1808C27.4819 12.1809 27.4818 12.1809 27.4818 12.1809L15.3447 23.5173ZM31.7453 13.8049L31.7842 13.8413C32.4541 14.5037 32.4415 15.5152 31.7464 16.1644L30.9341 16.9232L28.3716 14.5295L29.1472 13.805L29.1473 13.8049C29.5059 13.4698 29.9744 13.2998 30.4468 13.2998C30.9191 13.2998 31.3866 13.4697 31.7453 13.8049ZM19.6266 27.4856L16.014 28.4497L17.032 25.1209L26.6695 16.1194L29.2321 18.5131L19.6266 27.4856Z" fill="#9EA3AE" stroke="#9EA3AE" stroke-width="0.735804"/>
</svg>
