<svg width="49" height="42" viewBox="0 0 49 42" fill="none" xmlns="http://www.w3.org/2000/svg">
<rect x="1.49557" y="1.55612" width="46.1409" height="39.2974" rx="6.62224" stroke="#9EA3AE" stroke-width="1.47161"/>
<path d="M24.5664 13.8027C32.4314 13.8027 35.3809 21.6678 35.3809 21.6678C35.3809 21.6678 32.4314 29.5329 24.5664 29.5329C16.7013 29.5329 13.7518 21.6678 13.7518 21.6678C13.7518 21.6678 16.7013 13.8027 24.5664 13.8027ZM24.5664 16.7521C21.8519 16.7521 19.6507 18.9534 19.6507 21.6678C19.6507 24.3823 21.8519 26.5835 24.5664 26.5835C27.2808 26.5835 29.482 24.3823 29.482 21.6678C29.482 18.9534 27.2808 16.7521 24.5664 16.7521ZM24.5664 18.7184C25.3486 18.7184 26.0988 19.0292 26.6519 19.5823C27.205 20.1354 27.5158 20.8856 27.5158 21.6678C27.5158 22.4501 27.205 23.2003 26.6519 23.7534C26.0988 24.3065 25.3486 24.6172 24.5664 24.6172C23.7841 24.6172 23.0339 24.3065 22.4808 23.7534C21.9277 23.2003 21.6169 22.4501 21.6169 21.6678C21.6169 20.8856 21.9277 20.1354 22.4808 19.5823C23.0339 19.0292 23.7841 18.7184 24.5664 18.7184Z" fill="#9EA3AE"/>
</svg>
