<svg width="20" height="15" viewBox="0 0 20 15" fill="none" xmlns="http://www.w3.org/2000/svg">
<path d="M12.483 7.66848L13.6189 6.53254C13.7016 6.84176 13.75 7.16504 13.75 7.50004C13.75 9.56785 12.0678 11.25 10 11.25C9.665 11.25 9.34172 11.2016 9.0325 11.1189L10.1684 9.98301C11.4105 9.89832 12.3983 8.91051 12.483 7.66848ZM19.9212 7.19644C19.8444 7.05816 18.7541 5.1477 16.6228 3.52863L15.7133 4.43816C17.2673 5.58082 18.252 6.91348 18.6397 7.50098C17.8989 8.62894 14.993 12.5 10 12.5C9.25125 12.5 8.555 12.4043 7.89984 12.2514L6.87281 13.2785C7.81703 13.568 8.85484 13.75 10 13.75C16.5427 13.75 19.7864 8.04629 19.9212 7.80363C20.0263 7.61473 20.0263 7.38535 19.9212 7.19644ZM17.3169 1.06691L3.56687 14.8169C3.44484 14.9389 3.28484 15 3.125 15C2.96516 15 2.80516 14.9389 2.68313 14.8169C2.43891 14.5727 2.43891 14.1772 2.68313 13.9332L4.4325 12.1838C1.60437 10.4764 0.167344 7.96316 0.07875 7.80363C-0.02625 7.61473 -0.02625 7.38519 0.07875 7.19629C0.213594 6.95379 3.45734 1.25004 10 1.25004C11.6917 1.25004 13.157 1.63598 14.4097 2.2066L16.4331 0.183164C16.6773 -0.0610547 17.0728 -0.0610547 17.3169 0.183164C17.5609 0.427383 17.5611 0.822851 17.3169 1.06691ZM5.36453 11.2518L6.94687 9.66941C6.50984 9.05629 6.25 8.30863 6.25 7.50004C6.25 5.43223 7.93219 3.75004 10 3.75004C10.8086 3.75004 11.5563 4.00988 12.1694 4.44676L13.4489 3.16723C12.438 2.76238 11.2892 2.50004 10 2.50004C5.00703 2.50004 2.10109 6.37113 1.36047 7.4991C1.83078 8.21191 3.18266 10.0163 5.36453 11.2518ZM7.85422 8.76191L11.2619 5.35426C10.8902 5.13473 10.4622 5.00004 10 5.00004C8.62156 5.00004 7.5 6.1216 7.5 7.50004C7.5 7.96223 7.63469 8.39019 7.85422 8.76191Z" fill="#AFAFAF"/>
</svg>
