<svg width="24" height="24" viewBox="0 0 24 24" fill="none" xmlns="http://www.w3.org/2000/svg">
<path d="M21.8729 11.9846C21.6942 11.7402 17.4371 6 11.9999 6C6.56275 6 2.30539 11.7402 2.12691 11.9844C1.9577 12.2163 1.9577 12.5308 2.12691 12.7626C2.30539 13.0071 6.56275 18.7473 11.9999 18.7473C17.4371 18.7473 21.6942 13.007 21.8729 12.7628C22.0424 12.531 22.0424 12.2163 21.8729 11.9846ZM11.9999 17.4286C7.99486 17.4286 4.52606 13.6187 3.49922 12.3732C4.52473 11.1266 7.98627 7.31868 11.9999 7.31868C16.0048 7.31868 19.4733 11.1279 20.5006 12.3741C19.4751 13.6206 16.0136 17.4286 11.9999 17.4286Z" fill="#AFAFAF"/>
<path d="M11.999 8.41797C9.8177 8.41797 8.04297 10.1927 8.04297 12.374C8.04297 14.5554 9.8177 16.3301 11.999 16.3301C14.1804 16.3301 15.9551 14.5554 15.9551 12.374C15.9551 10.1927 14.1804 8.41797 11.999 8.41797ZM11.999 15.0114C10.5447 15.0114 9.36168 13.8283 9.36168 12.374C9.36168 10.9198 10.5448 9.73668 11.999 9.73668C13.4533 9.73668 14.6364 10.9198 14.6364 12.374C14.6364 13.8283 13.4533 15.0114 11.999 15.0114Z" fill="#AFAFAF"/>
</svg>
