<svg width="68" height="74" viewBox="0 0 68 74" fill="none" xmlns="http://www.w3.org/2000/svg">
<g filter="url(#filter0_dd_206_15926)">
<path fill-rule="evenodd" clip-rule="evenodd" d="M34 62C49.464 62 62 49.464 62 34C62 18.536 49.464 6 34 6C18.536 6 6 18.536 6 34C6 49.464 18.536 62 34 62Z" fill="#57B993"/>
<path d="M61.75 34C61.75 49.3259 49.3259 61.75 34 61.75C18.6741 61.75 6.25 49.3259 6.25 34C6.25 18.6741 18.6741 6.25 34 6.25C49.3259 6.25 61.75 18.6741 61.75 34Z" stroke="url(#paint0_linear_206_15926)" stroke-width="0.5"/>
<path d="M61.75 34C61.75 49.3259 49.3259 61.75 34 61.75C18.6741 61.75 6.25 49.3259 6.25 34C6.25 18.6741 18.6741 6.25 34 6.25C49.3259 6.25 61.75 18.6741 61.75 34Z" stroke="url(#paint1_linear_206_15926)" stroke-width="0.5"/>
</g>
<path fill-rule="evenodd" clip-rule="evenodd" d="M33 27V33H27V35H33V41H35V35H41V33H35V27H33Z" fill="white"/>
<defs>
<filter id="filter0_dd_206_15926" x="0" y="0" width="68" height="74" filterUnits="userSpaceOnUse" color-interpolation-filters="sRGB">
<feFlood flood-opacity="0" result="BackgroundImageFix"/>
<feColorMatrix in="SourceAlpha" type="matrix" values="0 0 0 0 0 0 0 0 0 0 0 0 0 0 0 0 0 0 127 0" result="hardAlpha"/>
<feOffset dy="6"/>
<feGaussianBlur stdDeviation="3"/>
<feColorMatrix type="matrix" values="0 0 0 0 0 0 0 0 0 0 0 0 0 0 0 0 0 0 0.24 0"/>
<feBlend mode="normal" in2="BackgroundImageFix" result="effect1_dropShadow_206_15926"/>
<feColorMatrix in="SourceAlpha" type="matrix" values="0 0 0 0 0 0 0 0 0 0 0 0 0 0 0 0 0 0 127 0" result="hardAlpha"/>
<feOffset/>
<feGaussianBlur stdDeviation="3"/>
<feColorMatrix type="matrix" values="0 0 0 0 0 0 0 0 0 0 0 0 0 0 0 0 0 0 0.12 0"/>
<feBlend mode="normal" in2="effect1_dropShadow_206_15926" result="effect2_dropShadow_206_15926"/>
<feBlend mode="normal" in="SourceGraphic" in2="effect2_dropShadow_206_15926" result="shape"/>
</filter>
<linearGradient id="paint0_linear_206_15926" x1="6.27399" y1="6" x2="6.27399" y2="61.452" gradientUnits="userSpaceOnUse">
<stop stop-opacity="0.01"/>
<stop offset="0.8" stop-opacity="0.02"/>
<stop offset="1" stop-opacity="0.04"/>
</linearGradient>
<linearGradient id="paint1_linear_206_15926" x1="6" y1="6" x2="6" y2="62" gradientUnits="userSpaceOnUse">
<stop stop-color="white" stop-opacity="0.12"/>
<stop offset="0.2" stop-color="white" stop-opacity="0.06"/>
<stop offset="1" stop-color="white" stop-opacity="0.01"/>
</linearGradient>
</defs>
</svg>
