<svg width="15" height="15" viewBox="0 0 15 15" fill="none" xmlns="http://www.w3.org/2000/svg">
<path d="M7.4999 6.20831e-06C9.23508 -1.73232e-05 10.9166 0.601615 12.2579 1.70239C13.5992 2.80317 14.5174 4.33498 14.8559 6.03681C15.1944 7.73865 14.9323 9.50522 14.1144 11.0355C13.2964 12.5658 11.9731 13.7651 10.37 14.4291C8.76693 15.0931 6.98319 15.1807 5.32274 14.677C3.66228 14.1733 2.22786 13.1094 1.26388 11.6666C0.299907 10.2238 -0.133982 8.49145 0.0361492 6.76463C0.20628 5.03782 0.969904 3.42341 2.19691 2.1965C2.89255 1.49909 3.71916 0.946027 4.62922 0.569079C5.53928 0.192132 6.51486 -0.00126316 7.4999 6.20831e-06V6.20831e-06ZM9.78489 4.5615C9.82244 4.52264 9.86735 4.49164 9.917 4.47032C9.96666 4.449 10.0201 4.43778 10.0741 4.43732C10.1281 4.43686 10.1817 4.44716 10.2317 4.46762C10.2817 4.48809 10.3272 4.5183 10.3654 4.55651C10.4036 4.59472 10.4338 4.64016 10.4543 4.69017C10.4747 4.74018 10.485 4.79377 10.4846 4.8478C10.4841 4.90183 10.4729 4.95524 10.4516 5.00489C10.4302 5.05454 10.3993 5.09945 10.3604 5.137L7.9969 7.49999L10.3604 9.86349C10.3993 9.90104 10.4302 9.94595 10.4516 9.9956C10.4729 10.0453 10.4841 10.0987 10.4846 10.1527C10.485 10.2067 10.4747 10.2603 10.4543 10.3103C10.4338 10.3603 10.4036 10.4058 10.3654 10.444C10.3272 10.4822 10.2817 10.5124 10.2317 10.5329C10.1817 10.5533 10.1281 10.5636 10.0741 10.5632C10.0201 10.5627 9.96666 10.5515 9.917 10.5302C9.86735 10.5088 9.82244 10.4778 9.78489 10.439L7.4214 8.07549L5.0579 10.439C4.98115 10.5132 4.87833 10.5542 4.7716 10.5533C4.66487 10.5524 4.56277 10.5096 4.4873 10.4341C4.41183 10.3586 4.36903 10.2565 4.36811 10.1498C4.36719 10.0431 4.40824 9.94025 4.4824 9.86349L6.8464 7.49999L4.4829 5.137C4.40874 5.06024 4.36769 4.95742 4.36861 4.8507C4.36953 4.74397 4.41233 4.64187 4.4878 4.5664C4.56327 4.49093 4.66537 4.44812 4.7721 4.44721C4.87883 4.44629 4.98165 4.48734 5.0584 4.5615L7.4219 6.925L9.78489 4.5615ZM12.2279 2.772C11.1341 1.67803 9.69487 0.99716 8.15536 0.845398C6.61586 0.693636 5.07136 1.08037 3.78504 1.93972C2.49871 2.79906 1.55015 4.07784 1.10098 5.55815C0.651802 7.03847 0.729807 8.62874 1.3217 10.058C1.9136 11.4872 2.98276 12.667 4.34701 13.3964C5.71126 14.1257 7.28619 14.3594 8.80345 14.0577C10.3207 13.756 11.6864 12.9376 12.6679 11.7418C13.6493 10.546 14.1858 9.04696 14.1859 7.49999C14.1871 6.62178 14.0147 5.75199 13.6787 4.94061C13.3427 4.12922 12.8496 3.39224 12.2279 2.772V2.772Z" fill="#8B8B8B"/>
</svg>
