<svg width="137" height="37" viewBox="0 0 137 37" fill="none" xmlns="http://www.w3.org/2000/svg">
<path d="M95.9327 36.75H3.83152C2.82263 36.75 1.89207 36.4999 1.20787 36.0602C0.559454 35.6436 0.25 35.1333 0.25 34.6407V2.36048C0.25 1.86791 0.559453 1.35761 1.20787 0.940967C1.89207 0.501343 2.82263 0.251207 3.83152 0.251207H131.936C132.033 0.251207 132.135 0.250951 132.242 0.250684L132.258 0.250644L132.259 0.250643C132.382 0.250329 132.511 0.25 132.645 0.25C133.552 0.25 134.581 0.266202 135.43 0.381863C136.035 0.464331 136.375 0.574606 136.561 0.666925C136.692 0.731405 136.737 0.781749 136.75 0.799549C136.749 0.820956 136.74 0.878569 136.679 0.982575C136.575 1.16194 136.331 1.45318 135.783 1.87723C129.521 5.24488 125.56 8.95984 122.834 12.6547C120.11 16.3468 118.627 20.0103 117.315 23.2505L117.311 23.2591C115.719 27.1913 114.369 30.5129 111.446 32.8966C109.903 34.1549 108.008 35.0761 105.642 35.7076C103.021 36.4073 99.8468 36.75 95.9327 36.75ZM136.75 0.793437C136.749 0.791045 136.749 0.7898 136.749 0.789774C136.749 0.789748 136.75 0.790937 136.75 0.793437Z" fill="white" stroke="#D9D9D9" stroke-width="0.5"/>
</svg>
